# This file uses centimeters as units for non-parametric coordinates.

g default
v -1.500000 -0.250000 1.500000
v 1.500000 -0.250000 1.500000
v -1.500000 0.000000 1.500000
v 1.500000 0.000000 1.500000
v -1.500000 0.000000 -1.500000
v 1.500000 0.000000 -1.500000
v -1.500000 -0.250000 -1.500000
v 1.500000 -0.250000 -1.500000
vt 0.487304 0.923852
vt 0.487304 0.000000
vt 0.614441 0.000000
vt 0.614441 0.923852
vt 0.615823 0.923852
vt 0.615823 0.000000
vt 0.742961 0.000000
vt 0.742961 0.923852
vt 0.000000 0.484678
vt 0.000000 0.000000
vt 0.484678 0.000000
vt 0.484678 0.484678
vt 0.000000 0.484678
vt 0.484678 0.484678
vt 0.484678 0.969356
vt 0.000000 0.969356
vt 0.872862 0.923852
vt 0.872862 0.000000
vt 1.000000 0.000000
vt 1.000000 0.923852
vt 0.744343 0.923851
vt 0.744343 0.000000
vt 0.871480 0.000000
vt 0.871480 0.923851
vn 0.000000 0.000000 1.000000
vn 0.000000 0.000000 1.000000
vn 0.000000 0.000000 1.000000
vn 0.000000 0.000000 1.000000
vn 0.000000 1.000000 0.000000
vn 0.000000 1.000000 0.000000
vn 0.000000 1.000000 0.000000
vn 0.000000 1.000000 0.000000
vn 0.000000 0.000000 -1.000000
vn 0.000000 0.000000 -1.000000
vn 0.000000 0.000000 -1.000000
vn 0.000000 0.000000 -1.000000
vn 0.000000 -1.000000 0.000000
vn 0.000000 -1.000000 0.000000
vn 0.000000 -1.000000 0.000000
vn 0.000000 -1.000000 0.000000
vn 1.000000 0.000000 0.000000
vn 1.000000 0.000000 0.000000
vn 1.000000 0.000000 0.000000
vn 1.000000 0.000000 0.000000
vn -1.000000 0.000000 0.000000
vn -1.000000 0.000000 0.000000
vn -1.000000 0.000000 0.000000
vn -1.000000 0.000000 0.000000
s off
g pCube40
f 1/17/1 2/18/2 4/19/3 3/20/4
f 3/9/5 4/10/6 6/11/7 5/12/8
f 5/21/9 6/22/10 8/23/11 7/24/12
f 7/13/13 8/14/14 2/15/15 1/16/16
f 2/1/17 8/2/18 6/3/19 4/4/20
f 7/5/21 1/6/22 3/7/23 5/8/24
