# This file uses centimeters as units for non-parametric coordinates.

g default
v -1.000000 0.113700 0.000000
v 0.000000 0.113700 0.000000
v -1.000000 2.250000 0.000000
v 0.000000 2.250000 0.000000
v -1.000000 2.250000 -0.100000
v 0.000000 2.250000 -0.100000
v -1.000000 0.113700 -0.100000
v 0.000000 0.113700 -0.100000
v -0.750000 1.445118 0.000000
v -0.250000 1.445118 0.000000
v -0.250000 1.936918 0.000000
v -0.750000 1.936918 0.000000
v -0.750000 1.936918 -0.100000
v -0.250000 1.936918 -0.100000
v -0.250000 1.445118 -0.100000
v -0.750000 1.445118 -0.100000
v -0.750000 1.445118 -0.030000
v -0.250000 1.445118 -0.030000
v -0.250000 1.936918 -0.030000
v -0.750000 1.936918 -0.030000
v -0.750000 1.936918 -0.070000
v -0.250000 1.936918 -0.070000
v -0.250000 1.445118 -0.070000
v -0.750000 1.445118 -0.070000
v -1.000000 0.000000 -0.100000
v 0.000000 0.000000 -0.100000
v 0.000000 0.000000 0.000000
v -1.000000 0.000000 0.000000
vt 0.396856 0.659879
vt 0.713690 0.659879
vt 0.713690 0.679172
vt 0.396856 0.679172
vt 0.250771 0.000000
vt 0.498459 0.000000
vt 0.498459 0.507783
vt 0.250771 0.507783
vt 0.396855 0.639020
vt 0.713690 0.639020
vt 0.713690 0.658313
vt 0.396855 0.658313
vt 0.501541 0.000000
vt 0.749229 0.000000
vt 0.749229 0.507783
vt 0.501541 0.507783
vt 0.720553 0.716202
vt 0.720553 0.743017
vt 0.399047 0.743017
vt 0.399047 0.716202
vt 0.720553 0.689554
vt 0.720553 0.716369
vt 0.399047 0.716369
vt 0.399047 0.689554
vt 0.752312 0.025660
vt 1.000000 0.025660
vt 0.938078 0.326137
vt 0.814234 0.326137
vt 1.000000 0.507783
vt 0.938078 0.437127
vt 0.752312 0.507783
vt 0.814234 0.437127
vt 0.247688 0.507784
vt 0.000000 0.507784
vt 0.061922 0.437127
vt 0.185766 0.437127
vt 0.000000 0.025660
vt 0.061922 0.326136
vt 0.247688 0.025660
vt 0.185766 0.326136
vt 0.396855 0.583397
vt 0.713690 0.583397
vt 0.713690 0.609875
vt 0.396855 0.609875
vt 0.329232 0.524042
vt 0.348524 0.524042
vt 0.348524 0.714142
vt 0.329232 0.714142
vt 0.713690 0.637687
vt 0.396855 0.637687
vt 0.396856 0.611208
vt 0.713690 0.611208
vt 0.369383 0.714142
vt 0.350091 0.714142
vt 0.350091 0.524042
vt 0.369383 0.524042
vt 0.396855 0.555585
vt 0.713690 0.555585
vt 0.713690 0.582064
vt 0.396855 0.582064
vt 0.306806 0.714143
vt 0.287514 0.714143
vt 0.287514 0.524042
vt 0.306806 0.524042
vt 0.713690 0.554252
vt 0.396856 0.554252
vt 0.396856 0.527773
vt 0.713690 0.527773
vt 0.308373 0.524042
vt 0.327665 0.524042
vt 0.327665 0.714143
vt 0.308373 0.714143
vt 0.000000 0.000000
vt 0.247688 0.000000
vt 0.737664 0.716202
vt 0.737664 0.743017
vt 0.752312 0.000000
vt 1.000000 0.000000
vt 0.737664 0.689554
vt 0.737664 0.716369
vn 0.000000 0.000000 1.000000
vn 0.000000 0.000000 1.000000
vn 0.000000 0.000000 1.000000
vn 0.000000 0.000000 1.000000
vn 0.000000 1.000000 0.000000
vn 0.000000 1.000000 0.000000
vn 0.000000 1.000000 0.000000
vn 0.000000 1.000000 0.000000
vn 0.000000 0.000000 -1.000000
vn 0.000000 0.000000 -1.000000
vn 0.000000 0.000000 -1.000000
vn 0.000000 0.000000 -1.000000
vn 0.000000 -1.000000 0.000000
vn 0.000000 -1.000000 0.000000
vn 0.000000 -1.000000 0.000000
vn 0.000000 -1.000000 0.000000
vn 1.000000 0.000000 0.000000
vn 1.000000 0.000000 0.000000
vn 1.000000 0.000000 0.000000
vn 1.000000 0.000000 0.000000
vn -1.000000 0.000000 0.000000
vn -1.000000 0.000000 0.000000
vn -1.000000 0.000000 0.000000
vn -1.000000 0.000000 0.000000
vn 0.000000 0.000000 1.000000
vn 0.000000 0.000000 1.000000
vn 0.000000 0.000000 1.000000
vn 0.000000 0.000000 1.000000
vn 0.000000 0.000000 1.000000
vn 0.000000 0.000000 1.000000
vn 0.000000 0.000000 1.000000
vn 0.000000 0.000000 1.000000
vn 0.000000 0.000000 1.000000
vn 0.000000 0.000000 1.000000
vn 0.000000 0.000000 1.000000
vn 0.000000 0.000000 1.000000
vn 0.000000 0.000000 1.000000
vn 0.000000 0.000000 1.000000
vn 0.000000 0.000000 1.000000
vn 0.000000 0.000000 1.000000
vn 0.000000 0.000000 -1.000000
vn 0.000000 0.000000 -1.000000
vn 0.000000 0.000000 -1.000000
vn 0.000000 0.000000 -1.000000
vn -0.000000 0.000000 -1.000000
vn -0.000000 0.000000 -1.000000
vn -0.000000 0.000000 -1.000000
vn -0.000000 0.000000 -1.000000
vn 0.000000 0.000000 -1.000000
vn 0.000000 0.000000 -1.000000
vn 0.000000 0.000000 -1.000000
vn 0.000000 0.000000 -1.000000
vn 0.000000 0.000000 -1.000000
vn 0.000000 0.000000 -1.000000
vn 0.000000 0.000000 -1.000000
vn 0.000000 0.000000 -1.000000
vn 0.000000 1.000000 0.000000
vn 0.000000 1.000000 0.000000
vn 0.000000 1.000000 0.000000
vn 0.000000 1.000000 0.000000
vn -1.000000 0.000000 0.000000
vn -1.000000 0.000000 0.000000
vn -1.000000 0.000000 0.000000
vn -1.000000 0.000000 0.000000
vn 0.000000 -1.000000 0.000000
vn 0.000000 -1.000000 0.000000
vn 0.000000 -1.000000 0.000000
vn 0.000000 -1.000000 0.000000
vn 1.000000 0.000000 0.000000
vn 1.000000 0.000000 0.000000
vn 1.000000 0.000000 0.000000
vn 1.000000 0.000000 0.000000
vn 0.000000 -1.000000 0.000000
vn 0.000000 -1.000000 0.000000
vn 0.000000 -1.000000 0.000000
vn 0.000000 -1.000000 0.000000
vn -1.000000 0.000000 0.000000
vn -1.000000 0.000000 0.000000
vn -1.000000 0.000000 0.000000
vn -1.000000 0.000000 0.000000
vn 0.000000 1.000000 0.000000
vn 0.000000 1.000000 0.000000
vn 0.000000 1.000000 0.000000
vn 0.000000 1.000000 0.000000
vn 1.000000 0.000000 0.000000
vn 1.000000 0.000000 0.000000
vn 1.000000 0.000000 0.000000
vn 1.000000 0.000000 0.000000
vn 0.000000 0.000000 -1.000000
vn 0.000000 0.000000 -1.000000
vn 0.000000 0.000000 -1.000000
vn 0.000000 0.000000 -1.000000
vn 1.000000 0.000000 0.000000
vn 1.000000 0.000000 0.000000
vn 1.000000 0.000000 0.000000
vn 1.000000 0.000000 0.000000
vn 0.000000 0.000000 1.000000
vn 0.000000 0.000000 1.000000
vn 0.000000 0.000000 1.000000
vn 0.000000 0.000000 1.000000
vn -1.000000 0.000000 0.000000
vn -1.000000 0.000000 0.000000
vn -1.000000 0.000000 0.000000
vn -1.000000 0.000000 0.000000
s off
g Puerta:pCube1
f 17/1/1 18/2/2 19/3/3 20/4/4
f 3/5/5 4/6/6 6/7/7 5/8/8
f 21/9/9 22/10/10 23/11/11 24/12/12
f 25/13/13 26/14/14 27/15/15 28/16/16
f 2/17/17 8/18/18 6/19/19 4/20/20
f 7/21/21 1/22/22 3/23/23 5/24/24
f 1/25/25 2/26/26 10/27/27 9/28/28
f 2/26/29 4/29/30 11/30/31 10/27/32
f 4/29/33 3/31/34 12/32/35 11/30/36
f 3/31/37 1/25/38 9/28/39 12/32/40
f 5/33/41 6/34/42 14/35/43 13/36/44
f 6/34/45 8/37/46 15/38/47 14/35/48
f 8/37/49 7/39/50 16/40/51 15/38/52
f 7/39/53 5/33/54 13/36/55 16/40/56
f 9/41/57 10/42/58 18/43/59 17/44/60
f 10/45/61 11/46/62 19/47/63 18/48/64
f 11/49/65 12/50/66 20/51/67 19/52/68
f 12/53/69 9/54/70 17/55/71 20/56/72
f 13/57/73 14/58/74 22/59/75 21/60/76
f 14/61/77 15/62/78 23/63/79 22/64/80
f 15/65/81 16/66/82 24/67/83 23/68/84
f 16/69/85 13/70/86 21/71/87 24/72/88
f 7/39/89 8/37/90 26/73/91 25/74/92
f 8/18/93 2/17/94 27/75/95 26/76/96
f 2/26/97 1/25/98 28/77/99 27/78/100
f 1/22/101 7/21/102 25/79/103 28/80/104
