# This file uses centimeters as units for non-parametric coordinates.

mtllib BoteDeBasura2.mtl
g default
v 0.230970 0.000000 -0.095671
v 0.176777 0.000000 -0.176777
v 0.095671 0.000000 -0.230970
v 0.000000 0.000000 -0.250000
v -0.095671 0.000000 -0.230970
v -0.176777 0.000000 -0.176777
v -0.230970 0.000000 -0.095671
v -0.250000 0.000000 -0.000000
v -0.230970 0.000000 0.095671
v -0.176777 0.000000 0.176777
v -0.095671 0.000000 0.230970
v -0.000000 0.000000 0.250000
v 0.095671 0.000000 0.230970
v 0.176777 0.000000 0.176777
v 0.230970 0.000000 0.095671
v 0.250000 0.000000 0.000000
v 0.230970 0.721487 -0.095671
v 0.176777 0.721487 -0.176777
v 0.095671 0.721487 -0.230970
v 0.000000 0.721487 -0.250000
v -0.095671 0.721487 -0.230970
v -0.176777 0.721487 -0.176777
v -0.230970 0.721487 -0.095671
v -0.250000 0.721487 -0.000000
v -0.230970 0.721487 0.095671
v -0.176777 0.721487 0.176777
v -0.095671 0.721487 0.230970
v -0.000000 0.721487 0.250000
v 0.095671 0.721487 0.230970
v 0.176777 0.721487 0.176777
v 0.230970 0.721487 0.095671
v 0.250000 0.721487 0.000000
v 0.000000 0.000000 0.000000
v 0.204267 0.811552 -0.084610
v 0.135178 0.897076 -0.055993
v 0.042574 0.940320 -0.017635
v 0.156340 0.811552 -0.156339
v 0.103461 0.897076 -0.103461
v 0.032585 0.940320 -0.032585
v 0.000000 0.947505 0.000000
v 0.084610 0.811552 -0.204267
v 0.055993 0.897076 -0.135178
v 0.017635 0.940320 -0.042574
v 0.000000 0.811552 -0.221097
v 0.000000 0.897076 -0.146316
v 0.000000 0.940320 -0.046082
v -0.084610 0.811552 -0.204267
v -0.055993 0.897076 -0.135178
v -0.017635 0.940320 -0.042574
v -0.156339 0.811552 -0.156340
v -0.103461 0.897076 -0.103461
v -0.032585 0.940320 -0.032585
v -0.204267 0.811552 -0.084610
v -0.135178 0.897076 -0.055993
v -0.042574 0.940320 -0.017635
v -0.221097 0.811552 -0.000000
v -0.146316 0.897076 -0.000000
v -0.046082 0.940320 -0.000000
v -0.204267 0.811552 0.084610
v -0.135178 0.897076 0.055993
v -0.042574 0.940320 0.017635
v -0.156340 0.811552 0.156339
v -0.103461 0.897076 0.103461
v -0.032585 0.940320 0.032585
v -0.084610 0.811552 0.204267
v -0.055993 0.897076 0.135178
v -0.017635 0.940320 0.042574
v -0.000000 0.811552 0.221097
v -0.000000 0.897076 0.146316
v -0.000000 0.940320 0.046082
v 0.084610 0.811552 0.204267
v 0.055993 0.897076 0.135178
v 0.017635 0.940320 0.042574
v 0.156339 0.811552 0.156339
v 0.103461 0.897076 0.103461
v 0.032585 0.940320 0.032585
v 0.204267 0.811552 0.084610
v 0.135178 0.897076 0.055993
v 0.042574 0.940320 0.017635
v 0.221097 0.811552 -0.000000
v 0.146316 0.897076 -0.000000
v 0.046082 0.940320 -0.000000
vt 0.539092 0.792888
vt 0.676473 0.713388
vt 0.898760 0.284521
vt 0.951536 0.256161
vt 0.772972 0.587366
vt 0.823999 0.281296
vt 0.885119 0.237923
vt 0.923652 0.227499
vt 0.381746 0.813763
vt 0.982296 0.223785
vt 0.813900 0.434009
vt 0.779100 0.239465
vt 0.844959 0.229493
vt 0.947453 0.202969
vt 0.228389 0.772836
vt 0.996977 0.185283
vt 0.793024 0.276663
vt 0.760235 0.190019
vt 0.815723 0.206795
vt 0.276799 0.022731
vt 0.139419 0.102231
vt 0.881712 0.045789
vt 0.841772 0.052038
vt 0.042920 0.228252
vt 0.921200 0.053377
vt 0.881249 0.080103
vt 0.853271 0.084741
vt 0.434145 0.001856
vt 0.805837 0.071758
vt 0.001992 0.381610
vt 0.955932 0.073954
vt 0.908961 0.085418
vt 0.828336 0.099006
vt 0.587503 0.042783
vt 0.777976 0.103224
vt 0.022867 0.538956
vt 0.982062 0.105534
vt 0.933198 0.100081
vt 0.407946 0.407809
vt 0.102367 0.676336
vt 0.713524 0.139283
vt 0.885651 0.144707
vt 0.889699 0.147288
vt 0.881005 0.156140
vt 0.896628 0.117190
vt 0.910202 0.125613
vt 0.892505 0.151198
vt 0.880936 0.143807
vt 0.919938 0.138482
vt 0.880976 0.114177
vt 0.893645 0.155897
vt 0.876223 0.144703
vt 0.951086 0.122551
vt 0.924433 0.154249
vt 0.865238 0.116968
vt 0.892895 0.160713
vt 0.872173 0.147286
vt 0.960217 0.150497
vt 0.923030 0.169494
vt 0.851425 0.125309
vt 0.890298 0.164925
vt 0.869369 0.151223
vt 0.996310 0.145141
vt 0.959407 0.178037
vt 0.914639 0.186154
vt 0.841403 0.138287
vt 0.886197 0.167832
vt 0.868273 0.155964
vt 0.809520 0.121587
vt 0.900621 0.197424
vt 0.836770 0.154393
vt 0.881186 0.168910
vt 0.869116 0.160827
vt 0.799526 0.150293
vt 0.882292 0.202122
vt 0.838660 0.171570
vt 0.876093 0.167927
vt 0.871844 0.165054
vt 0.761787 0.143814
vt 0.800878 0.180703
vt 0.862797 0.198369
vt 0.847516 0.187218
vt 0.998008 0.929663
vt 0.998008 0.513389
vt 0.799320 0.513389
vt 0.799320 0.929663
vt 0.799320 0.643475
vt 0.799320 0.669492
vt 0.799320 0.617457
vt 0.799320 0.591440
vt 0.799320 0.565423
vt 0.799320 0.539406
vt 0.799320 0.900007
vt 0.799320 0.874573
vt 0.799320 0.853387
vt 0.799320 0.821522
vt 0.799320 0.797251
vt 0.799320 0.772591
vt 0.799320 0.747544
vt 0.799320 0.721527
vt 0.799320 0.695510
vt 0.998008 0.643475
vt 0.998008 0.669492
vt 0.998008 0.617457
vt 0.998008 0.591440
vt 0.998008 0.565423
vt 0.998008 0.539406
vt 0.998008 0.900007
vt 0.998008 0.874573
vt 0.998008 0.853387
vt 0.998008 0.821522
vt 0.998008 0.797251
vt 0.998008 0.772591
vt 0.998008 0.747544
vt 0.998008 0.721527
vt 0.998008 0.695510
vn 0.923880 0.000000 -0.382683
vn 0.707107 0.000000 -0.707106
vn 0.706731 0.032603 -0.706731
vn 0.923389 0.032603 -0.382480
vn 0.382684 0.000000 -0.923879
vn 0.382481 0.032603 -0.923388
vn 0.000001 0.000000 -1.000000
vn 0.000001 0.032603 -0.999468
vn -0.382683 0.000000 -0.923880
vn -0.382480 0.032603 -0.923389
vn -0.707106 0.000000 -0.707107
vn -0.706730 0.032603 -0.706731
vn -0.923879 0.000000 -0.382684
vn -0.923388 0.032603 -0.382480
vn -1.000000 0.000000 -0.000000
vn -0.999468 0.032602 -0.000000
vn -0.923880 0.000000 0.382683
vn -0.923389 0.032603 0.382480
vn -0.707107 0.000000 0.707107
vn -0.706731 0.032603 0.706731
vn -0.382684 0.000000 0.923880
vn -0.382480 0.032603 0.923388
vn -0.000000 0.000000 1.000000
vn -0.000000 0.032603 0.999468
vn 0.382683 0.000000 0.923880
vn 0.382480 0.032603 0.923388
vn 0.707107 0.000000 0.707107
vn 0.706731 0.032603 0.706731
vn 0.923880 0.000000 0.382684
vn 0.923388 0.032603 0.382480
vn 1.000000 0.000000 0.000000
vn 0.999468 0.032603 0.000000
vn 0.000000 -1.000000 0.000000
vn 0.000000 -1.000000 0.000000
vn 0.000000 -1.000000 0.000000
vn 0.000000 -1.000000 0.000000
vn 0.000000 -1.000000 0.000000
vn 0.000000 -1.000000 0.000000
vn 0.000000 -1.000000 0.000000
vn 0.000000 -1.000000 0.000000
vn 0.000000 -1.000000 0.000000
vn 0.000000 -1.000000 0.000000
vn 0.000000 -1.000000 0.000000
vn 0.000000 -1.000000 0.000000
vn 0.000000 -1.000000 0.000000
vn 0.000000 -1.000000 0.000000
vn 0.000000 -1.000000 0.000000
vn 0.000000 -1.000000 0.000000
vn 0.000000 -1.000000 0.000000
vn 0.350094 0.925421 -0.145015
vn 0.267951 0.925421 -0.267951
vn -0.000000 1.000000 -0.000001
vn 0.145014 0.925422 -0.350094
vn 0.000000 0.925421 -0.378940
vn -0.145014 0.925421 -0.350095
vn -0.267951 0.925421 -0.267951
vn -0.350094 0.925421 -0.145015
vn -0.378940 0.925421 -0.000001
vn -0.350095 0.925422 0.145014
vn -0.267951 0.925421 0.267951
vn -0.145014 0.925421 0.350095
vn -0.000000 0.925421 0.378940
vn 0.145014 0.925421 0.350095
vn 0.267951 0.925421 0.267951
vn 0.350095 0.925421 0.145014
vn 0.378940 0.925421 0.000001
vn 0.622198 0.475122 -0.622197
vn 0.812940 0.475122 -0.336731
vn 0.468277 0.749289 -0.468276
vn 0.611833 0.749289 -0.253430
vn 0.336731 0.475122 -0.812940
vn 0.253430 0.749289 -0.611832
vn 0.000000 0.475122 -0.879920
vn 0.000000 0.749289 -0.662243
vn -0.336730 0.475122 -0.812940
vn -0.253429 0.749289 -0.611833
vn -0.622197 0.475122 -0.622198
vn -0.468276 0.749289 -0.468277
vn -0.812940 0.475122 -0.336731
vn -0.611832 0.749289 -0.253430
vn -0.879920 0.475122 -0.000000
vn -0.662243 0.749289 -0.000000
vn -0.812940 0.475122 0.336731
vn -0.611833 0.749289 0.253430
vn -0.622197 0.475122 0.622197
vn -0.468276 0.749289 0.468277
vn -0.336731 0.475122 0.812940
vn -0.253430 0.749289 0.611833
vn -0.000000 0.475122 0.879920
vn -0.000000 0.749289 0.662243
vn 0.336731 0.475122 0.812940
vn 0.253430 0.749289 0.611833
vn 0.622197 0.475122 0.622197
vn 0.468276 0.749289 0.468277
vn 0.812940 0.475122 0.336731
vn 0.611833 0.749289 0.253430
vn 0.879920 0.475122 0.000000
vn 0.662243 0.749289 0.000000
s 1
g pCylinder1
usemtl initialShadingGroup
f 1/103/1 2/116/2 18/101/3 17/88/4
f 2/116/2 3/115/5 19/100/6 18/101/3
f 3/115/5 4/114/7 20/99/8 19/100/6
f 4/114/7 5/113/9 21/98/10 20/99/8
f 5/113/9 6/112/11 22/97/12 21/98/10
f 6/112/11 7/111/13 23/96/14 22/97/12
f 7/111/13 8/110/15 24/95/16 23/96/14
f 8/110/15 9/109/17 25/94/18 24/95/16
f 9/109/17 10/108/19 26/93/20 25/94/18
f 10/108/19 11/83/21 27/86/22 26/93/20
f 11/84/21 12/107/23 28/92/24 27/85/22
f 12/107/23 13/106/25 29/91/26 28/92/24
f 13/106/25 14/105/27 30/90/28 29/91/26
f 14/105/27 15/104/29 31/89/30 30/90/28
f 15/104/29 16/102/31 32/87/32 31/89/30
f 16/102/31 1/103/1 17/88/4 32/87/32
s 2
f 2/30/33 1/24/34 33/39/35
f 3/36/36 2/30/33 33/39/35
f 4/40/37 3/36/36 33/39/35
f 5/15/38 4/40/37 33/39/35
f 6/9/39 5/15/38 33/39/35
f 7/1/40 6/9/39 33/39/35
f 8/2/41 7/1/40 33/39/35
f 9/5/42 8/2/41 33/39/35
f 10/11/43 9/5/42 33/39/35
f 11/17/44 10/11/43 33/39/35
f 12/41/45 11/17/44 33/39/35
f 13/34/46 12/41/45 33/39/35
f 14/28/47 13/34/46 33/39/35
f 15/20/48 14/28/47 33/39/35
f 16/21/49 15/20/48 33/39/35
f 1/24/34 16/21/49 33/39/35
s 1
f 36/42/50 39/43/51 40/44/52
f 39/43/51 43/47/53 40/44/52
f 43/47/53 46/51/54 40/44/52
f 46/51/54 49/56/55 40/44/52
f 49/56/55 52/61/56 40/44/52
f 52/61/56 55/67/57 40/44/52
f 55/67/57 58/72/58 40/44/52
f 58/72/58 61/77/59 40/44/52
f 61/77/59 64/78/60 40/44/52
f 64/78/60 67/73/61 40/44/52
f 67/73/61 70/68/62 40/44/52
f 70/68/62 73/62/63 40/44/52
f 73/62/63 76/57/64 40/44/52
f 76/57/64 79/52/65 40/44/52
f 79/52/65 82/48/66 40/44/52
f 82/48/66 36/42/50 40/44/52
f 17/25/4 18/31/3 37/38/67 34/32/68
f 34/32/68 37/38/67 38/46/69 35/45/70
f 35/45/70 38/46/69 39/43/51 36/42/50
f 18/31/3 19/37/6 41/53/71 37/38/67
f 37/38/67 41/53/71 42/49/72 38/46/69
f 38/46/69 42/49/72 43/47/53 39/43/51
f 19/37/6 20/63/8 44/58/73 41/53/71
f 41/53/71 44/58/73 45/54/74 42/49/72
f 42/49/72 45/54/74 46/51/54 43/47/53
f 20/63/8 21/16/10 47/64/75 44/58/73
f 44/58/73 47/64/75 48/59/76 45/54/74
f 45/54/74 48/59/76 49/56/55 46/51/54
f 21/16/10 22/10/12 50/14/77 47/64/75
f 47/64/75 50/14/77 51/65/78 48/59/76
f 48/59/76 51/65/78 52/61/56 49/56/55
f 22/10/12 23/4/14 53/8/79 50/14/77
f 50/14/77 53/8/79 54/70/80 51/65/78
f 51/65/78 54/70/80 55/67/57 52/61/56
f 23/4/14 24/3/16 56/7/81 53/8/79
f 53/8/79 56/7/81 57/75/82 54/70/80
f 54/70/80 57/75/82 58/72/58 55/67/57
f 24/3/16 25/6/18 59/13/83 56/7/81
f 56/7/81 59/13/83 60/81/84 57/75/82
f 57/75/82 60/81/84 61/77/59 58/72/58
f 25/6/18 26/12/20 62/19/85 59/13/83
f 59/13/83 62/19/85 63/82/86 60/81/84
f 60/81/84 63/82/86 64/78/60 61/77/59
f 26/12/20 27/18/22 65/80/87 62/19/85
f 62/19/85 65/80/87 66/76/88 63/82/86
f 63/82/86 66/76/88 67/73/61 64/78/60
f 27/18/22 28/79/24 68/74/89 65/80/87
f 65/80/87 68/74/89 69/71/90 66/76/88
f 66/76/88 69/71/90 70/68/62 67/73/61
f 28/79/24 29/35/26 71/69/91 68/74/89
f 68/74/89 71/69/91 72/66/92 69/71/90
f 69/71/90 72/66/92 73/62/63 70/68/62
f 29/35/26 30/29/28 74/33/93 71/69/91
f 71/69/91 74/33/93 75/60/94 72/66/92
f 72/66/92 75/60/94 76/57/64 73/62/63
f 30/29/28 31/23/30 77/27/95 74/33/93
f 74/33/93 77/27/95 78/55/96 75/60/94
f 75/60/94 78/55/96 79/52/65 76/57/64
f 31/23/30 32/22/32 80/26/97 77/27/95
f 77/27/95 80/26/97 81/50/98 78/55/96
f 78/55/96 81/50/98 82/48/66 79/52/65
f 32/22/32 17/25/4 34/32/68 80/26/97
f 80/26/97 34/32/68 35/45/70 81/50/98
f 81/50/98 35/45/70 36/42/50 82/48/66
