# This file uses centimeters as units for non-parametric coordinates.

g default
v 0.321659 -0.000000 -0.133235
v 0.246187 -0.000000 -0.246187
v 0.133236 -0.000000 -0.321659
v 0.000000 -0.000000 -0.348161
v -0.133235 -0.000000 -0.321659
v -0.246187 -0.000000 -0.246187
v -0.321659 -0.000000 -0.133236
v -0.348161 -0.000000 -0.000000
v -0.321659 -0.000000 0.133235
v -0.246187 -0.000000 0.246187
v -0.133236 -0.000000 0.321659
v -0.000000 -0.000000 0.348161
v 0.133235 -0.000000 0.321659
v 0.246187 -0.000000 0.246187
v 0.321659 -0.000000 0.133236
v 0.348161 -0.000000 0.000000
v 0.461940 1.000000 -0.191341
v 0.353554 1.000000 -0.353553
v 0.191342 1.000000 -0.461940
v 0.000000 1.000000 -0.500000
v -0.191341 1.000000 -0.461940
v -0.353553 1.000000 -0.353554
v -0.461940 1.000000 -0.191342
v -0.500000 1.000000 -0.000000
v -0.461940 1.000000 0.191342
v -0.353553 1.000000 0.353553
v -0.191342 1.000000 0.461940
v -0.000000 1.000000 0.500000
v 0.191342 1.000000 0.461940
v 0.353553 1.000000 0.353553
v 0.461940 1.000000 0.191342
v 0.500000 1.000000 0.000000
v 0.000000 0.015184 0.000000
v 0.414841 1.000000 -0.171832
v 0.317506 1.000000 -0.317505
v 0.171833 1.000000 -0.414841
v 0.000000 1.000000 -0.449020
v -0.171832 1.000000 -0.414841
v -0.317505 1.000000 -0.317506
v -0.414841 1.000000 -0.171833
v -0.449020 1.000000 -0.000000
v -0.414841 1.000000 0.171833
v -0.317505 1.000000 0.317505
v -0.171833 1.000000 0.414841
v -0.000000 1.000000 0.449020
v 0.171833 1.000000 0.414841
v 0.317505 1.000000 0.317505
v 0.414841 1.000000 0.171833
v 0.449020 1.000000 -0.000000
v 0.288863 0.084816 -0.119651
v 0.221086 0.084816 -0.221086
v 0.000000 0.084816 -0.000000
v 0.119651 0.084816 -0.288863
v 0.000000 0.084816 -0.312663
v -0.119651 0.084816 -0.288863
v -0.221086 0.084816 -0.221086
v -0.288863 0.084816 -0.119651
v -0.312663 0.084816 -0.000000
v -0.288863 0.084816 0.119651
v -0.221086 0.084816 0.221086
v -0.119651 0.084816 0.288863
v -0.000000 0.084816 0.312663
v 0.119651 0.084816 0.288863
v 0.221086 0.084816 0.221086
v 0.288863 0.084816 0.119651
v 0.312663 0.084816 -0.000000
vt 0.961292 0.839852
vt 0.986549 0.801921
vt 0.038339 0.940525
vt 0.089272 0.981570
vt 0.995368 0.757211
vt 0.006991 0.883113
vt 0.923442 0.865230
vt 0.152034 1.000000
vt 0.986406 0.712530
vt 0.000000 0.818075
vt 0.878761 0.874192
vt 0.217072 0.993009
vt 0.961028 0.674680
vt 0.018430 0.755312
vt 0.795856 0.674944
vt 0.770599 0.712876
vt 0.295620 0.725516
vt 0.244688 0.684470
vt 0.761780 0.757585
vt 0.326968 0.782928
vt 0.833706 0.649566
vt 0.181925 0.666041
vt 0.770742 0.802266
vt 0.333959 0.847966
vt 0.878387 0.640604
vt 0.116887 0.673032
vt 0.796121 0.840116
vt 0.315530 0.910728
vt 0.247771 0.666043
vt 0.196578 0.666043
vt 0.196578 0.359013
vt 0.247771 0.359013
vt 0.146039 0.666043
vt 0.146039 0.359013
vt 0.299447 0.666043
vt 0.299447 0.359013
vt 0.096321 0.666043
vt 0.096321 0.359013
vt 0.351437 0.666043
vt 0.351437 0.359013
vt 0.047587 0.666043
vt 0.047587 0.359013
vt 0.660330 0.666043
vt 0.610066 0.666043
vt 0.610066 0.359013
vt 0.660330 0.359013
vt 0.559089 0.666043
vt 0.447441 0.666038
vt 0.709714 0.666043
vt 0.709714 0.359013
vt 0.507567 0.666043
vt 0.507567 0.359013
vt 0.758055 0.666043
vt 0.758055 0.359013
vt 0.455669 0.666043
vt 0.455669 0.359013
vt 0.878574 0.757398
vt 0.834052 0.865373
vt 0.923097 0.649423
vt 0.435342 0.770172
vt 0.403569 0.359013
vt 0.805193 0.359013
vt 0.274484 0.961661
vt 0.403569 0.666043
vt 0.059475 0.704380
vt 0.805193 0.666043
vt 0.406670 0.669335
vt 0.559089 0.359013
vt 0.370264 0.687983
vt 0.343766 0.719144
vt 0.331209 0.758073
vt 0.000000 0.359013
vt 0.334505 0.798844
vt 0.353153 0.835250
vt 0.070436 0.717496
vt 0.000000 0.666043
vt 0.384314 0.861749
vt 0.423243 0.874306
vt 0.464015 0.871009
vt 0.500421 0.852361
vt 0.526919 0.821200
vt 0.539476 0.782271
vt 0.536179 0.741500
vt 0.517531 0.705094
vt 0.486371 0.678595
vt 0.282504 0.736477
vt 0.310656 0.788035
vt 0.236765 0.699616
vt 0.180401 0.683066
vt 0.121995 0.689344
vt 0.033576 0.763235
vt 0.017025 0.819599
vt 0.023303 0.878005
vt 0.051455 0.929564
vt 0.097195 0.966424
vt 0.153558 0.982975
vt 0.211965 0.976696
vt 0.263523 0.948545
vt 0.300384 0.902805
vt 0.316934 0.846442
vt 0.838185 0.000000
vt 0.000000 0.000000
vt 0.000000 0.359013
vt 0.838185 0.359013
vt 0.203668 0.359013
vt 0.256877 0.359013
vt 0.151197 0.359013
vt 0.099644 0.359013
vt 0.049188 0.359013
vt 0.789002 0.359013
vt 0.738551 0.359013
vt 0.687003 0.359013
vt 0.634535 0.359013
vt 0.581328 0.359013
vt 0.527564 0.359013
vt 0.473428 0.359013
vt 0.419104 0.359013
vt 0.364781 0.359013
vt 0.310643 0.359013
vt 0.203668 0.000000
vt 0.256877 0.000000
vt 0.151197 0.000000
vt 0.099644 0.000000
vt 0.049188 0.000000
vt 0.789002 0.000000
vt 0.738551 0.000000
vt 0.687003 0.000000
vt 0.634535 0.000000
vt 0.581328 0.000000
vt 0.527564 0.000000
vt 0.473428 0.000000
vt 0.419104 0.000000
vt 0.364781 0.000000
vt 0.310643 0.000000
vn 0.913410 -0.150118 -0.378347
vn 0.699094 -0.150118 -0.699094
vn 0.699094 -0.150118 -0.699094
vn 0.913410 -0.150118 -0.378347
vn 0.378347 -0.150118 -0.913410
vn 0.378347 -0.150118 -0.913410
vn 0.000001 -0.150118 -0.988668
vn 0.000001 -0.150118 -0.988668
vn -0.378346 -0.150118 -0.913410
vn -0.378346 -0.150118 -0.913410
vn -0.699094 -0.150118 -0.699094
vn -0.699094 -0.150118 -0.699094
vn -0.913410 -0.150118 -0.378347
vn -0.913410 -0.150118 -0.378347
vn -0.988668 -0.150118 -0.000000
vn -0.988668 -0.150118 -0.000000
vn -0.913410 -0.150118 0.378347
vn -0.913410 -0.150118 0.378347
vn -0.699094 -0.150118 0.699094
vn -0.699094 -0.150118 0.699094
vn -0.378347 -0.150118 0.913410
vn -0.378347 -0.150118 0.913410
vn -0.000000 -0.150118 0.988668
vn -0.000000 -0.150118 0.988668
vn 0.378347 -0.150118 0.913410
vn 0.378347 -0.150118 0.913410
vn 0.699094 -0.150118 0.699094
vn 0.699094 -0.150118 0.699094
vn 0.913410 -0.150118 0.378347
vn 0.913410 -0.150118 0.378347
vn 0.988668 -0.150118 0.000000
vn 0.988668 -0.150118 0.000000
vn -0.030809 -0.999050 0.030809
vn -0.040254 -0.999050 0.016674
vn 0.000000 -1.000000 -0.000000
vn -0.016674 -0.999050 0.040254
vn -0.000000 -0.999050 0.043570
vn 0.016674 -0.999050 0.040254
vn 0.030809 -0.999050 0.030809
vn 0.040254 -0.999050 0.016674
vn 0.043570 -0.999050 0.000000
vn 0.040254 -0.999050 -0.016674
vn 0.030809 -0.999050 -0.030809
vn 0.016674 -0.999050 -0.040254
vn 0.000000 -0.999050 -0.043570
vn -0.016674 -0.999050 -0.040254
vn -0.030809 -0.999050 -0.030809
vn -0.040254 -0.999050 -0.016674
vn -0.043570 -0.999050 0.000000
vn 0.000000 1.000000 0.000000
vn 0.000000 1.000000 0.000000
vn 0.000000 1.000000 0.000000
vn 0.000000 1.000000 0.000000
vn 0.000000 1.000000 0.000000
vn 0.000000 1.000000 0.000000
vn 0.000000 1.000000 0.000000
vn 0.000000 1.000000 0.000000
vn 0.000000 1.000000 0.000000
vn 0.000000 1.000000 0.000000
vn 0.000000 1.000000 0.000000
vn 0.000000 1.000000 0.000000
vn 0.000000 1.000000 -0.000000
vn 0.000000 1.000000 -0.000000
vn 0.000000 1.000000 0.000000
vn 0.000000 1.000000 0.000000
vn 0.000000 1.000000 0.000000
vn 0.000000 1.000000 0.000000
vn 0.000000 1.000000 0.000000
vn 0.000000 1.000000 0.000000
vn 0.000000 1.000000 0.000000
vn 0.000000 1.000000 0.000000
vn 0.000000 1.000000 0.000000
vn 0.000000 1.000000 0.000000
vn 0.000000 1.000000 0.000000
vn 0.000000 1.000000 0.000000
vn 0.000000 1.000000 0.000000
vn 0.000000 1.000000 0.000000
vn 0.000000 1.000000 0.000000
vn 0.000000 1.000000 0.000000
vn 0.000000 1.000000 0.000000
vn 0.000000 1.000000 0.000000
vn 0.000000 1.000000 0.000000
vn 0.000000 1.000000 0.000000
vn 0.000000 1.000000 0.000000
vn 0.000000 1.000000 0.000000
vn 0.000000 1.000000 0.000000
vn 0.000000 1.000000 0.000000
vn 0.000000 1.000000 0.000000
vn 0.000000 1.000000 -0.000000
vn 0.000000 1.000000 -0.000000
vn 0.000000 1.000000 -0.000000
vn 0.000000 1.000000 -0.000000
vn 0.000000 1.000000 0.000000
vn 0.000000 1.000000 0.000000
vn 0.000000 1.000000 0.000000
vn 0.000000 1.000000 0.000000
vn 0.000000 1.000000 0.000000
vn 0.000000 1.000000 0.000000
vn -0.913792 0.147368 0.378505
vn -0.699387 0.147368 0.699386
vn -0.699387 0.147368 0.699386
vn -0.913792 0.147368 0.378505
vn -0.378506 0.147368 0.913792
vn -0.378506 0.147368 0.913792
vn -0.000000 0.147368 0.989082
vn -0.000000 0.147368 0.989082
vn 0.378505 0.147368 0.913793
vn 0.378505 0.147368 0.913793
vn 0.699386 0.147368 0.699387
vn 0.699386 0.147368 0.699387
vn 0.913792 0.147368 0.378506
vn 0.913792 0.147368 0.378506
vn 0.989082 0.147368 0.000000
vn 0.989082 0.147368 0.000000
vn 0.913793 0.147368 -0.378505
vn 0.913792 0.147368 -0.378505
vn 0.699387 0.147368 -0.699386
vn 0.699387 0.147368 -0.699386
vn 0.378505 0.147368 -0.913792
vn 0.378505 0.147368 -0.913792
vn 0.000000 0.147368 -0.989082
vn -0.000000 0.147368 -0.989082
vn -0.378505 0.147368 -0.913793
vn -0.378505 0.147368 -0.913793
vn -0.699386 0.147368 -0.699387
vn -0.699386 0.147368 -0.699387
vn -0.913792 0.147368 -0.378505
vn -0.913792 0.147368 -0.378505
vn -0.989082 0.147368 -0.000000
vn -0.989082 0.147368 -0.000000
s 1
g pCylinder1
f 1/121/1 2/134/2 18/119/3 17/106/4
f 2/134/2 3/133/5 19/118/6 18/119/3
f 3/133/5 4/132/7 20/117/8 19/118/6
f 4/132/7 5/131/9 21/116/10 20/117/8
f 5/131/9 6/130/11 22/115/12 21/116/10
f 6/130/11 7/129/13 23/114/14 22/115/12
f 7/129/13 8/128/15 24/113/16 23/114/14
f 8/128/15 9/127/17 25/112/18 24/113/16
f 9/127/17 10/126/19 26/111/20 25/112/18
f 10/126/19 11/125/21 27/110/22 26/111/20
f 11/125/21 12/101/23 28/104/24 27/110/22
f 12/102/23 13/124/25 29/109/26 28/103/24
f 13/124/25 14/123/27 30/108/28 29/109/26
f 14/123/27 15/122/29 31/107/30 30/108/28
f 15/122/29 16/120/31 32/105/32 31/107/30
f 16/120/31 1/121/1 17/106/4 32/105/32
s 2
f 2/23/33 1/19/34 33/57/35
f 3/27/36 2/23/33 33/57/35
f 4/58/37 3/27/36 33/57/35
f 5/11/38 4/58/37 33/57/35
f 6/7/39 5/11/38 33/57/35
f 7/1/40 6/7/39 33/57/35
f 8/2/41 7/1/40 33/57/35
f 9/5/42 8/2/41 33/57/35
f 10/9/43 9/5/42 33/57/35
f 11/13/44 10/9/43 33/57/35
f 12/59/45 11/13/44 33/57/35
f 13/25/46 12/59/45 33/57/35
f 14/21/47 13/25/46 33/57/35
f 15/15/48 14/21/47 33/57/35
f 16/16/49 15/15/48 33/57/35
f 1/19/34 16/16/49 33/57/35
s 3
f 50/48/50 51/85/51 52/60/52
f 51/85/51 53/84/53 52/60/52
f 53/84/53 54/83/54 52/60/52
f 54/83/54 55/82/55 52/60/52
f 55/82/55 56/81/56 52/60/52
f 56/81/56 57/80/57 52/60/52
f 57/80/57 58/79/58 52/60/52
f 58/79/58 59/78/59 52/60/52
f 59/78/59 60/77/60 52/60/52
f 60/77/60 61/74/61 52/60/52
f 61/74/61 62/73/62 52/60/52
f 62/73/62 63/71/63 52/60/52
f 63/71/63 64/70/64 52/60/52
f 64/70/64 65/69/65 52/60/52
f 65/69/65 66/67/66 52/60/52
f 66/67/66 50/48/50 52/60/52
s 4
f 17/20/67 18/24/68 35/100/69 34/87/70
f 18/24/68 19/28/71 36/99/72 35/100/69
f 19/28/71 20/63/73 37/98/74 36/99/72
f 20/63/73 21/12/75 38/97/76 37/98/74
f 21/12/75 22/8/77 39/96/78 38/97/76
f 22/8/77 23/4/79 40/95/80 39/96/78
f 23/4/79 24/3/81 41/94/82 40/95/80
f 24/3/81 25/6/83 42/93/84 41/94/82
f 25/6/83 26/10/85 43/92/86 42/93/84
f 26/10/85 27/14/87 44/91/88 43/92/86
f 27/14/87 28/65/89 45/75/90 44/91/88
f 28/65/89 29/26/91 46/90/92 45/75/90
f 29/26/91 30/22/93 47/89/94 46/90/92
f 30/22/93 31/18/95 48/88/96 47/89/94
f 31/18/95 32/17/97 49/86/98 48/88/96
f 32/17/97 17/20/67 34/87/70 49/86/98
s 5
f 34/47/99 35/51/100 51/52/101 50/68/102
f 35/51/100 36/55/103 53/56/104 51/52/101
f 36/55/103 37/64/105 54/61/106 53/56/104
f 37/64/105 38/39/107 55/40/108 54/61/106
f 38/39/107 39/35/109 56/36/110 55/40/108
f 39/35/109 40/29/111 57/32/112 56/36/110
f 40/29/111 41/30/113 58/31/114 57/32/112
f 41/30/113 42/33/115 59/34/116 58/31/114
f 42/33/115 43/37/117 60/38/118 59/34/116
f 43/37/117 44/41/119 61/42/120 60/38/118
f 44/41/119 45/76/121 62/72/122 61/42/120
f 45/66/121 46/53/123 63/54/124 62/62/122
f 46/53/123 47/49/125 64/50/126 63/54/124
f 47/49/125 48/43/127 65/46/128 64/50/126
f 48/43/127 49/44/129 66/45/130 65/46/128
f 49/44/129 34/47/99 50/68/102 66/45/130
