# This file uses centimeters as units for non-parametric coordinates.

mtllib CajaFuerte.mtl
g default
v -0.375000 0.000000 0.250000
v 0.375000 0.000000 0.250000
v -0.375000 0.500000 0.250000
v 0.375000 0.500000 0.250000
v -0.375000 0.500000 -0.250000
v 0.375000 0.500000 -0.250000
v -0.375000 0.000000 -0.250000
v 0.375000 0.000000 -0.250000
v -0.275000 0.100000 0.250000
v 0.275000 0.100000 0.250000
v 0.275000 0.400000 0.250000
v -0.275000 0.400000 0.250000
v -0.275000 0.100000 -0.150000
v 0.275000 0.100000 -0.150000
v 0.275000 0.400000 -0.150000
v -0.275000 0.400000 -0.150000
vt 0.720431 0.142860
vt 0.863288 0.142860
vt 0.863288 0.285717
vt 0.720431 0.285717
vt 0.432259 0.600300
vt 0.575115 0.600300
vt 0.575115 0.743156
vt 0.432259 0.743156
vt 0.159524 0.361164
vt 0.245238 0.361164
vt 0.245238 0.475449
vt 0.159524 0.475449
vt 0.121736 0.479350
vt 0.036022 0.479350
vt 0.036022 0.365065
vt 0.121736 0.365065
vt 0.432259 0.743156
vt 0.575115 0.743156
vt 0.575115 0.886013
vt 0.432259 0.886013
vt 0.720431 0.000003
vt 0.863288 0.000003
vt 0.863288 0.142860
vt 0.720431 0.142860
vt 0.864517 0.476614
vt 0.969279 0.476614
vt 0.969279 0.590899
vt 0.864517 0.590899
vt 0.969279 0.476614
vt 0.864517 0.476614
vt 0.864517 0.362329
vt 0.969279 0.362329
vt 0.905685 0.905184
vt 0.905685 0.800422
vt 0.991399 0.800422
vt 0.991399 0.905184
vt 0.576345 0.600300
vt 0.719201 0.600300
vt 0.719201 0.743156
vt 0.576345 0.743156
vt 0.576345 0.743156
vt 0.719201 0.743156
vt 0.700154 0.771728
vt 0.595392 0.771728
vt 0.719201 0.886013
vt 0.700154 0.857442
vt 0.576345 0.886013
vt 0.595392 0.857442
vn 0.000000 0.000000 1.000000
vn 0.000000 0.000000 1.000000
vn 0.000000 0.000000 1.000000
vn 0.000000 0.000000 1.000000
vn 0.000000 1.000000 0.000000
vn 0.000000 1.000000 0.000000
vn 0.000000 1.000000 0.000000
vn 0.000000 1.000000 0.000000
vn 0.000000 0.000000 -1.000000
vn 0.000000 0.000000 -1.000000
vn 0.000000 0.000000 -1.000000
vn 0.000000 0.000000 -1.000000
vn 0.000000 -1.000000 0.000000
vn 0.000000 -1.000000 0.000000
vn 0.000000 -1.000000 0.000000
vn 0.000000 -1.000000 0.000000
vn 1.000000 0.000000 0.000000
vn 1.000000 0.000000 0.000000
vn 1.000000 0.000000 0.000000
vn 1.000000 0.000000 0.000000
vn -1.000000 0.000000 0.000000
vn -1.000000 0.000000 0.000000
vn -1.000000 0.000000 0.000000
vn -1.000000 0.000000 0.000000
vn 0.000000 0.000000 1.000000
vn 0.000000 0.000000 1.000000
vn 0.000000 0.000000 1.000000
vn 0.000000 0.000000 1.000000
vn 0.000000 0.000000 1.000000
vn 0.000000 0.000000 1.000000
vn 0.000000 0.000000 1.000000
vn 0.000000 0.000000 1.000000
vn 0.000000 1.000000 0.000000
vn 0.000000 1.000000 0.000000
vn 0.000000 1.000000 0.000000
vn 0.000000 1.000000 0.000000
vn -1.000000 0.000000 0.000000
vn -1.000000 0.000000 0.000000
vn -1.000000 0.000000 0.000000
vn -1.000000 0.000000 0.000000
vn 0.000000 -1.000000 0.000000
vn 0.000000 -1.000000 0.000000
vn 0.000000 -1.000000 0.000000
vn 0.000000 -1.000000 0.000000
vn 1.000000 0.000000 0.000000
vn 1.000000 0.000000 0.000000
vn 1.000000 0.000000 0.000000
vn 1.000000 0.000000 0.000000
s off
g pCube7
usemtl initialShadingGroup
f 13/33/1 14/34/2 15/35/3 16/36/4
f 3/17/5 4/18/6 6/19/7 5/20/8
f 5/37/9 6/38/10 8/39/11 7/40/12
f 7/21/13 8/22/14 2/23/15 1/24/16
f 2/1/17 8/2/18 6/3/19 4/4/20
f 7/5/21 1/6/22 3/7/23 5/8/24
s 1
f 1/41/25 2/42/26 10/43/27 9/44/28
f 2/42/26 4/45/29 11/46/30 10/43/27
f 4/45/29 3/47/31 12/48/32 11/46/30
f 3/47/31 1/41/25 9/44/28 12/48/32
s off
f 9/25/33 10/26/34 14/27/35 13/28/36
f 10/9/37 11/10/38 15/11/39 14/12/40
f 11/29/41 12/30/42 16/31/43 15/32/44
f 12/13/45 9/14/46 13/15/47 16/16/48
g default
v -0.650000 0.100000 -0.050000
v -0.100000 0.100000 -0.050000
v -0.100000 0.400000 -0.050000
v -0.650000 0.400000 -0.050000
v -0.650000 0.100000 0.050000
v -0.100000 0.100000 0.050000
v -0.100000 0.400000 0.050000
v -0.650000 0.400000 0.050000
v -0.650000 0.400000 0.000000
v -0.100000 0.400000 0.000000
v -0.100000 0.100000 0.000000
v -0.650000 0.100000 0.000000
v -0.750000 0.500000 0.000000
v -0.000000 0.500000 0.000000
v -0.750000 0.500000 0.050000
v -0.000000 0.500000 0.050000
v -0.000000 0.000000 0.000000
v -0.000000 0.000000 0.050000
v -0.750000 0.000000 0.000000
v -0.750000 0.000000 0.050000
v -0.650000 0.100000 0.080000
v -0.100000 0.100000 0.080000
v -0.100000 0.400000 0.080000
v -0.650000 0.400000 0.080000
vt 0.966284 0.246634
vt 0.966284 0.332348
vt 0.951998 0.332348
vt 0.951998 0.246634
vt 0.972582 0.475205
vt 0.972582 0.389491
vt 0.986867 0.389491
vt 0.986867 0.475205
vt 0.986867 0.246634
vt 0.986867 0.389491
vt 0.972582 0.389491
vt 0.972582 0.246634
vt 0.000000 0.347272
vt 0.000000 0.204415
vt 0.014286 0.204415
vt 0.014286 0.347272
vt 0.008571 0.000003
vt 0.008571 0.085717
vt 0.000000 0.085717
vt 0.000000 0.000003
vt 0.277880 0.085717
vt 0.277880 0.000003
vt 0.286452 0.000003
vt 0.286452 0.085717
vt 0.257297 0.328481
vt 0.257297 0.223719
vt 0.271582 0.223719
vt 0.271582 0.328481
vt 0.029723 0.227520
vt 0.029723 0.332281
vt 0.015438 0.332281
vt 0.015438 0.227520
vt 0.287020 0.200615
vt 0.287020 0.343471
vt 0.272735 0.343471
vt 0.272735 0.200615
vt 0.988020 0.351396
vt 0.988020 0.246634
vt 0.996591 0.246634
vt 0.996591 0.351396
vt 0.996591 0.351396
vt 0.996591 0.456158
vt 0.988020 0.456158
vt 0.988020 0.351396
vt 0.905685 0.695661
vt 0.905685 0.590899
vt 0.991399 0.590899
vt 0.991399 0.695661
vt 0.844240 0.457145
vt 0.739478 0.457145
vt 0.720431 0.428573
vt 0.863288 0.428573
vt 0.739478 0.542859
vt 0.720431 0.571430
vt 0.844240 0.542859
vt 0.863288 0.571430
vt 0.739478 0.685715
vt 0.844240 0.685715
vt 0.863288 0.714287
vt 0.720431 0.714287
vt 0.844240 0.600001
vt 0.863288 0.571430
vt 0.739478 0.600001
vt 0.720431 0.571430
vt 0.991399 0.695661
vt 0.991399 0.800422
vt 0.905685 0.800422
vt 0.905685 0.695661
vn 0.000000 0.000000 1.000000
vn 0.000000 0.000000 1.000000
vn 0.000000 0.000000 1.000000
vn 0.000000 0.000000 1.000000
vn 0.000000 -1.000000 0.000000
vn 0.000000 -1.000000 0.000000
vn 0.000000 -1.000000 0.000000
vn 0.000000 -1.000000 0.000000
vn 1.000000 0.000000 0.000000
vn 1.000000 0.000000 0.000000
vn 1.000000 0.000000 0.000000
vn 1.000000 0.000000 0.000000
vn 0.000000 1.000000 0.000000
vn 0.000000 1.000000 0.000000
vn 0.000000 1.000000 0.000000
vn 0.000000 1.000000 0.000000
vn -1.000000 0.000000 0.000000
vn -1.000000 0.000000 0.000000
vn -1.000000 0.000000 0.000000
vn -1.000000 0.000000 0.000000
vn 0.000000 1.000000 0.000000
vn 0.000000 1.000000 0.000000
vn 0.000000 1.000000 0.000000
vn 0.000000 1.000000 0.000000
vn 1.000000 0.000000 0.000000
vn 1.000000 0.000000 0.000000
vn 1.000000 0.000000 0.000000
vn 1.000000 0.000000 0.000000
vn 0.000000 -1.000000 0.000000
vn 0.000000 -1.000000 0.000000
vn 0.000000 -1.000000 0.000000
vn 0.000000 -1.000000 0.000000
vn -1.000000 0.000000 0.000000
vn -1.000000 0.000000 0.000000
vn -1.000000 0.000000 0.000000
vn -1.000000 0.000000 0.000000
vn 0.000000 0.000000 -1.000000
vn 0.000000 0.000000 -1.000000
vn 0.000000 0.000000 -1.000000
vn 0.000000 0.000000 -1.000000
vn -0.000000 0.000000 1.000000
vn 0.000000 0.000000 1.000000
vn 0.000000 0.000000 1.000000
vn -0.000000 0.000000 1.000000
vn 0.000000 0.000000 -1.000000
vn 0.000000 0.000000 -1.000000
vn 0.000000 0.000000 1.000000
vn 0.000000 0.000000 1.000000
vn 0.000000 0.000000 -1.000000
vn 0.000000 0.000000 -1.000000
vn -0.000000 0.000000 1.000000
vn -0.000000 0.000000 1.000000
vn 0.000000 0.000000 -1.000000
vn 0.000000 0.000000 -1.000000
vn 0.000000 0.000000 -1.000000
vn 0.000000 0.000000 -1.000000
vn 0.000000 -1.000000 0.000000
vn 0.000000 -1.000000 0.000000
vn 0.000000 -1.000000 0.000000
vn 0.000000 -1.000000 0.000000
vn 1.000000 0.000000 0.000000
vn 1.000000 0.000000 0.000000
vn 1.000000 0.000000 0.000000
vn 1.000000 0.000000 0.000000
vn 0.000000 1.000000 0.000000
vn 0.000000 1.000000 0.000000
vn 0.000000 1.000000 0.000000
vn 0.000000 1.000000 0.000000
vn -1.000000 0.000000 0.000000
vn -1.000000 0.000000 0.000000
vn -1.000000 0.000000 0.000000
vn -1.000000 0.000000 0.000000
s off
g pCube7 pCube8
usemtl initialShadingGroup
f 37/93/49 38/94/50 39/95/51 40/96/52
f 17/73/53 18/74/54 27/75/55 28/76/56
f 18/49/57 19/50/58 26/51/59 27/52/60
f 19/77/61 20/78/62 25/79/63 26/80/64
f 20/53/65 17/54/66 28/55/67 25/56/68
f 30/81/69 29/82/70 31/83/71 32/84/72
f 33/57/73 30/58/74 32/59/75 34/60/76
f 35//77 33//78 34//79 36//80
f 29/61/81 35/62/82 36/63/83 31/64/84
s 1
f 26/97/85 25/98/86 29/99/87 30/100/88
s 2
f 24/105/89 23/106/90 32/107/91 31/108/92
s 1
f 27/103/93 26/97/85 30/100/88 33/104/94
s 2
f 23/106/90 22/109/95 34/110/96 32/107/91
s 1
f 28/101/97 27/103/93 33/104/94 35/102/98
s 2
f 22/109/95 21/111/99 36/112/100 34/110/96
s 1
f 25/98/86 28/101/97 35/102/98 29/99/87
s 2
f 21/111/99 24/105/89 31/108/92 36/112/100
s off
f 18/113/101 17/114/102 20/115/103 19/116/104
f 21/85/105 22/86/106 38/87/107 37/88/108
f 22/65/109 23/66/110 39/67/111 38/68/112
f 23/89/113 24/90/114 40/91/115 39/92/116
f 24/69/117 21/70/118 37/71/119 40/72/120
g default
v 0.082298 0.034089 -0.031229
v 0.062989 0.062988 -0.031229
v 0.034089 0.082298 -0.031229
v 0.000000 0.089079 -0.031229
v -0.034089 0.082298 -0.031229
v -0.062988 0.062989 -0.031229
v -0.082298 0.034089 -0.031229
v -0.089079 0.000000 -0.031229
v -0.082298 -0.034089 -0.031229
v -0.062989 -0.062988 -0.031229
v -0.034089 -0.082298 -0.031229
v -0.000000 -0.089079 -0.031229
v 0.034089 -0.082298 -0.031229
v 0.062988 -0.062988 -0.031229
v 0.082298 -0.034089 -0.031229
v 0.089079 0.000000 -0.031229
v 0.082298 0.034089 0.108950
v 0.062989 0.062988 0.108950
v 0.034089 0.082298 0.108950
v 0.000000 0.089079 0.108950
v -0.034089 0.082298 0.108950
v -0.062988 0.062989 0.108950
v -0.082298 0.034089 0.108950
v -0.089079 0.000000 0.108950
v -0.082298 -0.034089 0.108950
v -0.062989 -0.062988 0.108950
v -0.034089 -0.082298 0.108950
v -0.000000 -0.089079 0.108950
v 0.034089 -0.082298 0.108950
v 0.062988 -0.062988 0.108950
v 0.082298 -0.034089 0.108950
v 0.089079 -0.000000 0.108950
v 0.000000 0.000000 -0.031229
v 0.000000 -0.000000 0.108950
v -0.010000 0.076894 0.108950
v -0.030187 0.072879 0.108950
v -0.010000 0.000000 0.108950
v -0.055779 0.055779 0.108950
v -0.072879 0.030187 0.108950
v -0.078883 0.000000 0.108950
v -0.072879 -0.030187 0.108950
v -0.055779 -0.055779 0.108950
v -0.030187 -0.072879 0.108950
v -0.010000 -0.076894 0.108950
v 0.072879 0.030187 0.108950
v 0.055779 0.055779 0.108950
v 0.010000 -0.000000 0.108950
v 0.030187 0.072879 0.108950
v 0.010000 0.076894 0.108950
v 0.010000 -0.076894 0.108950
v 0.030187 -0.072879 0.108950
v 0.055779 -0.055779 0.108950
v 0.072879 -0.030187 0.108950
v 0.078883 0.000000 0.108950
v 0.072879 0.030187 0.088950
v 0.055779 0.055779 0.088950
v 0.010000 -0.000000 0.088950
v 0.030187 0.072879 0.088950
v 0.010000 0.076894 0.088950
v 0.010000 -0.076894 0.088950
v 0.030187 -0.072879 0.088950
v 0.055779 -0.055779 0.088950
v 0.072879 -0.030187 0.088950
v 0.078883 0.000000 0.088950
v -0.010000 0.076894 0.088950
v -0.030187 0.072879 0.088950
v -0.010000 0.000000 0.088950
v -0.055779 0.055779 0.088950
v -0.072879 0.030187 0.088950
v -0.078883 0.000000 0.088950
v -0.072879 -0.030187 0.088950
v -0.055779 -0.055779 0.088950
v -0.030187 -0.072879 0.088950
v -0.010000 -0.076894 0.088950
vt 0.667851 0.300152
vt 0.716538 0.300152
vt 0.716538 0.600300
vt 0.667851 0.600300
vt 0.610420 0.300152
vt 0.610420 0.600300
vt 0.552989 0.300152
vt 0.552989 0.600300
vt 0.504302 0.300152
vt 0.504302 0.600300
vt 0.288172 0.000003
vt 0.336860 0.000003
vt 0.336860 0.300152
vt 0.288172 0.300152
vt 0.394291 0.000003
vt 0.394291 0.300152
vt 0.451722 0.000003
vt 0.451722 0.300152
vt 0.500409 0.000003
vt 0.500409 0.300152
vt 0.951917 0.230551
vt 0.951796 0.279911
vt 0.911032 0.279811
vt 0.911154 0.230451
vt 0.952038 0.181191
vt 0.911275 0.181091
vt 0.952160 0.131832
vt 0.911396 0.131732
vt 0.952281 0.082472
vt 0.911517 0.082372
vt 0.905281 0.590899
vt 0.905281 0.714215
vt 0.864517 0.714215
vt 0.864517 0.590899
vt 0.905281 0.837530
vt 0.864517 0.837530
vt 0.997908 0.123319
vt 0.997908 0.246634
vt 0.957144 0.246634
vt 0.957144 0.123319
vt 0.997908 0.000003
vt 0.957144 0.000003
vt 0.906316 0.082522
vt 0.906133 0.131882
vt 0.865370 0.131731
vt 0.865552 0.082371
vt 0.905951 0.181241
vt 0.865187 0.181091
vt 0.905768 0.230601
vt 0.865004 0.230450
vt 0.905585 0.279961
vt 0.864822 0.279810
vt 0.243872 0.041842
vt 0.274839 0.088188
vt 0.142857 0.142857
vt 0.285713 0.142857
vt 0.197526 0.010874
vt 0.274839 0.197526
vt 0.142857 0.000000
vt 0.243872 0.243872
vt 0.088188 0.010874
vt 0.197525 0.274839
vt 0.041842 0.041842
vt 0.142857 0.285713
vt 0.010874 0.088188
vt 0.088188 0.274839
vt 0.000000 0.142857
vt 0.041842 0.243872
vt 0.010874 0.197525
vt 0.100839 0.691978
vt 0.073416 0.733019
vt 0.000000 0.643567
vt 0.032375 0.760442
vt 0.110468 0.643567
vt 0.000000 0.766882
vt 0.100839 0.595155
vt 0.073416 0.554114
vt 0.032374 0.526691
vt 0.000000 0.520251
vt 0.285430 0.767071
vt 0.253056 0.760632
vt 0.285430 0.643756
vt 0.212014 0.733209
vt 0.184591 0.692167
vt 0.174962 0.643756
vt 0.184591 0.595344
vt 0.212014 0.554303
vt 0.253056 0.526880
vt 0.285430 0.520440
vt 0.142857 0.571420
vt 0.088188 0.560546
vt 0.094445 0.545439
vt 0.126820 0.551879
vt 0.041842 0.529578
vt 0.053404 0.518016
vt 0.142857 0.428563
vt 0.126820 0.428563
vt 0.010874 0.483232
vt 0.025981 0.476975
vt 0.158894 0.428563
vt 0.158894 0.551879
vt 0.142857 0.285707
vt 0.126819 0.305248
vt 0.000000 0.428563
vt 0.016351 0.428563
vt 0.158894 0.305248
vt 0.197526 0.560546
vt 0.191268 0.545439
vt 0.088188 0.296581
vt 0.094445 0.311687
vt 0.010874 0.373894
vt 0.025981 0.380152
vt 0.197525 0.296581
vt 0.191268 0.311687
vt 0.243872 0.529578
vt 0.232310 0.518016
vt 0.041842 0.327548
vt 0.053404 0.339110
vt 0.243872 0.327548
vt 0.232309 0.339110
vt 0.274839 0.483232
vt 0.259732 0.476975
vt 0.274839 0.373894
vt 0.259732 0.380152
vt 0.285713 0.428563
vt 0.269362 0.428563
vt 0.716538 0.300152
vt 0.667851 0.300152
vt 0.667851 0.000003
vt 0.716538 0.000003
vt 0.610420 0.300152
vt 0.610420 0.000003
vt 0.552989 0.300152
vt 0.552989 0.000003
vt 0.504302 0.300152
vt 0.504302 0.000003
vt 0.288172 0.300152
vt 0.336860 0.300152
vt 0.336860 0.600300
vt 0.288172 0.600300
vt 0.394291 0.300152
vt 0.394291 0.600300
vt 0.451722 0.300152
vt 0.451722 0.600300
vt 0.500409 0.300152
vt 0.500409 0.600300
vt 0.951675 0.329271
vt 0.910911 0.329171
vt 0.951594 0.362279
vt 0.910830 0.362179
vt 0.952483 0.000103
vt 0.952402 0.033112
vt 0.911638 0.033012
vt 0.911719 0.000003
vt 0.906621 0.000154
vt 0.906499 0.033163
vt 0.865735 0.033012
vt 0.865857 0.000003
vt 0.905403 0.329320
vt 0.864639 0.329170
vt 0.905281 0.362329
vt 0.864517 0.362178
vn 0.923880 0.382683 0.000000
vn 0.707107 0.707107 0.000000
vn 0.707107 0.707107 0.000000
vn 0.923880 0.382683 0.000000
vn 0.382684 0.923879 0.000000
vn 0.382684 0.923879 0.000000
vn 0.000001 1.000000 0.000000
vn 0.000001 1.000000 0.000000
vn -0.382683 0.923880 0.000000
vn -0.382683 0.923880 0.000000
vn -0.707106 0.707107 0.000000
vn -0.707106 0.707107 0.000000
vn -0.923879 0.382684 0.000000
vn -0.923879 0.382684 0.000000
vn -1.000000 0.000000 0.000000
vn -1.000000 0.000000 0.000000
vn -0.923880 -0.382683 -0.000000
vn -0.923880 -0.382683 -0.000000
vn -0.707107 -0.707107 -0.000000
vn -0.707107 -0.707107 -0.000000
vn -0.382683 -0.923879 -0.000000
vn -0.382683 -0.923879 -0.000000
vn -0.000000 -1.000000 -0.000000
vn -0.000000 -1.000000 -0.000000
vn 0.382683 -0.923880 -0.000000
vn 0.382683 -0.923880 -0.000000
vn 0.707107 -0.707107 -0.000000
vn 0.707107 -0.707107 -0.000000
vn 0.923879 -0.382683 -0.000000
vn 0.923879 -0.382683 -0.000000
vn 1.000000 -0.000000 -0.000000
vn 1.000000 -0.000000 -0.000000
vn 0.000000 0.000000 -1.000000
vn 0.000000 0.000000 -1.000000
vn 0.000000 0.000000 -1.000000
vn 0.000000 0.000000 -1.000000
vn 0.000000 0.000000 -1.000000
vn 0.000000 0.000000 -1.000000
vn 0.000000 0.000000 -1.000000
vn 0.000000 0.000000 -1.000000
vn 0.000000 0.000000 -1.000000
vn 0.000000 0.000000 -1.000000
vn 0.000000 0.000000 -1.000000
vn 0.000000 -0.000000 -1.000000
vn 0.000000 -0.000000 -1.000000
vn 0.000000 0.000000 -1.000000
vn 0.000000 0.000000 -1.000000
vn 0.000000 0.000000 -1.000000
vn 0.000000 0.000000 -1.000000
vn 0.000000 0.000000 1.000000
vn 0.000000 -0.000000 1.000000
vn 0.000000 -0.000000 1.000000
vn 0.000000 -0.000000 1.000000
vn 0.000000 -0.000000 1.000000
vn 0.000000 -0.000000 1.000000
vn 0.000000 -0.000000 1.000000
vn 0.000000 -0.000000 1.000000
vn 0.000000 -0.000000 1.000000
vn 0.000000 -0.000000 1.000000
vn 0.000000 -0.000000 1.000000
vn 0.000000 -0.000000 1.000000
vn 0.000000 -0.000000 1.000000
vn 0.000000 -0.000000 1.000000
vn 0.000000 -0.000000 1.000000
vn 0.000000 0.000000 1.000000
vn 0.000000 -0.000000 1.000000
vn 0.000000 -0.000000 1.000000
vn 0.000000 -0.000000 1.000000
vn 0.000000 0.000000 1.000000
vn 0.000000 0.000000 1.000000
vn 0.000000 0.000000 1.000000
vn 0.000000 0.000000 1.000000
vn 0.000000 0.000000 1.000000
vn 0.000000 -0.000000 1.000000
vn 0.000000 -0.000000 1.000000
vn 0.000000 0.000000 1.000000
vn 0.000000 0.000000 1.000000
vn 0.000000 -0.000000 1.000000
vn 0.000000 -0.000000 1.000000
vn 0.000000 -0.000000 1.000000
vn 0.000000 -0.000000 1.000000
vn 0.000000 0.000000 1.000000
vn 0.000000 0.000000 1.000000
vn 0.000000 -0.000000 1.000000
vn 0.000000 0.000000 1.000000
vn 0.000000 -0.000000 1.000000
vn 0.000000 -0.000000 1.000000
vn 0.000000 -0.000000 1.000000
vn 0.000000 -0.000000 1.000000
vn 0.000000 -0.000000 1.000000
vn 0.000000 -0.000000 1.000000
vn 0.000000 -0.000000 1.000000
vn 0.000000 -0.000000 1.000000
vn 0.000000 0.000000 1.000000
vn 0.000000 0.000000 1.000000
vn 0.000000 0.000000 1.000000
vn 0.000000 -0.000000 1.000000
vn 0.000000 -0.000000 1.000000
vn 0.000000 -0.000000 1.000000
vn 0.000000 -0.000000 1.000000
vn 0.000000 -0.000000 1.000000
vn 0.000000 -0.000000 1.000000
vn 0.000000 0.000000 1.000000
vn 0.000000 0.000000 1.000000
vn 0.000000 -0.000000 1.000000
vn 0.000000 -0.000000 1.000000
vn -0.923880 -0.382683 -0.000000
vn -0.707107 -0.707106 -0.000001
vn -0.707107 -0.707106 -0.000001
vn -0.923880 -0.382683 -0.000000
vn -0.418838 -0.908061 -0.000000
vn -0.418838 -0.908061 -0.000000
vn -0.195091 -0.980785 -0.000000
vn -0.195091 -0.980785 -0.000000
vn 1.000000 -0.000001 -0.000000
vn 1.000000 -0.000000 -0.000001
vn 1.000000 -0.000000 -0.000001
vn 1.000000 -0.000001 -0.000000
vn -0.195090 0.980785 0.000000
vn -0.418838 0.908061 0.000001
vn -0.418838 0.908061 0.000001
vn -0.195090 0.980785 0.000000
vn 1.000000 -0.000000 -0.000001
vn 1.000000 -0.000000 -0.000001
vn -0.707107 0.707107 0.000001
vn -0.707107 0.707107 0.000001
vn -0.923879 0.382684 0.000000
vn -0.923879 0.382684 0.000000
vn -1.000000 0.000001 0.000000
vn -1.000000 0.000001 0.000000
vn 0.195090 -0.980785 0.000000
vn 0.418837 -0.908061 0.000000
vn 0.418837 -0.908061 0.000000
vn 0.195090 -0.980785 0.000000
vn -1.000000 0.000000 -0.000001
vn -1.000000 0.000001 -0.000001
vn -1.000000 0.000001 -0.000001
vn -1.000000 0.000000 -0.000001
vn 0.707106 -0.707107 0.000000
vn 0.707106 -0.707107 0.000000
vn 0.923879 -0.382684 -0.000000
vn 0.923879 -0.382684 -0.000000
vn 1.000000 -0.000000 0.000000
vn 1.000000 -0.000000 0.000000
vn 0.923880 0.382683 -0.000000
vn 0.923880 0.382683 -0.000000
vn 0.707107 0.707107 -0.000000
vn 0.707107 0.707107 -0.000000
vn 0.418838 0.908061 0.000000
vn 0.418838 0.908061 0.000000
vn 0.195091 0.980785 0.000000
vn 0.195091 0.980785 0.000000
vn -1.000000 0.000000 -0.000001
vn -1.000000 0.000000 -0.000001
s 1
g pCube7 pCube8 pCylinder1
usemtl initialShadingGroup
f 41/117/121 42/118/122 58/119/123 57/120/124
f 42/243/122 43/244/125 59/245/126 58/246/123
f 43/244/125 44/247/127 60/248/128 59/245/126
f 44/247/127 45/249/129 61/250/130 60/248/128
f 45/249/129 46/251/131 62/252/132 61/250/130
f 46/127/131 47/128/133 63/129/134 62/130/132
f 47/128/133 48/131/135 64/132/136 63/129/134
f 48/131/135 49/133/137 65/134/138 64/132/136
f 49/133/137 50/135/139 66/136/140 65/134/138
f 50/253/139 51/254/141 67/255/142 66/256/140
f 51/254/141 52/257/143 68/258/144 67/255/142
f 52/257/143 53/259/145 69/260/146 68/258/144
f 53/259/145 54/261/147 70/262/148 69/260/146
f 54/125/147 55/123/149 71/124/150 70/126/148
f 55/123/149 56/121/151 72/122/152 71/124/150
f 56/121/151 41/117/121 57/120/124 72/122/152
s 2
f 42/169/153 41/170/154 73/171/155
f 43/173/156 42/169/153 73/171/155
f 44/175/157 43/173/156 73/171/155
f 45/177/158 44/175/157 73/171/155
f 46/179/159 45/177/158 73/171/155
f 47/181/160 46/179/159 73/171/155
f 48/183/161 47/181/160 73/171/155
f 49/185/162 48/183/161 73/171/155
f 50/184/163 49/185/162 73/171/155
f 51/182/164 50/184/163 73/171/155
f 52/180/165 51/182/164 73/171/155
f 53/178/166 52/180/165 73/171/155
f 54/176/167 53/178/166 73/171/155
f 55/174/168 54/176/167 73/171/155
f 56/172/169 55/174/168 73/171/155
f 41/170/154 56/172/169 73/171/155
s 3
f 95/186/170 96/187/171 97/188/172
f 96/187/171 98/189/173 97/188/172
f 98/189/173 99/191/174 97/188/172
s 4
f 105/196/175 106/197/176 107/198/177
f 106/197/176 108/199/178 107/198/177
f 108/199/178 109/200/179 107/198/177
f 109/200/179 110/201/180 107/198/177
f 110/201/180 111/202/181 107/198/177
f 111/202/181 112/203/182 107/198/177
f 112/203/182 113/204/183 107/198/177
f 113/204/183 114/205/184 107/198/177
s 3
f 100/195/185 101/194/186 97/188/172
f 101/194/186 102/193/187 97/188/172
f 102/193/187 103/192/188 97/188/172
f 103/192/188 104/190/189 97/188/172
f 104/190/189 95/186/170 97/188/172
s 6
f 60/206/190 61/207/191 76/208/192 75/209/193
f 74/212/194 60/206/190 75/209/193 77/213/195
f 61/207/191 62/210/196 78/211/197 76/208/192
f 62/210/196 63/214/198 79/215/199 78/211/197
f 63/214/198 64/220/200 80/221/201 79/215/199
f 64/220/200 65/227/202 81/228/203 80/221/201
f 65/227/202 66/233/204 82/234/205 81/228/203
f 66/233/204 67/225/206 83/226/207 82/234/205
f 67/225/206 68/218/208 84/219/209 83/226/207
f 68/218/208 74/212/194 77/213/195 84/219/209
f 57/237/210 58/231/211 86/232/212 85/238/213
f 58/231/211 59/223/214 88/224/215 86/232/212
f 59/223/214 60/206/190 89/217/216 88/224/215
f 60/206/190 74/212/194 87/216/217 89/217/216
f 68/218/208 69/229/218 91/230/219 90/222/220
f 74/212/194 68/218/208 90/222/220 87/216/217
f 69/229/218 70/235/221 92/236/222 91/230/219
f 70/235/221 71/239/223 93/240/224 92/236/222
f 71/239/223 72/241/225 94/242/226 93/240/224
f 72/241/225 57/237/210 85/238/213 94/242/226
s 9
f 85/137/227 86/138/228 96/139/229 95/140/230
f 86/138/228 88/263/231 98/264/232 96/139/229
f 88/263/231 89/265/233 99/266/234 98/264/232
s 10
f 89/147/235 87/148/236 97/149/237 99/150/238
s 9
f 90/267/239 91/268/240 101/269/241 100/270/242
s 10
f 87/148/236 90/151/243 100/152/244 97/149/237
s 9
f 91/268/240 92/145/245 102/146/246 101/269/241
f 92/145/245 93/143/247 103/144/248 102/146/246
f 93/143/247 94/141/249 104/142/250 103/144/248
f 94/141/249 85/137/227 95/140/230 104/142/250
s 12
f 75/271/251 76/272/252 106/273/253 105/274/254
s 13
f 77/153/255 75/154/256 105/155/257 107/156/258
s 12
f 76/272/252 78/159/259 108/162/260 106/273/253
f 78/159/259 79/160/261 109/161/262 108/162/260
f 79/160/261 80/163/263 110/164/264 109/161/262
f 80/163/263 81/165/265 111/166/266 110/164/264
f 81/165/265 82/167/267 112/168/268 111/166/266
f 82/167/267 83/275/269 113/276/270 112/168/268
f 83/275/269 84/277/271 114/278/272 113/276/270
s 13
f 84/157/273 77/153/255 107/156/258 114/158/274
