# This file uses centimeters as units for non-parametric coordinates.

mtllib CasilleroGrande.mtl
g default
v 0.000000 0.000000 0.500000
v 0.000000 2.000000 0.500000
v 0.000000 0.000000 0.000000
v 0.000000 2.000000 0.000000
v 0.046101 1.950000 0.500000
v 0.050000 0.049011 0.500000
v 0.046101 1.950000 0.050859
v 0.050000 0.049011 0.050859
v 0.750000 2.000000 0.500000
v 0.750000 2.000000 0.000000
v 0.702094 1.950000 0.500000
v 0.702094 1.950000 0.050859
v 0.750000 0.000000 0.500000
v 0.750000 0.000000 0.000000
v 0.700000 0.049011 0.500000
v 0.700000 0.049011 0.050859
vt 0.727507 0.006540
vt 0.727507 0.576747
vt 0.584955 0.576747
vt 0.584955 0.006540
vt 0.728958 0.548519
vt 0.728958 0.006540
vt 0.857009 0.006540
vt 0.857009 0.548519
vt 0.440953 0.576747
vt 0.440953 0.006540
vt 0.583505 0.006540
vt 0.583505 0.576747
vt 0.987742 0.006534
vt 0.987742 0.548513
vt 0.859691 0.548513
vt 0.859691 0.006534
vt 0.819862 0.960224
vt 0.819862 0.762958
vt 0.951372 0.762958
vt 0.951372 0.960224
vt 0.783586 0.602890
vt 0.783586 0.775430
vt 0.665453 0.775430
vt 0.665453 0.602890
vt 0.667341 0.807764
vt 0.785475 0.807764
vt 0.785475 0.978727
vt 0.667341 0.978727
vt 0.819803 0.561637
vt 0.951313 0.561637
vt 0.951313 0.758903
vt 0.819803 0.758903
vt 0.222226 0.576747
vt 0.222226 0.006540
vt 0.236481 0.020513
vt 0.235369 0.562492
vt 0.436054 0.006540
vt 0.421798 0.020513
vt 0.436054 0.576747
vt 0.422395 0.562492
vt 0.220050 0.006540
vt 0.220050 0.576747
vt 0.006223 0.576747
vt 0.006223 0.006540
vt 0.239093 0.546832
vt 0.240145 0.034009
vt 0.415493 0.034009
vt 0.416058 0.546832
vn -1.000000 0.000000 0.000000
vn -0.707107 0.707107 0.000000
vn -0.707107 0.707107 0.000000
vn -1.000000 0.000000 0.000000
vn 0.707832 -0.706381 0.000000
vn 0.999998 0.002051 0.000000
vn 0.999998 0.002051 0.000000
vn 0.707832 -0.706381 0.000000
vn -0.707107 0.707107 0.000000
vn 0.707107 0.707107 0.000000
vn 0.707107 0.707107 0.000000
vn -0.707107 0.707107 0.000000
vn -0.000000 -1.000000 0.000000
vn 0.707832 -0.706381 0.000000
vn 0.707832 -0.706381 0.000000
vn -0.000000 -1.000000 0.000000
vn 0.707107 0.707107 0.000000
vn 1.000000 0.000000 0.000000
vn 1.000000 0.000000 0.000000
vn 0.707107 0.707107 0.000000
vn -0.999999 0.001102 0.000000
vn -0.999999 0.001102 0.000000
vn -0.999999 0.001102 0.000000
vn -0.999999 0.001102 0.000000
vn 0.000000 0.000000 1.000000
vn 0.000000 0.000000 1.000000
vn 0.000000 0.000000 1.000000
vn 0.000000 0.000000 1.000000
vn 0.000000 0.000000 1.000000
vn 0.000000 0.000000 1.000000
vn 0.000000 0.000000 1.000000
vn 0.000000 0.000000 1.000000
vn 0.000000 0.000000 1.000000
vn 0.000000 0.000000 1.000000
vn 0.000000 0.000000 1.000000
vn 0.000000 0.000000 1.000000
vn 0.000000 1.000000 0.000000
vn 0.000000 1.000000 0.000000
vn 0.000000 1.000000 0.000000
vn 0.000000 1.000000 0.000000
vn -0.000000 -1.000000 0.000000
vn -0.000000 -1.000000 0.000000
vn -0.000000 -1.000000 0.000000
vn -0.000000 -1.000000 0.000000
vn 0.000000 0.000000 1.000000
vn 0.000000 0.000000 1.000000
vn 0.000000 0.000000 1.000000
vn 0.000000 0.000000 1.000000
vn 0.000000 0.000000 -1.000000
vn 0.000000 0.000000 -1.000000
vn 0.000000 0.000000 -1.000000
vn 0.000000 0.000000 -1.000000
vn 0.000000 0.000000 1.000000
vn 0.000000 0.000000 1.000000
vn 0.000000 0.000000 1.000000
vn 0.000000 0.000000 1.000000
s off
g Arch:Arch
usemtl initialShadingGroup
f 1/1/1 2/2/2 4/3/3 3/4/4
f 5/5/5 6/6/6 8/7/7 7/8/8
f 2/17/9 9/18/10 10/19/11 4/20/12
f 11/21/13 5/22/14 7/23/15 12/24/16
f 9/9/17 13/10/18 14/11/19 10/12/20
f 15/13/21 11/14/22 12/15/23 16/16/24
f 2/33/25 1/34/26 6/35/27 5/36/28
f 9/39/29 2/33/30 5/36/31 11/40/32
f 13/37/33 9/39/34 11/40/35 15/38/36
f 15/25/37 16/26/38 8/27/39 6/28/40
f 14/29/41 13/30/42 1/31/43 3/32/44
f 13/37/45 15/38/46 6/35/47 1/34/48
f 10/41/49 14/42/50 3/43/51 4/44/52
f 7/45/53 8/46/54 16/47/55 12/48/56
g default
v 0.046317 1.950000 0.462225
v 0.048592 0.049011 0.462225
v 0.701978 1.950000 0.462225
v 0.700756 0.049011 0.462225
v 0.048592 0.049011 0.512224
v 0.046317 1.950000 0.512224
v 0.700756 0.049011 0.512224
v 0.701978 1.950000 0.512224
v 0.701629 1.585074 0.512224
v 0.701629 1.585074 0.462225
v 0.046968 1.585074 0.462225
v 0.046968 1.585074 0.512224
v 0.046751 1.690685 0.512224
v 0.046751 1.690685 0.462225
v 0.701745 1.690685 0.462225
v 0.701745 1.690685 0.512224
v 0.203829 1.665685 0.462225
v 0.544647 1.665685 0.462225
v 0.544612 1.610074 0.462225
v 0.203893 1.610074 0.462225
v 0.544647 1.665685 0.512224
v 0.203829 1.665685 0.512224
v 0.203893 1.610074 0.512224
v 0.544612 1.610074 0.512224
v 0.544713 1.771295 0.462225
v 0.203706 1.771295 0.462225
v 0.544678 1.715685 0.462225
v 0.203771 1.715685 0.462225
v 0.203706 1.771295 0.512224
v 0.544713 1.771295 0.512224
v 0.203771 1.715685 0.512224
v 0.544678 1.715685 0.512224
v 0.544581 1.560074 0.462225
v 0.203951 1.560074 0.462225
v 0.544546 1.504464 0.462225
v 0.204015 1.504464 0.462225
v 0.203951 1.560074 0.512224
v 0.544581 1.560074 0.512224
v 0.204015 1.504464 0.512224
v 0.544546 1.504464 0.512224
vt 0.027525 0.786338
vt 0.027525 0.840268
vt 0.001992 0.840268
vt 0.001992 0.786338
vt 0.027525 0.972689
vt 0.001992 0.972689
vt 0.001992 0.001941
vt 0.027525 0.001941
vt 0.060852 0.840268
vt 0.035319 0.840268
vt 0.035319 0.786338
vt 0.060852 0.786338
vt 0.060852 0.972689
vt 0.035319 0.972689
vt 0.035319 0.001941
vt 0.060852 0.001941
vt 0.967060 0.209217
vt 0.967060 0.180819
vt 0.992593 0.180819
vt 0.992593 0.209217
vt 0.960925 0.180870
vt 0.960925 0.209268
vt 0.935392 0.209268
vt 0.935392 0.180870
vt 0.903724 0.209313
vt 0.903724 0.180916
vt 0.929257 0.180916
vt 0.929257 0.209313
vt 0.897589 0.180966
vt 0.897589 0.209364
vt 0.872056 0.209364
vt 0.872056 0.180966
vt 0.840388 0.210533
vt 0.840388 0.182136
vt 0.865921 0.182136
vt 0.865921 0.210533
vt 0.834253 0.182136
vt 0.834253 0.210533
vt 0.808720 0.210533
vt 0.808720 0.182136
vt 0.778881 0.334972
vt 0.778881 0.001941
vt 0.804413 0.001941
vt 0.804413 0.334972
vt 0.776117 0.001941
vt 0.776117 0.336757
vt 0.750585 0.336757
vt 0.750585 0.001941
vt 0.807177 0.176078
vt 0.807177 0.001941
vt 0.832709 0.001941
vt 0.832709 0.176078
vt 0.861006 0.001941
vt 0.861006 0.176027
vt 0.835473 0.176027
vt 0.835473 0.001941
vt 0.918289 0.001941
vt 0.918289 0.175931
vt 0.892756 0.175931
vt 0.892756 0.001941
vt 0.864460 0.175982
vt 0.864460 0.001941
vt 0.889992 0.001941
vt 0.889992 0.175982
vt 0.923124 0.175886
vt 0.923124 0.001941
vt 0.948657 0.001941
vt 0.948657 0.175886
vt 0.978664 0.001632
vt 0.978664 0.175525
vt 0.953131 0.175525
vt 0.953131 0.001632
vt 0.403045 0.840268
vt 0.068569 0.840268
vt 0.148792 0.827502
vt 0.322833 0.827502
vt 0.322862 0.853035
vt 0.148776 0.853035
vt 0.068629 0.786338
vt 0.148810 0.799104
vt 0.402934 0.786338
vt 0.322800 0.799104
vt 0.403266 0.972689
vt 0.322895 0.881433
vt 0.068451 0.972689
vt 0.148759 0.881433
vt 0.148826 0.773572
vt 0.322770 0.773572
vt 0.069075 0.001942
vt 0.148844 0.745174
vt 0.402105 0.001942
vt 0.322737 0.745174
vt 0.744215 0.840268
vt 0.409739 0.840268
vt 0.489952 0.827502
vt 0.663992 0.827502
vt 0.664008 0.853035
vt 0.489922 0.853035
vt 0.409850 0.786338
vt 0.489984 0.799104
vt 0.744155 0.786338
vt 0.663974 0.799104
vt 0.744333 0.972689
vt 0.664025 0.881432
vt 0.409518 0.972689
vt 0.489889 0.881432
vt 0.490014 0.773572
vt 0.663958 0.773572
vt 0.410679 0.001942
vt 0.490047 0.745174
vt 0.743710 0.001941
vt 0.663940 0.745174
vn -0.000000 -1.000000 0.000000
vn -0.000000 -1.000000 0.000000
vn -0.000000 -1.000000 0.000000
vn -0.000000 -1.000000 0.000000
vn 0.000000 1.000000 0.000000
vn 0.000000 1.000000 0.000000
vn 0.000000 1.000000 0.000000
vn 0.000000 1.000000 0.000000
vn 1.000000 -0.000603 0.000000
vn 1.000000 -0.000957 0.000000
vn 1.000000 -0.000957 0.000000
vn 1.000000 -0.000603 0.000000
vn -0.999998 -0.001782 0.000000
vn -0.999998 -0.001782 0.000000
vn -0.999999 -0.001121 0.000000
vn -0.999999 -0.001121 0.000000
vn -0.999999 -0.001673 0.000000
vn -0.999999 -0.001673 0.000000
vn 1.000000 -0.000896 0.000000
vn 1.000000 -0.000896 0.000000
vn -0.999999 -0.001057 0.000000
vn -0.999999 -0.001057 0.000000
vn 1.000000 -0.000568 0.000000
vn 1.000000 -0.000568 0.000000
vn 0.000000 0.000000 -1.000000
vn 0.000000 0.000000 -1.000000
vn 0.000000 0.000000 -1.000000
vn -0.000000 0.000000 -1.000000
vn -0.000000 0.000000 -1.000000
vn 0.000000 0.000000 -1.000000
vn -0.000000 0.000000 -1.000000
vn -0.000000 0.000000 -1.000000
vn 0.000000 0.000000 1.000000
vn 0.000000 0.000000 1.000000
vn 0.000000 0.000000 1.000000
vn 0.000000 0.000000 1.000000
vn 0.000000 0.000000 1.000000
vn 0.000000 0.000000 1.000000
vn 0.000000 0.000000 1.000000
vn 0.000000 0.000000 1.000000
vn 0.000000 0.000000 -1.000000
vn 0.000000 0.000000 -1.000000
vn 0.000000 0.000000 -1.000000
vn 0.000000 0.000000 -1.000000
vn 0.000000 0.000000 -1.000000
vn 0.000000 0.000000 -1.000000
vn 0.000000 0.000000 1.000000
vn 0.000000 0.000000 1.000000
vn 0.000000 0.000000 1.000000
vn 0.000000 0.000000 1.000000
vn 0.000000 0.000000 1.000000
vn 0.000000 0.000000 1.000000
vn -0.000000 0.000000 -1.000000
vn 0.000000 0.000000 -1.000000
vn -0.000000 0.000000 -1.000000
vn -0.000000 0.000000 -1.000000
vn 0.000000 0.000000 -1.000000
vn 0.000000 0.000000 -1.000000
vn 0.000000 0.000000 1.000000
vn 0.000000 0.000000 1.000000
vn 0.000000 0.000000 1.000000
vn 0.000000 0.000000 1.000000
vn 0.000000 0.000000 1.000000
vn 0.000000 0.000000 1.000000
vn 0.000000 -1.000000 0.000000
vn 0.000000 -1.000000 0.000000
vn 0.000000 -1.000000 0.000000
vn 0.000000 -1.000000 0.000000
vn -1.000000 0.000632 0.000000
vn -1.000000 0.000632 0.000000
vn -1.000000 0.000632 0.000000
vn -1.000000 0.000632 0.000000
vn 0.000000 1.000000 0.000000
vn 0.000000 1.000000 0.000000
vn 0.000000 1.000000 0.000000
vn 0.000000 1.000000 0.000000
vn 0.999999 0.001168 0.000000
vn 0.999999 0.001168 0.000000
vn 0.999999 0.001168 0.000000
vn 0.999999 0.001168 0.000000
vn -1.000000 0.000643 0.000000
vn -1.000000 0.000643 0.000000
vn -1.000000 0.000643 0.000000
vn -1.000000 0.000643 0.000000
vn 0.000000 1.000000 0.000000
vn 0.000000 1.000000 0.000000
vn 0.000000 1.000000 0.000000
vn 0.000000 1.000000 0.000000
vn 0.999999 0.001147 0.000000
vn 0.999999 0.001147 0.000000
vn 0.999999 0.001147 0.000000
vn 0.999999 0.001147 0.000000
vn 0.000000 -1.000000 0.000000
vn 0.000000 -1.000000 0.000000
vn 0.000000 -1.000000 0.000000
vn 0.000000 -1.000000 0.000000
vn 0.000000 -1.000000 0.000000
vn 0.000000 -1.000000 0.000000
vn 0.000000 -1.000000 0.000000
vn 0.000000 -1.000000 0.000000
vn -1.000000 0.000632 0.000000
vn -1.000000 0.000632 0.000000
vn -1.000000 0.000632 0.000000
vn -1.000000 0.000632 0.000000
vn 0.000000 1.000000 0.000000
vn 0.000000 1.000000 0.000000
vn 0.000000 1.000000 0.000000
vn 0.000000 1.000000 0.000000
vn 0.999999 0.001158 0.000000
vn 0.999999 0.001158 0.000000
vn 0.999999 0.001158 0.000000
vn 0.999999 0.001158 0.000000
s off
g Arch:Arch Arch3
usemtl initialShadingGroup
f 18/89/57 20/90/58 23/91/59 21/92/60
f 19/93/61 17/94/62 22/95/63 24/96/64
s 1
f 26/49/65 31/50/66 32/51/67 25/52/68
s 2
f 29/57/69 30/58/70 27/59/71 28/60/72
f 22/61/73 17/62/74 30/58/70 29/57/69
s 1
f 32/51/67 31/50/66 19/53/75 24/54/76
s 2
f 28/60/72 27/59/71 18/63/77 21/64/78
s 1
f 23/55/79 20/56/80 26/49/65 25/52/68
s 3
f 30/121/81 31/122/82 34/123/83 33/124/84
f 31/122/82 26/127/85 35/128/86 34/123/83
f 26/127/85 27/129/87 36/130/88 35/128/86
f 27/129/87 30/121/81 33/124/84 36/130/88
s 4
f 32/141/89 29/142/90 38/143/91 37/144/92
f 29/142/90 28/147/93 39/148/94 38/143/91
f 28/147/93 25/149/95 40/150/96 39/148/94
f 25/149/95 32/141/89 37/144/92 40/150/96
s 3
f 17/131/97 19/133/98 41/134/99 42/132/100
f 19/133/98 31/122/82 43/126/101 41/134/99
f 31/122/82 30/121/81 44/125/102 43/126/101
f 30/121/81 17/131/97 42/132/100 44/125/102
s 4
f 24/151/103 22/153/104 45/154/105 46/152/106
f 22/153/104 29/142/90 47/146/107 45/154/105
f 29/142/90 32/141/89 48/145/108 47/146/107
f 32/141/89 24/151/103 46/152/106 48/145/108
s 3
f 27/129/87 26/127/85 49/135/109 50/136/110
f 26/127/85 20/137/111 51/138/112 49/135/109
f 20/137/111 18/139/113 52/140/114 51/138/112
f 18/139/113 27/129/87 50/136/110 52/140/114
s 4
f 25/149/95 28/147/93 53/155/115 54/156/116
f 28/147/93 21/157/117 55/158/118 53/155/115
f 21/157/117 23/159/119 56/160/120 55/158/118
f 23/159/119 25/149/95 54/156/116 56/160/120
s off
f 42/97/121 41/98/122 46/99/123 45/100/124
f 41/65/125 43/66/126 48/67/127 46/68/128
f 43/101/129 44/102/130 47/103/131 48/104/132
f 44/69/133 42/70/134 45/71/135 47/72/136
f 34/73/137 35/74/138 40/75/139 37/76/140
f 35/105/141 36/106/142 39/107/143 40/108/144
f 36/77/145 33/78/146 38/79/147 39/80/148
f 33/109/149 34/110/150 37/111/151 38/112/152
f 50/113/153 49/114/154 54/115/155 53/116/156
f 49/81/157 51/82/158 56/83/159 54/84/160
f 51/117/161 52/118/162 55/119/163 56/120/164
f 52/85/165 50/86/166 53/87/167 55/88/168
