# This file uses centimeters as units for non-parametric coordinates.

mtllib Casillero2.mtl
g default
v 0.046317 1.950000 -0.050000
v 0.048592 0.049011 -0.050000
v 0.701978 1.950000 -0.050000
v 0.700756 0.049011 -0.050000
v 0.048592 0.049011 0.000000
v 0.046317 1.950000 0.000000
v 0.700756 0.049011 0.000000
v 0.701978 1.950000 0.000000
v 0.701629 1.585074 0.000000
v 0.701629 1.585074 -0.050000
v 0.046968 1.585074 -0.050000
v 0.046968 1.585074 0.000000
v 0.046751 1.690685 0.000000
v 0.046751 1.690685 -0.050000
v 0.701745 1.690685 -0.050000
v 0.701745 1.690685 0.000000
v 0.203829 1.665685 -0.050000
v 0.544647 1.665685 -0.050000
v 0.544612 1.610074 -0.050000
v 0.203893 1.610074 -0.050000
v 0.544647 1.665685 0.000000
v 0.203829 1.665685 0.000000
v 0.203893 1.610074 0.000000
v 0.544612 1.610074 0.000000
v 0.544713 1.771295 -0.050000
v 0.203706 1.771295 -0.050000
v 0.544678 1.715685 -0.050000
v 0.203771 1.715685 -0.050000
v 0.203706 1.771295 0.000000
v 0.544713 1.771295 0.000000
v 0.203771 1.715685 0.000000
v 0.544678 1.715685 0.000000
v 0.544581 1.560074 -0.050000
v 0.203951 1.560074 -0.050000
v 0.544546 1.504464 -0.050000
v 0.204015 1.504464 -0.050000
v 0.203951 1.560074 0.000000
v 0.544581 1.560074 0.000000
v 0.204015 1.504464 0.000000
v 0.544546 1.504464 0.000000
vt 0.931016 0.393762
vt 0.931016 0.420835
vt 0.918198 0.420835
vt 0.918198 0.393762
vt 0.931016 0.487309
vt 0.918198 0.487309
vt 0.918198 0.000000
vt 0.931016 0.000000
vt 0.916206 0.420835
vt 0.903389 0.420835
vt 0.903389 0.393762
vt 0.916206 0.393762
vt 0.916206 0.487309
vt 0.903389 0.487309
vt 0.903389 0.000000
vt 0.916206 0.000000
vt 0.222145 0.114186
vt 0.222145 0.099931
vt 0.234962 0.099931
vt 0.234962 0.114186
vt 0.220152 0.099905
vt 0.220152 0.114161
vt 0.207335 0.114161
vt 0.207335 0.099905
vt 0.222145 0.142697
vt 0.222145 0.128442
vt 0.234962 0.128442
vt 0.234962 0.142697
vt 0.234962 0.114186
vt 0.234962 0.128442
vt 0.222145 0.128442
vt 0.222145 0.114186
vt 0.207335 0.142672
vt 0.207335 0.128416
vt 0.220152 0.128416
vt 0.220152 0.142672
vt 0.220152 0.114161
vt 0.220152 0.128416
vt 0.207335 0.128416
vt 0.207335 0.114161
vt 0.947818 0.167179
vt 0.947818 0.000000
vt 0.960635 0.000000
vt 0.960635 0.167179
vt 0.945825 0.000000
vt 0.945825 0.168075
vt 0.933008 0.168075
vt 0.933008 0.000000
vt 0.962627 0.087416
vt 0.962627 0.000000
vt 0.975445 0.000000
vt 0.975445 0.087416
vt 0.990254 0.000000
vt 0.990254 0.087390
vt 0.977437 0.087390
vt 0.977437 0.000000
vt 0.225089 0.012564
vt 0.225089 0.099905
vt 0.212272 0.099905
vt 0.212272 0.012564
vt 0.227081 0.099931
vt 0.227081 0.012564
vt 0.239899 0.012564
vt 0.239899 0.099931
vt 0.977437 0.174708
vt 0.977437 0.087390
vt 0.990254 0.087390
vt 0.990254 0.174708
vt 0.975445 0.087416
vt 0.975445 0.174709
vt 0.962627 0.174709
vt 0.962627 0.087416
vt 0.898574 0.420835
vt 0.730669 0.420835
vt 0.770940 0.414427
vt 0.858308 0.414427
vt 0.858323 0.427244
vt 0.770932 0.427244
vt 0.730699 0.393762
vt 0.770949 0.400171
vt 0.898518 0.393762
vt 0.858291 0.400171
vt 0.898685 0.487309
vt 0.858339 0.441499
vt 0.730610 0.487309
vt 0.770924 0.441499
vt 0.770957 0.387354
vt 0.858276 0.387354
vt 0.730923 -0.000000
vt 0.770966 0.373098
vt 0.898102 0.000000
vt 0.858260 0.373098
vt 0.725846 0.420835
vt 0.557942 0.420835
vt 0.598208 0.414427
vt 0.685575 0.414427
vt 0.685583 0.427244
vt 0.598193 0.427244
vt 0.557997 0.393762
vt 0.598224 0.400171
vt 0.725816 0.393762
vt 0.685566 0.400171
vt 0.725906 0.487309
vt 0.685592 0.441499
vt 0.557830 0.487309
vt 0.598176 0.441499
vt 0.598239 0.387354
vt 0.685558 0.387354
vt 0.558413 0.000000
vt 0.598255 0.373098
vt 0.725593 0.000000
vt 0.685549 0.373098
vn -0.000000 -1.000000 0.000000
vn -0.000000 -1.000000 0.000000
vn -0.000000 -1.000000 0.000000
vn -0.000000 -1.000000 0.000000
vn 0.000000 1.000000 0.000000
vn 0.000000 1.000000 0.000000
vn 0.000000 1.000000 0.000000
vn 0.000000 1.000000 0.000000
vn 1.000000 -0.000602 0.000000
vn 1.000000 -0.000957 0.000000
vn 1.000000 -0.000957 0.000000
vn 1.000000 -0.000602 0.000000
vn -0.999998 -0.001782 0.000000
vn -0.999998 -0.001782 0.000000
vn -0.999999 -0.001121 0.000000
vn -0.999999 -0.001121 0.000000
vn -0.999999 -0.001673 0.000000
vn -0.999999 -0.001673 0.000000
vn 1.000000 -0.000898 0.000000
vn 1.000000 -0.000898 0.000000
vn -0.999999 -0.001057 0.000000
vn -0.999999 -0.001057 0.000000
vn 1.000000 -0.000568 0.000000
vn 1.000000 -0.000568 0.000000
vn 0.000000 0.000000 -1.000000
vn 0.000000 0.000000 -1.000000
vn 0.000000 0.000000 -1.000000
vn 0.000000 0.000000 -1.000000
vn 0.000000 0.000000 -1.000000
vn 0.000000 0.000000 -1.000000
vn 0.000000 0.000000 -1.000000
vn 0.000000 0.000000 -1.000000
vn 0.000000 0.000000 1.000000
vn 0.000000 0.000000 1.000000
vn 0.000000 0.000000 1.000000
vn 0.000000 0.000000 1.000000
vn 0.000000 0.000000 1.000000
vn 0.000000 0.000000 1.000000
vn 0.000000 0.000000 1.000000
vn 0.000000 0.000000 1.000000
vn 0.000000 0.000000 -1.000000
vn 0.000000 0.000000 -1.000000
vn 0.000000 0.000000 -1.000000
vn 0.000000 0.000000 -1.000000
vn 0.000000 0.000000 -1.000000
vn 0.000000 0.000000 -1.000000
vn 0.000000 0.000000 1.000000
vn 0.000000 0.000000 1.000000
vn 0.000000 0.000000 1.000000
vn 0.000000 0.000000 1.000000
vn 0.000000 0.000000 1.000000
vn 0.000000 0.000000 1.000000
vn 0.000000 0.000000 -1.000000
vn 0.000000 0.000000 -1.000000
vn 0.000000 0.000000 -1.000000
vn 0.000000 0.000000 -1.000000
vn 0.000000 0.000000 -1.000000
vn 0.000000 0.000000 -1.000000
vn 0.000000 0.000000 1.000000
vn 0.000000 0.000000 1.000000
vn 0.000000 0.000000 1.000000
vn 0.000000 0.000000 1.000000
vn 0.000000 0.000000 1.000000
vn 0.000000 0.000000 1.000000
vn 0.000000 -1.000000 0.000000
vn 0.000000 -1.000000 0.000000
vn 0.000000 -1.000000 0.000000
vn 0.000000 -1.000000 0.000000
vn -1.000000 0.000634 0.000000
vn -1.000000 0.000634 0.000000
vn -1.000000 0.000634 0.000000
vn -1.000000 0.000634 0.000000
vn 0.000000 1.000000 0.000000
vn 0.000000 1.000000 0.000000
vn 0.000000 1.000000 0.000000
vn 0.000000 1.000000 0.000000
vn 0.999999 0.001166 0.000000
vn 0.999999 0.001166 0.000000
vn 0.999999 0.001166 0.000000
vn 0.999999 0.001166 0.000000
vn -1.000000 0.000634 0.000000
vn -1.000000 0.000634 0.000000
vn -1.000000 0.000634 0.000000
vn -1.000000 0.000634 0.000000
vn 0.000000 1.000000 0.000000
vn 0.000000 1.000000 0.000000
vn 0.000000 1.000000 0.000000
vn 0.000000 1.000000 0.000000
vn 0.999999 0.001149 0.000000
vn 0.999999 0.001149 0.000000
vn 0.999999 0.001149 0.000000
vn 0.999999 0.001149 0.000000
vn 0.000000 -1.000000 0.000000
vn 0.000000 -1.000000 0.000000
vn 0.000000 -1.000000 0.000000
vn 0.000000 -1.000000 0.000000
vn 0.000000 -1.000000 0.000000
vn 0.000000 -1.000000 0.000000
vn 0.000000 -1.000000 0.000000
vn 0.000000 -1.000000 0.000000
vn -1.000000 0.000634 0.000000
vn -1.000000 0.000634 0.000000
vn -1.000000 0.000634 0.000000
vn -1.000000 0.000634 0.000000
vn 0.000000 1.000000 0.000000
vn 0.000000 1.000000 0.000000
vn 0.000000 1.000000 0.000000
vn 0.000000 1.000000 0.000000
vn 0.999999 0.001149 0.000000
vn 0.999999 0.001149 0.000000
vn 0.999999 0.001149 0.000000
vn 0.999999 0.001149 0.000000
s off
g Arch4 Arch:Arch
usemtl initialShadingGroup
f 2/41/1 4/42/2 7/43/3 5/44/4
f 3/45/5 1/46/6 6/47/7 8/48/8
s 1
f 10/1/9 15/2/10 16/3/11 9/4/12
s 2
f 13/9/13 14/10/14 11/11/15 12/12/16
f 6/13/17 1/14/18 14/10/14 13/9/13
s 1
f 16/3/11 15/2/10 3/5/19 8/6/20
s 2
f 12/12/16 11/11/15 2/15/21 5/16/22
s 1
f 7/7/23 4/8/24 10/1/9 9/4/12
s 3
f 14/73/25 15/74/26 18/75/27 17/76/28
f 15/74/26 10/79/29 19/80/30 18/75/27
f 10/79/29 11/81/31 20/82/32 19/80/30
f 11/81/31 14/73/25 17/76/28 20/82/32
s 4
f 16/93/33 13/94/34 22/95/35 21/96/36
f 13/94/34 12/99/37 23/100/38 22/95/35
f 12/99/37 9/101/39 24/102/40 23/100/38
f 9/101/39 16/93/33 21/96/36 24/102/40
s 3
f 1/83/41 3/85/42 25/86/43 26/84/44
f 3/85/42 15/74/26 27/78/45 25/86/43
f 15/74/26 14/73/25 28/77/46 27/78/45
f 14/73/25 1/83/41 26/84/44 28/77/46
s 4
f 8/103/47 6/105/48 29/106/49 30/104/50
f 6/105/48 13/94/34 31/98/51 29/106/49
f 13/94/34 16/93/33 32/97/52 31/98/51
f 16/93/33 8/103/47 30/104/50 32/97/52
s 3
f 11/81/31 10/79/29 33/87/53 34/88/54
f 10/79/29 4/89/55 35/90/56 33/87/53
f 4/89/55 2/91/57 36/92/58 35/90/56
f 2/91/57 11/81/31 34/88/54 36/92/58
s 4
f 9/101/39 12/99/37 37/107/59 38/108/60
f 12/99/37 5/109/61 39/110/62 37/107/59
f 5/109/61 7/111/63 40/112/64 39/110/62
f 7/111/63 9/101/39 38/108/60 40/112/64
s off
f 26/49/65 25/50/66 30/51/67 29/52/68
f 25/17/69 27/18/70 32/19/71 30/20/72
f 27/53/73 28/54/74 31/55/75 32/56/76
f 28/21/77 26/22/78 29/23/79 31/24/80
f 18/25/81 19/26/82 24/27/83 21/28/84
f 19/57/85 20/58/86 23/59/87 24/60/88
f 20/29/89 17/30/90 22/31/91 23/32/92
f 17/61/93 18/62/94 21/63/95 22/64/96
f 34/65/97 33/66/98 38/67/99 37/68/100
f 33/33/101 35/34/102 40/35/103 38/36/104
f 35/69/105 36/70/106 39/71/107 40/72/108
f 36/37/109 34/38/110 37/39/111 39/40/112
g default
v 0.000000 0.000000 0.000000
v 0.000000 2.000000 0.000000
v 0.000000 0.000000 -0.500000
v 0.000000 2.000000 -0.500000
v 0.046101 1.950000 0.000000
v 0.050000 0.049011 0.000000
v 0.046101 1.950000 -0.449141
v 0.050000 0.049011 -0.449141
v 0.750000 2.000000 0.000000
v 0.750000 2.000000 -0.500000
v 0.702094 1.950000 0.000000
v 0.702094 1.950000 -0.449141
v 0.750000 0.000000 0.000000
v 0.750000 0.000000 -0.500000
v 0.700000 0.049011 0.000000
v 0.700000 0.049011 -0.449141
vt 0.814353 0.487309
vt 0.814353 0.999999
vt 0.686181 0.999999
vt 0.686181 0.487309
vt 0.814531 0.974619
vt 0.814531 0.487309
vt 0.929666 0.487309
vt 0.929666 0.974619
vt 0.557830 1.000000
vt 0.557830 0.487309
vt 0.686003 0.487309
vt 0.686003 1.000000
vt 0.500186 0.487310
vt 0.500186 0.974619
vt 0.385051 0.974619
vt 0.385051 0.487310
vt 0.207335 0.397082
vt 0.207335 0.204823
vt 0.335508 0.204823
vt 0.335508 0.397082
vt 0.115135 0.512690
vt 0.115135 0.680851
vt 0.000000 0.680851
vt 0.000000 0.512690
vt 0.118477 0.512690
vt 0.233612 0.512690
vt 0.233612 0.679315
vt 0.118477 0.679315
vt 0.241891 0.012564
vt 0.370064 0.012564
vt 0.370064 0.204823
vt 0.241891 0.204823
vt 0.192525 0.512690
vt 0.192525 0.000000
vt 0.205343 0.012564
vt 0.204343 0.499873
vt 0.384784 0.000000
vt 0.371967 0.012564
vt 0.384784 0.512690
vt 0.372504 0.499873
vt 0.192259 0.000000
vt 0.192259 0.512690
vt 0.000000 0.512690
vt 0.000000 0.000000
vt 0.385051 0.487310
vt 0.386051 0.000000
vt 0.552675 0.000000
vt 0.553212 0.487310
vn -1.000000 0.000000 0.000000
vn -0.707107 0.707107 0.000000
vn -0.707107 0.707107 0.000000
vn -1.000000 0.000000 0.000000
vn 0.707832 -0.706381 0.000000
vn 0.999998 0.002051 0.000000
vn 0.999998 0.002051 0.000000
vn 0.707832 -0.706381 0.000000
vn -0.707107 0.707107 0.000000
vn 0.707107 0.707107 0.000000
vn 0.707107 0.707107 0.000000
vn -0.707107 0.707107 0.000000
vn -0.000000 -1.000000 0.000000
vn 0.707832 -0.706381 0.000000
vn 0.707832 -0.706381 0.000000
vn -0.000000 -1.000000 0.000000
vn 0.707107 0.707107 0.000000
vn 1.000000 0.000000 0.000000
vn 1.000000 0.000000 0.000000
vn 0.707107 0.707107 0.000000
vn -0.999999 0.001102 0.000000
vn -0.999999 0.001102 0.000000
vn -0.999999 0.001102 0.000000
vn -0.999999 0.001102 0.000000
vn 0.000000 0.000000 1.000000
vn 0.000000 0.000000 1.000000
vn 0.000000 0.000000 1.000000
vn 0.000000 0.000000 1.000000
vn 0.000000 0.000000 1.000000
vn 0.000000 0.000000 1.000000
vn 0.000000 0.000000 1.000000
vn 0.000000 0.000000 1.000000
vn 0.000000 0.000000 1.000000
vn 0.000000 0.000000 1.000000
vn 0.000000 0.000000 1.000000
vn 0.000000 0.000000 1.000000
vn 0.000000 1.000000 0.000000
vn 0.000000 1.000000 0.000000
vn 0.000000 1.000000 0.000000
vn 0.000000 1.000000 0.000000
vn -0.000000 -1.000000 0.000000
vn -0.000000 -1.000000 0.000000
vn -0.000000 -1.000000 0.000000
vn -0.000000 -1.000000 0.000000
vn 0.000000 0.000000 1.000000
vn 0.000000 0.000000 1.000000
vn 0.000000 0.000000 1.000000
vn 0.000000 0.000000 1.000000
vn 0.000000 0.000000 -1.000000
vn 0.000000 0.000000 -1.000000
vn 0.000000 0.000000 -1.000000
vn 0.000000 0.000000 -1.000000
vn 0.000000 0.000000 1.000000
vn 0.000000 0.000000 1.000000
vn 0.000000 0.000000 1.000000
vn 0.000000 0.000000 1.000000
s off
g Arch:Arch
usemtl initialShadingGroup
f 41/113/113 42/114/114 44/115/115 43/116/116
f 45/117/117 46/118/118 48/119/119 47/120/120
f 42/129/121 49/130/122 50/131/123 44/132/124
f 51/133/125 45/134/126 47/135/127 52/136/128
f 49/121/129 53/122/130 54/123/131 50/124/132
f 55/125/133 51/126/134 52/127/135 56/128/136
f 42/145/137 41/146/138 46/147/139 45/148/140
f 49/151/141 42/145/142 45/148/143 51/152/144
f 53/149/145 49/151/146 51/152/147 55/150/148
f 55/137/149 56/138/150 48/139/151 46/140/152
f 54/141/153 53/142/154 41/143/155 43/144/156
f 53/149/157 55/150/158 46/147/159 41/146/160
f 50/153/161 54/154/162 43/155/163 44/156/164
f 47/157/165 48/158/166 56/159/167 52/160/168
g default
v 0.046317 1.950000 -0.050000
v 0.048592 0.049011 -0.050000
v 0.701978 1.950000 -0.050000
v 0.700756 0.049011 -0.050000
v 0.048592 0.049011 0.000000
v 0.046317 1.950000 0.000000
v 0.700756 0.049011 0.000000
v 0.701978 1.950000 0.000000
v 0.701629 1.585074 0.000000
v 0.701629 1.585074 -0.050000
v 0.046968 1.585074 -0.050000
v 0.046968 1.585074 0.000000
v 0.046751 1.690685 0.000000
v 0.046751 1.690685 -0.050000
v 0.701745 1.690685 -0.050000
v 0.701745 1.690685 0.000000
v 0.203829 1.665685 -0.050000
v 0.544647 1.665685 -0.050000
v 0.544612 1.610074 -0.050000
v 0.203893 1.610074 -0.050000
v 0.544647 1.665685 0.000000
v 0.203829 1.665685 0.000000
v 0.203893 1.610074 0.000000
v 0.544612 1.610074 0.000000
v 0.544713 1.771295 -0.050000
v 0.203706 1.771295 -0.050000
v 0.544678 1.715685 -0.050000
v 0.203771 1.715685 -0.050000
v 0.203706 1.771295 0.000000
v 0.544713 1.771295 0.000000
v 0.203771 1.715685 0.000000
v 0.544678 1.715685 0.000000
v 0.544581 1.560074 -0.050000
v 0.203951 1.560074 -0.050000
v 0.544546 1.504464 -0.050000
v 0.204015 1.504464 -0.050000
v 0.203951 1.560074 0.000000
v 0.544581 1.560074 0.000000
v 0.204015 1.504464 0.000000
v 0.544546 1.504464 0.000000
vt 0.931016 0.393762
vt 0.931016 0.420835
vt 0.918198 0.420835
vt 0.918198 0.393762
vt 0.931016 0.487309
vt 0.918198 0.487309
vt 0.918198 0.000000
vt 0.931016 0.000000
vt 0.916206 0.420835
vt 0.903389 0.420835
vt 0.903389 0.393762
vt 0.916206 0.393762
vt 0.916206 0.487309
vt 0.903389 0.487309
vt 0.903389 0.000000
vt 0.916206 0.000000
vt 0.222145 0.114186
vt 0.222145 0.099931
vt 0.234962 0.099931
vt 0.234962 0.114186
vt 0.220152 0.099905
vt 0.220152 0.114161
vt 0.207335 0.114161
vt 0.207335 0.099905
vt 0.222145 0.142697
vt 0.222145 0.128442
vt 0.234962 0.128442
vt 0.234962 0.142697
vt 0.234962 0.114186
vt 0.234962 0.128442
vt 0.222145 0.128442
vt 0.222145 0.114186
vt 0.207335 0.142672
vt 0.207335 0.128416
vt 0.220152 0.128416
vt 0.220152 0.142672
vt 0.220152 0.114161
vt 0.220152 0.128416
vt 0.207335 0.128416
vt 0.207335 0.114161
vt 0.947818 0.167179
vt 0.947818 0.000000
vt 0.960635 0.000000
vt 0.960635 0.167179
vt 0.945825 0.000000
vt 0.945825 0.168075
vt 0.933008 0.168075
vt 0.933008 0.000000
vt 0.962627 0.087416
vt 0.962627 0.000000
vt 0.975445 0.000000
vt 0.975445 0.087416
vt 0.990254 0.000000
vt 0.990254 0.087390
vt 0.977437 0.087390
vt 0.977437 0.000000
vt 0.225089 0.012564
vt 0.225089 0.099905
vt 0.212272 0.099905
vt 0.212272 0.012564
vt 0.227081 0.099931
vt 0.227081 0.012564
vt 0.239899 0.012564
vt 0.239899 0.099931
vt 0.977437 0.174708
vt 0.977437 0.087390
vt 0.990254 0.087390
vt 0.990254 0.174708
vt 0.975445 0.087416
vt 0.975445 0.174709
vt 0.962627 0.174709
vt 0.962627 0.087416
vt 0.898574 0.420835
vt 0.730669 0.420835
vt 0.770940 0.414427
vt 0.858308 0.414427
vt 0.858323 0.427244
vt 0.770932 0.427244
vt 0.730699 0.393762
vt 0.770949 0.400171
vt 0.898518 0.393762
vt 0.858291 0.400171
vt 0.898685 0.487309
vt 0.858339 0.441499
vt 0.730610 0.487309
vt 0.770924 0.441499
vt 0.770957 0.387354
vt 0.858276 0.387354
vt 0.730923 -0.000000
vt 0.770966 0.373098
vt 0.898102 0.000000
vt 0.858260 0.373098
vt 0.725846 0.420835
vt 0.557942 0.420835
vt 0.598208 0.414427
vt 0.685575 0.414427
vt 0.685583 0.427244
vt 0.598193 0.427244
vt 0.557997 0.393762
vt 0.598224 0.400171
vt 0.725816 0.393762
vt 0.685566 0.400171
vt 0.725906 0.487309
vt 0.685592 0.441499
vt 0.557830 0.487309
vt 0.598176 0.441499
vt 0.598239 0.387354
vt 0.685558 0.387354
vt 0.558413 0.000000
vt 0.598255 0.373098
vt 0.725593 0.000000
vt 0.685549 0.373098
vn -0.000000 -1.000000 0.000000
vn -0.000000 -1.000000 0.000000
vn -0.000000 -1.000000 0.000000
vn -0.000000 -1.000000 0.000000
vn 0.000000 1.000000 0.000000
vn 0.000000 1.000000 0.000000
vn 0.000000 1.000000 0.000000
vn 0.000000 1.000000 0.000000
vn 1.000000 -0.000602 0.000000
vn 1.000000 -0.000957 0.000000
vn 1.000000 -0.000957 0.000000
vn 1.000000 -0.000602 0.000000
vn -0.999998 -0.001782 0.000000
vn -0.999998 -0.001782 0.000000
vn -0.999999 -0.001121 0.000000
vn -0.999999 -0.001121 0.000000
vn -0.999999 -0.001673 0.000000
vn -0.999999 -0.001673 0.000000
vn 1.000000 -0.000898 0.000000
vn 1.000000 -0.000898 0.000000
vn -0.999999 -0.001057 0.000000
vn -0.999999 -0.001057 0.000000
vn 1.000000 -0.000568 0.000000
vn 1.000000 -0.000568 0.000000
vn 0.000000 0.000000 -1.000000
vn 0.000000 0.000000 -1.000000
vn 0.000000 0.000000 -1.000000
vn 0.000000 0.000000 -1.000000
vn 0.000000 0.000000 -1.000000
vn 0.000000 0.000000 -1.000000
vn 0.000000 0.000000 -1.000000
vn 0.000000 0.000000 -1.000000
vn 0.000000 0.000000 1.000000
vn 0.000000 0.000000 1.000000
vn 0.000000 0.000000 1.000000
vn 0.000000 0.000000 1.000000
vn 0.000000 0.000000 1.000000
vn 0.000000 0.000000 1.000000
vn 0.000000 0.000000 1.000000
vn 0.000000 0.000000 1.000000
vn 0.000000 0.000000 -1.000000
vn 0.000000 0.000000 -1.000000
vn 0.000000 0.000000 -1.000000
vn 0.000000 0.000000 -1.000000
vn 0.000000 0.000000 -1.000000
vn 0.000000 0.000000 -1.000000
vn 0.000000 0.000000 1.000000
vn 0.000000 0.000000 1.000000
vn 0.000000 0.000000 1.000000
vn 0.000000 0.000000 1.000000
vn 0.000000 0.000000 1.000000
vn 0.000000 0.000000 1.000000
vn 0.000000 0.000000 -1.000000
vn 0.000000 0.000000 -1.000000
vn 0.000000 0.000000 -1.000000
vn 0.000000 0.000000 -1.000000
vn 0.000000 0.000000 -1.000000
vn 0.000000 0.000000 -1.000000
vn 0.000000 0.000000 1.000000
vn 0.000000 0.000000 1.000000
vn 0.000000 0.000000 1.000000
vn 0.000000 0.000000 1.000000
vn 0.000000 0.000000 1.000000
vn 0.000000 0.000000 1.000000
vn 0.000000 -1.000000 0.000000
vn 0.000000 -1.000000 0.000000
vn 0.000000 -1.000000 0.000000
vn 0.000000 -1.000000 0.000000
vn -1.000000 0.000634 0.000000
vn -1.000000 0.000634 0.000000
vn -1.000000 0.000634 0.000000
vn -1.000000 0.000634 0.000000
vn 0.000000 1.000000 0.000000
vn 0.000000 1.000000 0.000000
vn 0.000000 1.000000 0.000000
vn 0.000000 1.000000 0.000000
vn 0.999999 0.001166 0.000000
vn 0.999999 0.001166 0.000000
vn 0.999999 0.001166 0.000000
vn 0.999999 0.001166 0.000000
vn -1.000000 0.000634 0.000000
vn -1.000000 0.000634 0.000000
vn -1.000000 0.000634 0.000000
vn -1.000000 0.000634 0.000000
vn 0.000000 1.000000 0.000000
vn 0.000000 1.000000 0.000000
vn 0.000000 1.000000 0.000000
vn 0.000000 1.000000 0.000000
vn 0.999999 0.001149 0.000000
vn 0.999999 0.001149 0.000000
vn 0.999999 0.001149 0.000000
vn 0.999999 0.001149 0.000000
vn 0.000000 -1.000000 0.000000
vn 0.000000 -1.000000 0.000000
vn 0.000000 -1.000000 0.000000
vn 0.000000 -1.000000 0.000000
vn 0.000000 -1.000000 0.000000
vn 0.000000 -1.000000 0.000000
vn 0.000000 -1.000000 0.000000
vn 0.000000 -1.000000 0.000000
vn -1.000000 0.000634 0.000000
vn -1.000000 0.000634 0.000000
vn -1.000000 0.000634 0.000000
vn -1.000000 0.000634 0.000000
vn 0.000000 1.000000 0.000000
vn 0.000000 1.000000 0.000000
vn 0.000000 1.000000 0.000000
vn 0.000000 1.000000 0.000000
vn 0.999999 0.001149 0.000000
vn 0.999999 0.001149 0.000000
vn 0.999999 0.001149 0.000000
vn 0.999999 0.001149 0.000000
s off
g Arch4 Arch:Arch
f 58/201/169 60/202/170 63/203/171 61/204/172
f 59/205/173 57/206/174 62/207/175 64/208/176
s 1
f 66/161/177 71/162/178 72/163/179 65/164/180
s 2
f 69/169/181 70/170/182 67/171/183 68/172/184
f 62/173/185 57/174/186 70/170/182 69/169/181
s 1
f 72/163/179 71/162/178 59/165/187 64/166/188
s 2
f 68/172/184 67/171/183 58/175/189 61/176/190
s 1
f 63/167/191 60/168/192 66/161/177 65/164/180
s 3
f 70/233/193 71/234/194 74/235/195 73/236/196
f 71/234/194 66/239/197 75/240/198 74/235/195
f 66/239/197 67/241/199 76/242/200 75/240/198
f 67/241/199 70/233/193 73/236/196 76/242/200
s 4
f 72/253/201 69/254/202 78/255/203 77/256/204
f 69/254/202 68/259/205 79/260/206 78/255/203
f 68/259/205 65/261/207 80/262/208 79/260/206
f 65/261/207 72/253/201 77/256/204 80/262/208
s 3
f 57/243/209 59/245/210 81/246/211 82/244/212
f 59/245/210 71/234/194 83/238/213 81/246/211
f 71/234/194 70/233/193 84/237/214 83/238/213
f 70/233/193 57/243/209 82/244/212 84/237/214
s 4
f 64/263/215 62/265/216 85/266/217 86/264/218
f 62/265/216 69/254/202 87/258/219 85/266/217
f 69/254/202 72/253/201 88/257/220 87/258/219
f 72/253/201 64/263/215 86/264/218 88/257/220
s 3
f 67/241/199 66/239/197 89/247/221 90/248/222
f 66/239/197 60/249/223 91/250/224 89/247/221
f 60/249/223 58/251/225 92/252/226 91/250/224
f 58/251/225 67/241/199 90/248/222 92/252/226
s 4
f 65/261/207 68/259/205 93/267/227 94/268/228
f 68/259/205 61/269/229 95/270/230 93/267/227
f 61/269/229 63/271/231 96/272/232 95/270/230
f 63/271/231 65/261/207 94/268/228 96/272/232
s off
f 82/209/233 81/210/234 86/211/235 85/212/236
f 81/177/237 83/178/238 88/179/239 86/180/240
f 83/213/241 84/214/242 87/215/243 88/216/244
f 84/181/245 82/182/246 85/183/247 87/184/248
f 74/185/249 75/186/250 80/187/251 77/188/252
f 75/217/253 76/218/254 79/219/255 80/220/256
f 76/189/257 73/190/258 78/191/259 79/192/260
f 73/221/261 74/222/262 77/223/263 78/224/264
f 90/225/265 89/226/266 94/227/267 93/228/268
f 89/193/269 91/194/270 96/195/271 94/196/272
f 91/229/273 92/230/274 95/231/275 96/232/276
f 92/197/277 90/198/278 93/199/279 95/200/280
