# This file uses centimeters as units for non-parametric coordinates.

mtllib Casillero.mtl
g default
v -8.750000 0.000000 -0.500000
v -8.750000 2.000000 -0.500000
v -8.750000 0.000000 -1.000000
v -8.750000 2.000000 -1.000000
v -8.703899 1.950000 -0.500000
v -8.700000 0.049011 -0.500000
v -8.703899 1.950000 -0.949141
v -8.700000 0.049011 -0.949141
v -8.000000 2.000000 -0.500000
v -8.000000 2.000000 -1.000000
v -8.047906 1.950000 -0.500000
v -8.047906 1.950000 -0.949141
v -8.000000 0.000000 -0.500000
v -8.000000 0.000000 -1.000000
v -8.050000 0.049011 -0.500000
v -8.050000 0.049011 -0.949141
vt 0.129652 0.002977
vt 0.129652 0.513683
vt 0.001975 0.513683
vt 0.001975 0.002977
vt 0.874844 0.489041
vt 0.874844 0.003617
vt 0.989534 0.003617
vt 0.989534 0.489041
vt 0.134588 0.513683
vt 0.134588 0.002977
vt 0.262265 0.002977
vt 0.262265 0.513683
vt 0.989534 0.496451
vt 0.989534 0.981875
vt 0.874844 0.981875
vt 0.874844 0.496451
vt 0.001975 0.699113
vt 0.001975 0.522433
vt 0.119762 0.522433
vt 0.119762 0.699113
vt 0.462077 0.684386
vt 0.462077 0.838921
vt 0.356271 0.838921
vt 0.356271 0.684386
vt 0.245430 0.702564
vt 0.351236 0.702564
vt 0.351236 0.855687
vt 0.245430 0.855687
vt 0.124692 0.520894
vt 0.242479 0.520894
vt 0.242479 0.697575
vt 0.124692 0.697575
vt 0.267202 0.513683
vt 0.267202 0.002977
vt 0.279970 0.015492
vt 0.278974 0.500915
vt 0.458716 0.002977
vt 0.445949 0.015492
vt 0.458716 0.513683
vt 0.446484 0.500915
vt 0.654668 0.004021
vt 0.654668 0.514727
vt 0.463153 0.514726
vt 0.463153 0.004021
vt 0.467112 0.978006
vt 0.468054 0.518696
vt 0.625104 0.518696
vt 0.625610 0.978006
vn -1.000000 0.000000 0.000000
vn -0.707107 0.707107 0.000000
vn -0.707107 0.707107 0.000000
vn -1.000000 0.000000 0.000000
vn 0.707832 -0.706381 0.000000
vn 0.999998 0.002051 0.000000
vn 0.999998 0.002051 0.000000
vn 0.707832 -0.706381 0.000000
vn -0.707107 0.707107 0.000000
vn 0.707107 0.707107 0.000000
vn 0.707107 0.707107 0.000000
vn -0.707107 0.707107 0.000000
vn -0.000000 -1.000000 0.000000
vn 0.707832 -0.706381 0.000000
vn 0.707832 -0.706381 0.000000
vn -0.000000 -1.000000 0.000000
vn 0.707107 0.707107 0.000000
vn 1.000000 0.000000 0.000000
vn 1.000000 0.000000 0.000000
vn 0.707107 0.707107 0.000000
vn -0.999999 0.001102 0.000000
vn -0.999999 0.001102 0.000000
vn -0.999999 0.001102 0.000000
vn -0.999999 0.001102 0.000000
vn 0.000000 0.000000 1.000000
vn 0.000000 0.000000 1.000000
vn 0.000000 0.000000 1.000000
vn 0.000000 0.000000 1.000000
vn 0.000000 0.000000 1.000000
vn 0.000000 0.000000 1.000000
vn 0.000000 0.000000 1.000000
vn 0.000000 0.000000 1.000000
vn 0.000000 0.000000 1.000000
vn 0.000000 0.000000 1.000000
vn 0.000000 0.000000 1.000000
vn 0.000000 0.000000 1.000000
vn 0.000000 1.000000 0.000000
vn 0.000000 1.000000 0.000000
vn 0.000000 1.000000 0.000000
vn 0.000000 1.000000 0.000000
vn -0.000000 -1.000000 0.000000
vn -0.000000 -1.000000 0.000000
vn -0.000000 -1.000000 0.000000
vn -0.000000 -1.000000 0.000000
vn 0.000000 0.000000 1.000000
vn 0.000000 0.000000 1.000000
vn 0.000000 0.000000 1.000000
vn 0.000000 0.000000 1.000000
vn 0.000000 0.000000 -1.000000
vn 0.000000 0.000000 -1.000000
vn 0.000000 0.000000 -1.000000
vn 0.000000 0.000000 -1.000000
vn 0.000000 0.000000 1.000000
vn 0.000000 0.000000 1.000000
vn 0.000000 0.000000 1.000000
vn 0.000000 0.000000 1.000000
s off
g Arch:Arch Modulos_LP
usemtl set16
f 1/1/1 2/2/2 4/3/3 3/4/4
f 5/5/5 6/6/6 8/7/7 7/8/8
f 2/17/9 9/18/10 10/19/11 4/20/12
f 11/21/13 5/22/14 7/23/15 12/24/16
f 9/9/17 13/10/18 14/11/19 10/12/20
f 15/13/21 11/14/22 12/15/23 16/16/24
f 2/33/25 1/34/26 6/35/27 5/36/28
f 9/39/29 2/33/30 5/36/31 11/40/32
f 13/37/33 9/39/34 11/40/35 15/38/36
f 15/25/37 16/26/38 8/27/39 6/28/40
f 14/29/41 13/30/42 1/31/43 3/32/44
f 13/37/45 15/38/46 6/35/47 1/34/48
f 10/41/49 14/42/50 3/43/51 4/44/52
f 7/45/53 8/46/54 16/47/55 12/48/56
g default
v -8.702274 1.950000 -0.550000
v -8.700000 0.049011 -0.550000
v -8.046614 1.950000 -0.550000
v -8.047835 0.049011 -0.550000
v -8.700000 0.049011 -0.500000
v -8.702274 1.950000 -0.500000
v -8.047835 0.049011 -0.500000
v -8.046614 1.950000 -0.500000
v -8.046963 1.585074 -0.500000
v -8.046963 1.585074 -0.550000
v -8.701624 1.585074 -0.550000
v -8.701624 1.585074 -0.500000
v -8.701840 1.690685 -0.500000
v -8.701840 1.690685 -0.550000
v -8.046846 1.690685 -0.550000
v -8.046846 1.690685 -0.500000
v -8.544763 1.665685 -0.550000
v -8.203944 1.665685 -0.550000
v -8.203979 1.610074 -0.550000
v -8.544699 1.610074 -0.550000
v -8.203944 1.665685 -0.500000
v -8.544763 1.665685 -0.500000
v -8.544699 1.610074 -0.500000
v -8.203979 1.610074 -0.500000
v -8.203878 1.771295 -0.550000
v -8.544886 1.771295 -0.550000
v -8.203914 1.715685 -0.550000
v -8.544821 1.715685 -0.550000
v -8.544886 1.771295 -0.500000
v -8.203878 1.771295 -0.500000
v -8.544821 1.715685 -0.500000
v -8.203914 1.715685 -0.500000
v -8.204010 1.560074 -0.550000
v -8.544641 1.560074 -0.550000
v -8.204045 1.504464 -0.550000
v -8.544577 1.504464 -0.550000
v -8.544641 1.560074 -0.500000
v -8.204010 1.560074 -0.500000
v -8.544577 1.504464 -0.500000
v -8.204045 1.504464 -0.500000
vt 0.672095 0.401079
vt 0.672095 0.428518
vt 0.659104 0.428518
vt 0.659104 0.401079
vt 0.672095 0.495891
vt 0.659104 0.495891
vt 0.659104 0.001992
vt 0.672095 0.001992
vt 0.689909 0.428518
vt 0.676918 0.428518
vt 0.676918 0.401079
vt 0.689909 0.401079
vt 0.689909 0.495891
vt 0.676918 0.495891
vt 0.676918 0.001992
vt 0.689909 0.001992
vt 0.001975 0.730687
vt 0.001975 0.705253
vt 0.024844 0.705253
vt 0.024844 0.730687
vt 0.052554 0.705298
vt 0.052554 0.730733
vt 0.029685 0.730733
vt 0.029685 0.705298
vt 0.057396 0.729199
vt 0.057396 0.703764
vt 0.080264 0.703764
vt 0.080264 0.729199
vt 0.107974 0.705107
vt 0.107974 0.730542
vt 0.085106 0.730542
vt 0.085106 0.705107
vt 0.112816 0.729209
vt 0.112816 0.703775
vt 0.135685 0.703775
vt 0.135685 0.729209
vt 0.163395 0.705072
vt 0.163395 0.730507
vt 0.140526 0.730507
vt 0.140526 0.705072
vt 0.631394 0.818488
vt 0.631394 0.520209
vt 0.654263 0.520209
vt 0.654263 0.818488
vt 0.860107 0.503985
vt 0.860107 0.803863
vt 0.837238 0.803863
vt 0.837238 0.503985
vt 0.247409 0.676479
vt 0.247409 0.520514
vt 0.270277 0.520514
vt 0.270277 0.676479
vt 0.297988 0.520514
vt 0.297988 0.676434
vt 0.275119 0.676434
vt 0.275119 0.520514
vt 0.353408 0.520702
vt 0.353408 0.676535
vt 0.330540 0.676535
vt 0.330540 0.520702
vt 0.302829 0.676581
vt 0.302829 0.520702
vt 0.325698 0.520702
vt 0.325698 0.676581
vt 0.358250 0.676682
vt 0.358250 0.520889
vt 0.381118 0.520889
vt 0.381118 0.676682
vt 0.408829 0.520612
vt 0.408829 0.676359
vt 0.385960 0.676359
vt 0.385960 0.520612
vt 0.866946 0.428518
vt 0.696771 0.428518
vt 0.737587 0.422023
vt 0.826135 0.422023
vt 0.826150 0.435013
vt 0.737579 0.435013
vt 0.696801 0.401079
vt 0.737596 0.407574
vt 0.866890 0.401079
vt 0.826119 0.407574
vt 0.867059 0.495891
vt 0.826167 0.449461
vt 0.696711 0.495891
vt 0.737570 0.449461
vt 0.737604 0.394584
vt 0.826104 0.394584
vt 0.697028 0.001992
vt 0.737613 0.380136
vt 0.866468 0.001992
vt 0.826087 0.380136
vt 0.829392 0.930635
vt 0.659217 0.930635
vt 0.700028 0.924140
vt 0.788576 0.924140
vt 0.788584 0.937130
vt 0.700013 0.937130
vt 0.659273 0.903196
vt 0.700044 0.909691
vt 0.829362 0.903196
vt 0.788567 0.909691
vt 0.829452 0.998008
vt 0.788593 0.951578
vt 0.659104 0.998008
vt 0.699996 0.951578
vt 0.700059 0.896701
vt 0.788559 0.896701
vt 0.659695 0.504109
vt 0.700076 0.882253
vt 0.829135 0.504109
vt 0.788550 0.882253
vn -0.000000 -1.000000 0.000000
vn -0.000000 -1.000000 0.000000
vn -0.000000 -1.000000 0.000000
vn -0.000000 -1.000000 0.000000
vn 0.000000 1.000000 0.000000
vn 0.000000 1.000000 0.000000
vn 0.000000 1.000000 0.000000
vn 0.000000 1.000000 0.000000
vn 1.000000 -0.000603 0.000000
vn 1.000000 -0.000957 0.000000
vn 1.000000 -0.000957 0.000000
vn 1.000000 -0.000603 0.000000
vn -0.999998 -0.001782 0.000000
vn -0.999998 -0.001782 0.000000
vn -0.999999 -0.001121 0.000000
vn -0.999999 -0.001121 0.000000
vn -0.999999 -0.001673 0.000000
vn -0.999999 -0.001673 0.000000
vn 1.000000 -0.000896 0.000000
vn 1.000000 -0.000896 0.000000
vn -0.999999 -0.001057 0.000000
vn -0.999999 -0.001057 0.000000
vn 1.000000 -0.000568 0.000000
vn 1.000000 -0.000568 0.000000
vn 0.000000 0.000000 -1.000000
vn 0.000000 0.000000 -1.000000
vn 0.000000 0.000000 -1.000000
vn -0.000000 0.000000 -1.000000
vn -0.000000 0.000000 -1.000000
vn 0.000000 0.000000 -1.000000
vn -0.000000 0.000000 -1.000000
vn -0.000000 0.000000 -1.000000
vn 0.000000 0.000000 1.000000
vn 0.000000 0.000000 1.000000
vn 0.000000 0.000000 1.000000
vn 0.000000 0.000000 1.000000
vn 0.000000 0.000000 1.000000
vn 0.000000 0.000000 1.000000
vn 0.000000 0.000000 1.000000
vn 0.000000 0.000000 1.000000
vn 0.000000 0.000000 -1.000000
vn 0.000000 0.000000 -1.000000
vn 0.000000 0.000000 -1.000000
vn 0.000000 0.000000 -1.000000
vn 0.000000 0.000000 -1.000000
vn 0.000000 0.000000 -1.000000
vn 0.000000 0.000000 1.000000
vn 0.000000 0.000000 1.000000
vn 0.000000 0.000000 1.000000
vn 0.000000 0.000000 1.000000
vn 0.000000 0.000000 1.000000
vn 0.000000 0.000000 1.000000
vn -0.000000 0.000000 -1.000000
vn 0.000000 0.000000 -1.000000
vn -0.000000 0.000000 -1.000000
vn -0.000000 0.000000 -1.000000
vn 0.000000 0.000000 -1.000000
vn 0.000000 0.000000 -1.000000
vn 0.000000 0.000000 1.000000
vn 0.000000 0.000000 1.000000
vn 0.000000 0.000000 1.000000
vn 0.000000 0.000000 1.000000
vn 0.000000 0.000000 1.000000
vn 0.000000 0.000000 1.000000
vn 0.000000 -1.000000 0.000000
vn 0.000000 -1.000000 0.000000
vn 0.000000 -1.000000 0.000000
vn 0.000000 -1.000000 0.000000
vn -1.000000 0.000632 0.000000
vn -1.000000 0.000632 0.000000
vn -1.000000 0.000632 0.000000
vn -1.000000 0.000632 0.000000
vn 0.000000 1.000000 0.000000
vn 0.000000 1.000000 0.000000
vn 0.000000 1.000000 0.000000
vn 0.000000 1.000000 0.000000
vn 0.999999 0.001168 0.000000
vn 0.999999 0.001168 0.000000
vn 0.999999 0.001168 0.000000
vn 0.999999 0.001168 0.000000
vn -1.000000 0.000643 0.000000
vn -1.000000 0.000643 0.000000
vn -1.000000 0.000643 0.000000
vn -1.000000 0.000643 0.000000
vn 0.000000 1.000000 0.000000
vn 0.000000 1.000000 0.000000
vn 0.000000 1.000000 0.000000
vn 0.000000 1.000000 0.000000
vn 0.999999 0.001147 0.000000
vn 0.999999 0.001147 0.000000
vn 0.999999 0.001147 0.000000
vn 0.999999 0.001147 0.000000
vn 0.000000 -1.000000 0.000000
vn 0.000000 -1.000000 0.000000
vn 0.000000 -1.000000 0.000000
vn 0.000000 -1.000000 0.000000
vn 0.000000 -1.000000 0.000000
vn 0.000000 -1.000000 0.000000
vn 0.000000 -1.000000 0.000000
vn 0.000000 -1.000000 0.000000
vn -1.000000 0.000632 0.000000
vn -1.000000 0.000632 0.000000
vn -1.000000 0.000632 0.000000
vn -1.000000 0.000632 0.000000
vn 0.000000 1.000000 0.000000
vn 0.000000 1.000000 0.000000
vn 0.000000 1.000000 0.000000
vn 0.000000 1.000000 0.000000
vn 0.999999 0.001158 0.000000
vn 0.999999 0.001158 0.000000
vn 0.999999 0.001158 0.000000
vn 0.999999 0.001158 0.000000
s off
g Arch:Arch Modulos_LP Arch3
usemtl set16
f 18/89/57 20/90/58 23/91/59 21/92/60
f 19/93/61 17/94/62 22/95/63 24/96/64
s 1
f 26/49/65 31/50/66 32/51/67 25/52/68
s 2
f 29/57/69 30/58/70 27/59/71 28/60/72
f 22/61/73 17/62/74 30/58/70 29/57/69
s 1
f 32/51/67 31/50/66 19/53/75 24/54/76
s 2
f 28/60/72 27/59/71 18/63/77 21/64/78
s 1
f 23/55/79 20/56/80 26/49/65 25/52/68
s 3
f 30/121/81 31/122/82 34/123/83 33/124/84
f 31/122/82 26/127/85 35/128/86 34/123/83
f 26/127/85 27/129/87 36/130/88 35/128/86
f 27/129/87 30/121/81 33/124/84 36/130/88
s 4
f 32/141/89 29/142/90 38/143/91 37/144/92
f 29/142/90 28/147/93 39/148/94 38/143/91
f 28/147/93 25/149/95 40/150/96 39/148/94
f 25/149/95 32/141/89 37/144/92 40/150/96
s 3
f 17/131/97 19/133/98 41/134/99 42/132/100
f 19/133/98 31/122/82 43/126/101 41/134/99
f 31/122/82 30/121/81 44/125/102 43/126/101
f 30/121/81 17/131/97 42/132/100 44/125/102
s 4
f 24/151/103 22/153/104 45/154/105 46/152/106
f 22/153/104 29/142/90 47/146/107 45/154/105
f 29/142/90 32/141/89 48/145/108 47/146/107
f 32/141/89 24/151/103 46/152/106 48/145/108
s 3
f 27/129/87 26/127/85 49/135/109 50/136/110
f 26/127/85 20/137/111 51/138/112 49/135/109
f 20/137/111 18/139/113 52/140/114 51/138/112
f 18/139/113 27/129/87 50/136/110 52/140/114
s 4
f 25/149/95 28/147/93 53/155/115 54/156/116
f 28/147/93 21/157/117 55/158/118 53/155/115
f 21/157/117 23/159/119 56/160/120 55/158/118
f 23/159/119 25/149/95 54/156/116 56/160/120
s off
f 42/97/121 41/98/122 46/99/123 45/100/124
f 41/65/125 43/66/126 48/67/127 46/68/128
f 43/101/129 44/102/130 47/103/131 48/104/132
f 44/69/133 42/70/134 45/71/135 47/72/136
f 34/73/137 35/74/138 40/75/139 37/76/140
f 35/105/141 36/106/142 39/107/143 40/108/144
f 36/77/145 33/78/146 38/79/147 39/80/148
f 33/109/149 34/110/150 37/111/151 38/112/152
f 50/113/153 49/114/154 54/115/155 53/116/156
f 49/81/157 51/82/158 56/83/159 54/84/160
f 51/117/161 52/118/162 55/119/163 56/120/164
f 52/85/165 50/86/166 53/87/167 55/88/168
g default
v -8.702274 1.950000 -0.550000
v -8.700000 0.049011 -0.550000
v -8.046614 1.950000 -0.550000
v -8.047835 0.049011 -0.550000
v -8.700000 0.049011 -0.500000
v -8.702274 1.950000 -0.500000
v -8.047835 0.049011 -0.500000
v -8.046614 1.950000 -0.500000
v -8.046963 1.585074 -0.500000
v -8.046963 1.585074 -0.550000
v -8.701624 1.585074 -0.550000
v -8.701624 1.585074 -0.500000
v -8.701840 1.690685 -0.500000
v -8.701840 1.690685 -0.550000
v -8.046846 1.690685 -0.550000
v -8.046846 1.690685 -0.500000
v -8.544763 1.665685 -0.550000
v -8.203944 1.665685 -0.550000
v -8.203979 1.610074 -0.550000
v -8.544699 1.610074 -0.550000
v -8.203944 1.665685 -0.500000
v -8.544763 1.665685 -0.500000
v -8.544699 1.610074 -0.500000
v -8.203979 1.610074 -0.500000
v -8.203878 1.771295 -0.550000
v -8.544886 1.771295 -0.550000
v -8.203914 1.715685 -0.550000
v -8.544821 1.715685 -0.550000
v -8.544886 1.771295 -0.500000
v -8.203878 1.771295 -0.500000
v -8.544821 1.715685 -0.500000
v -8.203914 1.715685 -0.500000
v -8.204010 1.560074 -0.550000
v -8.544641 1.560074 -0.550000
v -8.204045 1.504464 -0.550000
v -8.544577 1.504464 -0.550000
v -8.544641 1.560074 -0.500000
v -8.204010 1.560074 -0.500000
v -8.544577 1.504464 -0.500000
v -8.204045 1.504464 -0.500000
vt 0.672095 0.401079
vt 0.672095 0.428518
vt 0.659104 0.428518
vt 0.659104 0.401079
vt 0.672095 0.495891
vt 0.659104 0.495891
vt 0.659104 0.001992
vt 0.672095 0.001992
vt 0.689909 0.428518
vt 0.676918 0.428518
vt 0.676918 0.401079
vt 0.689909 0.401079
vt 0.689909 0.495891
vt 0.676918 0.495891
vt 0.676918 0.001992
vt 0.689909 0.001992
vt 0.001975 0.730687
vt 0.001975 0.705253
vt 0.024844 0.705253
vt 0.024844 0.730687
vt 0.052554 0.705298
vt 0.052554 0.730733
vt 0.029685 0.730733
vt 0.029685 0.705298
vt 0.057396 0.729199
vt 0.057396 0.703764
vt 0.080264 0.703764
vt 0.080264 0.729199
vt 0.107974 0.705107
vt 0.107974 0.730542
vt 0.085106 0.730542
vt 0.085106 0.705107
vt 0.112816 0.729209
vt 0.112816 0.703775
vt 0.135685 0.703775
vt 0.135685 0.729209
vt 0.163395 0.705072
vt 0.163395 0.730507
vt 0.140526 0.730507
vt 0.140526 0.705072
vt 0.631394 0.818488
vt 0.631394 0.520209
vt 0.654263 0.520209
vt 0.654263 0.818488
vt 0.860107 0.503985
vt 0.860107 0.803863
vt 0.837238 0.803863
vt 0.837238 0.503985
vt 0.247409 0.676479
vt 0.247409 0.520514
vt 0.270277 0.520514
vt 0.270277 0.676479
vt 0.297988 0.520514
vt 0.297988 0.676434
vt 0.275119 0.676434
vt 0.275119 0.520514
vt 0.353408 0.520702
vt 0.353408 0.676535
vt 0.330540 0.676535
vt 0.330540 0.520702
vt 0.302829 0.676581
vt 0.302829 0.520702
vt 0.325698 0.520702
vt 0.325698 0.676581
vt 0.358250 0.676682
vt 0.358250 0.520889
vt 0.381118 0.520889
vt 0.381118 0.676682
vt 0.408829 0.520612
vt 0.408829 0.676359
vt 0.385960 0.676359
vt 0.385960 0.520612
vt 0.866946 0.428518
vt 0.696771 0.428518
vt 0.737587 0.422023
vt 0.826135 0.422023
vt 0.826150 0.435013
vt 0.737579 0.435013
vt 0.696801 0.401079
vt 0.737596 0.407574
vt 0.866890 0.401079
vt 0.826119 0.407574
vt 0.867059 0.495891
vt 0.826167 0.449461
vt 0.696711 0.495891
vt 0.737570 0.449461
vt 0.737604 0.394584
vt 0.826104 0.394584
vt 0.697028 0.001992
vt 0.737613 0.380136
vt 0.866468 0.001992
vt 0.826087 0.380136
vt 0.829392 0.930635
vt 0.659217 0.930635
vt 0.700028 0.924140
vt 0.788576 0.924140
vt 0.788584 0.937130
vt 0.700013 0.937130
vt 0.659273 0.903196
vt 0.700044 0.909691
vt 0.829362 0.903196
vt 0.788567 0.909691
vt 0.829452 0.998008
vt 0.788593 0.951578
vt 0.659104 0.998008
vt 0.699996 0.951578
vt 0.700059 0.896701
vt 0.788559 0.896701
vt 0.659695 0.504109
vt 0.700076 0.882253
vt 0.829135 0.504109
vt 0.788550 0.882253
vn -0.000000 -1.000000 0.000000
vn -0.000000 -1.000000 0.000000
vn -0.000000 -1.000000 0.000000
vn -0.000000 -1.000000 0.000000
vn 0.000000 1.000000 0.000000
vn 0.000000 1.000000 0.000000
vn 0.000000 1.000000 0.000000
vn 0.000000 1.000000 0.000000
vn 1.000000 -0.000603 0.000000
vn 1.000000 -0.000957 0.000000
vn 1.000000 -0.000957 0.000000
vn 1.000000 -0.000603 0.000000
vn -0.999998 -0.001782 0.000000
vn -0.999998 -0.001782 0.000000
vn -0.999999 -0.001121 0.000000
vn -0.999999 -0.001121 0.000000
vn -0.999999 -0.001673 0.000000
vn -0.999999 -0.001673 0.000000
vn 1.000000 -0.000896 0.000000
vn 1.000000 -0.000896 0.000000
vn -0.999999 -0.001057 0.000000
vn -0.999999 -0.001057 0.000000
vn 1.000000 -0.000568 0.000000
vn 1.000000 -0.000568 0.000000
vn 0.000000 0.000000 -1.000000
vn 0.000000 0.000000 -1.000000
vn 0.000000 0.000000 -1.000000
vn -0.000000 0.000000 -1.000000
vn -0.000000 0.000000 -1.000000
vn 0.000000 0.000000 -1.000000
vn -0.000000 0.000000 -1.000000
vn -0.000000 0.000000 -1.000000
vn 0.000000 0.000000 1.000000
vn 0.000000 0.000000 1.000000
vn 0.000000 0.000000 1.000000
vn 0.000000 0.000000 1.000000
vn 0.000000 0.000000 1.000000
vn 0.000000 0.000000 1.000000
vn 0.000000 0.000000 1.000000
vn 0.000000 0.000000 1.000000
vn 0.000000 0.000000 -1.000000
vn 0.000000 0.000000 -1.000000
vn 0.000000 0.000000 -1.000000
vn 0.000000 0.000000 -1.000000
vn 0.000000 0.000000 -1.000000
vn 0.000000 0.000000 -1.000000
vn 0.000000 0.000000 1.000000
vn 0.000000 0.000000 1.000000
vn 0.000000 0.000000 1.000000
vn 0.000000 0.000000 1.000000
vn 0.000000 0.000000 1.000000
vn 0.000000 0.000000 1.000000
vn -0.000000 0.000000 -1.000000
vn 0.000000 0.000000 -1.000000
vn -0.000000 0.000000 -1.000000
vn -0.000000 0.000000 -1.000000
vn 0.000000 0.000000 -1.000000
vn 0.000000 0.000000 -1.000000
vn 0.000000 0.000000 1.000000
vn 0.000000 0.000000 1.000000
vn 0.000000 0.000000 1.000000
vn 0.000000 0.000000 1.000000
vn 0.000000 0.000000 1.000000
vn 0.000000 0.000000 1.000000
vn 0.000000 -1.000000 0.000000
vn 0.000000 -1.000000 0.000000
vn 0.000000 -1.000000 0.000000
vn 0.000000 -1.000000 0.000000
vn -1.000000 0.000632 0.000000
vn -1.000000 0.000632 0.000000
vn -1.000000 0.000632 0.000000
vn -1.000000 0.000632 0.000000
vn 0.000000 1.000000 0.000000
vn 0.000000 1.000000 0.000000
vn 0.000000 1.000000 0.000000
vn 0.000000 1.000000 0.000000
vn 0.999999 0.001168 0.000000
vn 0.999999 0.001168 0.000000
vn 0.999999 0.001168 0.000000
vn 0.999999 0.001168 0.000000
vn -1.000000 0.000643 0.000000
vn -1.000000 0.000643 0.000000
vn -1.000000 0.000643 0.000000
vn -1.000000 0.000643 0.000000
vn 0.000000 1.000000 0.000000
vn 0.000000 1.000000 0.000000
vn 0.000000 1.000000 0.000000
vn 0.000000 1.000000 0.000000
vn 0.999999 0.001147 0.000000
vn 0.999999 0.001147 0.000000
vn 0.999999 0.001147 0.000000
vn 0.999999 0.001147 0.000000
vn 0.000000 -1.000000 0.000000
vn 0.000000 -1.000000 0.000000
vn 0.000000 -1.000000 0.000000
vn 0.000000 -1.000000 0.000000
vn 0.000000 -1.000000 0.000000
vn 0.000000 -1.000000 0.000000
vn 0.000000 -1.000000 0.000000
vn 0.000000 -1.000000 0.000000
vn -1.000000 0.000632 0.000000
vn -1.000000 0.000632 0.000000
vn -1.000000 0.000632 0.000000
vn -1.000000 0.000632 0.000000
vn 0.000000 1.000000 0.000000
vn 0.000000 1.000000 0.000000
vn 0.000000 1.000000 0.000000
vn 0.000000 1.000000 0.000000
vn 0.999999 0.001158 0.000000
vn 0.999999 0.001158 0.000000
vn 0.999999 0.001158 0.000000
vn 0.999999 0.001158 0.000000
s off
g Arch:Arch Modulos_LP Arch3
f 58/201/169 60/202/170 63/203/171 61/204/172
f 59/205/173 57/206/174 62/207/175 64/208/176
s 1
f 66/161/177 71/162/178 72/163/179 65/164/180
s 2
f 69/169/181 70/170/182 67/171/183 68/172/184
f 62/173/185 57/174/186 70/170/182 69/169/181
s 1
f 72/163/179 71/162/178 59/165/187 64/166/188
s 2
f 68/172/184 67/171/183 58/175/189 61/176/190
s 1
f 63/167/191 60/168/192 66/161/177 65/164/180
s 3
f 70/233/193 71/234/194 74/235/195 73/236/196
f 71/234/194 66/239/197 75/240/198 74/235/195
f 66/239/197 67/241/199 76/242/200 75/240/198
f 67/241/199 70/233/193 73/236/196 76/242/200
s 4
f 72/253/201 69/254/202 78/255/203 77/256/204
f 69/254/202 68/259/205 79/260/206 78/255/203
f 68/259/205 65/261/207 80/262/208 79/260/206
f 65/261/207 72/253/201 77/256/204 80/262/208
s 3
f 57/243/209 59/245/210 81/246/211 82/244/212
f 59/245/210 71/234/194 83/238/213 81/246/211
f 71/234/194 70/233/193 84/237/214 83/238/213
f 70/233/193 57/243/209 82/244/212 84/237/214
s 4
f 64/263/215 62/265/216 85/266/217 86/264/218
f 62/265/216 69/254/202 87/258/219 85/266/217
f 69/254/202 72/253/201 88/257/220 87/258/219
f 72/253/201 64/263/215 86/264/218 88/257/220
s 3
f 67/241/199 66/239/197 89/247/221 90/248/222
f 66/239/197 60/249/223 91/250/224 89/247/221
f 60/249/223 58/251/225 92/252/226 91/250/224
f 58/251/225 67/241/199 90/248/222 92/252/226
s 4
f 65/261/207 68/259/205 93/267/227 94/268/228
f 68/259/205 61/269/229 95/270/230 93/267/227
f 61/269/229 63/271/231 96/272/232 95/270/230
f 63/271/231 65/261/207 94/268/228 96/272/232
s off
f 82/209/233 81/210/234 86/211/235 85/212/236
f 81/177/237 83/178/238 88/179/239 86/180/240
f 83/213/241 84/214/242 87/215/243 88/216/244
f 84/181/245 82/182/246 85/183/247 87/184/248
f 74/185/249 75/186/250 80/187/251 77/188/252
f 75/217/253 76/218/254 79/219/255 80/220/256
f 76/189/257 73/190/258 78/191/259 79/192/260
f 73/221/261 74/222/262 77/223/263 78/224/264
f 90/225/265 89/226/266 94/227/267 93/228/268
f 89/193/269 91/194/270 96/195/271 94/196/272
f 91/229/273 92/230/274 95/231/275 96/232/276
f 92/197/277 90/198/278 93/199/279 95/200/280
