# This file uses centimeters as units for non-parametric coordinates.

g default
v -0.492398 0.000000 0.258520
v -0.381620 0.000000 0.369299
v -0.459952 0.000000 0.336852
v 0.492398 0.000000 0.258520
v 0.459952 0.000000 0.336852
v 0.381620 0.000000 0.369299
v -0.492398 0.000000 -0.258520
v -0.459952 0.000000 -0.336852
v -0.381620 0.000000 -0.369299
v 0.492398 0.000000 -0.258520
v 0.381620 0.000000 -0.369299
v 0.459952 0.000000 -0.336852
v 0.387511 0.000000 0.262511
v 0.387511 0.000000 -0.262511
v -0.387512 0.000000 0.262511
v -0.387512 0.000000 -0.262511
v 0.387511 0.010000 -0.262511
v 0.385522 0.010000 -0.365000
v -0.385522 0.010000 -0.365000
v -0.387512 0.010000 -0.262511
v 0.385522 0.010000 0.365000
v 0.387511 0.010000 0.262511
v -0.387512 0.010000 0.262511
v -0.385522 0.010000 0.365000
v 0.490000 0.010000 0.260522
v 0.459399 0.010000 0.334399
v 0.490000 0.010000 -0.260522
v 0.459399 0.010000 -0.334399
v -0.459399 0.010000 -0.334399
v -0.490000 0.010000 -0.260522
v -0.490000 0.010000 0.260522
v -0.459399 0.010000 0.334399
v -0.404606 0.040000 -0.391543
v 0.404606 0.040000 -0.391543
v -0.402530 0.040000 -0.381102
v 0.402530 0.040000 -0.381102
v -0.404606 0.040000 0.391543
v 0.404606 0.040000 0.391543
v 0.402530 0.040000 0.381102
v -0.402530 0.040000 0.381102
v 0.487657 0.040000 0.357143
v 0.479666 0.040000 0.349151
v 0.522058 0.040000 0.274092
v 0.511617 0.040000 0.272015
v 0.522058 0.040000 -0.274092
v 0.511617 0.040000 -0.272015
v 0.487657 0.040000 -0.357143
v 0.479666 0.040000 -0.349151
v -0.487657 0.040000 -0.357143
v -0.479666 0.040000 -0.349151
v -0.522058 0.040000 -0.274092
v -0.511617 0.040000 -0.272015
v -0.522058 0.040000 0.274092
v -0.511617 0.040000 0.272015
v -0.487657 0.040000 0.357143
v -0.479666 0.040000 0.349151
v -0.992929 0.335714 -0.007071
v -1.000000 0.335714 -0.010000
v -1.007071 0.335714 -0.007071
v -1.010000 0.335714 0.000000
v -1.007071 0.335714 0.007071
v -1.000000 0.335714 0.010000
v -0.992929 0.335714 0.007071
v -0.990000 0.335714 0.000000
v -0.992929 0.535714 -0.007071
v -1.000000 0.535714 -0.010000
v -1.007071 0.535714 -0.007071
v -1.010000 0.535714 0.000000
v -1.007071 0.535714 0.007071
v -1.000000 0.535714 0.010000
v -0.992929 0.535714 0.007071
v -0.990000 0.535714 0.000000
v -1.000000 0.335714 0.000000
v -1.000000 0.535714 0.000000
v -0.936700 0.000000 -0.036546
v -0.963454 0.000000 -0.063300
v -1.000000 0.000000 -0.073093
v -1.036546 0.000000 -0.063300
v -1.063300 0.000000 -0.036546
v -1.073093 0.000000 0.000000
v -1.063300 0.000000 0.036546
v -1.036546 0.000000 0.063300
v -1.000000 0.000000 0.073093
v -0.963454 0.000000 0.063300
v -0.936700 0.000000 0.036546
v -0.926907 0.000000 0.000000
v -1.000000 0.000000 0.000000
v -1.000000 0.400000 0.000000
v -1.049557 0.386841 -0.085836
v -1.000000 0.386841 -0.099115
v -0.950442 0.386841 -0.085836
v -0.914164 0.386841 -0.049557
v -0.900885 0.386841 0.000000
v -0.914164 0.386841 0.049557
v -0.950442 0.386841 0.085836
v -1.000000 0.386841 0.099115
v -1.049557 0.386841 0.085836
v -1.085836 0.386841 0.049557
v -1.099115 0.386841 0.000000
v -1.085836 0.386841 -0.049557
v -1.054721 0.386147 -0.094780
v -1.000000 0.386147 -0.109443
v -1.053681 0.399305 -0.092979
v -1.000000 0.399305 -0.107363
v -0.945279 0.386147 -0.094780
v -0.946318 0.399305 -0.092979
v -0.905220 0.386147 -0.054721
v -0.907021 0.399305 -0.053682
v -0.890557 0.386147 0.000000
v -0.892637 0.399305 0.000000
v -0.905220 0.386147 0.054721
v -0.907021 0.399305 0.053682
v -0.945279 0.386147 0.094780
v -0.946318 0.399305 0.092979
v -1.000000 0.386147 0.109443
v -1.000000 0.399305 0.107363
v -1.054721 0.386147 0.094780
v -1.053681 0.399305 0.092979
v -1.094780 0.386147 0.054721
v -1.092979 0.399305 0.053682
v -1.109443 0.386147 0.000000
v -1.107363 0.399305 0.000000
v -1.094780 0.386147 -0.054721
v -1.092979 0.399305 -0.053682
vt 0.935343 0.276888
vt 0.935343 0.044364
vt 0.974137 0.037361
vt 0.974137 0.283891
vt 0.935343 0.009137
vt 0.974137 0.000012
vt 0.935343 0.312116
vt 0.974137 0.321241
vt 0.935343 0.633342
vt 0.935343 0.598115
vt 0.974137 0.605118
vt 0.974137 0.642467
vt 0.935343 0.365591
vt 0.974137 0.358588
vt 0.935343 0.330363
vt 0.974137 0.321238
vt 0.576433 0.695788
vt 0.576433 0.662757
vt 0.605359 0.656161
vt 0.605359 0.690649
vt 0.576433 0.928754
vt 0.605359 0.933893
vt 0.576433 0.961786
vt 0.605359 0.968382
vt 0.728698 0.155619
vt 0.728698 0.122587
vt 0.757625 0.115992
vt 0.757624 0.150480
vt 0.728698 0.388585
vt 0.757624 0.393724
vt 0.728698 0.421617
vt 0.757624 0.428212
vt 0.059977 0.493068
vt 0.061141 0.433538
vt 0.512357 0.433538
vt 0.513522 0.493068
vt 0.017908 0.451312
vt 0.000000 0.494223
vt 0.555591 0.451312
vt 0.573498 0.494223
vt 0.059977 0.798022
vt 0.513522 0.798022
vt 0.000000 0.796867
vt 0.573498 0.796866
vt 0.061141 0.857551
vt 0.512357 0.857551
vt 0.017908 0.839777
vt 0.555591 0.839777
vt 0.628729 0.066344
vt 0.628729 0.348954
vt 0.563503 0.351136
vt 0.563503 0.064163
vt 0.559839 0.409505
vt 0.608552 0.391770
vt 0.081540 0.351136
vt 0.081540 0.064163
vt 0.559839 0.005794
vt 0.608552 0.023529
vt 0.085204 0.409505
vt 0.016314 0.348954
vt 0.016314 0.066344
vt 0.085204 0.005794
vt 0.036491 0.391770
vt 0.036491 0.023529
vt 0.568958 0.433538
vt 0.072113 0.433538
vt 0.073389 0.427758
vt 0.567683 0.427758
vt 0.021121 0.414494
vt 0.026028 0.410070
vt 0.619950 0.414494
vt 0.615043 0.410070
vt 0.000000 0.368516
vt 0.006411 0.367366
vt 0.641071 0.368516
vt 0.634661 0.367366
vt 0.000000 0.065035
vt 0.006411 0.066185
vt 0.641071 0.065035
vt 0.634661 0.066185
vt 0.021121 0.019058
vt 0.026028 0.023482
vt 0.619950 0.019058
vt 0.615043 0.023482
vt 0.072113 0.000013
vt 0.073389 0.005794
vt 0.568958 0.000013
vt 0.567683 0.005794
vt 0.934759 0.394497
vt 0.934759 0.679312
vt 0.891839 0.687890
vt 0.891839 0.385919
vt 0.934759 0.708543
vt 0.891839 0.718882
vt 0.934759 0.365265
vt 0.891839 0.354927
vt 0.891839 0.353617
vt 0.891839 0.324386
vt 0.934759 0.332964
vt 0.934759 0.363955
vt 0.891839 0.039570
vt 0.934759 0.030992
vt 0.891839 0.010339
vt 0.934759 0.000000
vt 0.967972 0.958744
vt 0.967972 0.672461
vt 1.000000 0.666146
vt 1.000000 0.965059
vt 0.967972 0.645031
vt 1.000000 0.637506
vt 0.967972 0.986174
vt 1.000000 0.993699
vt 0.967372 0.669584
vt 0.967372 0.955867
vt 0.935343 0.962182
vt 0.935343 0.663269
vt 0.967372 0.983297
vt 0.935343 0.990822
vt 0.967372 0.642154
vt 0.935343 0.634629
vt 0.672954 0.120868
vt 0.677416 0.120869
vt 0.677387 0.237472
vt 0.672925 0.237471
vt 0.641718 0.120860
vt 0.646181 0.120861
vt 0.646151 0.237464
vt 0.641689 0.237463
vt 0.650643 0.120862
vt 0.650613 0.237465
vt 0.655105 0.120863
vt 0.655076 0.237467
vt 0.659567 0.120864
vt 0.659538 0.237468
vt 0.664030 0.120865
vt 0.664000 0.237469
vt 0.668492 0.120867
vt 0.668462 0.237470
vt 0.026290 0.009933
vt 0.022177 0.011664
vt 0.022144 0.005834
vt 0.027974 0.005801
vt 0.026243 0.001688
vt 0.022111 0.000004
vt 0.017998 0.001735
vt 0.016314 0.005867
vt 0.018045 0.009980
vt 0.001723 0.001692
vt 0.005853 -0.000000
vt 0.005830 0.005830
vt 0.009968 0.001723
vt 0.011660 0.005853
vt 0.009937 0.009969
vt 0.005808 0.011660
vt 0.001692 0.009937
vt 0.000000 0.005808
vt 0.837230 0.430731
vt 0.863206 0.430731
vt 0.863206 0.656179
vt 0.837230 0.656179
vt 0.889036 0.430731
vt 0.889036 0.656179
vt 0.576433 0.430731
vt 0.602124 0.430731
vt 0.602124 0.656179
vt 0.576433 0.656179
vt 0.627986 0.430731
vt 0.627986 0.656179
vt 0.653986 0.430731
vt 0.653986 0.656179
vt 0.680094 0.430731
vt 0.680094 0.656179
vt 0.706278 0.430731
vt 0.706278 0.656179
vt 0.732507 0.430731
vt 0.732507 0.656179
vt 0.758748 0.430731
vt 0.758748 0.656179
vt 0.784970 0.430731
vt 0.784970 0.656179
vt 0.811141 0.430731
vt 0.811141 0.656179
vt 0.663441 0.050275
vt 0.669192 0.028979
vt 0.706055 0.050357
vt 0.669109 0.071593
vt 0.684677 0.087221
vt 0.705973 0.092971
vt 0.727291 0.087303
vt 0.742919 0.071736
vt 0.748670 0.050440
vt 0.743002 0.029122
vt 0.727434 0.013493
vt 0.706138 0.007743
vt 0.684820 0.013411
vt 0.823921 0.114628
vt 0.878177 0.145844
vt 0.855300 0.168790
vt 0.824015 0.177223
vt 0.792705 0.168884
vt 0.769759 0.146007
vt 0.761326 0.114722
vt 0.769665 0.083412
vt 0.792542 0.060466
vt 0.823827 0.052033
vt 0.855137 0.060372
vt 0.878083 0.083249
vt 0.886516 0.114534
vt 0.048942 0.409505
vt 0.080152 0.409505
vt 0.080152 0.417181
vt 0.048942 0.417181
vt 0.414945 0.409505
vt 0.445847 0.409505
vt 0.445847 0.417181
vt 0.414945 0.417181
vt 0.382924 0.409505
vt 0.382924 0.417181
vt 0.349992 0.409505
vt 0.349992 0.417181
vt 0.316365 0.409505
vt 0.316365 0.417181
vt 0.282262 0.409505
vt 0.282262 0.417181
vt 0.247906 0.409505
vt 0.247906 0.417181
vt 0.213520 0.409505
vt 0.213520 0.417181
vt 0.179331 0.409505
vt 0.179331 0.417181
vt 0.145560 0.409505
vt 0.145560 0.417181
vt 0.112428 0.409505
vt 0.112428 0.417181
vt 0.755241 0.034400
vt 0.733867 0.013475
vt 0.736829 0.008216
vt 0.760435 0.031327
vt 0.763289 0.063209
vt 0.769324 0.063145
vt 0.755853 0.092183
vt 0.761112 0.095145
vt 0.734928 0.113556
vt 0.738001 0.118751
vt 0.706119 0.121604
vt 0.706183 0.127639
vt 0.677145 0.114169
vt 0.674184 0.119427
vt 0.655772 0.093243
vt 0.650577 0.096316
vt 0.647724 0.064434
vt 0.641689 0.064498
vt 0.655159 0.035461
vt 0.649901 0.032499
vt 0.676085 0.014087
vt 0.673012 0.008893
vt 0.704894 0.006040
vt 0.704830 0.000004
vn 0.022429 -0.495708 -0.868200
vn -0.022429 -0.495708 -0.868200
vn -0.051534 -0.507827 -0.859916
vn 0.051534 -0.507827 -0.859916
vn -0.796009 -0.604217 -0.035928
vn -0.796009 -0.604217 0.035928
vn -0.792052 -0.608108 0.053462
vn -0.792052 -0.608108 -0.053462
vn -0.528203 -0.645613 0.551531
vn -0.554036 -0.648519 0.521985
vn -0.022429 -0.495708 0.868200
vn -0.051534 -0.507827 0.859916
vn 0.022429 -0.495708 0.868200
vn 0.528202 -0.645613 0.551531
vn 0.554036 -0.648519 0.521985
vn 0.051534 -0.507827 0.859916
vn 0.796009 -0.604217 0.035928
vn 0.792052 -0.608109 0.053462
vn -0.528202 -0.645613 -0.551531
vn -0.554036 -0.648519 -0.521985
vn 0.528203 -0.645613 -0.551531
vn 0.554036 -0.648519 -0.521985
vn 0.796009 -0.604217 -0.035928
vn 0.792052 -0.608109 -0.053462
vn 0.000000 1.000000 0.000000
vn 0.000000 1.000000 0.000000
vn 0.000000 1.000000 0.000000
vn 0.000000 1.000000 0.000000
vn 0.000000 -1.000000 0.000000
vn 0.000000 -1.000000 0.000000
vn 0.000000 -1.000000 0.000000
vn 0.000000 -1.000000 0.000000
vn 0.000000 1.000000 -0.000000
vn 0.000000 1.000000 -0.000000
vn 0.000000 1.000000 0.000000
vn 0.000000 1.000000 0.000000
vn 0.000000 1.000000 -0.000000
vn 0.000000 1.000000 -0.000000
vn 0.000000 1.000000 0.000000
vn 0.000000 1.000000 0.000000
vn 0.000000 1.000000 0.000000
vn 0.000000 1.000000 0.000000
vn 0.000000 1.000000 0.000000
vn 0.000000 1.000000 0.000000
vn 0.000000 -1.000000 0.000000
vn 0.000000 -1.000000 0.000000
vn 0.000000 -1.000000 0.000000
vn 0.000000 -1.000000 0.000000
vn 0.000000 -1.000000 0.000000
vn 0.000000 -1.000000 0.000000
vn 0.000000 -1.000000 0.000000
vn 0.000000 -1.000000 0.000000
vn 0.000000 -1.000000 0.000000
vn 0.000000 -1.000000 0.000000
vn 0.000000 -1.000000 0.000000
vn 0.000000 -1.000000 0.000000
vn 0.000000 1.000000 0.000000
vn 0.000000 1.000000 0.000000
vn 0.000000 1.000000 0.000000
vn 0.000000 1.000000 0.000000
vn 0.000000 1.000000 -0.000000
vn 0.000000 1.000000 -0.000000
vn 0.000000 1.000000 -0.000000
vn 0.000000 1.000000 -0.000000
vn 0.000000 1.000000 0.000000
vn 0.000000 1.000000 0.000000
vn 0.000000 1.000000 0.000000
vn 0.000000 1.000000 0.000000
vn 0.000000 1.000000 -0.000000
vn 0.000000 1.000000 -0.000000
vn 0.000000 1.000000 -0.000000
vn 0.000000 1.000000 -0.000000
vn 0.000000 1.000000 -0.000000
vn 0.000000 1.000000 -0.000000
vn 0.000000 1.000000 -0.000000
vn 0.000000 1.000000 -0.000000
vn 0.000000 1.000000 0.000000
vn 0.000000 1.000000 0.000000
vn 0.000000 1.000000 0.000000
vn 0.000000 1.000000 0.000000
vn 0.021194 0.482117 0.875851
vn -0.021194 0.482117 0.875851
vn -0.049023 0.493787 0.868200
vn 0.049023 0.493787 0.868200
vn -0.021194 0.482117 -0.875851
vn 0.021194 0.482117 -0.875851
vn 0.049023 0.493787 -0.868200
vn -0.049023 0.493787 -0.868200
vn -0.534170 0.635181 -0.557860
vn -0.560347 0.638168 -0.527971
vn -0.804587 0.592849 -0.034205
vn -0.800868 0.596654 -0.051130
vn -0.804587 0.592849 0.034205
vn -0.800869 0.596654 0.051130
vn -0.534170 0.635181 0.557860
vn -0.560347 0.638168 0.527971
vn 0.534170 0.635181 0.557860
vn 0.560347 0.638168 0.527971
vn 0.804587 0.592849 0.034205
vn 0.800868 0.596654 0.051130
vn 0.804587 0.592849 -0.034205
vn 0.800869 0.596654 -0.051130
vn 0.534170 0.635181 -0.557860
vn 0.560347 0.638168 -0.527971
vn 0.707107 0.000000 -0.707106
vn 0.000000 0.000000 -1.000000
vn 0.000000 0.000000 -1.000000
vn 0.707107 0.000000 -0.707106
vn -0.707107 0.000000 -0.707106
vn -0.707107 0.000000 -0.707106
vn -1.000000 0.000000 0.000000
vn -1.000000 0.000000 0.000000
vn -0.707107 0.000000 0.707106
vn -0.707107 0.000000 0.707106
vn -0.000000 0.000000 1.000000
vn -0.000000 0.000000 1.000000
vn 0.707107 0.000000 0.707106
vn 0.707107 0.000000 0.707106
vn 1.000000 0.000000 0.000000
vn 1.000000 0.000000 0.000000
vn 0.000000 -1.000000 0.000000
vn 0.000000 -1.000000 0.000000
vn 0.000000 -1.000000 0.000000
vn 0.000000 -1.000000 0.000000
vn 0.000000 -1.000000 0.000000
vn 0.000000 -1.000000 0.000000
vn 0.000000 -1.000000 0.000000
vn 0.000000 -1.000000 0.000000
vn 0.000000 -1.000000 0.000000
vn 0.000000 1.000000 0.000000
vn 0.000000 1.000000 0.000000
vn 0.000000 1.000000 0.000000
vn 0.000000 1.000000 0.000000
vn 0.000000 1.000000 0.000000
vn 0.000000 1.000000 0.000000
vn 0.000000 1.000000 0.000000
vn 0.000000 1.000000 0.000000
vn 0.000000 1.000000 0.000000
vn 0.864073 -0.067116 -0.498872
vn 0.498872 -0.067116 -0.864073
vn 0.498872 -0.067116 -0.864073
vn 0.864073 -0.067116 -0.498872
vn 0.000000 -0.067116 -0.997745
vn 0.000000 -0.067116 -0.997745
vn -0.498873 -0.067116 -0.864073
vn -0.498873 -0.067116 -0.864073
vn -0.864073 -0.067116 -0.498872
vn -0.864073 -0.067116 -0.498872
vn -0.997745 -0.067116 0.000000
vn -0.997745 -0.067116 0.000000
vn -0.864073 -0.067116 0.498872
vn -0.864073 -0.067116 0.498872
vn -0.498873 -0.067116 0.864073
vn -0.498873 -0.067116 0.864073
vn 0.000000 -0.067116 0.997745
vn 0.000000 -0.067116 0.997745
vn 0.498872 -0.067116 0.864073
vn 0.498872 -0.067116 0.864073
vn 0.864073 -0.067116 0.498872
vn 0.864073 -0.067116 0.498872
vn 0.997745 -0.067116 0.000000
vn 0.997745 -0.067116 0.000000
vn 0.000000 -1.000000 0.000000
vn 0.000000 -1.000000 0.000000
vn 0.000000 -1.000000 0.000000
vn 0.000000 -1.000000 0.000000
vn 0.000000 -1.000000 0.000000
vn 0.000000 -1.000000 0.000000
vn 0.000000 -1.000000 0.000000
vn 0.000000 -1.000000 0.000000
vn 0.000000 -1.000000 0.000000
vn 0.000000 -1.000000 0.000000
vn 0.000000 -1.000000 0.000000
vn 0.000000 -1.000000 0.000000
vn 0.000000 -1.000000 0.000000
vn 0.000000 1.000000 -0.000000
vn 0.005604 0.999979 -0.003236
vn 0.003236 0.999979 -0.005604
vn 0.000001 0.999979 -0.006470
vn -0.003235 0.999979 -0.005603
vn -0.005604 0.999979 -0.003235
vn -0.006471 0.999979 -0.000000
vn -0.005604 0.999979 0.003235
vn -0.003235 0.999979 0.005604
vn 0.000000 0.999979 0.006471
vn 0.003236 0.999979 0.005603
vn 0.005604 0.999979 0.003235
vn 0.006471 0.999979 -0.000000
vn 0.000000 0.156096 -0.987742
vn -0.493873 0.156097 -0.855408
vn -0.493871 0.156097 -0.855410
vn -0.000000 0.156096 -0.987742
vn 0.493871 0.156095 -0.855410
vn 0.493870 0.156095 -0.855410
vn 0.855410 0.156092 -0.493871
vn 0.855411 0.156092 -0.493870
vn 0.987743 0.156089 0.000000
vn 0.987743 0.156089 0.000000
vn 0.855410 0.156096 0.493871
vn 0.855409 0.156096 0.493871
vn 0.493870 0.156098 0.855410
vn 0.493870 0.156098 0.855410
vn 0.000000 0.156098 0.987742
vn 0.000000 0.156098 0.987742
vn -0.493871 0.156100 0.855409
vn -0.493869 0.156100 0.855410
vn -0.855409 0.156097 0.493872
vn -0.855409 0.156097 0.493871
vn -0.987743 0.156089 -0.000000
vn -0.987743 0.156089 -0.000000
vn -0.855410 0.156090 -0.493872
vn -0.855410 0.156090 -0.493871
vn -0.000001 -0.997745 0.067116
vn 0.033557 -0.997746 0.058120
vn 0.033557 -0.997745 0.058120
vn -0.000001 -0.997745 0.067116
vn -0.033559 -0.997745 0.058127
vn -0.033559 -0.997745 0.058127
vn -0.058127 -0.997745 0.033560
vn -0.058127 -0.997745 0.033560
vn -0.067119 -0.997745 0.000000
vn -0.067119 -0.997745 0.000000
vn -0.058126 -0.997745 -0.033559
vn -0.058126 -0.997745 -0.033559
vn -0.033558 -0.997745 -0.058125
vn -0.033558 -0.997745 -0.058125
vn -0.000000 -0.997745 -0.067115
vn -0.000000 -0.997745 -0.067115
vn 0.033558 -0.997745 -0.058123
vn 0.033557 -0.997745 -0.058123
vn 0.058124 -0.997745 -0.033558
vn 0.058124 -0.997745 -0.033558
vn 0.067117 -0.997745 0.000000
vn 0.067117 -0.997745 -0.000000
vn 0.058124 -0.997745 0.033556
vn 0.058124 -0.997745 0.033556
s 1
g pCube9
f 11/89/1 9/90/2 33/91/3 34/92/4
f 7/1/5 1/2/6 53/3/7 51/4/8
f 1/2/6 3/5/9 55/6/10 53/3/7
f 3/97/9 2/98/11 37/99/12 55/100/10
f 6/101/13 5/103/14 41/104/15 38/102/16
f 5/9/14 4/10/17 43/11/18 41/12/15
f 8/7/19 7/1/5 51/4/8 49/8/20
f 9/90/2 8/93/19 49/94/20 33/91/3
f 12/95/21 11/89/1 34/92/4 47/96/22
f 10/13/23 12/15/21 47/16/22 45/14/24
s 4
f 17/33/25 18/34/26 19/35/27 20/36/28
s 5
f 10/49/29 4/50/30 13/51/31 14/52/32
s 4
f 21/45/33 22/41/34 23/42/35 24/46/36
f 22/41/34 17/33/25 20/36/28 23/42/35
f 25/43/37 22/41/34 21/45/33 26/47/38
f 27/38/39 17/33/25 22/41/34 25/43/37
f 28/37/40 18/34/26 17/33/25 27/38/39
f 20/36/28 19/35/27 29/39/41 30/40/42
f 23/42/35 20/36/28 30/40/42 31/44/43
f 24/46/36 23/42/35 31/44/43 32/48/44
s 5
f 10/49/29 14/52/32 11/57/45 12/58/46
f 6/53/47 13/51/31 4/50/30 5/54/48
f 2/59/49 15/55/50 13/51/31 6/53/47
f 14/52/32 13/51/31 15/55/50 16/56/51
f 11/57/45 14/52/32 16/56/51 9/62/52
f 1/60/53 15/55/50 2/59/49 3/63/54
f 16/56/51 15/55/50 1/60/53 7/61/55
f 9/62/52 16/56/51 7/61/55 8/64/56
s 7
f 34/65/57 33/66/58 35/67/59 36/68/60
f 37/85/61 38/87/62 39/88/63 40/86/64
f 38/87/62 41/83/65 42/84/66 39/88/63
f 41/83/65 43/79/67 44/80/68 42/84/66
f 43/79/67 45/75/69 46/76/70 44/80/68
f 47/71/71 34/65/57 36/68/60 48/72/72
f 45/75/69 47/71/71 48/72/72 46/76/70
f 33/66/58 49/69/73 50/70/74 35/67/59
f 49/69/73 51/73/75 52/74/76 50/70/74
f 51/73/75 53/77/77 54/78/78 52/74/76
f 53/77/77 55/81/79 56/82/80 54/78/78
f 55/81/79 37/85/61 40/86/64 56/82/80
s 9
f 19/105/81 18/106/82 36/107/83 35/108/84
s 1
f 6/101/13 38/102/16 37/99/12 2/98/11
s 9
f 21/113/85 24/114/86 40/115/87 39/116/88
f 26/119/89 21/113/85 39/116/88 42/120/90
f 25/17/91 26/18/89 42/19/90 44/20/92
s 1
f 10/13/23 45/14/24 43/11/18 4/10/17
s 9
f 27/21/93 25/17/91 44/20/92 46/22/94
f 18/106/82 28/109/95 48/110/96 36/107/83
f 28/23/95 27/21/93 46/22/94 48/24/96
f 29/111/97 19/105/81 35/108/84 50/112/98
f 30/25/99 29/26/97 50/27/98 52/28/100
f 31/29/101 30/25/99 52/28/100 54/30/102
f 32/31/103 31/29/101 54/30/102 56/32/104
f 24/114/86 32/117/103 56/118/104 40/115/87
s 11
f 57/121/105 58/122/106 66/123/107 65/124/108
f 58/125/106 59/126/109 67/127/110 66/128/107
f 59/126/109 60/129/111 68/130/112 67/127/110
f 60/129/111 61/131/113 69/132/114 68/130/112
f 61/131/113 62/133/115 70/134/116 69/132/114
f 62/133/115 63/135/117 71/136/118 70/134/116
f 63/135/117 64/137/119 72/138/120 71/136/118
f 64/137/119 57/121/105 65/124/108 72/138/120
s 12
f 58/139/121 57/140/122 73/141/123
f 59/142/124 58/139/121 73/141/123
f 60/143/125 59/142/124 73/141/123
f 61/144/126 60/143/125 73/141/123
f 62/145/127 61/144/126 73/141/123
f 63/146/128 62/145/127 73/141/123
f 64/147/129 63/146/128 73/141/123
f 57/140/122 64/147/129 73/141/123
s 13
f 65/148/130 66/149/131 74/150/132
f 66/149/131 67/151/133 74/150/132
f 67/151/133 68/152/134 74/150/132
f 68/152/134 69/153/135 74/150/132
f 69/153/135 70/154/136 74/150/132
f 70/154/136 71/155/137 74/150/132
f 71/155/137 72/156/138 74/150/132
f 72/156/138 65/148/130 74/150/132
s 14
f 75/157/139 76/158/140 91/159/141 92/160/142
f 76/158/140 77/161/143 90/162/144 91/159/141
f 77/163/143 78/164/145 89/165/146 90/166/144
f 78/164/145 79/167/147 100/168/148 89/165/146
f 79/167/147 80/169/149 99/170/150 100/168/148
f 80/169/149 81/171/151 98/172/152 99/170/150
f 81/171/151 82/173/153 97/174/154 98/172/152
f 82/173/153 83/175/155 96/176/156 97/174/154
f 83/175/155 84/177/157 95/178/158 96/176/156
f 84/177/157 85/179/159 94/180/160 95/178/158
f 85/179/159 86/181/161 93/182/162 94/180/160
f 86/181/161 75/157/139 92/160/142 93/182/162
s 15
f 76/183/163 75/184/164 87/185/165
f 77/186/166 76/183/163 87/185/165
f 78/187/167 77/186/166 87/185/165
f 79/188/168 78/187/167 87/185/165
f 80/189/169 79/188/168 87/185/165
f 81/190/170 80/189/169 87/185/165
f 82/191/171 81/190/170 87/185/165
f 83/192/172 82/191/171 87/185/165
f 84/193/173 83/192/172 87/185/165
f 85/194/174 84/193/173 87/185/165
f 86/195/175 85/194/174 87/185/165
f 75/184/164 86/195/175 87/185/165
s 16
f 88/196/176 108/197/177 106/198/178
f 88/196/176 106/198/178 104/199/179
f 88/196/176 104/199/179 103/200/180
f 88/196/176 103/200/180 124/201/181
f 88/196/176 124/201/181 122/202/182
f 88/196/176 122/202/182 120/203/183
f 88/196/176 120/203/183 118/204/184
f 88/196/176 118/204/184 116/205/185
f 88/196/176 116/205/185 114/206/186
f 88/196/176 114/206/186 112/207/187
f 88/196/176 112/207/187 110/208/188
f 88/196/176 110/208/188 108/197/177
s 17
f 102/209/189 101/210/190 103/211/191 104/212/192
f 105/213/193 102/214/189 104/215/192 106/216/194
f 107/217/195 105/213/193 106/216/194 108/218/196
f 109/219/197 107/217/195 108/218/196 110/220/198
f 111/221/199 109/219/197 110/220/198 112/222/200
f 113/223/201 111/221/199 112/222/200 114/224/202
f 115/225/203 113/223/201 114/224/202 116/226/204
f 117/227/205 115/225/203 116/226/204 118/228/206
f 119/229/207 117/227/205 118/228/206 120/230/208
f 121/231/209 119/229/207 120/230/208 122/232/210
f 123/233/211 121/231/209 122/232/210 124/234/212
f 101/210/190 123/233/211 124/234/212 103/211/191
s 18
f 90/235/213 89/236/214 101/237/215 102/238/216
f 91/239/217 90/235/213 102/238/216 105/240/218
f 92/241/219 91/239/217 105/240/218 107/242/220
f 93/243/221 92/241/219 107/242/220 109/244/222
f 94/245/223 93/243/221 109/244/222 111/246/224
f 95/247/225 94/245/223 111/246/224 113/248/226
f 96/249/227 95/247/225 113/248/226 115/250/228
f 97/251/229 96/249/227 115/250/228 117/252/230
f 98/253/231 97/251/229 117/252/230 119/254/232
f 99/255/233 98/253/231 119/254/232 121/256/234
f 100/257/235 99/255/233 121/256/234 123/258/236
f 89/236/214 100/257/235 123/258/236 101/237/215
