# This file uses centimeters as units for non-parametric coordinates.

mtllib conducto.mtl
g default
v 14.250000 1.500000 0.500000
v 14.250000 0.000000 0.500000
v 14.500000 1.250000 0.500000
v 14.500000 0.250000 0.500000
v 15.500000 0.250000 0.500000
v 15.750000 0.000000 0.500000
v 15.500000 1.250000 0.500000
v 15.750000 1.500000 0.500000
v 14.250000 1.500000 -0.500000
v 14.500000 1.250000 -0.500000
v 14.250000 0.000000 -0.500000
v 14.500000 0.250000 -0.500000
v 15.500000 0.250000 -0.500000
v 15.500000 1.250000 -0.500000
v 15.750000 0.000000 -0.500000
v 15.750000 1.500000 -0.500000
vt 0.250603 0.992764
vt 0.250603 0.744573
vt 0.498794 0.744573
vt 0.498794 0.992764
vt 0.751809 0.992764
vt 0.751809 0.744573
vt 1.000000 0.744573
vt 1.000000 0.992764
vt 0.624096 0.372287
vt 0.624096 0.744573
vt 0.375905 0.744573
vt 0.375905 0.372287
vt 0.874699 0.372286
vt 0.626508 0.372286
vt 0.626508 0.000000
vt 0.874699 0.000000
vt 0.248191 0.744573
vt 0.248191 0.992764
vt 0.000000 0.992764
vt 0.000000 0.744573
vt 0.375905 0.372287
vt 0.375905 0.000000
vt 0.624095 0.000000
vt 0.624095 0.372287
vt 0.501206 0.744573
vt 0.749397 0.744573
vt 0.749397 0.992764
vt 0.501206 0.992764
vt 0.626508 0.372286
vt 0.874698 0.372286
vt 0.874698 0.744573
vt 0.626508 0.744573
vt 0.000000 0.744573
vt 0.000000 0.372286
vt 0.062048 0.434334
vt 0.062048 0.682525
vt 0.372287 0.372286
vt 0.310239 0.434334
vt 0.310239 0.682525
vt 0.372287 0.744573
vt 0.000000 0.000000
vt 0.062048 0.062048
vt 0.062048 0.310239
vt 0.000000 0.372286
vt 0.372287 0.000000
vt 0.310239 0.062048
vt 0.310239 0.310239
vt 0.372287 0.372286
vn 0.000000 0.000000 1.000000
vn 0.000000 0.000000 1.000000
vn 0.000000 0.000000 1.000000
vn 0.000000 0.000000 1.000000
vn 0.000000 0.000000 1.000000
vn 0.000000 0.000000 1.000000
vn 0.000000 0.000000 1.000000
vn 0.000000 0.000000 1.000000
vn 0.000000 0.000000 1.000000
vn 0.000000 0.000000 1.000000
vn 0.000000 0.000000 1.000000
vn 0.000000 0.000000 1.000000
vn 0.000000 0.000000 -1.000000
vn 0.000000 0.000000 -1.000000
vn 0.000000 0.000000 -1.000000
vn 0.000000 0.000000 -1.000000
vn 0.000000 0.000000 -1.000000
vn 0.000000 0.000000 -1.000000
vn 0.000000 0.000000 -1.000000
vn 0.000000 0.000000 -1.000000
vn 0.000000 0.000000 -1.000000
vn 0.000000 0.000000 -1.000000
vn 0.000000 0.000000 -1.000000
vn 0.000000 0.000000 -1.000000
vn 0.000000 -1.000000 0.000000
vn 0.000000 -1.000000 0.000000
vn 0.000000 -1.000000 0.000000
vn 0.000000 -1.000000 0.000000
vn -1.000000 0.000000 0.000000
vn -1.000000 0.000000 0.000000
vn -1.000000 0.000000 0.000000
vn -1.000000 0.000000 0.000000
vn 1.000000 0.000000 0.000000
vn 1.000000 0.000000 0.000000
vn 1.000000 0.000000 0.000000
vn 1.000000 0.000000 0.000000
vn 0.000000 1.000000 0.000000
vn 0.000000 1.000000 0.000000
vn 0.000000 1.000000 0.000000
vn 0.000000 1.000000 0.000000
vn 1.000000 0.000000 0.000000
vn 1.000000 0.000000 0.000000
vn 1.000000 0.000000 0.000000
vn 1.000000 0.000000 0.000000
vn -1.000000 0.000000 0.000000
vn -1.000000 0.000000 0.000000
vn -1.000000 0.000000 0.000000
vn -1.000000 0.000000 0.000000
vn 0.000000 0.000000 -1.000000
vn 0.000000 0.000000 -1.000000
vn 0.000000 0.000000 -1.000000
vn 0.000000 0.000000 -1.000000
vn 0.000000 1.000000 0.000000
vn 0.000000 1.000000 0.000000
vn 0.000000 1.000000 0.000000
vn 0.000000 1.000000 0.000000
vn 0.000000 -1.000000 0.000000
vn 0.000000 -1.000000 0.000000
vn 0.000000 -1.000000 0.000000
vn 0.000000 -1.000000 0.000000
vn 0.000000 0.000000 1.000000
vn 0.000000 0.000000 1.000000
vn 0.000000 0.000000 1.000000
vn 0.000000 0.000000 1.000000
s off
g Door__2_:Door_2_ Modulos_LP
usemtl initialShadingGroup
f 1/33/1 2/34/2 4/35/3 3/36/4
f 5/38/5 6/37/6 8/40/7 7/39/8
f 3/36/9 7/39/10 8/40/11 1/33/12
f 9/41/13 10/42/14 12/43/15 11/44/16
f 13/47/17 14/46/18 16/45/19 15/48/20
f 10/42/21 9/41/22 16/45/23 14/46/24
f 7/17/25 3/18/26 10/19/27 14/20/28
f 13/1/29 5/2/30 7/3/31 14/4/32
f 4/5/33 12/6/34 10/7/35 3/8/36
f 1/21/37 8/22/38 16/23/39 9/24/40
f 15/9/41 16/10/42 8/11/43 6/12/44
f 1/13/45 9/14/46 11/15/47 2/16/48
f 13/47/49 15/48/50 11/44/51 12/43/52
f 5/25/53 13/26/54 12/27/55 4/28/56
f 15/29/57 6/30/58 2/31/59 11/32/60
f 6/37/61 5/38/62 4/35/63 2/34/64
