# This file uses centimeters as units for non-parametric coordinates.

mtllib Ducto2.mtl
g default
v -1.500000 0.000000 0.000000
v -0.000000 0.000000 0.000000
v -1.500000 1.500000 0.000000
v -0.000000 1.500000 0.000000
v -1.500000 1.500000 -1.500000
v -0.000000 1.500000 -1.500000
v -1.500000 0.000000 -1.500000
v -0.000000 0.000000 -1.500000
v -1.250000 0.250000 0.000000
v -0.250000 0.250000 0.000000
v -0.250000 1.250000 0.000000
v -1.250000 1.250000 0.000000
v -0.000000 0.250000 -1.250000
v -0.000000 0.250000 -0.250000
v -0.000000 1.250000 -1.250000
v -0.000000 1.250000 -0.250000
v -1.250000 0.250000 -1.250000
v -0.250000 0.250000 -0.250000
v -0.250000 1.250000 -0.250000
v -1.250000 1.250000 -1.250000
vt 0.000000 0.000000
vt 0.300000 0.000000
vt 0.300000 0.300000
vt 0.000000 0.300000
vt 0.000000 0.600000
vt 0.300000 0.600000
vt 0.250000 0.650000
vt 0.050000 0.650000
vt 0.300000 0.900000
vt 0.250000 0.850000
vt 0.000000 0.900000
vt 0.050000 0.850000
vt 0.860062 0.000000
vt 0.910062 0.000000
vt 0.910062 0.200000
vt 0.860062 0.200000
vt 0.805953 0.750000
vt 0.805953 1.000000
vt 0.605953 1.000000
vt 0.605953 0.750000
vt 0.000000 0.300000
vt 0.300000 0.300000
vt 0.300000 0.600000
vt 0.000000 0.600000
vt 0.302976 0.600000
vt 0.602976 0.600000
vt 0.602976 0.900000
vt 0.302976 0.900000
vt 0.805953 0.050000
vt 0.855953 0.050000
vt 0.855953 0.250000
vt 0.605953 0.250000
vt 0.605953 0.000000
vt 0.805953 0.000000
vt 0.899933 0.500000
vt 0.649933 0.500000
vt 0.649933 0.300000
vt 0.699933 0.300000
vt 0.699933 0.250000
vt 0.899933 0.250000
vt 0.302976 0.300000
vt 0.302976 0.000000
vt 0.602976 0.000000
vt 0.602976 0.300000
vt 0.302976 0.300000
vt 0.602976 0.300000
vt 0.552976 0.350000
vt 0.352976 0.350000
vt 0.602976 0.600000
vt 0.552976 0.550000
vt 0.302976 0.600000
vt 0.352976 0.550000
vt 0.605953 0.750000
vt 0.605953 0.500000
vt 0.805953 0.500000
vt 0.805953 0.750000
vt 0.913816 0.000000
vt 0.963816 0.000000
vt 0.963816 0.200000
vt 0.913816 0.200000
vn 0.000000 1.000000 0.000000
vn 0.000000 1.000000 0.000000
vn 0.000000 1.000000 0.000000
vn 0.000000 1.000000 0.000000
vn 0.000000 0.000000 -1.000000
vn 0.000000 0.000000 -1.000000
vn 0.000000 0.000000 -1.000000
vn 0.000000 0.000000 -1.000000
vn 0.000000 -1.000000 0.000000
vn 0.000000 -1.000000 0.000000
vn 0.000000 -1.000000 0.000000
vn 0.000000 -1.000000 0.000000
vn -1.000000 0.000000 0.000000
vn -1.000000 0.000000 0.000000
vn -1.000000 0.000000 0.000000
vn -1.000000 0.000000 0.000000
vn 0.000000 0.000000 1.000000
vn 0.000000 0.000000 1.000000
vn 0.000000 0.000000 1.000000
vn 0.000000 0.000000 1.000000
vn 0.000000 0.000000 1.000000
vn 0.000000 0.000000 1.000000
vn 0.000000 0.000000 1.000000
vn 0.000000 0.000000 1.000000
vn 1.000000 0.000000 0.000000
vn 1.000000 0.000000 0.000000
vn 1.000000 0.000000 0.000000
vn 1.000000 0.000000 0.000000
vn 1.000000 -0.000000 0.000000
vn 1.000000 -0.000000 0.000000
vn 1.000000 -0.000000 0.000000
vn 1.000000 -0.000000 0.000000
vn -1.000000 0.000000 0.000000
vn -1.000000 0.000000 0.000000
vn -1.000000 0.000000 0.000000
vn -1.000000 0.000000 0.000000
vn 0.000000 -1.000000 0.000000
vn 0.000000 -1.000000 0.000000
vn 0.000000 -1.000000 0.000000
vn 0.000000 -1.000000 0.000000
vn 1.000000 0.000000 -0.000000
vn 1.000000 0.000000 -0.000000
vn 1.000000 0.000000 -0.000000
vn 1.000000 0.000000 -0.000000
vn 0.000000 1.000000 0.000000
vn 0.000000 1.000000 0.000000
vn 0.000000 1.000000 0.000000
vn 0.000000 1.000000 0.000000
vn 0.000000 1.000000 0.000000
vn 0.000000 1.000000 0.000000
vn 0.000000 1.000000 0.000000
vn 0.000000 1.000000 0.000000
vn 0.000000 0.000000 1.000000
vn 0.000000 0.000000 1.000000
vn 0.000000 0.000000 1.000000
vn 0.000000 0.000000 1.000000
vn 0.000000 -1.000000 -0.000000
vn 0.000000 -1.000000 -0.000000
vn 0.000000 -1.000000 -0.000000
vn 0.000000 -1.000000 -0.000000
vn 0.000000 0.000000 -1.000000
vn 0.000000 0.000000 -1.000000
vn 0.000000 0.000000 -1.000000
vn 0.000000 0.000000 -1.000000
s off
g pCube4
usemtl initialShadingGroup
f 3/21/1 4/22/2 6/23/3 5/24/4
f 5/41/5 6/42/6 8/43/7 7/44/8
f 7/25/9 8/26/10 2/27/11 1/28/12
f 7/1/13 1/2/14 3/3/15 5/4/16
s 1
f 1/45/17 2/46/18 10/47/19 9/48/20
f 2/46/18 4/49/21 11/50/22 10/47/19
f 4/49/21 3/51/23 12/52/24 11/50/22
f 3/51/23 1/45/17 9/48/20 12/52/24
s 2
f 2/5/25 8/6/26 13/7/27 14/8/28
f 8/6/26 6/9/29 15/10/30 13/7/27
f 6/9/29 4/11/31 16/12/32 15/10/30
f 4/11/31 2/5/25 14/8/28 16/12/32
s off
f 18/13/33 10/14/34 11/15/35 19/16/36
f 19/29/37 11/30/38 12/31/39 20/32/40
f 20/17/41 12/18/42 9/19/43 17/20/44
f 17/35/45 9/36/46 10/37/47 18/38/48
f 18/38/49 14/39/50 13/40/51 17/35/52
f 17/53/53 13/54/54 15/55/55 20/56/56
f 20/32/57 15/33/58 16/34/59 19/29/60
f 19/57/61 16/58/62 14/59/63 18/60/64
