# This file uses centimeters as units for non-parametric coordinates.

mtllib Ducto4.mtl
g default
v -1.500000 0.000000 0.000000
v 0.000000 0.000000 0.000000
v -1.500000 1.500000 0.000000
v 0.000000 1.500000 0.000000
v -1.500000 1.500000 -1.500000
v 0.000000 1.500000 -1.500000
v -1.500000 0.000000 -1.500000
v 0.000000 0.000000 -1.500000
v -1.250000 0.250000 0.000000
v -0.250000 0.250000 0.000000
v -0.250000 1.250000 0.000000
v -1.250000 1.250000 0.000000
v 0.000000 0.250000 -1.250000
v 0.000000 0.250000 -0.250000
v 0.000000 1.250000 -1.250000
v 0.000000 1.250000 -0.250000
v -1.250000 0.250000 -1.250000
v -0.250000 0.250000 -0.250000
v -0.250000 1.250000 -0.250000
v -1.250000 1.250000 -1.250000
v -1.500000 0.250000 -1.250000
v -1.500000 0.250000 -0.250000
v -1.500000 1.250000 -0.250000
v -1.500000 1.250000 -1.250000
v -1.250000 0.250000 -0.250000
v -1.250000 1.250000 -0.250000
v -0.250000 1.250000 -1.250000
v -0.250000 0.250000 -1.250000
v -1.250000 1.250000 -1.500000
v -0.250000 1.250000 -1.500000
v -0.250000 0.250000 -1.500000
v -1.250000 0.250000 -1.500000
vt 0.375000 0.000000
vt 0.625000 0.000000
vt 0.375000 0.250000
vt 0.625000 0.250000
vt 0.375000 0.500000
vt 0.625000 0.500000
vt 0.375000 0.750000
vt 0.625000 0.750000
vt 0.375000 1.000000
vt 0.625000 1.000000
vt 0.875000 0.000000
vt 0.875000 0.250000
vt 0.125000 0.000000
vt 0.125000 0.250000
vt 0.375000 0.000000
vt 0.625000 0.000000
vt 0.625000 0.250000
vt 0.375000 0.250000
vt 0.875000 0.000000
vt 0.875000 0.250000
vt 0.375000 0.000000
vt 0.625000 0.000000
vt 0.625000 0.250000
vt 0.375000 0.250000
vt 0.875000 0.000000
vt 0.875000 0.250000
vt 0.125000 0.000000
vt 0.375000 0.000000
vt 0.375000 0.250000
vt 0.125000 0.250000
vt 0.375000 0.000000
vt 0.375000 0.250000
vt 0.875000 0.250000
vt 0.875000 0.000000
vt 0.375000 0.500000
vt 0.625000 0.500000
vt 0.625000 0.750000
vt 0.375000 0.750000
vn 0.000000 1.000000 0.000000
vn 0.000000 1.000000 0.000000
vn 0.000000 1.000000 0.000000
vn 0.000000 1.000000 0.000000
vn 0.000000 -1.000000 0.000000
vn 0.000000 -1.000000 0.000000
vn 0.000000 -1.000000 0.000000
vn 0.000000 -1.000000 0.000000
vn 0.000000 0.000000 1.000000
vn 0.000000 0.000000 1.000000
vn 0.000000 0.000000 1.000000
vn 0.000000 0.000000 1.000000
vn 0.000000 0.000000 1.000000
vn 0.000000 0.000000 1.000000
vn 0.000000 0.000000 1.000000
vn 0.000000 0.000000 1.000000
vn 1.000000 0.000000 0.000000
vn 1.000000 0.000000 0.000000
vn 1.000000 0.000000 0.000000
vn 1.000000 0.000000 0.000000
vn 1.000000 -0.000000 0.000000
vn 1.000000 -0.000000 0.000000
vn 1.000000 -0.000000 0.000000
vn 1.000000 -0.000000 0.000000
vn 0.000000 1.000000 -0.000000
vn 0.000000 1.000000 -0.000000
vn 0.000000 1.000000 -0.000000
vn 0.000000 1.000000 -0.000000
vn 0.000000 -1.000000 0.000000
vn 0.000000 -1.000000 0.000000
vn 0.000000 -1.000000 0.000000
vn 0.000000 -1.000000 0.000000
vn 1.000000 0.000000 -0.000000
vn 1.000000 0.000000 -0.000000
vn 1.000000 0.000000 -0.000000
vn 1.000000 0.000000 -0.000000
vn 0.000000 1.000000 0.000000
vn 0.000000 1.000000 0.000000
vn 0.000000 1.000000 0.000000
vn 0.000000 0.000000 1.000000
vn 0.000000 0.000000 1.000000
vn 0.000000 0.000000 1.000000
vn 0.000000 0.000000 1.000000
vn 0.000000 -1.000000 0.000000
vn 0.000000 -1.000000 0.000000
vn 0.000000 -1.000000 0.000000
vn 0.000000 0.000000 -1.000000
vn 0.000000 0.000000 -1.000000
vn 0.000000 0.000000 -1.000000
vn 0.000000 0.000000 -1.000000
vn -1.000000 0.000000 0.000000
vn -1.000000 0.000000 0.000000
vn -1.000000 0.000000 0.000000
vn -1.000000 0.000000 0.000000
vn -1.000000 0.000000 0.000000
vn -1.000000 0.000000 0.000000
vn -1.000000 0.000000 0.000000
vn -1.000000 0.000000 0.000000
vn -1.000000 -0.000000 0.000000
vn -1.000000 -0.000000 0.000000
vn -1.000000 -0.000000 0.000000
vn -1.000000 -0.000000 0.000000
vn 0.000000 -1.000000 0.000000
vn 0.000000 -1.000000 0.000000
vn 0.000000 -1.000000 0.000000
vn 0.000000 -1.000000 0.000000
vn 0.000000 -1.000000 0.000000
vn 0.000000 0.000000 -1.000000
vn 0.000000 0.000000 -1.000000
vn 0.000000 0.000000 -1.000000
vn 0.000000 0.000000 -1.000000
vn 0.000000 1.000000 -0.000000
vn 0.000000 1.000000 -0.000000
vn 0.000000 1.000000 -0.000000
vn 0.000000 1.000000 -0.000000
vn 0.000000 0.000000 1.000000
vn 0.000000 0.000000 1.000000
vn 0.000000 0.000000 1.000000
vn 0.000000 0.000000 1.000000
vn 0.000000 1.000000 0.000000
vn 0.000000 0.000000 -1.000000
vn 0.000000 0.000000 -1.000000
vn 0.000000 0.000000 -1.000000
vn 0.000000 0.000000 -1.000000
vn 0.000000 0.000000 -1.000000
vn 0.000000 0.000000 -1.000000
vn 0.000000 0.000000 -1.000000
vn 0.000000 0.000000 -1.000000
vn 1.000000 0.000000 -0.000000
vn 1.000000 0.000000 -0.000000
vn 1.000000 0.000000 -0.000000
vn 1.000000 0.000000 -0.000000
vn 0.000000 1.000000 0.000000
vn 0.000000 1.000000 0.000000
vn 0.000000 1.000000 0.000000
vn 0.000000 1.000000 0.000000
vn -1.000000 0.000000 -0.000000
vn -1.000000 0.000000 -0.000000
vn -1.000000 0.000000 -0.000000
vn -1.000000 0.000000 -0.000000
vn 0.000000 -1.000000 -0.000000
vn 0.000000 -1.000000 -0.000000
vn 0.000000 -1.000000 -0.000000
vn 0.000000 -1.000000 -0.000000
s off
g pCube6
usemtl initialShadingGroup
f 3/3/1 4/4/2 6/6/3 5/5/4
f 7/7/5 8/8/6 2/10/7 1/9/8
s 1
f 1/1/9 2/2/10 10/16/11 9/15/12
f 2/2/10 4/4/13 11/17/14 10/16/11
f 4/4/13 3/3/15 12/18/16 11/17/14
f 3/3/15 1/1/9 9/15/12 12/18/16
s 2
f 2/2/17 8/11/18 13/19/19 14/16/20
f 8/11/18 6/12/21 15/20/22 13/19/19
f 6/12/21 4/4/23 16/17/24 15/20/22
f 4/4/23 2/2/17 14/16/20 16/17/24
s 3
f 9/1/25 10/16/26 18/22/27 25/31/28
s 4
f 11/17/29 12/3/30 26/32/31 19/23/32
s off
f 12/3/33 9/1/34 25/31/35 26/32/36
s 3
f 14/16/37 13/19/38 28/34/39 18/22/27
s off
f 13/19/40 15/20/41 27/33/42 28/34/43
s 4
f 15/20/44 16/17/45 19/23/32 27/33/46
s off
f 14/16/47 18/22/48 19/23/49 16/17/50
f 18/22/51 10/16/52 11/17/53 19/23/54
s 5
f 7/13/55 1/1/56 22/28/57 21/27/58
f 1/1/56 3/3/59 23/29/60 22/28/57
f 3/3/59 5/14/61 24/30/62 23/29/60
f 5/14/61 7/13/55 21/27/58 24/30/62
s 4
f 19/23/32 26/32/31 20/26/63 27/33/46
s off
f 20/24/64 26/32/65 23/29/66 24/30/67
f 26/32/68 25/31/69 22/28/70 23/29/71
f 25/31/72 17/21/73 21/27/74 22/28/75
f 17/25/76 20/26/77 24/30/78 21/27/79
s 3
f 18/22/27 28/34/39 17/21/80 25/31/28
s 6
f 5/5/81 6/6/82 30/36/83 29/35/84
f 6/6/82 8/8/85 31/37/86 30/36/83
f 8/8/85 7/7/87 32/38/88 31/37/86
f 7/7/87 5/5/81 29/35/84 32/38/88
s off
f 20/26/89 17/25/90 32/38/91 29/35/92
f 17/21/93 28/34/94 31/37/95 32/38/96
f 28/34/97 27/33/98 30/36/99 31/37/100
f 27/33/101 20/26/102 29/35/103 30/36/104
