# This file uses centimeters as units for non-parametric coordinates.

g default
v -0.100000 -0.050000 0.010000
v 0.100000 -0.050000 0.010000
v -0.100000 0.050000 0.010000
v 0.100000 0.050000 0.010000
v -0.100000 0.050000 0.000000
v 0.100000 0.050000 0.000000
v -0.100000 -0.050000 0.000000
v 0.100000 -0.050000 0.000000
v -0.080000 -0.030000 0.015000
v 0.080000 -0.030000 0.015000
v 0.080000 0.030000 0.015000
v -0.080000 0.030000 0.015000
vt 0.957177 0.428228
vt 1.000000 0.428228
vt 1.000000 0.856456
vt 0.957177 0.856456
vt 0.957177 0.000000
vt 1.000000 0.000000
vt 1.000000 0.428228
vt 0.957177 0.428228
vt 0.911355 0.856456
vt 0.911355 0.000000
vt 0.954178 0.000000
vt 0.954178 0.856456
vt 0.865533 0.856456
vt 0.865533 0.000000
vt 0.908355 0.000000
vt 0.908355 0.856456
vt 0.086328 0.776953
vt 0.086328 0.086328
vt 0.345313 0.086328
vt 0.345313 0.776953
vt 0.000000 0.863282
vt 0.000000 0.000000
vt 0.431641 0.000000
vt 0.431641 0.863282
vt 0.432766 0.856456
vt 0.432766 0.000000
vt 0.860994 0.000000
vt 0.860994 0.856456
vn -0.034238 -0.077035 0.996440
vn 0.034238 -0.077035 0.996440
vn 0.034238 0.077035 0.996440
vn -0.034238 0.077035 0.996440
vn 0.000000 1.000000 0.000000
vn 0.000000 1.000000 0.000000
vn 0.000000 1.000000 0.000000
vn 0.000000 1.000000 0.000000
vn 0.000000 0.000000 -1.000000
vn 0.000000 0.000000 -1.000000
vn 0.000000 0.000000 -1.000000
vn 0.000000 0.000000 -1.000000
vn 0.000000 -1.000000 0.000000
vn 0.000000 -1.000000 0.000000
vn 0.000000 -1.000000 0.000000
vn 0.000000 -1.000000 0.000000
vn 1.000000 0.000000 0.000000
vn 1.000000 0.000000 0.000000
vn 1.000000 0.000000 0.000000
vn 1.000000 0.000000 0.000000
vn -1.000000 0.000000 0.000000
vn -1.000000 0.000000 0.000000
vn -1.000000 0.000000 0.000000
vn -1.000000 0.000000 0.000000
vn -0.075579 -0.170053 0.982532
vn 0.075579 -0.170053 0.982532
vn 0.075579 0.170053 0.982532
vn -0.075579 0.170053 0.982532
s 1
g pCube10
f 9/17/1 10/18/2 11/19/3 12/20/4
s off
f 3/9/5 4/10/6 6/11/7 5/12/8
f 5/25/9 6/26/10 8/27/11 7/28/12
f 7/13/13 8/14/14 2/15/15 1/16/16
f 2/1/17 8/2/18 6/3/19 4/4/20
f 7/5/21 1/6/22 3/7/23 5/8/24
s 1
f 1/21/25 2/22/26 10/18/2 9/17/1
f 2/22/26 4/23/27 11/19/3 10/18/2
f 4/23/27 3/24/28 12/20/4 11/19/3
f 3/24/28 1/21/25 9/17/1 12/20/4
