# This file uses centimeters as units for non-parametric coordinates.

mtllib Escritorio.mtl
g default
v -1.500000 0.800000 0.500000
v 1.500000 0.800000 0.500000
v -1.500000 0.800000 -0.500000
v 1.500000 0.800000 -0.500000
v -1.500000 0.850000 0.500000
v -1.500000 0.850000 -0.500000
v 1.500000 0.850000 -0.500000
v 1.500000 0.850000 0.500000
v -1.420000 0.800000 -0.420000
v -1.420000 0.800000 0.420000
v 1.420000 0.800000 -0.420000
v 1.420000 0.800000 0.420000
v -1.480000 0.800000 0.480000
v -1.480000 0.800000 -0.480000
v 1.480000 0.800000 -0.480000
v 1.480000 0.800000 0.480000
v -1.420000 -0.000000 -0.420000
v -1.420000 -0.000000 0.480000
v 1.420000 -0.000000 -0.420000
v 1.420000 -0.000000 0.480000
v -1.480000 -0.000000 0.480000
v -1.480000 -0.000000 -0.480000
v 1.480000 -0.000000 -0.480000
v 1.480000 -0.000000 0.480000
v -1.480000 0.060000 -0.420000
v -1.480000 0.060000 0.420000
v -1.480000 0.740000 0.420000
v -1.480000 0.740000 -0.420000
v -1.420000 0.060000 -0.480000
v 1.420000 0.060000 -0.480000
v -1.420000 0.740000 -0.480000
v 1.420000 0.740000 -0.480000
v 1.480000 0.740000 -0.420000
v 1.480000 0.060000 -0.420000
v 1.480000 0.740000 0.420000
v 1.480000 0.060000 0.420000
v 1.420000 0.740000 0.480000
v -1.420000 0.740000 0.480000
v -1.420000 0.740000 0.420000
v -1.420000 0.740000 -0.420000
v -1.420000 0.060000 0.420000
v -1.420000 0.060000 -0.420000
v 1.420000 0.740000 -0.420000
v 1.420000 0.060000 -0.420000
v 1.420000 0.740000 0.420000
v 1.420000 0.060000 0.420000
vt 0.929639 0.208399
vt 0.939609 0.208399
vt 0.939609 0.407815
vt 0.929639 0.407815
vt 0.956614 0.407815
vt 0.946643 0.407815
vt 0.946643 0.208399
vt 0.956614 0.208399
vt 0.402483 0.705907
vt 0.402483 0.514467
vt 0.414448 0.526432
vt 0.414448 0.693942
vt 0.562016 0.514467
vt 0.550051 0.526432
vt 0.562016 0.705907
vt 0.550051 0.693942
vt 0.566866 0.514467
vt 0.726399 0.514467
vt 0.714435 0.526432
vt 0.578831 0.526432
vt 0.726399 0.705907
vt 0.714435 0.693942
vt 0.566866 0.705907
vt 0.578831 0.693942
vt 0.374769 0.520460
vt 0.374769 0.687970
vt 0.362804 0.687970
vt 0.362804 0.520460
vt 0.056711 0.698815
vt 0.056711 0.519340
vt 0.068676 0.519340
vt 0.068676 0.686850
vt 0.204280 0.698815
vt 0.204280 0.686850
vt 0.391774 0.520460
vt 0.391774 0.687970
vt 0.379809 0.687970
vt 0.379809 0.520460
vt 0.209757 0.698815
vt 0.209757 0.519340
vt 0.221722 0.531305
vt 0.221722 0.698815
vt 0.357326 0.519340
vt 0.357326 0.531305
vt 0.256994 0.537465
vt 0.268959 0.537465
vt 0.268959 0.673069
vt 0.256994 0.673069
vt 0.285964 0.537465
vt 0.285964 0.673069
vt 0.273999 0.673069
vt 0.273999 0.537465
vt 0.001917 0.001992
vt 0.198008 0.001992
vt 0.198008 0.513406
vt 0.001917 0.513406
vt 0.402483 0.003881
vt 0.414248 0.014110
vt 0.414248 0.498248
vt 0.402483 0.508476
vt 0.590730 0.014110
vt 0.590730 0.003881
vt 0.590730 0.498248
vt 0.590730 0.508476
vt 0.922418 0.998008
vt 0.757701 0.998008
vt 0.757701 0.513870
vt 0.922418 0.513870
vt 0.203507 0.503177
vt 0.202199 0.513406
vt 0.202199 0.001992
vt 0.203507 0.012220
vt 0.396983 0.503177
vt 0.398291 0.513406
vt 0.398291 0.001992
vt 0.396983 0.012220
vt 0.013882 0.519690
vt 0.013882 0.708471
vt 0.001917 0.708471
vt 0.001917 0.519690
vt 0.018922 0.708471
vt 0.018922 0.519690
vt 0.030887 0.519690
vt 0.030887 0.708471
vt 0.752242 0.514793
vt 0.752242 0.682303
vt 0.748254 0.682303
vt 0.748254 0.514793
vt 0.228652 0.704976
vt 0.228652 0.537466
vt 0.232640 0.537466
vt 0.232640 0.704976
vt 0.238099 0.537466
vt 0.242088 0.537466
vt 0.242088 0.704976
vt 0.238099 0.704976
vt 0.251535 0.704976
vt 0.247547 0.704976
vt 0.247547 0.537466
vt 0.251535 0.537466
vt 0.049782 0.708471
vt 0.037817 0.708471
vt 0.037817 0.519690
vt 0.049782 0.519690
vt 0.929639 0.002448
vt 0.939609 0.002448
vt 0.939609 0.201865
vt 0.929639 0.201865
vt 0.946643 0.002448
vt 0.956614 0.002448
vt 0.956614 0.201865
vt 0.946643 0.201865
vt 0.752081 0.003433
vt 0.752081 0.508028
vt 0.740316 0.497800
vt 0.740316 0.013662
vt 0.595208 0.508028
vt 0.606974 0.497800
vt 0.595208 0.003433
vt 0.606974 0.013662
vt 0.757701 0.002693
vt 0.914574 0.002693
vt 0.902809 0.012921
vt 0.757701 0.012921
vt 0.914574 0.507287
vt 0.902809 0.497059
vt 0.757701 0.507287
vt 0.757701 0.497059
vt 0.941604 0.413880
vt 0.941604 0.602661
vt 0.929639 0.602661
vt 0.929639 0.413880
vt 0.948533 0.602661
vt 0.948533 0.413880
vt 0.960498 0.413880
vt 0.960498 0.602661
vt 0.731249 0.702804
vt 0.731249 0.514022
vt 0.743214 0.514022
vt 0.743214 0.702804
vt 0.294993 0.673471
vt 0.291004 0.673471
vt 0.291004 0.537868
vt 0.294993 0.537868
vt 0.304440 0.537868
vt 0.304440 0.673471
vt 0.300452 0.673471
vt 0.300452 0.537868
vt 0.309899 0.537654
vt 0.313887 0.537654
vt 0.313887 0.673257
vt 0.309899 0.673257
vt 0.319346 0.673257
vt 0.319346 0.537654
vt 0.323335 0.537654
vt 0.323335 0.673257
vn 0.000000 0.000000 1.000000
vn 0.000000 0.000000 1.000000
vn 0.000000 0.000000 1.000000
vn 0.000000 0.000000 1.000000
vn 0.000000 0.000000 -1.000000
vn 0.000000 0.000000 -1.000000
vn 0.000000 0.000000 -1.000000
vn 0.000000 0.000000 -1.000000
vn 1.000000 0.000000 0.000000
vn 1.000000 0.000000 0.000000
vn 1.000000 0.000000 0.000000
vn 1.000000 0.000000 0.000000
vn -1.000000 0.000000 0.000000
vn -1.000000 0.000000 0.000000
vn -1.000000 0.000000 0.000000
vn -1.000000 0.000000 0.000000
vn 0.000000 1.000000 0.000000
vn 0.000000 1.000000 0.000000
vn 0.000000 1.000000 0.000000
vn 0.000000 1.000000 0.000000
vn -0.000000 -1.000000 -0.000001
vn -0.000000 -1.000000 -0.000001
vn -0.000000 -1.000000 -0.000001
vn -0.000000 -1.000000 -0.000001
vn 0.000000 -1.000000 0.000000
vn 0.000000 -1.000000 0.000000
vn 0.000000 -1.000000 0.000000
vn 0.000000 -1.000000 0.000000
vn 0.000000 -1.000000 0.000000
vn 0.000000 -1.000000 0.000000
vn 0.000000 -1.000000 0.000000
vn 0.000000 -1.000000 0.000000
vn 0.000000 -1.000000 0.000000
vn 0.000000 -1.000000 0.000000
vn 0.000000 -1.000000 0.000000
vn 0.000000 -1.000000 0.000000
vn 0.000000 -1.000000 0.000000
vn 0.000000 -1.000000 0.000000
vn 0.000000 -1.000000 0.000000
vn 0.000000 -1.000000 0.000000
vn 0.000000 -1.000000 0.000000
vn 0.000000 -1.000000 0.000000
vn 0.000000 -1.000000 0.000000
vn 0.000000 -1.000000 0.000000
vn 0.000000 -1.000000 0.000000
vn 0.000000 -1.000000 0.000000
vn 0.000000 -1.000000 0.000000
vn 0.000000 -1.000000 0.000000
vn 0.000001 -1.000000 0.000000
vn 0.000001 -1.000000 0.000000
vn 0.000001 -1.000000 0.000000
vn 0.000001 -1.000000 0.000000
vn -1.000000 0.000001 0.000000
vn -1.000000 0.000001 0.000000
vn -1.000000 0.000001 0.000000
vn -1.000000 0.000001 0.000000
vn -1.000000 0.000000 0.000000
vn -1.000000 0.000000 0.000000
vn -1.000000 0.000000 0.000000
vn -1.000000 0.000000 0.000000
vn -1.000000 -0.000001 0.000000
vn -1.000000 -0.000001 0.000000
vn -1.000000 -0.000001 0.000000
vn -1.000000 -0.000001 0.000000
vn -1.000000 0.000000 0.000000
vn -1.000000 0.000000 0.000000
vn -1.000000 0.000000 0.000000
vn -1.000000 0.000000 0.000000
vn 0.000000 0.000000 -1.000000
vn 0.000000 0.000000 -1.000000
vn 0.000000 0.000000 -1.000000
vn 0.000000 0.000000 -1.000000
vn 0.000000 0.000000 -1.000000
vn 0.000000 0.000000 -1.000000
vn 0.000000 0.000000 -1.000000
vn 0.000000 0.000000 -1.000000
vn 0.000000 0.000000 -1.000000
vn 0.000000 0.000000 -1.000000
vn 0.000000 0.000000 -1.000000
vn 0.000000 0.000000 -1.000000
vn -0.000000 0.000000 -1.000000
vn -0.000000 0.000000 -1.000000
vn -0.000000 0.000000 -1.000000
vn -0.000000 0.000000 -1.000000
vn 1.000000 0.000000 0.000000
vn 1.000000 0.000000 0.000000
vn 1.000000 0.000000 0.000000
vn 1.000000 0.000000 0.000000
vn 1.000000 -0.000001 0.000000
vn 1.000000 -0.000001 0.000000
vn 1.000000 -0.000001 0.000000
vn 1.000000 -0.000001 0.000000
vn 1.000000 0.000000 0.000000
vn 1.000000 0.000000 0.000000
vn 1.000000 0.000000 0.000000
vn 1.000000 0.000000 0.000000
vn 1.000000 0.000001 0.000000
vn 1.000000 0.000001 0.000000
vn 1.000000 0.000001 0.000000
vn 1.000000 0.000001 0.000000
vn 0.000001 0.000000 1.000000
vn 0.000001 0.000000 1.000000
vn 0.000001 0.000000 1.000000
vn 0.000001 0.000000 1.000000
vn -0.000000 -0.000000 1.000000
vn -0.000000 -0.000000 1.000000
vn -0.000000 -0.000000 1.000000
vn -0.000000 -0.000000 1.000000
vn 0.000001 0.000000 1.000000
vn 0.000001 0.000000 1.000000
vn 0.000001 0.000000 1.000000
vn 0.000001 0.000000 1.000000
vn 1.000000 0.000000 0.000000
vn 1.000000 0.000000 0.000000
vn 1.000000 0.000000 0.000000
vn 1.000000 0.000000 0.000000
vn 1.000000 0.000001 0.000000
vn 1.000000 0.000001 0.000000
vn 1.000000 0.000001 0.000000
vn 1.000000 0.000001 0.000000
vn 0.000000 0.000000 1.000000
vn 0.000000 0.000000 1.000000
vn 0.000000 0.000000 1.000000
vn 0.000000 0.000000 1.000000
vn 0.000000 0.000000 1.000000
vn 0.000000 0.000000 1.000000
vn 0.000000 0.000000 1.000000
vn 0.000000 0.000000 1.000000
vn 0.000000 0.000000 -1.000000
vn 0.000000 0.000000 -1.000000
vn 0.000000 0.000000 -1.000000
vn 0.000000 0.000000 -1.000000
vn -1.000000 0.000000 0.000000
vn -1.000000 0.000000 0.000000
vn -1.000000 0.000000 0.000000
vn -1.000000 0.000000 0.000000
vn -1.000000 0.000000 0.000000
vn -1.000000 0.000000 0.000000
vn -1.000000 0.000000 0.000000
vn -1.000000 0.000000 0.000000
vn -1.000000 0.000000 0.000000
vn -1.000000 0.000000 0.000000
vn -1.000000 0.000000 0.000000
vn -1.000000 0.000000 0.000000
vn 0.000000 -1.000000 -0.000001
vn 0.000000 -1.000000 -0.000001
vn 0.000000 -1.000000 -0.000001
vn 0.000000 -1.000000 -0.000001
vn 1.000000 0.000000 0.000002
vn 1.000000 0.000000 0.000002
vn 1.000000 0.000000 0.000002
vn 1.000000 0.000000 0.000002
vn 0.000000 1.000000 -0.000000
vn 0.000000 1.000000 -0.000000
vn 0.000000 1.000000 -0.000000
vn 0.000000 1.000000 -0.000000
vn 1.000000 0.000000 -0.000003
vn 1.000000 0.000000 -0.000003
vn 1.000000 0.000000 -0.000003
vn 1.000000 0.000000 -0.000003
vn -1.000000 0.000000 0.000000
vn -1.000000 0.000000 0.000000
vn -1.000000 0.000000 0.000000
vn -1.000000 0.000000 0.000000
vn 0.000000 0.000000 -1.000000
vn 0.000000 0.000000 -1.000000
vn 0.000000 0.000000 -1.000000
vn 0.000000 0.000000 -1.000000
vn 0.000000 -1.000000 0.000000
vn 0.000000 -1.000000 0.000000
vn 0.000000 -1.000000 0.000000
vn 0.000000 -1.000000 0.000000
vn 0.000000 0.000000 1.000000
vn 0.000000 0.000000 1.000000
vn 0.000000 0.000000 1.000000
vn 0.000000 0.000000 1.000000
vn 0.000000 0.000000 1.000000
vn 0.000000 0.000000 1.000000
vn 0.000000 0.000000 1.000000
vn 0.000000 0.000000 1.000000
vn 0.000000 -1.000000 0.000000
vn 0.000000 -1.000000 0.000000
vn 0.000000 -1.000000 0.000000
vn 0.000000 -1.000000 0.000000
vn 0.000001 0.000000 -1.000000
vn 0.000001 0.000000 -1.000000
vn 0.000001 0.000000 -1.000000
vn 0.000001 0.000000 -1.000000
vn -0.000001 1.000000 0.000000
vn -0.000001 1.000000 0.000000
vn -0.000001 1.000000 0.000000
vn -0.000001 1.000000 0.000000
vn 0.000000 1.000000 0.000000
vn 0.000000 1.000000 0.000000
vn 0.000000 1.000000 0.000000
vn 0.000000 1.000000 0.000000
vn 0.000000 -1.000000 0.000000
vn 0.000000 -1.000000 0.000000
vn 0.000000 -1.000000 0.000000
vn 0.000000 -1.000000 0.000000
s off
g pCube7
usemtl initialShadingGroup
f 2/105/1 8/106/2 5/107/3 1/108/4
f 7/109/5 4/110/6 3/111/7 6/112/8
f 4/1/9 7/2/10 8/3/11 2/4/12
f 6/5/13 3/6/14 1/7/15 5/8/16
f 8/53/17 7/54/18 6/55/19 5/56/20
f 23/57/21 19/58/22 17/59/23 22/60/24
f 10/65/25 9/66/26 11/67/27 12/68/28
f 13/69/29 1/70/30 3/71/31 14/72/32
f 14/72/33 3/71/34 4/75/35 15/76/36
f 15/76/37 4/75/38 2/74/39 16/73/40
f 16/73/41 2/74/42 1/70/43 13/69/44
f 22/60/45 17/59/46 18/63/47 21/64/48
f 20/61/49 19/58/50 23/57/51 24/62/52
f 22/9/53 21/10/54 26/11/55 25/12/56
f 21/10/57 13/13/58 27/14/59 26/11/60
f 13/13/61 14/15/62 28/16/63 27/14/64
f 14/15/65 22/9/66 25/12/67 28/16/68
f 23/113/69 22/114/70 29/115/71 30/116/72
f 22/114/73 14/117/74 31/118/75 29/115/76
f 14/117/77 15/119/78 32/120/79 31/118/80
f 15/119/81 23/113/82 30/116/83 32/120/84
f 23/17/85 15/18/86 33/19/87 34/20/88
f 15/18/89 16/21/90 35/22/91 33/19/92
f 16/21/93 24/23/94 36/24/95 35/22/96
f 24/23/97 23/17/98 34/20/99 36/24/100
f 24/121/101 16/122/102 37/123/103 20/124/104
f 16/122/105 13/125/106 38/126/107 37/123/108
f 13/125/109 21/127/110 18/128/111 38/126/112
f 9/25/113 10/26/114 39/27/115 40/28/116
f 18/29/117 17/30/118 42/31/119 41/32/120
f 11/129/121 9/130/122 40/131/123 43/132/124
f 17/133/125 19/134/126 44/135/127 42/136/128
f 10/137/129 12/138/130 45/139/131 39/140/132
f 12/35/133 11/36/134 43/37/135 45/38/136
f 19/39/137 20/40/138 46/41/139 44/42/140
f 20/40/141 37/43/142 45/44/143 46/41/144
f 37/77/145 38/78/146 39/79/147 45/80/148
f 38/33/149 18/29/150 41/32/151 39/34/152
f 42/81/153 44/82/154 30/83/155 29/84/156
f 42/45/157 29/46/158 31/47/159 40/48/160
f 44/49/161 43/50/162 32/51/163 30/52/164
f 41/141/165 26/142/166 27/143/167 39/144/168
f 40/85/169 39/86/170 27/87/171 28/88/172
f 42/145/173 40/146/174 28/147/175 25/148/176
f 44/149/177 34/150/178 33/151/179 43/152/180
f 45/89/181 43/90/182 33/91/183 35/92/184
f 46/153/185 45/154/186 35/155/187 36/156/188
f 46/93/189 36/94/190 34/95/191 44/96/192
f 42/97/193 25/98/194 26/99/195 41/100/196
f 40/101/197 31/102/198 32/103/199 43/104/200
