# This file uses centimeters as units for non-parametric coordinates.

g default
v 0.150000 0.000000 0.241251
v 0.147437 0.000000 0.247437
v 0.141251 0.000000 0.250000
v 0.150000 0.025000 0.241251
v 0.141251 0.025000 0.250000
v 0.147437 0.025000 0.247437
v -0.147437 0.022437 0.250000
v -0.150000 0.016251 0.250000
v -0.141251 0.025000 0.250000
v -0.150000 0.016251 -0.250000
v -0.147437 0.022437 -0.250000
v -0.141251 0.025000 -0.250000
v 0.147437 0.025000 -0.247437
v 0.141251 0.025000 -0.250000
v 0.150000 0.025000 -0.241251
v 0.150000 0.000000 -0.241251
v 0.141251 0.000000 -0.250000
v 0.147437 0.000000 -0.247437
v -0.147437 0.002563 0.250000
v -0.141251 0.000000 0.250000
v -0.150000 0.008749 0.250000
v -0.147437 0.002563 -0.250000
v -0.150000 0.008749 -0.250000
v -0.141251 0.000000 -0.250000
v -0.241728 0.017579 -0.150000
v -0.251728 0.017579 -0.150000
v -0.256728 0.008919 -0.150000
v -0.251728 0.000259 -0.150000
v -0.241728 0.000259 -0.150000
v -0.236728 0.008919 -0.150000
v -0.241728 0.017579 0.150000
v -0.251728 0.017579 0.150000
v -0.256728 0.008919 0.150000
v -0.251728 0.000259 0.150000
v -0.241728 0.000259 0.150000
v -0.236728 0.008919 0.150000
v -0.246728 0.008919 -0.190000
v -0.241728 0.017579 0.190000
v -0.251728 0.017579 0.190000
v -0.246728 0.008919 0.190000
v -0.256728 0.008919 0.190000
v -0.251728 0.000259 0.190000
v -0.241728 0.000259 0.190000
v -0.236728 0.008919 0.190000
v -0.236728 0.008919 0.180000
v -0.241728 0.000259 0.180000
v -0.251728 0.000259 0.180000
v -0.256728 0.008919 0.180000
v -0.251728 0.017579 0.180000
v -0.241728 0.017579 0.180000
v -0.236728 0.008919 0.170000
v -0.241728 0.000259 0.170000
v -0.251728 0.000259 0.170000
v -0.256728 0.008919 0.170000
v -0.251728 0.017579 0.170000
v -0.241728 0.017579 0.170000
v -0.236728 0.008919 0.160000
v -0.241728 0.000259 0.160000
v -0.251728 0.000259 0.160000
v -0.256728 0.008919 0.160000
v -0.251728 0.017579 0.160000
v -0.241728 0.017579 0.160000
vt 0.557691 0.720953
vt 0.534793 0.720982
vt 0.534225 0.279051
vt 0.557123 0.279022
vt 0.534801 0.727116
vt 0.557699 0.727086
vt 0.557115 0.272888
vt 0.534217 0.272918
vt 0.628044 0.457978
vt 0.628635 0.000020
vt 0.635506 0.000029
vt 0.634915 0.457987
vt 0.622502 0.000012
vt 0.621911 0.457970
vt 0.641640 0.000037
vt 0.641048 0.457995
vt 0.567233 0.312539
vt 0.558143 0.313141
vt 0.614582 0.037091
vt 0.568569 0.036817
vt 0.585105 0.349161
vt 0.603434 0.312765
vt 0.605383 0.037026
vt 0.559443 0.027574
vt 0.568633 0.027627
vt 0.605423 0.027837
vt 0.559504 0.018382
vt 0.568694 0.018437
vt 0.605467 0.018648
vt 0.559562 0.009192
vt 0.568751 0.009248
vt 0.605514 0.009458
vt 0.559617 0.000004
vt 0.568806 0.000059
vt 0.605563 0.000270
vt 0.585341 0.312098
vt 0.594384 0.312295
vt 0.586972 0.036910
vt 0.596179 0.036966
vt 0.576294 0.312182
vt 0.577768 0.036861
vt 0.587026 0.027729
vt 0.596226 0.027782
vt 0.577828 0.027677
vt 0.587079 0.018543
vt 0.596274 0.018596
vt 0.577886 0.018490
vt 0.587132 0.009355
vt 0.596323 0.009408
vt 0.577941 0.009302
vt 0.587185 0.000167
vt 0.596374 0.000219
vt 0.577995 0.000113
vt 0.647773 0.000045
vt 0.000000 0.457963
vt 0.258748 0.000004
vt 0.258748 0.457963
vt 0.264415 0.455616
vt 0.264415 0.002351
vt 0.266762 0.008017
vt 0.266762 0.449949
vt 0.616369 0.000004
vt 0.615778 0.457962
vt 0.531353 0.002351
vt 0.531353 0.455616
vt 0.525686 0.457963
vt 0.525686 0.000004
vt 0.533700 0.008017
vt 0.533700 0.449949
vt 0.266938 0.457963
vt 0.266938 0.000004
vt 0.534809 0.733249
vt 0.557707 0.733220
vt 0.558039 0.991967
vt 0.535141 0.991997
vt 0.537495 0.997660
vt 0.555699 0.997637
vt 0.550035 0.999991
vt 0.543164 1.000000
vt 0.557107 0.266755
vt 0.534209 0.266785
vt 0.533876 0.008037
vt 0.556774 0.008007
vt 0.536216 0.002367
vt 0.554420 0.002344
vt 0.541879 0.000013
vt 0.548750 0.000004
vt 0.665009 0.004580
vt 0.665009 0.013739
vt 0.657077 0.009159
vt 0.657077 0.018318
vt 0.657077 0.000000
vt 0.649145 0.013739
vt 0.649145 0.004580
vt 0.647182 0.458003
vt 0.000000 0.000004
vt 0.614617 0.027888
vt 0.614657 0.018695
vt 0.614703 0.009506
vt 0.614751 0.000318
vt 0.559381 0.036776
vt 0.612506 0.313478
vn 0.999986 0.000000 0.005244
vn 0.999986 0.000000 0.005244
vn 0.999986 0.000000 -0.005244
vn 0.999986 0.000000 -0.005244
vn -0.982924 -0.184010 0.000000
vn -0.982924 -0.184010 0.000000
vn -0.982924 0.184011 0.000000
vn -0.982924 0.184011 0.000000
vn 0.008876 0.000000 0.999961
vn 0.707107 0.000000 0.707107
vn 0.707107 0.000000 0.707107
vn 0.008876 0.000000 0.999961
vn -0.707107 0.707107 0.000000
vn -0.707107 0.707107 0.000000
vn -0.008876 0.999961 0.000000
vn -0.008876 0.999961 0.000000
vn 0.008876 0.000000 -0.999961
vn 0.707107 0.000000 -0.707107
vn 0.707107 0.000000 -0.707107
vn 0.008876 0.000000 -0.999961
vn -0.382682 -0.923880 0.000000
vn -0.707107 -0.707107 0.000000
vn -0.707107 -0.707107 0.000000
vn -0.382682 -0.923880 0.000000
vn 0.000000 1.000000 0.000000
vn 0.000000 1.000000 0.000000
vn 0.000000 -1.000000 0.000000
vn 0.000000 -1.000000 0.000000
vn 0.000000 -1.000000 0.000000
vn 0.000000 -1.000000 0.000000
vn 0.000000 0.000000 1.000000
vn 0.000000 0.000000 1.000000
vn 0.000000 0.000000 1.000000
vn 0.000000 0.000000 1.000000
vn 0.000000 0.000000 -1.000000
vn 0.000000 0.000000 -1.000000
vn 0.000000 0.000000 -1.000000
vn 0.000000 0.000000 -1.000000
vn 0.000000 0.000000 -1.000000
vn 0.000000 0.000000 -1.000000
vn 0.000000 0.000000 1.000000
vn 0.000000 0.000000 1.000000
vn 0.000000 -1.000000 0.000000
vn 0.000000 -1.000000 0.000000
vn 0.000000 -1.000000 0.000000
vn 0.000000 -1.000000 0.000000
vn 0.000000 1.000000 0.000000
vn 0.000000 1.000000 0.000000
vn 0.000000 1.000000 0.000000
vn 0.000000 1.000000 0.000000
vn 0.000000 0.999921 -0.012544
vn 0.000000 0.999921 -0.012544
vn 0.000000 1.000000 0.000000
vn 0.000000 1.000000 0.000000
vn -0.865958 0.499960 -0.012544
vn -0.865958 0.499960 -0.012544
vn -0.866026 0.499999 0.000000
vn -0.866026 0.499999 0.000000
vn -0.865958 -0.499959 -0.012544
vn -0.865958 -0.499959 -0.012544
vn -0.866026 -0.499999 0.000000
vn -0.866026 -0.499999 0.000000
vn 0.000000 -0.999921 -0.012544
vn 0.000000 -0.999921 -0.012544
vn 0.000000 -1.000000 0.000000
vn 0.000000 -1.000000 0.000000
vn 0.865956 -0.499963 -0.012544
vn 0.865956 -0.499963 -0.012544
vn 0.866024 -0.500003 0.000000
vn 0.866024 -0.500003 0.000000
vn 0.865956 0.499963 -0.012544
vn 0.865956 0.499963 -0.012544
vn 0.866024 0.500003 0.000000
vn 0.866024 0.500003 0.000000
vn 0.000000 0.000000 1.000000
vn 0.000000 0.000000 1.000000
vn -0.000000 0.000000 1.000000
vn -0.000000 0.000000 1.000000
vn -0.000000 0.000000 1.000000
vn 0.000000 0.000000 1.000000
vn 0.000000 0.000000 1.000000
vn 0.000000 0.977356 -0.211604
vn -0.846415 0.488677 -0.211604
vn -0.846415 -0.488677 -0.211603
vn 0.000000 -0.977356 -0.211604
vn 0.846413 -0.488680 -0.211604
vn 0.846413 0.488680 -0.211604
vn 0.000000 1.000000 0.000000
vn 0.000000 1.000000 0.000000
vn -0.866026 0.499999 0.000000
vn -0.866026 0.499999 0.000000
vn -0.866026 -0.499999 0.000000
vn -0.866026 -0.499999 0.000000
vn 0.000000 -1.000000 0.000000
vn 0.000000 -1.000000 0.000000
vn 0.866024 -0.500003 0.000000
vn 0.866024 -0.500003 0.000000
vn 0.866024 0.500003 0.000000
vn 0.866024 0.500003 0.000000
vn 0.866024 -0.500003 -0.000000
vn 0.866024 -0.500003 -0.000000
vn 0.866024 -0.500002 0.000000
vn 0.866024 -0.500002 0.000000
vn 0.000000 -1.000000 -0.000000
vn 0.000000 -1.000000 -0.000000
vn 0.000000 -1.000000 0.000000
vn 0.000000 -1.000000 0.000000
vn -0.866026 -0.499999 -0.000000
vn -0.866026 -0.499999 -0.000000
vn -0.866026 -0.499999 0.000000
vn -0.866026 -0.499999 0.000000
vn -0.866026 0.500000 0.000000
vn -0.866026 0.500000 0.000000
vn -0.866026 0.499999 0.000000
vn -0.866026 0.499999 0.000000
vn 0.000000 1.000000 0.000000
vn 0.000000 1.000000 0.000000
vn 0.000000 1.000000 0.000000
vn 0.000000 1.000000 0.000000
vn 0.866024 0.500003 0.000000
vn 0.866024 0.500003 0.000000
vn 0.866024 0.500003 0.000000
vn 0.866024 0.500003 0.000000
vn 0.866024 -0.500003 -0.000000
vn 0.866024 -0.500003 -0.000000
vn 0.000000 -1.000000 -0.000000
vn 0.000000 -1.000000 -0.000000
vn -0.866026 -0.499999 -0.000000
vn -0.866026 -0.499999 -0.000000
vn -0.866026 0.499999 0.000000
vn -0.866026 0.499999 0.000000
vn 0.000000 1.000000 0.000000
vn 0.000000 1.000000 0.000000
vn 0.866024 0.500003 0.000000
vn 0.866024 0.500003 0.000000
s 1
g polySurface9
f 4/1/1 1/2/2 16/3/3 15/4/4
s 2
f 23/9/5 21/10/6 8/11/7 10/12/8
s 1
f 3/72/9 2/5/10 6/6/11 5/73/12
f 2/5/10 1/2/2 4/1/1 6/6/11
s 2
f 8/11/7 7/15/13 11/16/14 10/12/8
f 7/15/13 9/54/15 12/95/16 11/16/14
s 1
f 14/80/17 13/7/18 18/8/19 17/81/20
f 13/7/18 15/4/4 16/3/3 18/8/19
s 2
f 20/62/21 19/13/22 22/14/23 24/63/24
f 19/13/22 21/10/6 23/9/5 22/14/23
f 5/56/25 14/57/26 12/55/16 9/96/15
s 3
f 18/64/27 2/65/28 3/66/29 17/67/30
s 1
f 19/76/31 7/77/32 8/78/33 21/79/34
f 22/84/35 11/85/36 12/83/37 24/82/38
f 24/82/38 12/83/37 14/80/17 17/81/20
f 22/84/35 23/86/39 10/87/40 11/85/36
f 9/74/41 20/75/42 3/72/9 5/73/12
f 19/76/31 20/75/42 9/74/41 7/77/32
s 3
f 17/67/30 3/66/29 20/70/43 24/71/44
f 16/68/45 1/69/46 2/65/28 18/64/27
s 2
f 13/58/47 6/59/48 4/60/49 15/61/50
f 13/58/47 14/57/26 5/56/25 6/59/48
s 6
f 25/40/51 26/17/52 32/20/53 31/41/54
s 7
f 26/17/55 27/18/56 33/101/57 32/20/58
s 8
f 27/102/59 28/22/60 34/23/61 33/19/62
s 9
f 28/22/63 29/37/64 35/39/65 34/23/66
s 10
f 29/37/67 30/36/68 36/38/69 35/39/70
s 11
f 30/36/71 25/40/72 31/41/73 36/38/74
s 12
f 38/88/75 39/89/76 40/90/77
f 39/89/76 41/91/78 40/90/77
f 41/91/78 42/93/79 40/90/77
f 42/93/79 43/94/80 40/90/77
f 43/94/80 44/92/81 40/90/77
f 44/92/81 38/88/75 40/90/77
s 6
f 26/17/52 25/40/51 37/21/82
s 7
f 27/18/56 26/17/55 37/21/83
s 8
f 28/22/60 27/102/59 37/21/84
s 9
f 29/37/64 28/22/63 37/21/85
s 10
f 30/36/68 29/37/67 37/21/86
s 11
f 25/40/72 30/36/71 37/21/87
s 6
f 31/41/54 32/20/53 61/25/88 62/44/89
s 7
f 32/20/58 33/101/57 60/24/90 61/25/91
s 8
f 33/19/62 34/23/61 59/26/92 60/97/93
s 9
f 34/23/66 35/39/65 58/43/94 59/26/95
s 10
f 35/39/70 36/38/69 57/42/96 58/43/97
s 11
f 36/38/74 31/41/73 62/44/98 57/42/99
s 10
f 46/49/100 45/48/101 44/51/102 43/52/103
s 9
f 47/32/104 46/49/105 43/52/106 42/35/107
s 8
f 48/99/108 47/32/109 42/35/110 41/100/111
s 7
f 49/31/112 48/30/113 41/33/114 39/34/115
s 6
f 50/50/116 49/31/117 39/34/118 38/53/119
s 11
f 45/48/120 50/50/121 38/53/122 44/51/123
s 10
f 52/46/124 51/45/125 45/48/101 46/49/100
s 9
f 53/29/126 52/46/127 46/49/105 47/32/104
s 8
f 54/98/128 53/29/129 47/32/109 48/99/108
s 7
f 55/28/130 54/27/131 48/30/113 49/31/112
s 6
f 56/47/132 55/28/133 49/31/117 50/50/116
s 11
f 51/45/134 56/47/135 50/50/121 45/48/120
s 10
f 58/43/97 57/42/96 51/45/125 52/46/124
s 9
f 59/26/95 58/43/94 52/46/127 53/29/126
s 8
f 60/97/93 59/26/92 53/29/129 54/98/128
s 7
f 61/25/91 60/24/90 54/27/131 55/28/130
s 6
f 62/44/89 61/25/88 55/28/133 56/47/132
s 11
f 57/42/99 62/44/98 56/47/135 51/45/134
