# This file uses centimeters as units for non-parametric coordinates.

mtllib MesaDeComedor.mtl
g default
v 1.500000 0.362115 -0.250000
v 1.500000 0.400000 -0.250000
v 1.500000 0.400000 0.250000
v 1.500000 0.362115 0.250000
v 0.505810 0.400000 -0.250000
v 0.505810 0.400000 0.250000
v 0.505810 0.362115 0.250000
v 0.505810 0.362115 -0.250000
v 0.505810 0.362115 0.220000
v 0.474190 0.362115 0.220000
v 0.505810 0.362115 -0.220000
v 0.474190 0.362115 -0.220000
v 1.472425 0.362115 0.220000
v 1.442428 0.362115 0.220000
v 1.442428 0.362115 -0.220000
v 1.472425 0.362115 -0.220000
v -1.500000 0.362115 -0.250000
v -1.500000 0.400000 -0.250000
v -1.500000 0.400000 0.250000
v -1.500000 0.362115 0.250000
v -0.505810 0.400000 -0.250000
v -0.505810 0.400000 0.250000
v -0.505810 0.362115 0.250000
v -0.505810 0.362115 -0.250000
v -0.505810 0.362115 0.220000
v -0.474190 0.362115 0.220000
v -0.505810 0.362115 -0.220000
v -0.474190 0.362115 -0.220000
v -1.472425 0.362115 0.220000
v -1.442428 0.362115 0.220000
v -1.442428 0.362115 -0.220000
v -1.472425 0.362115 -0.220000
v 0.505810 0.000000 0.220000
v 0.474190 0.000000 0.220000
v 0.474190 0.000000 -0.220000
v 0.505810 0.000000 -0.220000
v 1.442428 0.000000 0.220000
v 1.472425 0.000000 0.220000
v 1.442428 0.000000 -0.220000
v 1.472425 0.000000 -0.220000
v -0.505810 0.000000 0.220000
v -0.505810 0.000000 -0.220000
v -0.474190 0.000000 -0.220000
v -0.474190 0.000000 0.220000
v -1.472425 0.000000 0.220000
v -1.472425 0.000000 -0.220000
v -1.442428 0.000000 -0.220000
v -1.442428 0.000000 0.220000
v 0.474190 0.332115 -0.190000
v 0.474190 0.332115 0.190000
v 0.474190 0.030000 -0.190000
v 0.474190 0.030000 0.190000
v 0.505810 0.332115 0.190000
v 0.505810 0.332115 -0.190000
v 0.505810 0.030000 0.190000
v 0.505810 0.030000 -0.190000
v 1.442428 0.332115 -0.190000
v 1.442428 0.332115 0.190000
v 1.442428 0.030000 -0.190000
v 1.442428 0.030000 0.190000
v 1.472425 0.332115 0.190000
v 1.472425 0.332115 -0.190000
v 1.472425 0.030000 0.190000
v 1.472425 0.030000 -0.190000
v -0.505810 0.332115 0.190000
v -0.505810 0.332115 -0.190000
v -0.505810 0.030000 -0.190000
v -0.505810 0.030000 0.190000
v -0.474190 0.332115 -0.190000
v -0.474190 0.332115 0.190000
v -0.474190 0.030000 0.190000
v -0.474190 0.030000 -0.190000
v -1.472425 0.332115 0.190000
v -1.472425 0.332115 -0.190000
v -1.472425 0.030000 -0.190000
v -1.472425 0.030000 0.190000
v -1.442428 0.332115 -0.190000
v -1.442428 0.332115 0.190000
v -1.442428 0.030000 0.190000
v -1.442428 0.030000 -0.190000
vt 0.405636 0.187838
vt 0.405636 0.005048
vt 0.414292 0.005048
vt 0.414292 0.187838
vt 0.418035 0.005048
vt 0.426691 0.005048
vt 0.426691 0.187838
vt 0.418035 0.187838
vt 0.569853 0.005441
vt 0.569853 0.099440
vt 0.562998 0.093031
vt 0.562998 0.011850
vt 0.487114 0.099440
vt 0.493968 0.093031
vt 0.487114 0.005441
vt 0.493968 0.011850
vt 0.656644 0.005441
vt 0.656644 0.099440
vt 0.649789 0.093031
vt 0.649789 0.011850
vt 0.573905 0.099440
vt 0.580760 0.093031
vt 0.573905 0.005441
vt 0.580760 0.011850
vt 0.743435 0.005441
vt 0.743435 0.099440
vt 0.736581 0.093031
vt 0.736581 0.011850
vt 0.660696 0.099440
vt 0.667551 0.093031
vt 0.660696 0.005441
vt 0.667551 0.011850
vt 0.830227 0.005441
vt 0.830227 0.099440
vt 0.823372 0.093031
vt 0.823372 0.011850
vt 0.747488 0.099440
vt 0.754342 0.093031
vt 0.747488 0.005441
vt 0.754342 0.011850
vt 0.569853 0.106402
vt 0.569853 0.200401
vt 0.562998 0.193992
vt 0.562998 0.112811
vt 0.487114 0.200401
vt 0.493968 0.193992
vt 0.487114 0.106402
vt 0.493968 0.112811
vt 0.656644 0.105849
vt 0.656644 0.199848
vt 0.649789 0.193439
vt 0.649789 0.112258
vt 0.573905 0.199848
vt 0.580760 0.193439
vt 0.573905 0.105849
vt 0.580760 0.112258
vt 0.743435 0.105849
vt 0.743435 0.199848
vt 0.736581 0.193439
vt 0.736581 0.112258
vt 0.660696 0.199848
vt 0.667551 0.193439
vt 0.660696 0.105849
vt 0.667551 0.112258
vt 0.830227 0.105849
vt 0.830227 0.199848
vt 0.823372 0.193439
vt 0.823372 0.112258
vt 0.747488 0.199848
vt 0.754342 0.193439
vt 0.747488 0.105849
vt 0.754342 0.112258
vt 0.205485 0.995039
vt 0.205485 0.665946
vt 0.388275 0.665946
vt 0.388275 0.995039
vt 0.205485 0.331085
vt 0.388275 0.331085
vt 0.205485 0.001992
vt 0.388275 0.001992
vt 0.012760 0.021669
vt 0.173615 0.021669
vt 0.173615 0.332452
vt 0.012760 0.332452
vt 0.184583 0.002565
vt 0.184583 0.332452
vt 0.001792 0.332452
vt 0.001792 0.002565
vt 0.173615 0.342944
vt 0.173615 0.011715
vt 0.012760 0.011715
vt 0.012760 0.342944
vt 0.184583 0.668121
vt 0.173615 0.657630
vt 0.012760 0.657630
vt 0.001792 0.668121
vt 0.173615 0.668121
vt 0.012760 0.668121
vt 0.184583 0.998008
vt 0.173615 0.978905
vt 0.012760 0.978905
vt 0.001792 0.998008
vt 0.173615 0.988858
vt 0.012760 0.988858
vt 0.430434 0.003277
vt 0.440611 0.003277
vt 0.440611 0.164132
vt 0.430434 0.164132
vt 0.444604 0.003277
vt 0.454258 0.003277
vt 0.454258 0.164132
vt 0.444604 0.164132
vt 0.468951 0.003277
vt 0.468951 0.164132
vt 0.458774 0.164132
vt 0.458774 0.003277
vt 0.482599 0.003277
vt 0.482599 0.164132
vt 0.472944 0.164132
vt 0.472944 0.003277
vt 0.842645 0.003116
vt 0.842645 0.084298
vt 0.834279 0.084298
vt 0.834279 0.003116
vt 0.855044 0.003116
vt 0.855044 0.084298
vt 0.846678 0.084298
vt 0.846678 0.003116
vt 0.867895 0.003116
vt 0.867895 0.084298
vt 0.859077 0.084298
vt 0.859077 0.003116
vt 0.882065 0.003116
vt 0.882065 0.084298
vt 0.873247 0.084298
vt 0.873247 0.003116
vt 0.896235 0.003116
vt 0.896235 0.084298
vt 0.887417 0.084298
vt 0.887417 0.003116
vt 0.843098 0.089908
vt 0.843098 0.171089
vt 0.834279 0.171089
vt 0.834279 0.089908
vt 0.856815 0.089908
vt 0.856815 0.171089
vt 0.848449 0.171089
vt 0.848449 0.089908
vt 0.869214 0.089908
vt 0.869214 0.171089
vt 0.860848 0.171089
vt 0.860848 0.089908
vt 0.191315 0.995039
vt 0.191315 0.665946
vt 0.199971 0.665946
vt 0.199971 0.995039
vt 0.191315 0.331084
vt 0.199971 0.331084
vt 0.191315 0.001992
vt 0.199971 0.001992
vt 0.393237 0.995039
vt 0.393237 0.665946
vt 0.401894 0.665946
vt 0.401894 0.995039
vt 0.393237 0.331085
vt 0.401894 0.331085
vt 0.393237 0.001992
vt 0.401894 0.001992
vt 0.873247 0.091679
vt 0.882065 0.091679
vt 0.882065 0.140029
vt 0.873247 0.140029
vt 0.896235 0.140029
vt 0.887417 0.140029
vt 0.887417 0.091679
vt 0.896235 0.091679
vt 0.873247 0.146587
vt 0.881613 0.146587
vt 0.881613 0.194938
vt 0.873247 0.194938
vt 0.894011 0.194938
vt 0.885645 0.194938
vt 0.885645 0.146587
vt 0.894011 0.146587
vt 0.439252 0.219734
vt 0.430434 0.219734
vt 0.430434 0.171384
vt 0.439252 0.171384
vt 0.444604 0.171384
vt 0.453422 0.171384
vt 0.453422 0.219734
vt 0.444604 0.219734
vt 0.467140 0.219734
vt 0.458774 0.219734
vt 0.458774 0.171384
vt 0.467140 0.171384
vt 0.471172 0.171384
vt 0.479539 0.171384
vt 0.479539 0.219734
vt 0.471172 0.219734
vt 0.842645 0.176699
vt 0.842645 0.217038
vt 0.834279 0.217038
vt 0.834279 0.176699
vt 0.855044 0.176699
vt 0.855044 0.217038
vt 0.846678 0.217038
vt 0.846678 0.176699
vt 0.867895 0.176699
vt 0.867895 0.217038
vt 0.859077 0.217038
vt 0.859077 0.176699
vt 0.414455 0.192639
vt 0.414455 0.232978
vt 0.405636 0.232978
vt 0.405636 0.192639
vt 0.898006 0.199725
vt 0.898006 0.240064
vt 0.889188 0.240064
vt 0.889188 0.199725
vt 0.882065 0.199725
vt 0.882065 0.240064
vt 0.873247 0.240064
vt 0.873247 0.199725
vt 0.491937 0.205039
vt 0.491937 0.245378
vt 0.483571 0.245378
vt 0.483571 0.205039
vn -0.000000 0.000000 -1.000000
vn -0.000000 0.000000 -1.000000
vn -0.000000 0.000000 -1.000000
vn -0.000000 0.000000 -1.000000
vn -0.000000 1.000000 0.000000
vn -0.000000 1.000000 0.000000
vn -0.000000 1.000000 0.000000
vn -0.000000 1.000000 0.000000
vn 0.000000 0.000000 1.000000
vn 0.000000 0.000000 1.000000
vn 0.000000 0.000000 1.000000
vn 0.000000 0.000000 1.000000
vn 0.000000 -1.000000 0.000000
vn -0.000000 -1.000000 -0.000000
vn -0.000000 -1.000000 -0.000000
vn 0.000000 -1.000000 0.000000
vn 1.000000 0.000000 -0.000000
vn 1.000000 0.000000 -0.000000
vn 1.000000 0.000000 -0.000000
vn 1.000000 0.000000 -0.000000
vn -0.000000 -1.000000 -0.000000
vn -0.000000 -1.000000 -0.000000
vn 0.000000 -1.000000 0.000000
vn 0.000000 -1.000000 0.000000
vn -0.000000 -1.000000 -0.000000
vn -0.000000 1.000000 0.000000
vn -0.000000 1.000000 0.000000
vn 0.000000 0.000000 1.000000
vn 0.000000 0.000000 1.000000
vn 0.000000 -1.000000 0.000000
vn 0.000000 -1.000000 0.000000
vn 0.000000 -1.000000 0.000000
vn 0.000000 -1.000000 0.000000
vn -0.000000 0.000000 -1.000000
vn -0.000000 0.000000 -1.000000
vn 0.000000 -1.000000 0.000000
vn 0.000000 -1.000000 0.000000
vn 0.000000 -1.000000 0.000000
vn 0.000000 -1.000000 0.000000
vn 0.000000 -1.000000 0.000000
vn 0.000000 -1.000000 0.000000
vn 0.000000 -1.000000 0.000000
vn 0.000000 -1.000000 0.000000
vn 0.000000 -1.000000 0.000000
vn 0.000000 -1.000000 0.000000
vn -0.000000 0.000000 -1.000000
vn -0.000000 0.000000 -1.000000
vn -0.000000 1.000000 0.000000
vn -0.000000 1.000000 0.000000
vn 0.000000 0.000000 1.000000
vn 0.000000 0.000000 1.000000
vn 0.000000 -1.000000 0.000000
vn 0.000000 -1.000000 0.000000
vn 0.000000 -1.000000 0.000000
vn -0.000000 -1.000000 -0.000000
vn -1.000000 0.000000 0.000000
vn -1.000000 0.000000 0.000000
vn -1.000000 0.000000 0.000000
vn -1.000000 0.000000 0.000000
vn -0.000000 -1.000000 -0.000000
vn 0.000000 -1.000000 0.000000
vn 0.000000 -1.000000 0.000000
vn -0.000000 -1.000000 -0.000000
vn 0.000000 -1.000000 0.000000
vn 0.000000 -1.000000 0.000000
vn 0.000000 -1.000000 0.000000
vn 0.000000 -1.000000 0.000000
vn 0.000000 -1.000000 0.000000
vn 0.000000 -1.000000 0.000000
vn 0.000000 -1.000000 0.000000
vn 0.000000 -1.000000 0.000000
vn 0.000000 -1.000000 0.000000
vn 0.000000 0.000000 1.000000
vn 0.000000 0.000000 1.000000
vn 0.000000 0.000000 1.000000
vn 0.000000 0.000000 1.000000
vn -0.000000 0.000000 -1.000000
vn -0.000000 0.000000 -1.000000
vn -0.000000 0.000000 -1.000000
vn -0.000000 0.000000 -1.000000
vn 0.000000 0.000000 1.000000
vn 0.000000 0.000000 1.000000
vn 0.000000 0.000000 1.000000
vn 0.000000 0.000000 1.000000
vn -0.000000 0.000000 -1.000000
vn -0.000000 0.000000 -1.000000
vn -0.000000 0.000000 -1.000000
vn -0.000000 0.000000 -1.000000
vn -0.000000 0.000000 -1.000000
vn -0.000000 0.000000 -1.000000
vn -0.000000 0.000000 -1.000000
vn -0.000000 0.000000 -1.000000
vn 0.000000 0.000000 1.000000
vn 0.000000 0.000000 1.000000
vn 0.000000 0.000000 1.000000
vn 0.000000 0.000000 1.000000
vn -0.000000 0.000000 -1.000000
vn -0.000000 0.000000 -1.000000
vn -0.000000 0.000000 -1.000000
vn -0.000000 0.000000 -1.000000
vn 0.000000 0.000000 1.000000
vn 0.000000 0.000000 1.000000
vn 0.000000 0.000000 1.000000
vn 0.000000 0.000000 1.000000
vn -1.000000 0.000000 0.000000
vn -1.000000 0.000000 0.000000
vn -1.000000 0.000001 0.000000
vn -1.000000 0.000001 0.000000
vn -1.000000 -0.000000 0.000000
vn -1.000000 -0.000001 0.000000
vn -1.000000 -0.000000 0.000000
vn -1.000000 -0.000001 0.000000
vn 1.000000 0.000000 -0.000000
vn 1.000000 0.000000 -0.000000
vn 1.000000 0.000001 -0.000000
vn 1.000000 0.000001 -0.000000
vn 1.000000 -0.000000 -0.000000
vn 1.000000 -0.000001 -0.000000
vn 1.000000 -0.000000 -0.000000
vn 1.000000 -0.000001 -0.000000
vn -1.000000 -0.000000 0.000000
vn -1.000000 -0.000000 0.000000
vn -1.000000 -0.000001 0.000000
vn -1.000000 -0.000001 0.000000
vn -1.000000 0.000000 0.000000
vn -1.000000 0.000001 0.000000
vn -1.000000 0.000000 0.000000
vn -1.000000 0.000001 0.000000
vn 1.000000 0.000001 -0.000000
vn 1.000000 0.000001 -0.000000
vn 1.000000 0.000002 -0.000000
vn 1.000000 0.000002 -0.000000
vn 1.000000 -0.000001 -0.000000
vn 1.000000 -0.000002 -0.000000
vn 1.000000 -0.000001 -0.000000
vn 1.000000 -0.000002 -0.000000
vn -1.000000 0.000000 0.000000
vn -1.000000 0.000000 0.000000
vn -1.000000 0.000001 0.000000
vn -1.000000 0.000001 0.000000
vn -1.000000 -0.000000 0.000000
vn -1.000000 -0.000001 0.000000
vn -1.000000 -0.000000 0.000000
vn -1.000000 -0.000001 0.000000
vn 1.000000 0.000000 -0.000000
vn 1.000000 0.000000 -0.000000
vn 1.000000 0.000001 -0.000000
vn 1.000000 0.000001 -0.000000
vn 1.000000 -0.000000 -0.000000
vn 1.000000 -0.000001 -0.000000
vn 1.000000 -0.000000 -0.000000
vn 1.000000 -0.000001 -0.000000
vn -1.000000 0.000001 0.000000
vn -1.000000 0.000001 0.000000
vn -1.000000 0.000002 0.000000
vn -1.000000 0.000002 0.000000
vn -1.000000 -0.000001 0.000000
vn -1.000000 -0.000002 0.000000
vn -1.000000 -0.000001 0.000000
vn -1.000000 -0.000002 0.000000
vn 1.000000 -0.000000 -0.000000
vn 1.000000 -0.000000 -0.000000
vn 1.000000 -0.000001 -0.000000
vn 1.000000 -0.000001 -0.000000
vn 1.000000 0.000000 -0.000000
vn 1.000000 0.000001 -0.000000
vn 1.000000 0.000000 -0.000000
vn 1.000000 0.000001 -0.000000
vn -0.000000 1.000000 0.000000
vn -0.000000 1.000000 0.000000
vn -0.000000 1.000000 0.000000
vn -0.000000 1.000000 0.000000
vn 0.000000 0.000000 1.000000
vn 0.000000 0.000000 1.000000
vn 0.000000 0.000000 1.000000
vn 0.000000 0.000000 1.000000
vn -0.000000 0.000000 -1.000000
vn -0.000000 0.000000 -1.000000
vn -0.000000 0.000000 -1.000000
vn -0.000000 0.000000 -1.000000
vn 0.000000 -1.000000 0.000000
vn 0.000000 -1.000000 0.000000
vn 0.000000 -1.000000 0.000000
vn 0.000000 -1.000000 0.000000
vn 0.000000 -1.000000 0.000000
vn 0.000000 -1.000000 0.000000
vn 0.000000 -1.000000 0.000000
vn 0.000000 -1.000000 0.000000
vn 0.000000 0.000000 1.000000
vn 0.000000 0.000000 1.000000
vn 0.000000 0.000000 1.000000
vn 0.000000 0.000000 1.000000
vn -0.000000 0.000000 -1.000000
vn -0.000000 0.000000 -1.000000
vn -0.000000 0.000000 -1.000000
vn -0.000000 0.000000 -1.000000
vn -0.000000 1.000000 0.000000
vn -0.000000 1.000000 0.000000
vn -0.000000 1.000000 0.000000
vn -0.000000 1.000000 0.000000
vn 0.000000 -1.000000 0.000000
vn 0.000000 -1.000000 0.000000
vn 0.000000 -1.000000 0.000000
vn 0.000000 -1.000000 0.000000
vn 0.000000 0.000000 1.000000
vn 0.000000 0.000000 1.000000
vn 0.000000 0.000000 1.000000
vn 0.000000 0.000000 1.000000
vn -0.000000 0.000000 -1.000000
vn -0.000000 0.000000 -1.000000
vn -0.000000 0.000000 -1.000000
vn -0.000000 0.000000 -1.000000
vn -0.000000 1.000000 0.000000
vn -0.000000 1.000000 0.000000
vn -0.000000 1.000000 0.000000
vn -0.000000 1.000000 0.000000
vn -0.000000 1.000000 0.000000
vn -0.000000 1.000000 0.000000
vn -0.000000 1.000000 0.000000
vn -0.000000 1.000000 0.000000
vn -0.000000 0.000000 -1.000000
vn -0.000000 0.000000 -1.000000
vn -0.000000 0.000000 -1.000000
vn -0.000000 0.000000 -1.000000
vn 0.000000 -1.000000 0.000000
vn 0.000000 -1.000000 0.000000
vn 0.000000 -1.000000 0.000000
vn 0.000000 -1.000000 0.000000
s 1
g pCube1
usemtl initialShadingGroup
f 1/153/1 8/154/2 5/155/3 2/156/4
s 2
f 2/73/5 5/74/6 6/75/7 3/76/8
s 3
f 3/161/9 6/162/10 7/163/11 4/164/12
s 4
f 15/81/13 14/82/14 9/83/15 11/84/16
s off
f 4/1/17 1/2/18 2/3/19 3/4/20
s 4
f 4/85/21 7/86/22 9/83/15 14/82/14
f 15/81/13 1/88/23 16/91/24
f 1/88/23 4/85/21 13/90/25 16/91/24
s 2
f 6/75/7 5/74/6 21/77/26 22/78/27
s 3
f 7/163/11 6/162/10 22/165/28 23/166/29
s 4
f 12/92/30 10/89/31 26/94/32 28/95/33
s 1
f 5/155/3 8/154/2 24/157/34 21/158/35
s 4
f 10/89/31 7/86/22 23/93/36 26/94/32
s off
f 33/105/37 34/106/38 35/107/39 36/108/40
s 4
f 9/83/15 7/86/22 10/89/31
f 8/87/41 11/84/16 12/92/30
s off
f 38/109/42 37/110/43 39/111/44 40/112/45
s 4
f 4/85/21 14/82/14 13/90/25
f 8/87/41 1/88/23 15/81/13 11/84/16
s 1
f 17/159/46 18/160/47 21/158/35 24/157/34
s 2
f 18/79/48 19/80/49 22/78/27 21/77/26
s 3
f 19/167/50 20/168/51 23/166/29 22/165/28
s 4
f 31/101/52 27/98/53 25/97/54 30/100/55
s off
f 20/5/56 19/6/57 18/7/58 17/8/59
s 4
f 20/99/60 30/100/55 25/97/54 23/93/36
f 31/101/52 32/104/61 17/102/62
f 17/102/62 32/104/61 29/103/63 20/99/60
s off
f 41/113/64 42/114/65 43/115/66 44/116/67
s 4
f 25/97/54 26/94/32 23/93/36
f 24/96/68 28/95/33 27/98/53
s off
f 45/117/69 46/118/70 47/119/71 48/120/72
s 4
f 20/99/60 29/103/63 30/100/55
f 24/96/68 27/98/53 31/101/52 17/102/62
f 12/92/30 28/95/33 24/96/68 8/87/41
s off
f 9/169/73 10/170/74 34/171/75 33/172/76
f 12/173/77 11/174/78 36/175/79 35/176/80
f 13/177/81 14/178/82 37/179/83 38/180/84
f 15/181/85 16/182/86 40/183/87 39/184/88
f 27/185/89 28/186/90 43/187/91 42/188/92
f 26/189/93 25/190/94 41/191/95 44/192/96
f 32/193/97 31/194/98 47/195/99 46/196/100
f 30/197/101 29/198/102 45/199/103 48/200/104
s 8
f 10/9/105 12/10/106 49/11/107 50/12/108
f 12/10/106 35/13/109 51/14/110 49/11/107
f 35/13/109 34/15/111 52/16/112 51/14/110
f 34/15/111 10/9/105 50/12/108 52/16/112
s 9
f 11/17/113 9/18/114 53/19/115 54/20/116
f 9/18/114 33/21/117 55/22/118 53/19/115
f 33/21/117 36/23/119 56/24/120 55/22/118
f 36/23/119 11/17/113 54/20/116 56/24/120
s 10
f 14/25/121 15/26/122 57/27/123 58/28/124
f 15/26/122 39/29/125 59/30/126 57/27/123
f 39/29/125 37/31/127 60/32/128 59/30/126
f 37/31/127 14/25/121 58/28/124 60/32/128
s 11
f 16/33/129 13/34/130 61/35/131 62/36/132
f 13/34/130 38/37/133 63/38/134 61/35/131
f 38/37/133 40/39/135 64/40/136 63/38/134
f 40/39/135 16/33/129 62/36/132 64/40/136
s 12
f 25/41/137 27/42/138 66/43/139 65/44/140
f 27/42/138 42/45/141 67/46/142 66/43/139
f 42/45/141 41/47/143 68/48/144 67/46/142
f 41/47/143 25/41/137 65/44/140 68/48/144
s 13
f 28/49/145 26/50/146 70/51/147 69/52/148
f 26/50/146 44/53/149 71/54/150 70/51/147
f 44/53/149 43/55/151 72/56/152 71/54/150
f 43/55/151 28/49/145 69/52/148 72/56/152
s 14
f 29/57/153 32/58/154 74/59/155 73/60/156
f 32/58/154 46/61/157 75/62/158 74/59/155
f 46/61/157 45/63/159 76/64/160 75/62/158
f 45/63/159 29/57/153 73/60/156 76/64/160
s 15
f 31/65/161 30/66/162 78/67/163 77/68/164
f 30/66/162 48/69/165 79/70/166 78/67/163
f 48/69/165 47/71/167 80/72/168 79/70/166
f 47/71/167 31/65/161 77/68/164 80/72/168
s off
f 75/121/169 76/122/170 79/123/171 80/124/172
f 74/201/173 75/202/174 80/203/175 77/204/176
f 76/205/177 73/206/178 78/207/179 79/208/180
f 73/125/181 74/126/182 77/127/183 78/128/184
f 65/129/185 66/130/186 69/131/187 70/132/188
f 66/209/189 67/210/190 72/211/191 69/212/192
f 68/213/193 65/214/194 70/215/195 71/216/196
f 67/133/197 68/134/198 71/135/199 72/136/200
f 50/137/201 49/138/202 54/139/203 53/140/204
f 49/217/205 51/218/206 56/219/207 54/220/208
f 52/221/209 50/222/210 53/223/211 55/224/212
f 51/141/213 52/142/214 55/143/215 56/144/216
f 59/145/217 60/146/218 63/147/219 64/148/220
f 60/225/221 58/226/222 61/227/223 63/228/224
f 58/149/225 57/150/226 62/151/227 61/152/228
