# This file uses centimeters as units for non-parametric coordinates.

g default
v -0.367312 1.516189 -0.037757
v -0.375000 1.497823 -0.035083
v -0.348753 1.523796 -0.038865
v -0.375000 1.495661 -0.049926
v -0.367312 1.514027 -0.052601
v -0.348753 1.521634 -0.053709
v 0.367312 1.516189 -0.037757
v 0.348753 1.523796 -0.038865
v 0.375000 1.497823 -0.035083
v 0.375000 1.495661 -0.049926
v 0.348753 1.521634 -0.053709
v 0.367312 1.514027 -0.052601
v -0.367312 1.011883 0.035683
v -0.348753 1.004276 0.036791
v -0.375000 1.030249 0.033009
v -0.367312 1.009722 0.020840
v -0.375000 1.028087 0.018165
v -0.348753 1.002114 0.021948
v 0.367312 1.011883 0.035683
v 0.375000 1.030249 0.033009
v 0.348753 1.004276 0.036791
v 0.367312 1.009722 0.020840
v 0.348753 1.002114 0.021948
v 0.375000 1.028087 0.018165
v -0.348753 1.497823 -0.035083
v -0.348753 1.030249 0.033009
v 0.348752 1.497823 -0.035083
v 0.348752 1.030249 0.033009
v 0.244300 1.098108 -0.004604
v 0.244300 1.425641 -0.052301
v -0.244300 1.425641 -0.052301
v -0.244300 1.098108 -0.004604
v -0.348753 1.123764 0.019390
v 0.348752 1.123764 0.019390
v 0.375000 1.123764 0.019390
v 0.375000 1.121602 0.004547
v -0.375000 1.121602 0.004547
v -0.375000 1.123764 0.019390
v 0.348752 1.095906 0.023447
v 0.375000 1.095906 0.023447
v 0.375000 1.093745 0.008604
v -0.375000 1.093745 0.008604
v -0.375000 1.095906 0.023447
v -0.348753 1.095906 0.023447
v -0.073335 0.852049 0.049819
v 0.076665 0.852196 0.049819
v -0.075000 0.859047 0.045853
v 0.075000 0.859047 0.045853
v -0.075000 1.172670 0.001025
v 0.075000 1.172670 0.001025
v 0.076665 1.187701 0.004990
v -0.073335 1.187701 0.004990
v -0.075000 1.173248 -0.037914
v -0.075000 1.162642 -0.055437
v -0.075000 1.170485 -0.048213
v 0.075000 1.173248 -0.037914
v 0.075000 1.170485 -0.048213
v 0.075000 1.162642 -0.055437
v 0.076665 1.188326 -0.043555
v 0.076665 1.177822 -0.061138
v 0.076665 1.185578 -0.053842
v -0.073335 1.188326 -0.043555
v -0.073335 1.185578 -0.053842
v -0.073335 1.177822 -0.061138
v -0.075000 0.894295 -0.147642
v -0.075000 0.865000 -0.129505
v -0.075000 0.869477 -0.142208
v -0.075000 0.880928 -0.149298
v 0.075000 0.894295 -0.147642
v 0.075000 0.880928 -0.149298
v 0.075000 0.869477 -0.142208
v 0.075000 0.865000 -0.129505
v -0.073335 0.896343 -0.167509
v -0.073335 0.871525 -0.168873
v -0.073335 0.856569 -0.158450
v -0.073335 0.852049 -0.138242
v 0.076665 0.896343 -0.167509
v 0.076665 0.852049 -0.138242
v 0.076665 0.856569 -0.158450
v 0.076665 0.871525 -0.168873
vt 0.953831 0.953460
vt 0.940203 0.953453
vt 0.940366 0.610015
vt 0.953994 0.610022
vt 0.940195 0.970316
vt 0.953823 0.970322
vt 0.940378 0.584438
vt 0.954006 0.584445
vt 0.940407 0.524156
vt 0.954035 0.524162
vt 0.940414 0.507293
vt 0.954043 0.507300
vt 0.972628 0.953312
vt 0.959001 0.953425
vt 0.956135 0.610000
vt 0.969763 0.609886
vt 0.972769 0.970174
vt 0.959141 0.970287
vt 0.955922 0.584424
vt 0.969549 0.584310
vt 0.955419 0.524143
vt 0.969046 0.524030
vt 0.968906 0.507168
vt 0.955278 0.507282
vt 0.779207 0.932359
vt 0.786721 0.922152
vt 0.792337 0.928249
vt 0.784879 0.938388
vt 0.696518 0.713548
vt 0.715045 0.713548
vt 0.792875 0.940525
vt 0.800343 0.930396
vt 0.695458 0.694256
vt 0.713758 0.703158
vt 0.830613 0.929947
vt 0.830613 0.940039
vt 0.703560 0.682629
vt 0.719269 0.694256
vt 0.719269 0.679115
vt 0.729144 0.690776
vt 0.865460 0.679115
vt 0.865460 0.686148
vt 0.828607 0.923044
vt 0.821140 0.912915
vt 0.829146 0.910768
vt 0.836604 0.920907
vt 0.790870 0.922558
vt 0.790870 0.912466
vt 0.834762 0.904671
vt 0.842276 0.914878
vt 0.906438 0.696067
vt 0.924965 0.696067
vt 0.926025 0.676775
vt 0.907725 0.685677
vt 0.902214 0.676775
vt 0.917923 0.665148
vt 0.892339 0.673295
vt 0.902214 0.661634
vt 0.756022 0.668667
vt 0.756022 0.661749
vt 1.000000 0.653410
vt 0.986455 0.653410
vt 0.986455 0.016936
vt 1.000000 0.016936
vt 0.985445 0.670345
vt 0.998989 0.670345
vt 0.985445 0.000000
vt 0.998989 0.000000
vt 0.984917 0.653407
vt 0.971372 0.653407
vt 0.971372 0.016936
vt 0.984917 0.016936
vt 0.983906 0.670343
vt 0.970361 0.670343
vt 0.983906 0.000000
vt 0.970361 0.000000
vt 0.829583 0.000674
vt 0.965458 0.000000
vt 0.966245 0.158936
vt 0.830371 0.159609
vt 0.830432 0.171809
vt 0.966306 0.171136
vt 0.830492 0.184010
vt 0.966366 0.183336
vt 0.689449 0.393849
vt 0.825324 0.393627
vt 0.825602 0.563980
vt 0.689727 0.564202
vt 0.689418 0.375092
vt 0.825293 0.374870
vt 0.689391 0.358578
vt 0.825266 0.358357
vt 0.831923 0.472553
vt 0.967797 0.471880
vt 0.967972 0.507156
vt 0.832097 0.507829
vt 0.831875 0.462894
vt 0.967749 0.462221
vt 0.831827 0.453236
vt 0.967701 0.452562
vt 0.824753 0.043977
vt 0.688877 0.044199
vt 0.688806 0.000222
vt 0.824681 0.000000
vt 0.824769 0.053623
vt 0.688893 0.053845
vt 0.824785 0.063268
vt 0.688909 0.063490
vt 0.659052 0.947033
vt 0.659052 0.923382
vt 0.682953 0.923382
vt 0.675952 0.940106
vt 0.023901 0.947033
vt 0.023901 0.923382
vt 0.659052 0.582763
vt 0.682953 0.582763
vt 0.000000 0.923382
vt 0.007000 0.940106
vt 0.023901 0.582763
vt 0.659052 0.557396
vt 0.682953 0.557396
vt 0.000000 0.582763
vt 0.023901 0.557396
vt 0.659052 0.497608
vt 0.682953 0.497608
vt 0.000000 0.557396
vt 0.023901 0.497608
vt 0.675952 0.480884
vt 0.659052 0.473956
vt 0.000000 0.497608
vt 0.023901 0.473956
vt 0.007000 0.480884
vt 0.684222 0.023695
vt 0.564985 0.087574
vt 0.660277 0.000000
vt 0.677209 0.006940
vt 0.684222 0.364948
vt 0.564985 0.386382
vt 0.119237 0.087574
vt 0.023945 0.000000
vt 0.684222 0.390362
vt 0.119237 0.386382
vt 0.000000 0.023695
vt 0.007013 0.006940
vt 0.684222 0.450261
vt 0.660277 0.473956
vt 0.023945 0.473956
vt 0.000000 0.364948
vt 0.677209 0.467016
vt 0.007013 0.467016
vt 0.000000 0.450261
vt 0.000000 0.390362
vt 0.915056 0.643294
vt 0.915189 0.507418
vt 0.923251 0.507418
vt 0.923251 0.643294
vt 0.925111 0.643245
vt 0.925111 0.507368
vt 0.936871 0.507368
vt 0.936871 0.643245
vt 0.830553 0.196210
vt 0.966427 0.195537
vt 0.825230 0.335841
vt 0.689354 0.336063
vn -0.010735 0.989503 -0.144112
vn -0.010735 0.989503 -0.144112
vn 0.010735 0.989503 -0.144112
vn 0.010735 0.989503 -0.144112
vn -0.010735 -0.989504 0.144107
vn -0.010735 -0.989504 0.144107
vn 0.010735 -0.989504 0.144107
vn 0.010735 -0.989504 0.144107
vn 0.999812 0.019179 -0.002793
vn 0.999812 0.019180 -0.002794
vn 1.000000 -0.000000 0.000000
vn 1.000000 -0.000000 0.000000
vn -0.999812 0.019180 -0.002794
vn -0.999812 0.019179 -0.002793
vn -1.000000 -0.000000 0.000000
vn -1.000000 -0.000000 0.000000
vn -0.707102 0.699729 -0.101909
vn -0.707106 0.699725 -0.101908
vn 0.707103 0.699729 -0.101909
vn 0.707107 0.699725 -0.101909
vn -0.707106 -0.699726 0.101905
vn -0.707105 -0.699727 0.101905
vn -0.995926 -0.089228 0.012995
vn -0.995926 -0.089230 0.012995
vn 0.995926 -0.089228 0.012995
vn 0.707106 -0.699726 0.101905
vn 0.707105 -0.699727 0.101905
vn 0.995926 -0.089230 0.012995
vn 0.000000 0.144108 0.989562
vn 0.000000 0.144107 0.989562
vn 0.000000 0.144107 0.989562
vn 0.000000 0.144108 0.989562
vn 0.091778 -0.138630 -0.986082
vn 0.018738 -0.107852 -0.993990
vn 0.006849 -0.022885 -0.999715
vn 0.058890 -0.085331 -0.994611
vn 0.000000 0.144107 0.989562
vn 0.000000 0.144107 0.989562
vn 0.000000 0.144106 0.989562
vn 0.000000 0.144107 0.989562
vn 0.000000 0.144107 0.989562
vn 0.000000 0.144106 0.989562
vn -0.000000 0.144107 0.989562
vn -0.000000 0.144107 0.989562
vn -0.000000 0.144107 0.989562
vn -0.000000 0.144108 0.989562
vn 0.000000 0.144107 0.989562
vn 0.000000 0.144107 0.989562
vn -0.000000 0.144106 0.989562
vn -0.000000 0.144107 0.989562
vn -0.000000 0.144107 0.989562
vn -0.000000 0.144106 0.989562
vn 0.057901 -0.200920 -0.977895
vn 0.006423 -0.259404 -0.965748
vn 0.013990 -0.181681 -0.983258
vn 0.076162 -0.172620 -0.982040
vn 0.094757 -0.143459 -0.985110
vn 0.094757 -0.143459 -0.985110
vn -0.013990 -0.181681 -0.983258
vn -0.006423 -0.259404 -0.965748
vn -0.057901 -0.200920 -0.977895
vn -0.076162 -0.172620 -0.982039
vn -0.094757 -0.143459 -0.985109
vn -0.094757 -0.143459 -0.985110
vn -0.006849 -0.022885 -0.999715
vn -0.018738 -0.107852 -0.993990
vn -0.091778 -0.138630 -0.986082
vn -0.058890 -0.085331 -0.994611
vn 0.000000 0.144107 0.989562
vn 0.000000 0.144107 0.989562
vn 0.000000 0.144107 0.989562
vn 1.000000 -0.000000 0.000000
vn 1.000000 -0.000000 0.000000
vn -1.000000 -0.000000 0.000000
vn -1.000000 -0.000000 0.000000
vn 0.000000 0.144107 0.989562
vn -0.000244 0.496895 0.867811
vn -0.000244 0.496895 0.867811
vn -0.000244 0.496895 0.867811
vn -0.000244 0.496895 0.867811
vn 0.000000 0.999424 0.033928
vn 0.000000 0.999424 0.033928
vn 0.000000 0.998466 0.055374
vn 0.000000 0.998466 0.055374
vn 0.000000 -0.255088 0.966918
vn 0.000000 -0.255088 0.966918
vn 0.000000 -0.255088 0.966918
vn 0.000000 -0.255088 0.966918
vn 0.000444 -0.999772 -0.021346
vn 0.000444 -0.999772 -0.021346
vn 0.000492 -1.000000 0.000392
vn 0.000492 -1.000000 0.000392
vn 0.000000 -0.316093 0.948728
vn 0.000000 -0.316093 0.948728
vn 0.000000 -0.338718 0.940888
vn 0.000000 -0.338718 0.940888
vn 0.000000 0.331807 -0.943347
vn 0.000000 0.331807 -0.943347
vn 0.000000 0.365763 -0.930708
vn 0.000000 0.365763 -0.930708
vn -0.993897 0.041223 -0.102316
vn -0.993861 0.038242 -0.103812
vn -0.994471 0.088392 -0.056689
vn -0.994601 0.091003 -0.049874
vn 0.000000 -0.999017 0.044321
vn 0.000000 -0.999017 0.044321
vn 0.000000 -0.999890 -0.014834
vn 0.000000 -0.999890 -0.014834
vn 0.000000 0.999349 -0.036069
vn 0.000000 0.999349 -0.036069
vn 0.000000 0.999917 0.012879
vn 0.000000 0.999917 0.012879
vn -0.994204 0.107346 -0.005958
vn -0.994106 0.108364 -0.003136
vn -0.993926 0.110038 0.001513
vn -0.993926 0.110038 0.001513
vn 0.000000 -0.855519 0.517771
vn 0.000000 -0.855519 0.517771
vn 0.000000 0.858483 -0.512843
vn 0.000000 0.858483 -0.512843
vn 0.994204 -0.107347 0.005958
vn 0.994106 -0.108364 0.003136
vn 0.994471 -0.088392 0.056689
vn 0.994601 -0.091003 0.049874
vn 0.993861 -0.038242 0.103812
vn 0.993897 -0.041223 0.102316
vn 0.993926 -0.110038 -0.001513
vn 0.993926 -0.110038 -0.001513
vn 0.000000 0.213879 0.976860
vn 0.000000 0.213879 0.976860
vn 0.000000 0.779064 0.626945
vn 0.000000 0.779064 0.626945
vn 0.000000 -0.843857 -0.536568
vn 0.000000 -0.843857 -0.536568
vn 0.000000 -0.222081 -0.975028
vn 0.000000 -0.222081 -0.975028
vn 0.994062 -0.035510 0.102860
vn 0.994126 -0.034850 0.102461
vn -0.987289 -0.158864 -0.004771
vn -0.988649 -0.150010 -0.008317
vn -0.986447 -0.164058 -0.002687
vn -0.986447 -0.164058 -0.002687
vn -0.994126 0.034850 -0.102461
vn -0.994062 0.035510 -0.102860
vn -0.996996 -0.020533 -0.074682
vn -0.996914 -0.014042 -0.077237
vn -0.996633 -0.062252 -0.053370
vn -0.996267 -0.072723 -0.046513
vn 0.996996 0.020533 0.074682
vn 0.996914 0.014042 0.077237
vn 0.996267 0.072724 0.046513
vn 0.996633 0.062252 0.053370
vn 0.987117 0.159928 0.004742
vn 0.988521 0.150852 0.008316
vn 0.986247 0.165257 0.002640
vn 0.986247 0.165257 0.002640
s 1
g pCube9
f 6/61/1 3/62/2 8/63/3 11/64/4
f 14/69/5 18/70/6 23/71/7 21/72/8
f 10/1/9 9/2/10 35/3/11 36/4/12
f 2/13/13 4/14/14 37/15/15 38/16/16
f 2/13/13 1/17/17 5/18/18 4/14/14
f 1/65/17 3/62/2 6/61/1 5/66/18
f 8/63/3 7/67/19 12/68/20 11/64/4
f 7/5/19 9/2/10 10/1/9 12/6/20
f 14/69/5 13/73/21 16/74/22 18/70/6
f 13/23/21 15/22/23 17/21/24 16/24/22
f 20/9/25 19/11/26 22/12/27 24/10/28
f 19/75/26 21/72/8 23/71/7 22/76/27
s 5
f 8/109/29 27/110/30 9/111/31 7/112/32
s 6
f 10/133/33 30/134/34 11/135/35 12/136/36
s 5
f 9/111/31 27/110/30 34/115/37 35/116/38
f 19/128/39 20/125/40 28/124/41 21/129/42
f 2/117/43 25/114/44 3/113/45 1/118/46
f 33/119/47 25/114/44 2/117/43 38/122/48
f 14/131/49 26/127/50 15/130/51 13/132/52
f 3/113/45 25/114/44 27/110/30 8/109/29
f 27/110/30 25/114/44 33/119/47 34/115/37
f 21/129/42 28/124/41 26/127/50 14/131/49
s 6
f 22/149/53 23/146/54 29/138/55 24/145/56
f 29/138/55 36/137/57 41/141/58
f 32/142/59 18/147/60 16/150/61 17/151/62
f 42/152/63 37/148/64 32/142/59
f 6/140/65 31/139/66 4/143/67 5/144/68
f 11/135/35 30/134/34 31/139/66 6/140/65
f 31/139/66 30/134/34 29/138/55 32/142/59
f 29/138/55 23/146/54 18/147/60 32/142/59
s 5
f 33/119/47 44/123/69 39/120/70 34/115/37
f 35/116/38 34/115/37 39/120/70 40/121/71
s 1
f 40/7/72 41/8/73 36/4/12 35/3/11
f 42/19/74 43/20/75 38/16/16 37/15/15
s 5
f 43/126/76 44/123/69 33/119/47 38/122/48
f 40/121/71 39/120/70 28/124/41 20/125/40
s 1
f 20/9/25 24/10/28 41/8/73 40/7/72
s 6
f 24/145/56 29/138/55 41/141/58
f 42/152/63 32/142/59 17/151/62
s 1
f 17/21/24 15/22/23 43/20/75 42/19/74
s 5
f 15/130/51 26/127/50 44/123/69 43/126/76
f 39/120/70 44/123/69 26/127/50 28/124/41
s 6
f 32/142/59 37/148/64 4/143/67 31/139/66
f 30/134/34 10/133/33 36/137/57 29/138/55
s off
f 45/153/77 46/154/78 48/155/79 47/156/80
s 11
f 47/77/81 48/78/82 72/79/83 66/80/84
s off
f 49/157/85 50/158/86 51/159/87 52/160/88
s 12
f 76/85/89 78/86/90 46/87/91 45/88/92
s 11
f 65/161/93 69/162/94 58/100/95 54/99/96
s 12
f 77/163/97 73/164/98 64/108/99 60/107/100
s 15
f 64/25/101 54/26/102 55/27/103 63/28/104
s 11
f 53/93/105 56/94/106 50/95/107 49/96/108
s 12
f 59/101/109 62/102/110 52/103/111 51/104/112
s 15
f 62/31/113 53/32/114 49/35/115 52/36/116
s 11
f 53/93/105 55/97/117 57/98/118 56/94/106
f 55/97/117 54/99/96 58/100/95 57/98/118
s 12
f 59/101/109 61/105/119 63/106/120 62/102/110
f 61/105/119 60/107/100 64/108/99 63/106/120
s 18
f 59/43/121 56/44/122 57/45/123 61/46/124
s 15
f 62/31/113 63/28/104 55/27/103 53/32/114
s 18
f 57/45/123 58/49/125 60/50/126 61/46/124
f 56/44/122 59/43/121 51/47/127 50/48/128
s 11
f 65/161/93 68/83/129 70/84/130 69/162/94
f 68/83/129 67/81/131 71/82/132 70/84/130
f 67/81/131 66/80/84 72/79/83 71/82/132
s 12
f 76/85/89 75/89/133 79/90/134 78/86/90
f 75/89/133 74/91/135 80/92/136 79/90/134
f 74/91/135 73/164/98 77/163/97 80/92/136
s 18
f 69/51/137 77/52/138 60/50/126 58/49/125
s 15
f 66/40/139 76/39/140 45/41/141 47/42/142
f 73/29/143 65/30/144 54/26/102 64/25/101
f 74/33/145 68/34/146 65/30/144 73/29/143
f 75/37/147 67/38/148 68/34/146 74/33/145
f 75/37/147 76/39/140 66/40/139 67/38/148
s 18
f 80/53/149 77/52/138 69/51/137 70/54/150
f 80/53/149 70/54/150 71/55/151 79/56/152
f 79/56/152 71/55/151 72/57/153 78/58/154
f 78/58/154 72/57/153 48/59/155 46/60/156
