# This file uses centimeters as units for non-parametric coordinates.

g default
v -0.500000 0.000000 -0.050000
v -0.500000 -1.000000 -0.050000
v 0.500000 -1.000000 -0.050000
v 0.500000 0.000000 -0.050000
v -0.500000 -1.000000 0.000000
v -0.500000 0.000000 0.000000
v 0.500000 -1.000000 0.000000
v 0.500000 0.000000 0.000000
v -0.450000 -0.950000 0.000000
v -0.450000 -0.050000 0.000000
v 0.450000 -0.950000 0.000000
v 0.450000 -0.050000 0.000000
v -0.450000 -0.050000 -0.050000
v 0.450000 -0.050000 -0.050000
v 0.450000 -0.950000 -0.050000
v -0.450000 -0.950000 -0.050000
v -0.450000 -0.106392 -0.003787
v 0.450000 -0.106392 -0.003787
v -0.450000 -0.071037 -0.039142
v 0.450000 -0.071037 -0.039142
v -0.450000 -0.113463 -0.010858
v 0.450000 -0.113463 -0.010858
v -0.450000 -0.078108 -0.046213
v 0.450000 -0.078108 -0.046213
v -0.450000 -0.164344 -0.003787
v 0.450000 -0.164344 -0.003787
v -0.450000 -0.128989 -0.039142
v 0.450000 -0.128989 -0.039142
v -0.450000 -0.171416 -0.010858
v 0.450000 -0.171416 -0.010858
v -0.450000 -0.136060 -0.046213
v 0.450000 -0.136060 -0.046213
v -0.450000 -0.223157 -0.003787
v 0.450000 -0.223157 -0.003787
v -0.450000 -0.187802 -0.039142
v 0.450000 -0.187802 -0.039142
v -0.450000 -0.230228 -0.010858
v 0.450000 -0.230228 -0.010858
v -0.450000 -0.194873 -0.046213
v 0.450000 -0.194873 -0.046213
v -0.450000 -0.281109 -0.003787
v 0.450000 -0.281109 -0.003787
v -0.450000 -0.245754 -0.039142
v 0.450000 -0.245754 -0.039142
v -0.450000 -0.288180 -0.010858
v 0.450000 -0.288180 -0.010858
v -0.450000 -0.252825 -0.046213
v 0.450000 -0.252825 -0.046213
v -0.450000 -0.337557 -0.003787
v 0.450000 -0.337557 -0.003787
v -0.450000 -0.302202 -0.039142
v 0.450000 -0.302202 -0.039142
v -0.450000 -0.344628 -0.010858
v 0.450000 -0.344628 -0.010858
v -0.450000 -0.309273 -0.046213
v 0.450000 -0.309273 -0.046213
v -0.450000 -0.395509 -0.003787
v 0.450000 -0.395509 -0.003787
v -0.450000 -0.360154 -0.039142
v 0.450000 -0.360154 -0.039142
v -0.450000 -0.402580 -0.010858
v 0.450000 -0.402580 -0.010858
v -0.450000 -0.367225 -0.046213
v 0.450000 -0.367225 -0.046213
v -0.450000 -0.454322 -0.003787
v 0.450000 -0.454322 -0.003787
v -0.450000 -0.418967 -0.039142
v 0.450000 -0.418967 -0.039142
v -0.450000 -0.461393 -0.010858
v 0.450000 -0.461393 -0.010858
v -0.450000 -0.426038 -0.046213
v 0.450000 -0.426038 -0.046213
v -0.450000 -0.743594 -0.003787
v 0.450000 -0.743594 -0.003787
v -0.450000 -0.708238 -0.039142
v 0.450000 -0.708238 -0.039142
v -0.450000 -0.750665 -0.010858
v 0.450000 -0.750665 -0.010858
v -0.450000 -0.715310 -0.046213
v 0.450000 -0.715310 -0.046213
v -0.450000 -0.801546 -0.003787
v 0.450000 -0.801546 -0.003787
v -0.450000 -0.766191 -0.039142
v 0.450000 -0.766191 -0.039142
v -0.450000 -0.808617 -0.010858
v 0.450000 -0.808617 -0.010858
v -0.450000 -0.773262 -0.046213
v 0.450000 -0.773262 -0.046213
v -0.450000 -0.860359 -0.003787
v 0.450000 -0.860359 -0.003787
v -0.450000 -0.825003 -0.039142
v 0.450000 -0.825003 -0.039142
v -0.450000 -0.867430 -0.010858
v 0.450000 -0.867430 -0.010858
v -0.450000 -0.832074 -0.046213
v 0.450000 -0.832074 -0.046213
v -0.450000 -0.918311 -0.003787
v 0.450000 -0.918311 -0.003787
v -0.450000 -0.882955 -0.039142
v 0.450000 -0.882955 -0.039142
v -0.450000 -0.925382 -0.010858
v 0.450000 -0.925382 -0.010858
v -0.450000 -0.890027 -0.046213
v 0.450000 -0.890027 -0.046213
v -0.450000 -0.687146 -0.003787
v 0.450000 -0.687146 -0.003787
v -0.450000 -0.651790 -0.039142
v 0.450000 -0.651790 -0.039142
v -0.450000 -0.694217 -0.010858
v 0.450000 -0.694217 -0.010858
v -0.450000 -0.658862 -0.046213
v 0.450000 -0.658862 -0.046213
v -0.450000 -0.629194 -0.003787
v 0.450000 -0.629194 -0.003787
v -0.450000 -0.593838 -0.039142
v 0.450000 -0.593838 -0.039142
v -0.450000 -0.636265 -0.010858
v 0.450000 -0.636265 -0.010858
v -0.450000 -0.600909 -0.046213
v 0.450000 -0.600909 -0.046213
v -0.450000 -0.570381 -0.003787
v 0.450000 -0.570381 -0.003787
v -0.450000 -0.535026 -0.039142
v 0.450000 -0.535026 -0.039142
v -0.450000 -0.577452 -0.010858
v 0.450000 -0.577452 -0.010858
v -0.450000 -0.542097 -0.046213
v 0.450000 -0.542097 -0.046213
v -0.450000 -0.512429 -0.003787
v 0.450000 -0.512429 -0.003787
v -0.450000 -0.477073 -0.039142
v 0.450000 -0.477073 -0.039142
v -0.450000 -0.519500 -0.010858
v 0.450000 -0.519500 -0.010858
v -0.450000 -0.484145 -0.046213
v 0.450000 -0.484145 -0.046213
vt 0.002574 0.924483
vt 0.002574 0.499394
vt 0.023829 0.499394
vt 0.023829 0.924483
vt 0.081966 0.499394
vt 0.081966 0.924483
vt 0.060712 0.924483
vt 0.060712 0.499394
vt 0.969514 0.924102
vt 0.969514 0.496529
vt 0.993268 0.496529
vt 0.993268 0.924102
vt 0.932169 0.496529
vt 0.932169 0.924102
vt 0.908416 0.924102
vt 0.908416 0.496529
vt 0.031740 0.924483
vt 0.031740 0.499394
vt 0.052994 0.499394
vt 0.052994 0.924483
vt 0.110939 0.499394
vt 0.110939 0.924483
vt 0.089684 0.924483
vt 0.089684 0.499394
vt 0.938965 0.924102
vt 0.938965 0.496529
vt 0.962719 0.496529
vt 0.962719 0.924102
vt 0.901620 0.496529
vt 0.901620 0.924102
vt 0.877866 0.924102
vt 0.877866 0.496529
vt 0.019826 0.492108
vt 0.019826 0.017028
vt 0.043580 0.040782
vt 0.043580 0.468354
vt 0.494907 0.017028
vt 0.471153 0.040782
vt 0.494907 0.492108
vt 0.471153 0.468354
vt 0.503361 0.017027
vt 0.978442 0.017027
vt 0.954688 0.040782
vt 0.527115 0.040782
vt 0.978442 0.492108
vt 0.954688 0.468354
vt 0.503361 0.492108
vt 0.527115 0.468354
vt 0.867711 0.496529
vt 0.867711 0.924102
vt 0.850915 0.924102
vt 0.850915 0.496529
vt 0.871071 0.496529
vt 0.871071 0.924102
vt 0.854274 0.924102
vt 0.854274 0.496529
vt 0.827322 0.496529
vt 0.844119 0.496529
vt 0.844119 0.924102
vt 0.827322 0.924102
vt 0.817168 0.496529
vt 0.817168 0.924102
vt 0.800371 0.924102
vt 0.800371 0.496529
vt 0.820527 0.496529
vt 0.820527 0.924102
vt 0.803730 0.924102
vt 0.803730 0.496529
vt 0.776779 0.496529
vt 0.793576 0.496529
vt 0.793576 0.924102
vt 0.776779 0.924102
vt 0.766624 0.496529
vt 0.766624 0.924102
vt 0.749828 0.924102
vt 0.749828 0.496529
vt 0.769984 0.496529
vt 0.769984 0.924102
vt 0.753187 0.924102
vt 0.753187 0.496529
vt 0.726236 0.496529
vt 0.743032 0.496529
vt 0.743032 0.924102
vt 0.726236 0.924102
vt 0.716081 0.496529
vt 0.716081 0.924102
vt 0.699284 0.924102
vt 0.699284 0.496529
vt 0.719440 0.496529
vt 0.719440 0.924102
vt 0.702644 0.924102
vt 0.702644 0.496529
vt 0.675692 0.496529
vt 0.692489 0.496529
vt 0.692489 0.924102
vt 0.675692 0.924102
vt 0.665538 0.496529
vt 0.665538 0.924102
vt 0.648741 0.924102
vt 0.648741 0.496529
vt 0.668897 0.496529
vt 0.668897 0.924102
vt 0.652100 0.924102
vt 0.652100 0.496529
vt 0.625149 0.496529
vt 0.641946 0.496529
vt 0.641946 0.924102
vt 0.625149 0.924102
vt 0.614994 0.496529
vt 0.614994 0.924102
vt 0.598198 0.924102
vt 0.598198 0.496529
vt 0.618353 0.496529
vt 0.618353 0.924102
vt 0.601557 0.924102
vt 0.601557 0.496529
vt 0.574605 0.496529
vt 0.591402 0.496529
vt 0.591402 0.924102
vt 0.574605 0.924102
vt 0.564451 0.496529
vt 0.564451 0.924102
vt 0.547654 0.924102
vt 0.547654 0.496529
vt 0.567810 0.496529
vt 0.567810 0.924102
vt 0.551013 0.924102
vt 0.551013 0.496529
vt 0.524062 0.496529
vt 0.540859 0.496529
vt 0.540859 0.924102
vt 0.524062 0.924102
vt 0.513907 0.496529
vt 0.513907 0.924102
vt 0.497111 0.924102
vt 0.497111 0.496529
vt 0.517267 0.496529
vt 0.517267 0.924102
vt 0.500470 0.924102
vt 0.500470 0.496529
vt 0.473519 0.496529
vt 0.490315 0.496529
vt 0.490315 0.924102
vt 0.473519 0.924102
vt 0.463364 0.496529
vt 0.463364 0.924102
vt 0.446567 0.924102
vt 0.446567 0.496529
vt 0.466723 0.496529
vt 0.466723 0.924102
vt 0.449927 0.924102
vt 0.449927 0.496529
vt 0.422975 0.496529
vt 0.439772 0.496529
vt 0.439772 0.924102
vt 0.422975 0.924102
vt 0.412821 0.496529
vt 0.412821 0.924102
vt 0.396024 0.924102
vt 0.396024 0.496529
vt 0.416180 0.496529
vt 0.416180 0.924102
vt 0.399383 0.924102
vt 0.399383 0.496529
vt 0.372432 0.496529
vt 0.389228 0.496529
vt 0.389228 0.924102
vt 0.372432 0.924102
vt 0.362277 0.496529
vt 0.362277 0.924102
vt 0.345480 0.924102
vt 0.345480 0.496529
vt 0.365636 0.496529
vt 0.365636 0.924102
vt 0.348840 0.924102
vt 0.348840 0.496529
vt 0.321888 0.496529
vt 0.338685 0.496529
vt 0.338685 0.924102
vt 0.321888 0.924102
vt 0.311734 0.496529
vt 0.311734 0.924102
vt 0.294937 0.924102
vt 0.294937 0.496529
vt 0.315093 0.496529
vt 0.315093 0.924102
vt 0.298296 0.924102
vt 0.298296 0.496529
vt 0.271345 0.496529
vt 0.288141 0.496529
vt 0.288141 0.924102
vt 0.271345 0.924102
vt 0.261190 0.496529
vt 0.261190 0.924102
vt 0.244394 0.924102
vt 0.244394 0.496529
vt 0.264549 0.496529
vt 0.264549 0.924102
vt 0.247753 0.924102
vt 0.247753 0.496529
vt 0.220802 0.496529
vt 0.237598 0.496529
vt 0.237598 0.924102
vt 0.220802 0.924102
vt 0.210647 0.496529
vt 0.210647 0.924102
vt 0.193850 0.924102
vt 0.193850 0.496529
vt 0.214006 0.496529
vt 0.214006 0.924102
vt 0.197209 0.924102
vt 0.197209 0.496529
vt 0.170258 0.496529
vt 0.187055 0.496529
vt 0.187055 0.924102
vt 0.170258 0.924102
vt 0.160103 0.496529
vt 0.160103 0.924102
vt 0.143307 0.924102
vt 0.143307 0.496529
vt 0.163463 0.496529
vt 0.163463 0.924102
vt 0.146666 0.924102
vt 0.146666 0.496529
vt 0.119715 0.496529
vt 0.136511 0.496529
vt 0.136511 0.924102
vt 0.119715 0.924102
vn -1.000000 0.000000 0.000000
vn -1.000000 0.000000 0.000000
vn -1.000000 0.000000 0.000000
vn -1.000000 0.000000 0.000000
vn 0.000000 -1.000000 0.000000
vn 0.000000 -1.000000 0.000000
vn 0.000000 -1.000000 0.000000
vn 0.000000 -1.000000 0.000000
vn 1.000000 0.000000 0.000000
vn 1.000000 0.000000 0.000000
vn 1.000000 0.000000 0.000000
vn 1.000000 0.000000 0.000000
vn 0.000000 1.000000 0.000000
vn 0.000000 1.000000 0.000000
vn 0.000000 1.000000 0.000000
vn 0.000000 1.000000 0.000000
vn 0.000000 0.000000 1.000000
vn 0.000000 0.000000 1.000000
vn 0.000000 0.000000 1.000000
vn 0.000000 0.000000 1.000000
vn 0.000000 0.000000 1.000000
vn 0.000000 0.000000 1.000000
vn 0.000000 0.000000 1.000000
vn 0.000000 0.000000 1.000000
vn 0.000000 0.000000 -1.000000
vn 0.000000 0.000000 -1.000000
vn 0.000000 0.000000 -1.000000
vn 0.000000 0.000000 -1.000000
vn 0.000000 0.000000 -1.000000
vn 0.000000 0.000000 -1.000000
vn 0.000000 0.000000 -1.000000
vn 0.000000 0.000000 -1.000000
vn 1.000000 0.000000 0.000000
vn 1.000000 0.000000 0.000000
vn 1.000000 0.000000 0.000000
vn 1.000000 0.000000 0.000000
vn 0.000000 1.000000 0.000000
vn 0.000000 1.000000 0.000000
vn 0.000000 1.000000 0.000000
vn 0.000000 1.000000 0.000000
vn -1.000000 0.000000 0.000000
vn -1.000000 0.000000 0.000000
vn -1.000000 0.000000 0.000000
vn -1.000000 0.000000 0.000000
vn 0.000000 -1.000000 0.000000
vn 0.000000 -1.000000 0.000000
vn 0.000000 -1.000000 0.000000
vn 0.000000 -1.000000 0.000000
vn 0.000000 -0.707107 -0.707107
vn 0.000000 -0.707107 -0.707107
vn 0.000000 -0.707107 -0.707107
vn 0.000000 -0.707107 -0.707107
vn 0.000000 0.707107 0.707107
vn 0.000000 0.707107 0.707107
vn 0.000000 0.707107 0.707107
vn 0.000000 0.707107 0.707107
vn 0.000000 -0.707107 0.707107
vn 0.000000 -0.707107 0.707107
vn 0.000000 -0.707107 0.707107
vn 0.000000 -0.707107 0.707107
vn 0.000000 0.707107 -0.707107
vn 0.000000 0.707107 -0.707107
vn 0.000000 0.707107 -0.707107
vn 0.000000 0.707107 -0.707107
vn 0.000000 -0.707107 -0.707107
vn 0.000000 -0.707107 -0.707107
vn 0.000000 -0.707107 -0.707107
vn 0.000000 -0.707107 -0.707107
vn 0.000000 0.707107 0.707107
vn 0.000000 0.707107 0.707107
vn 0.000000 0.707107 0.707107
vn 0.000000 0.707107 0.707107
vn 0.000000 -0.707107 0.707106
vn 0.000000 -0.707107 0.707106
vn 0.000000 -0.707107 0.707106
vn 0.000000 -0.707107 0.707106
vn 0.000000 0.707107 -0.707107
vn 0.000000 0.707107 -0.707107
vn 0.000000 0.707107 -0.707107
vn 0.000000 0.707107 -0.707107
vn 0.000000 -0.707107 -0.707107
vn 0.000000 -0.707107 -0.707107
vn 0.000000 -0.707107 -0.707107
vn 0.000000 -0.707107 -0.707107
vn 0.000000 0.707107 0.707107
vn 0.000000 0.707107 0.707107
vn 0.000000 0.707107 0.707107
vn 0.000000 0.707107 0.707107
vn 0.000000 -0.707107 0.707107
vn 0.000000 -0.707107 0.707107
vn 0.000000 -0.707107 0.707107
vn 0.000000 -0.707107 0.707107
vn 0.000000 0.707107 -0.707107
vn 0.000000 0.707107 -0.707107
vn 0.000000 0.707107 -0.707107
vn 0.000000 0.707107 -0.707107
vn 0.000000 -0.707107 -0.707107
vn 0.000000 -0.707107 -0.707107
vn 0.000000 -0.707107 -0.707107
vn 0.000000 -0.707107 -0.707107
vn 0.000000 0.707107 0.707107
vn 0.000000 0.707107 0.707107
vn 0.000000 0.707107 0.707107
vn 0.000000 0.707107 0.707107
vn 0.000000 -0.707106 0.707108
vn 0.000000 -0.707106 0.707108
vn 0.000000 -0.707106 0.707108
vn 0.000000 -0.707106 0.707108
vn 0.000000 0.707107 -0.707107
vn 0.000000 0.707107 -0.707107
vn 0.000000 0.707107 -0.707107
vn 0.000000 0.707107 -0.707107
vn 0.000000 -0.707107 -0.707107
vn 0.000000 -0.707107 -0.707107
vn 0.000000 -0.707107 -0.707107
vn 0.000000 -0.707107 -0.707107
vn 0.000000 0.707107 0.707107
vn 0.000000 0.707107 0.707107
vn 0.000000 0.707107 0.707107
vn 0.000000 0.707107 0.707107
vn 0.000000 -0.707106 0.707108
vn 0.000000 -0.707106 0.707108
vn 0.000000 -0.707106 0.707108
vn 0.000000 -0.707106 0.707108
vn 0.000000 0.707106 -0.707108
vn 0.000000 0.707106 -0.707108
vn 0.000000 0.707106 -0.707108
vn 0.000000 0.707106 -0.707108
vn 0.000000 -0.707107 -0.707107
vn 0.000000 -0.707107 -0.707107
vn 0.000000 -0.707107 -0.707107
vn 0.000000 -0.707107 -0.707107
vn 0.000000 0.707107 0.707107
vn 0.000000 0.707107 0.707107
vn 0.000000 0.707107 0.707107
vn 0.000000 0.707107 0.707107
vn 0.000000 -0.707106 0.707108
vn 0.000000 -0.707106 0.707108
vn 0.000000 -0.707106 0.707108
vn 0.000000 -0.707106 0.707108
vn 0.000000 0.707107 -0.707106
vn 0.000000 0.707107 -0.707106
vn 0.000000 0.707107 -0.707106
vn 0.000000 0.707107 -0.707106
vn 0.000000 -0.707107 -0.707107
vn 0.000000 -0.707107 -0.707107
vn 0.000000 -0.707107 -0.707107
vn 0.000000 -0.707107 -0.707107
vn 0.000000 0.707107 0.707107
vn 0.000000 0.707107 0.707107
vn 0.000000 0.707107 0.707107
vn 0.000000 0.707107 0.707107
vn 0.000000 -0.707107 0.707106
vn 0.000000 -0.707107 0.707106
vn 0.000000 -0.707107 0.707106
vn 0.000000 -0.707107 0.707106
vn 0.000000 0.707106 -0.707108
vn 0.000000 0.707106 -0.707108
vn 0.000000 0.707106 -0.707108
vn 0.000000 0.707106 -0.707108
vn 0.000000 -0.707107 -0.707107
vn 0.000000 -0.707107 -0.707107
vn 0.000000 -0.707107 -0.707107
vn 0.000000 -0.707107 -0.707107
vn 0.000000 0.707107 0.707107
vn 0.000000 0.707107 0.707107
vn 0.000000 0.707107 0.707107
vn 0.000000 0.707107 0.707107
vn 0.000000 -0.707106 0.707108
vn 0.000000 -0.707106 0.707108
vn 0.000000 -0.707106 0.707108
vn 0.000000 -0.707106 0.707108
vn 0.000000 0.707106 -0.707108
vn 0.000000 0.707106 -0.707108
vn 0.000000 0.707106 -0.707108
vn 0.000000 0.707106 -0.707108
vn 0.000000 -0.707107 -0.707106
vn 0.000000 -0.707107 -0.707106
vn 0.000000 -0.707107 -0.707106
vn 0.000000 -0.707107 -0.707106
vn 0.000000 0.707107 0.707106
vn 0.000000 0.707107 0.707106
vn 0.000000 0.707107 0.707106
vn 0.000000 0.707107 0.707106
vn 0.000000 -0.707106 0.707108
vn 0.000000 -0.707106 0.707108
vn 0.000000 -0.707106 0.707108
vn 0.000000 -0.707106 0.707108
vn 0.000000 0.707106 -0.707108
vn 0.000000 0.707106 -0.707108
vn 0.000000 0.707106 -0.707108
vn 0.000000 0.707106 -0.707108
vn 0.000000 -0.707107 -0.707107
vn 0.000000 -0.707107 -0.707107
vn 0.000000 -0.707107 -0.707107
vn 0.000000 -0.707107 -0.707107
vn 0.000000 0.707107 0.707106
vn 0.000000 0.707107 0.707106
vn 0.000000 0.707107 0.707106
vn 0.000000 0.707107 0.707106
vn 0.000000 -0.707106 0.707108
vn 0.000000 -0.707106 0.707108
vn 0.000000 -0.707106 0.707108
vn 0.000000 -0.707106 0.707108
vn 0.000000 0.707109 -0.707104
vn 0.000000 0.707109 -0.707104
vn 0.000000 0.707109 -0.707104
vn 0.000000 0.707109 -0.707104
vn 0.000000 -0.707107 -0.707106
vn 0.000000 -0.707107 -0.707106
vn 0.000000 -0.707107 -0.707106
vn 0.000000 -0.707107 -0.707106
vn 0.000000 0.707107 0.707107
vn 0.000000 0.707107 0.707107
vn 0.000000 0.707107 0.707107
vn 0.000000 0.707107 0.707107
vn 0.000000 -0.707109 0.707104
vn 0.000000 -0.707109 0.707104
vn 0.000000 -0.707109 0.707104
vn 0.000000 -0.707109 0.707104
vn 0.000000 0.707106 -0.707108
vn 0.000000 0.707106 -0.707108
vn 0.000000 0.707106 -0.707108
vn 0.000000 0.707106 -0.707108
vn 0.000000 -0.707107 -0.707107
vn 0.000000 -0.707107 -0.707107
vn 0.000000 -0.707107 -0.707107
vn 0.000000 -0.707107 -0.707107
vn 0.000000 0.707107 0.707107
vn 0.000000 0.707107 0.707107
vn 0.000000 0.707107 0.707107
vn 0.000000 0.707107 0.707107
vn 0.000000 -0.707106 0.707108
vn 0.000000 -0.707106 0.707108
vn 0.000000 -0.707106 0.707108
vn 0.000000 -0.707106 0.707108
vn 0.000000 0.707106 -0.707108
vn 0.000000 0.707106 -0.707108
vn 0.000000 0.707106 -0.707108
vn 0.000000 0.707106 -0.707108
vn 0.000000 -0.707107 -0.707106
vn 0.000000 -0.707107 -0.707106
vn 0.000000 -0.707107 -0.707106
vn 0.000000 -0.707107 -0.707106
vn 0.000000 0.707107 0.707107
vn 0.000000 0.707107 0.707107
vn 0.000000 0.707107 0.707107
vn 0.000000 0.707107 0.707107
vn 0.000000 -0.707109 0.707104
vn 0.000000 -0.707109 0.707104
vn 0.000000 -0.707109 0.707104
vn 0.000000 -0.707109 0.707104
vn 0.000000 0.707106 -0.707108
vn 0.000000 0.707106 -0.707108
vn 0.000000 0.707106 -0.707108
vn 0.000000 0.707106 -0.707108
vn 0.000000 -0.707107 -0.707107
vn 0.000000 -0.707107 -0.707107
vn 0.000000 -0.707107 -0.707107
vn 0.000000 -0.707107 -0.707107
vn 0.000000 0.707107 0.707107
vn 0.000000 0.707107 0.707107
vn 0.000000 0.707107 0.707107
vn 0.000000 0.707107 0.707107
vn 0.000000 -0.707106 0.707108
vn 0.000000 -0.707106 0.707108
vn 0.000000 -0.707106 0.707108
vn 0.000000 -0.707106 0.707108
vn 0.000000 0.707107 -0.707106
vn 0.000000 0.707107 -0.707106
vn 0.000000 0.707107 -0.707106
vn 0.000000 0.707107 -0.707106
vn 0.000000 -0.707107 -0.707107
vn 0.000000 -0.707107 -0.707107
vn 0.000000 -0.707107 -0.707107
vn 0.000000 -0.707107 -0.707107
vn 0.000000 0.707107 0.707107
vn 0.000000 0.707107 0.707107
vn 0.000000 0.707107 0.707107
vn 0.000000 0.707107 0.707107
vn 0.000000 -0.707107 0.707106
vn 0.000000 -0.707107 0.707106
vn 0.000000 -0.707107 0.707106
vn 0.000000 -0.707107 0.707106
vn 0.000000 0.707107 -0.707106
vn 0.000000 0.707107 -0.707106
vn 0.000000 0.707107 -0.707106
vn 0.000000 0.707107 -0.707106
s off
g Door_2_Modulos_LP17
f 1/1/1 2/2/2 5/3/3 6/4/4
f 2/17/5 3/18/6 7/19/7 5/20/8
f 3/5/9 4/6/10 8/7/11 7/8/12
f 4/21/13 1/22/14 6/23/15 8/24/16
s 1
f 6/33/17 5/34/18 9/35/19 10/36/20
f 5/34/18 7/37/21 11/38/22 9/35/19
f 7/37/21 8/39/23 12/40/24 11/38/22
f 8/39/23 6/33/17 10/36/20 12/40/24
s 2
f 1/41/25 4/42/26 14/43/27 13/44/28
f 4/42/26 3/45/29 15/46/30 14/43/27
f 3/45/29 2/47/31 16/48/32 15/46/30
f 2/47/31 1/41/25 13/44/28 16/48/32
s off
f 10/9/33 9/10/34 16/11/35 13/12/36
f 9/25/37 11/26/38 15/27/39 16/28/40
f 11/13/41 12/14/42 14/15/43 15/16/44
f 12/29/45 10/30/46 13/31/47 14/32/48
f 22/49/49 21/50/50 23/51/51 24/52/52
f 18/57/53 20/58/54 19/59/55 17/60/56
f 18/53/57 17/54/58 21/50/59 22/49/60
f 19/55/61 20/56/62 24/52/63 23/51/64
f 30/61/65 29/62/66 31/63/67 32/64/68
f 26/69/69 28/70/70 27/71/71 25/72/72
f 26/65/73 25/66/74 29/62/75 30/61/76
f 27/67/77 28/68/78 32/64/79 31/63/80
f 38/73/81 37/74/82 39/75/83 40/76/84
f 34/81/85 36/82/86 35/83/87 33/84/88
f 34/77/89 33/78/90 37/74/91 38/73/92
f 35/79/93 36/80/94 40/76/95 39/75/96
f 46/85/97 45/86/98 47/87/99 48/88/100
f 42/93/101 44/94/102 43/95/103 41/96/104
f 42/89/105 41/90/106 45/86/107 46/85/108
f 43/91/109 44/92/110 48/88/111 47/87/112
f 54/97/113 53/98/114 55/99/115 56/100/116
f 50/105/117 52/106/118 51/107/119 49/108/120
f 50/101/121 49/102/122 53/98/123 54/97/124
f 51/103/125 52/104/126 56/100/127 55/99/128
f 62/109/129 61/110/130 63/111/131 64/112/132
f 58/117/133 60/118/134 59/119/135 57/120/136
f 58/113/137 57/114/138 61/110/139 62/109/140
f 59/115/141 60/116/142 64/112/143 63/111/144
f 70/121/145 69/122/146 71/123/147 72/124/148
f 66/129/149 68/130/150 67/131/151 65/132/152
f 66/125/153 65/126/154 69/122/155 70/121/156
f 67/127/157 68/128/158 72/124/159 71/123/160
f 78/133/161 77/134/162 79/135/163 80/136/164
f 74/141/165 76/142/166 75/143/167 73/144/168
f 74/137/169 73/138/170 77/134/171 78/133/172
f 75/139/173 76/140/174 80/136/175 79/135/176
f 86/145/177 85/146/178 87/147/179 88/148/180
f 82/153/181 84/154/182 83/155/183 81/156/184
f 82/149/185 81/150/186 85/146/187 86/145/188
f 83/151/189 84/152/190 88/148/191 87/147/192
f 94/157/193 93/158/194 95/159/195 96/160/196
f 90/165/197 92/166/198 91/167/199 89/168/200
f 90/161/201 89/162/202 93/158/203 94/157/204
f 91/163/205 92/164/206 96/160/207 95/159/208
f 102/169/209 101/170/210 103/171/211 104/172/212
f 98/177/213 100/178/214 99/179/215 97/180/216
f 98/173/217 97/174/218 101/170/219 102/169/220
f 99/175/221 100/176/222 104/172/223 103/171/224
f 110/181/225 109/182/226 111/183/227 112/184/228
f 106/189/229 108/190/230 107/191/231 105/192/232
f 106/185/233 105/186/234 109/182/235 110/181/236
f 107/187/237 108/188/238 112/184/239 111/183/240
f 118/193/241 117/194/242 119/195/243 120/196/244
f 114/201/245 116/202/246 115/203/247 113/204/248
f 114/197/249 113/198/250 117/194/251 118/193/252
f 115/199/253 116/200/254 120/196/255 119/195/256
f 126/205/257 125/206/258 127/207/259 128/208/260
f 122/213/261 124/214/262 123/215/263 121/216/264
f 122/209/265 121/210/266 125/206/267 126/205/268
f 123/211/269 124/212/270 128/208/271 127/207/272
f 134/217/273 133/218/274 135/219/275 136/220/276
f 130/225/277 132/226/278 131/227/279 129/228/280
f 130/221/281 129/222/282 133/218/283 134/217/284
f 131/223/285 132/224/286 136/220/287 135/219/288
