# This file uses centimeters as units for non-parametric coordinates.

mtllib SillaEscritorio.mtl
g default
v -0.059191 0.064869 -0.224432
v -0.084032 0.064869 -0.216361
v -0.084032 0.096454 -0.216361
v -0.059191 0.096454 -0.224432
v -0.231739 0.064869 -0.013060
v -0.231739 0.064869 0.013060
v -0.231739 0.096454 0.013060
v -0.231739 0.096454 -0.013060
v -0.084032 0.064869 0.216361
v -0.059191 0.064869 0.224432
v -0.059191 0.096454 0.224432
v -0.084032 0.096454 0.216361
v 0.179804 0.064869 0.146778
v 0.195157 0.064869 0.125647
v 0.195157 0.096454 0.125647
v 0.179804 0.096454 0.146778
v 0.195157 0.064869 -0.125647
v 0.179804 0.064869 -0.146778
v 0.179804 0.096454 -0.146778
v 0.195157 0.096454 -0.125647
v -0.071314 0.064869 -0.252037
v -0.090449 0.064869 -0.245820
v -0.090449 0.093454 -0.245820
v -0.071314 0.093454 -0.252037
v -0.261739 0.064869 -0.010060
v -0.261739 0.064869 0.010060
v -0.261739 0.093454 0.010060
v -0.261739 0.093454 -0.010060
v -0.090449 0.064869 0.245820
v -0.071315 0.064869 0.252037
v -0.071315 0.093454 0.252037
v -0.090449 0.093454 0.245820
v 0.205838 0.064869 0.161984
v 0.217664 0.064869 0.145708
v 0.217664 0.093454 0.145708
v 0.205838 0.093454 0.161984
v 0.217664 0.064869 -0.145708
v 0.205838 0.064869 -0.161984
v 0.205838 0.093454 -0.161984
v 0.217664 0.093454 -0.145708
v 0.004587 0.060101 -0.044301
v 0.022328 0.060101 -0.038537
v 0.024570 0.105711 -0.045437
v 0.006829 0.105711 -0.051201
v 0.002206 0.106454 -0.034089
v 0.018252 0.106454 -0.028875
v -0.029751 0.060101 -0.033144
v -0.040715 0.060101 -0.018053
v -0.043814 0.105850 -0.022456
v -0.031739 0.106454 -0.011531
v -0.020774 0.106454 -0.026622
v -0.034896 0.105850 -0.034730
v -0.040715 0.060101 0.018053
v -0.029751 0.060101 0.033144
v -0.034896 0.105850 0.034730
v -0.020774 0.106454 0.026622
v -0.031739 0.106454 0.011531
v -0.043814 0.105850 0.022456
v 0.004587 0.060101 0.044301
v 0.022328 0.060101 0.038537
v 0.022247 0.105850 0.043920
v 0.018899 0.106454 0.027984
v 0.001159 0.106454 0.033749
v 0.007818 0.105850 0.048608
v 0.043550 0.060101 0.009327
v 0.043550 0.060101 -0.009327
v 0.048645 0.105850 -0.007586
v 0.032455 0.106454 -0.009327
v 0.032455 0.106454 0.009327
v 0.048645 0.105850 0.007586
v 0.012837 0.059877 0.009327
v -0.004903 0.059877 0.015091
v -0.015868 0.059877 -0.000000
v -0.004903 0.059877 -0.015091
v 0.012837 0.059877 -0.009327
v 0.001159 0.268843 -0.033749
v 0.018899 0.268843 -0.027984
v -0.031739 0.268843 -0.011531
v -0.020774 0.268843 -0.026622
v -0.020774 0.268843 0.026622
v -0.031739 0.268843 0.011531
v 0.018899 0.268843 0.027984
v 0.001159 0.268843 0.033749
v 0.032455 0.268843 -0.009327
v 0.032455 0.268843 0.009327
v 0.001159 0.268843 -0.023234
v 0.012719 0.268843 -0.019478
v 0.022455 0.268843 0.006078
v 0.022455 0.268843 -0.006078
v -0.014594 0.268843 -0.018116
v -0.021739 0.268843 -0.008282
v -0.021739 0.268843 0.008282
v -0.014594 0.268843 0.018116
v 0.001159 0.268843 0.023234
v 0.012719 0.268843 0.019478
v 0.001159 0.368843 -0.023234
v 0.012719 0.368843 -0.019478
v -0.004903 0.368843 -0.015091
v 0.012837 0.368843 -0.009326
v 0.012837 0.368843 0.009327
v 0.022455 0.368843 0.006077
v 0.022455 0.368843 -0.006077
v -0.015868 0.368843 -0.000000
v -0.014594 0.368843 -0.018116
v -0.021739 0.368843 -0.008281
v -0.004903 0.368843 0.015091
v -0.021739 0.368843 0.008282
v -0.014594 0.368843 0.018115
v 0.001159 0.368843 0.023234
v 0.012719 0.368843 0.019478
v 0.193160 0.086642 0.110044
v 0.181434 0.051651 0.101524
v 0.193160 0.016659 0.110044
v 0.221469 0.002165 0.130611
v 0.249777 0.016659 0.151179
v 0.261503 0.051651 0.159698
v 0.249777 0.086642 0.151179
v 0.221469 0.101136 0.130611
v 0.164347 0.086642 0.149701
v 0.152622 0.051651 0.141181
v 0.164347 0.016659 0.149701
v 0.192656 0.002165 0.170268
v 0.220965 0.016659 0.190836
v 0.232691 0.051651 0.199355
v 0.220965 0.086642 0.190836
v 0.192656 0.101136 0.170268
v 0.221469 0.051651 0.130611
v 0.192656 0.051651 0.170268
v -0.241076 0.364747 0.120550
v -0.120550 0.364747 0.241076
v -0.205775 0.364747 0.205775
v -0.250000 0.387973 0.125013
v -0.213392 0.387973 0.213392
v -0.125013 0.387973 0.250000
v 0.241076 0.364747 0.120550
v 0.205775 0.364747 0.205775
v 0.120550 0.364747 0.241076
v 0.250000 0.387973 0.125013
v 0.125013 0.387973 0.250000
v 0.213392 0.387973 0.213392
v -0.213392 0.387973 -0.213392
v -0.250000 0.387973 -0.125013
v -0.125013 0.387973 -0.250000
v -0.241076 0.364747 -0.120550
v -0.205775 0.364747 -0.205775
v -0.120550 0.364747 -0.241076
v 0.213392 0.387973 -0.213392
v 0.125013 0.387973 -0.250000
v 0.250000 0.387973 -0.125013
v 0.241076 0.364747 -0.120550
v 0.120550 0.364747 -0.241076
v 0.205775 0.364747 -0.205775
v -0.240000 0.387973 0.123023
v -0.240000 0.387973 -0.123023
v -0.123023 0.387973 0.240000
v -0.205738 0.387973 0.205738
v 0.123023 0.387973 0.240000
v 0.240000 0.387973 0.123023
v 0.205738 0.387973 0.205738
v 0.240000 0.387973 -0.123023
v 0.123023 0.387973 -0.240000
v 0.205738 0.387973 -0.205738
v -0.123023 0.387973 -0.240000
v -0.205738 0.387973 -0.205738
v -0.232139 0.438705 0.118994
v -0.125013 0.452222 0.125013
v -0.125013 0.452222 -0.125012
v -0.232139 0.438705 -0.118994
v 0.125012 0.452222 0.125013
v 0.125012 0.452222 -0.125012
v -0.118994 0.438705 0.232139
v -0.199000 0.428288 0.199000
v 0.118994 0.438705 0.232139
v 0.232139 0.438705 0.118994
v 0.199000 0.428288 0.199000
v 0.232139 0.438705 -0.118994
v 0.118994 0.438705 -0.232139
v 0.199000 0.428288 -0.199000
v -0.118994 0.438705 -0.232139
v -0.199000 0.428288 -0.199000
v -0.120550 0.364747 -0.120550
v -0.120550 0.364747 0.120550
v 0.120550 0.364747 0.120550
v 0.120550 0.364747 -0.120550
v 0.164347 0.086642 -0.149701
v 0.152622 0.051651 -0.141181
v 0.164347 0.016659 -0.149701
v 0.192656 0.002165 -0.170268
v 0.220965 0.016659 -0.190836
v 0.232691 0.051651 -0.199355
v 0.220965 0.086642 -0.190836
v 0.192656 0.101136 -0.170268
v 0.193160 0.086642 -0.110044
v 0.181434 0.051651 -0.101524
v 0.193160 0.016659 -0.110044
v 0.221469 0.002165 -0.130611
v 0.249777 0.016659 -0.151179
v 0.261503 0.051651 -0.159698
v 0.249777 0.086642 -0.151179
v 0.221469 0.101136 -0.130611
v 0.192656 0.051651 -0.170268
v 0.221469 0.051651 -0.130611
v -0.044968 0.086642 0.217711
v -0.040489 0.051651 0.203927
v -0.044968 0.016659 0.217711
v -0.055781 0.002165 0.250990
v -0.066594 0.016659 0.284269
v -0.071073 0.051651 0.298054
v -0.066594 0.086642 0.284269
v -0.055781 0.101136 0.250990
v -0.091588 0.086642 0.202564
v -0.087109 0.051651 0.188779
v -0.091588 0.016659 0.202564
v -0.102401 0.002165 0.235843
v -0.113213 0.016659 0.269121
v -0.117692 0.051651 0.282906
v -0.113213 0.086642 0.269122
v -0.102401 0.101136 0.235843
v -0.055781 0.051651 0.250990
v -0.102401 0.051651 0.235843
v -0.091588 0.086642 -0.202564
v -0.087109 0.051651 -0.188779
v -0.091588 0.016659 -0.202564
v -0.102401 0.002165 -0.235843
v -0.113213 0.016659 -0.269121
v -0.117692 0.051651 -0.282906
v -0.113213 0.086642 -0.269122
v -0.102401 0.101136 -0.235843
v -0.044968 0.086642 -0.217711
v -0.040489 0.051651 -0.203927
v -0.044968 0.016659 -0.217711
v -0.055781 0.002165 -0.250990
v -0.066594 0.016659 -0.284269
v -0.071073 0.051651 -0.298054
v -0.066594 0.086642 -0.284269
v -0.055781 0.101136 -0.250990
v -0.102401 0.051651 -0.235843
v -0.055781 0.051651 -0.250990
v -0.073516 0.366033 -0.073516
v 0.073516 0.366033 -0.073516
v -0.073516 0.344081 -0.073516
v 0.073516 0.344081 -0.073516
v -0.073516 0.753707 0.348145
v 0.073516 0.753707 0.348145
v 0.073516 0.775659 0.325705
v -0.073516 0.775659 0.325705
v -0.073516 0.344081 0.239172
v -0.073516 0.348151 0.256483
v -0.073516 0.359510 0.270167
v -0.073516 0.375776 0.277355
v 0.073516 0.344081 0.239172
v 0.073516 0.348151 0.256483
v 0.073516 0.359510 0.270167
v 0.073516 0.375776 0.277355
v -0.073516 0.366033 0.216732
v -0.073516 0.370103 0.234043
v -0.073516 0.381462 0.247727
v -0.073516 0.397728 0.254915
v 0.073516 0.366033 0.216732
v 0.073516 0.370103 0.234043
v 0.073516 0.381462 0.247727
v 0.073516 0.397728 0.254915
v -0.241076 0.833825 0.338936
v -0.120550 0.952154 0.361846
v -0.205775 0.917496 0.355136
v -0.250000 0.842621 0.316982
v -0.213392 0.929389 0.333782
v -0.125013 0.965330 0.340740
v 0.241076 0.833825 0.338936
v 0.205775 0.917496 0.355136
v 0.120550 0.952154 0.361846
v 0.250000 0.842621 0.316982
v 0.125013 0.965330 0.340740
v 0.213392 0.929389 0.333782
v -0.213392 0.510387 0.252656
v -0.250000 0.597155 0.269456
v -0.125013 0.474446 0.245697
v -0.241076 0.597121 0.293106
v -0.205775 0.513450 0.276906
v -0.120550 0.478792 0.270195
v 0.213392 0.510387 0.252656
v 0.125013 0.474446 0.245697
v 0.250000 0.597155 0.269456
v 0.241076 0.597121 0.293106
v 0.120550 0.478792 0.270195
v 0.205775 0.513450 0.276906
v -0.240000 0.840668 0.316604
v -0.240000 0.599108 0.269834
v -0.123023 0.955512 0.338840
v -0.205738 0.921875 0.332327
v 0.123023 0.955512 0.338840
v 0.240000 0.840668 0.316604
v 0.205738 0.921875 0.332327
v 0.240000 0.599108 0.269834
v 0.123023 0.484264 0.247598
v 0.205738 0.517901 0.254111
v -0.123023 0.484264 0.247598
v -0.205738 0.517901 0.254111
v -0.232404 0.846523 0.265947
v -0.125013 0.854834 0.253904
v -0.125013 0.609368 0.206377
v -0.232404 0.612607 0.220658
v 0.125012 0.854834 0.253904
v 0.125012 0.609368 0.206377
v -0.119130 0.957732 0.287479
v -0.199227 0.923177 0.291412
v 0.119130 0.957732 0.287479
v 0.232404 0.846523 0.265947
v 0.199227 0.923177 0.291412
v 0.232404 0.612607 0.220658
v 0.119130 0.501398 0.199126
v 0.199227 0.531988 0.215671
v -0.119130 0.501398 0.199126
v -0.199227 0.531988 0.215671
v -0.120550 0.597121 0.293106
v -0.120550 0.833825 0.338936
v 0.120550 0.833825 0.338936
v 0.120550 0.597121 0.293106
v -0.220952 0.086642 0.024509
v -0.206458 0.051651 0.024509
v -0.220952 0.016659 0.024509
v -0.255943 0.002165 0.024509
v -0.290935 0.016659 0.024509
v -0.305429 0.051651 0.024509
v -0.290935 0.086642 0.024509
v -0.255943 0.101136 0.024509
v -0.220952 0.086642 -0.024509
v -0.206458 0.051651 -0.024509
v -0.220952 0.016659 -0.024509
v -0.255943 0.002165 -0.024509
v -0.290935 0.016659 -0.024509
v -0.305429 0.051651 -0.024509
v -0.290935 0.086642 -0.024509
v -0.255943 0.101136 -0.024509
v -0.255943 0.051651 0.024509
v -0.255943 0.051651 -0.024509
vt 0.972254 0.148785
vt 0.972254 0.140396
vt 0.976729 0.140396
vt 0.976729 0.148785
vt 0.479234 0.138529
vt 0.484180 0.138529
vt 0.483710 0.150814
vt 0.479234 0.150814
vt 0.478488 0.062126
vt 0.485651 0.062787
vt 0.478488 0.055832
vt 0.485651 0.057669
vt 0.524370 0.022012
vt 0.519424 0.022012
vt 0.519424 0.010501
vt 0.523900 0.010501
vt 0.525819 0.094251
vt 0.518677 0.097129
vt 0.532821 0.085618
vt 0.537766 0.085618
vt 0.537296 0.097129
vt 0.532821 0.097129
vt 0.532074 0.010501
vt 0.539237 0.012297
vt 0.124384 0.039410
vt 0.119439 0.039410
vt 0.119439 0.027125
vt 0.123914 0.027125
vt 0.125855 0.115152
vt 0.118692 0.115814
vt 0.118692 0.122107
vt 0.125855 0.120271
vt 0.897614 0.110047
vt 0.897614 0.102268
vt 0.904777 0.102994
vt 0.904777 0.109321
vt 0.898360 0.053761
vt 0.903306 0.053761
vt 0.903306 0.158554
vt 0.898360 0.158554
vt 0.898360 0.045396
vt 0.902836 0.045396
vt 0.902836 0.166919
vt 0.898360 0.166919
vt 0.898360 0.038608
vt 0.902836 0.038608
vt 0.898360 0.173707
vt 0.902836 0.173707
vt 0.805875 0.016251
vt 0.813653 0.016251
vt 0.813653 0.041677
vt 0.805875 0.041677
vt 0.821805 0.016251
vt 0.821434 0.041677
vt 0.798094 0.041677
vt 0.798094 0.016251
vt 0.842664 0.051649
vt 0.842664 0.026222
vt 0.852281 0.026222
vt 0.852281 0.051649
vt 0.836371 0.026222
vt 0.836371 0.051649
vt 0.858574 0.026222
vt 0.858574 0.051649
vt 0.713885 0.032556
vt 0.713885 0.027488
vt 0.729543 0.027488
vt 0.729543 0.032556
vt 0.713885 0.021900
vt 0.729543 0.021900
vt 0.713885 0.038144
vt 0.729543 0.038144
vt 0.740952 0.019362
vt 0.747860 0.019362
vt 0.747859 0.035020
vt 0.740952 0.035020
vt 0.751960 0.019362
vt 0.751960 0.035020
vt 0.736852 0.019362
vt 0.736852 0.035020
vt 0.572521 0.016100
vt 0.562163 0.019465
vt 0.559487 0.007181
vt 0.567466 0.004588
vt 0.599118 0.091216
vt 0.584798 0.095869
vt 0.595160 0.103397
vt 0.606516 0.093620
vt 0.602558 0.105801
vt 0.580226 0.102162
vt 0.590588 0.109690
vt 0.615366 0.105801
vt 0.602558 0.113580
vt 0.595160 0.115984
vt 0.580226 0.117218
vt 0.672185 0.048482
vt 0.678587 0.057294
vt 0.615366 0.113580
vt 0.606516 0.125760
vt 0.599118 0.128164
vt 0.584798 0.123512
vt 0.500567 0.115136
vt 0.500567 0.104244
vt 0.683041 0.042141
vt 0.687973 0.048929
vt 0.488057 0.113885
vt 0.488057 0.105495
vt 0.678587 0.162087
vt 0.672185 0.170898
vt 0.572521 0.203281
vt 0.562163 0.199915
vt 0.687973 0.170452
vt 0.683041 0.177240
vt 0.567466 0.214792
vt 0.559487 0.212200
vt 0.768853 0.198468
vt 0.779212 0.201834
vt 0.774156 0.213345
vt 0.766177 0.210753
vt 0.789343 0.122726
vt 0.795232 0.119345
vt 0.804815 0.122459
vt 0.806743 0.129595
vt 0.785624 0.117607
vt 0.790660 0.113052
vt 0.814141 0.127191
vt 0.811506 0.120284
vt 0.785624 0.098879
vt 0.790660 0.103435
vt 0.707258 0.113689
vt 0.707258 0.102797
vt 0.817429 0.112133
vt 0.824181 0.111407
vt 0.885278 0.160639
vt 0.878875 0.169451
vt 0.789343 0.093760
vt 0.795232 0.097141
vt 0.694747 0.112438
vt 0.694747 0.104048
vt 0.817429 0.104354
vt 0.824181 0.105080
vt 0.894663 0.169005
vt 0.889732 0.175792
vt 0.807155 0.087973
vt 0.804378 0.094170
vt 0.768853 0.018018
vt 0.779212 0.014653
vt 0.811776 0.096573
vt 0.813172 0.089928
vt 0.878875 0.047035
vt 0.885278 0.055847
vt 0.766177 0.005734
vt 0.774156 0.003141
vt 0.889732 0.040694
vt 0.894663 0.047481
vt 0.877534 0.038512
vt 0.872713 0.040078
vt 0.870185 0.036683
vt 0.877583 0.034279
vt 0.866144 0.037944
vt 0.870185 0.024096
vt 0.877583 0.026500
vt 0.881594 0.032924
vt 0.865613 0.030390
vt 0.863165 0.033843
vt 0.872713 0.020701
vt 0.877534 0.022267
vt 0.881594 0.027855
vt 0.863165 0.026936
vt 0.866144 0.022835
vt 0.826866 0.072949
vt 0.819468 0.075353
vt 0.819468 0.070968
vt 0.824289 0.069402
vt 0.810322 0.072381
vt 0.812899 0.068834
vt 0.832519 0.065169
vt 0.828349 0.063814
vt 0.805750 0.066088
vt 0.809920 0.064733
vt 0.832519 0.057390
vt 0.828349 0.058745
vt 0.805750 0.056471
vt 0.809920 0.057826
vt 0.826866 0.049610
vt 0.824289 0.053157
vt 0.810322 0.050178
vt 0.812899 0.053725
vt 0.819468 0.047206
vt 0.819468 0.051591
vt 0.976729 0.123771
vt 0.976729 0.131750
vt 0.972254 0.131750
vt 0.972254 0.123771
vt 0.972254 0.116769
vt 0.972254 0.108790
vt 0.976729 0.108790
vt 0.976729 0.116769
vt 0.492631 0.085733
vt 0.497576 0.085733
vt 0.497107 0.098243
vt 0.492631 0.098243
vt 0.491884 0.006074
vt 0.499048 0.007366
vt 0.506752 0.083819
vt 0.511698 0.083819
vt 0.511698 0.096329
vt 0.507222 0.096329
vt 0.505281 0.005452
vt 0.512444 0.004160
vt 0.701889 0.090944
vt 0.701889 0.098342
vt 0.694747 0.097407
vt 0.694747 0.090009
vt 0.696197 0.025274
vt 0.701142 0.025274
vt 0.696667 0.014418
vt 0.701142 0.014418
vt 0.657435 0.053655
vt 0.650743 0.053655
vt 0.650307 0.028229
vt 0.657705 0.028229
vt 0.641160 0.053655
vt 0.641160 0.028229
vt 0.545471 0.096776
vt 0.545471 0.089378
vt 0.552634 0.089412
vt 0.552634 0.095429
vt 0.546217 0.023708
vt 0.551163 0.023708
vt 0.546217 0.012852
vt 0.550693 0.012852
vt 0.472324 0.023087
vt 0.479722 0.023087
vt 0.479722 0.048513
vt 0.472324 0.048513
vt 0.463177 0.048513
vt 0.463177 0.023087
vt 0.935797 0.037121
vt 0.930977 0.037121
vt 0.930977 0.021463
vt 0.935797 0.021463
vt 0.924408 0.037121
vt 0.924408 0.021463
vt 0.892700 0.016229
vt 0.897521 0.016229
vt 0.897521 0.031887
vt 0.892700 0.031887
vt 0.886131 0.016229
vt 0.886131 0.031887
vt 0.246093 0.467824
vt 0.200573 0.467824
vt 0.200573 0.339077
vt 0.246093 0.339077
vt 0.155054 0.467824
vt 0.155054 0.339077
vt 0.801922 0.340990
vt 0.847441 0.340990
vt 0.847441 0.469738
vt 0.801922 0.469738
vt 0.892960 0.340990
vt 0.892960 0.469738
vt 0.610540 0.344818
vt 0.656059 0.344818
vt 0.656059 0.473566
vt 0.610540 0.473566
vt 0.701578 0.344818
vt 0.701578 0.473566
vt 0.302418 0.351189
vt 0.347937 0.351189
vt 0.347937 0.479936
vt 0.302418 0.479936
vt 0.393456 0.351189
vt 0.393456 0.479936
vt 0.005777 0.520821
vt 0.024632 0.475302
vt 0.070151 0.520821
vt 0.024632 0.566340
vt 0.070151 0.585195
vt 0.115670 0.566340
vt 0.134525 0.520821
vt 0.115670 0.475302
vt 0.070151 0.456447
vt 0.715516 0.488128
vt 0.761035 0.469274
vt 0.761035 0.533647
vt 0.806554 0.488128
vt 0.825409 0.533647
vt 0.806554 0.579167
vt 0.761035 0.598021
vt 0.715516 0.579167
vt 0.696661 0.533648
vt 0.941632 0.033031
vt 0.951180 0.034490
vt 0.951180 0.113352
vt 0.941632 0.114811
vt 0.956943 0.034222
vt 0.966491 0.032762
vt 0.966491 0.114543
vt 0.956943 0.113084
vt 0.924408 0.073637
vt 0.933956 0.075096
vt 0.933956 0.153958
vt 0.924408 0.155417
vt 0.909097 0.067799
vt 0.918645 0.069258
vt 0.918645 0.148120
vt 0.909097 0.149579
vt 0.918645 0.175996
vt 0.909097 0.178488
vt 0.951180 0.006614
vt 0.941632 0.004123
vt 0.951180 0.141228
vt 0.941632 0.143719
vt 0.933956 0.047220
vt 0.924408 0.044729
vt 0.909097 0.038891
vt 0.918645 0.041382
vt 0.966491 0.003854
vt 0.956943 0.006346
vt 0.966491 0.143451
vt 0.956943 0.140960
vt 0.924408 0.184326
vt 0.933956 0.181834
vt 0.302418 0.227286
vt 0.340029 0.226636
vt 0.340029 0.308416
vt 0.302418 0.307766
vt 0.778956 0.296727
vt 0.818379 0.296727
vt 0.818379 0.336150
vt 0.790503 0.324603
vt 0.421810 0.226636
vt 0.421810 0.308416
vt 0.340680 0.189024
vt 0.313625 0.200231
vt 0.421159 0.189024
vt 0.459421 0.227286
vt 0.448215 0.200231
vt 0.459421 0.307766
vt 0.448215 0.334821
vt 0.421159 0.346027
vt 0.340680 0.346027
vt 0.313625 0.334821
vt 0.254573 0.142259
vt 0.254573 0.060478
vt 0.257844 0.061129
vt 0.257844 0.141609
vt 0.266547 0.031570
vt 0.269050 0.034074
vt 0.295455 0.019596
vt 0.296105 0.022867
vt 0.377236 0.019596
vt 0.376585 0.022867
vt 0.406144 0.031570
vt 0.403640 0.034074
vt 0.418118 0.060478
vt 0.414847 0.061129
vt 0.418118 0.142259
vt 0.414847 0.141609
vt 0.406144 0.171167
vt 0.377236 0.183141
vt 0.376585 0.179870
vt 0.403640 0.168664
vt 0.295455 0.183141
vt 0.296105 0.179870
vt 0.266547 0.171167
vt 0.269050 0.168664
vt 0.949287 0.403150
vt 0.949288 0.322670
vt 0.975662 0.322670
vt 0.975662 0.403150
vt 0.949287 0.295615
vt 0.975662 0.295615
vt 0.059364 0.453294
vt 0.059364 0.426239
vt 0.085739 0.426239
vt 0.085739 0.453294
vt 0.059364 0.345760
vt 0.085739 0.345760
vt 0.059364 0.318704
vt 0.085739 0.318704
vt 0.089985 0.452100
vt 0.089985 0.425045
vt 0.116360 0.425045
vt 0.116360 0.452100
vt 0.089985 0.344566
vt 0.116360 0.344566
vt 0.148894 0.328711
vt 0.148894 0.355766
vt 0.122520 0.355766
vt 0.122520 0.328711
vt 0.089985 0.317511
vt 0.116360 0.317511
vt 0.148894 0.436246
vt 0.122520 0.436246
vt 0.148894 0.463301
vt 0.122520 0.463301
vt 0.949287 0.430205
vt 0.975662 0.430205
vt 0.897240 0.336150
vt 0.897240 0.296727
vt 0.936663 0.296727
vt 0.925117 0.324603
vt 0.818379 0.178443
vt 0.818379 0.217866
vt 0.778956 0.217866
vt 0.790503 0.189989
vt 0.897240 0.178443
vt 0.897240 0.217866
vt 0.936663 0.217866
vt 0.925117 0.189989
vt 0.232696 0.601791
vt 0.187177 0.601791
vt 0.187177 0.473043
vt 0.232696 0.473043
vt 0.141658 0.601791
vt 0.141658 0.473043
vt 0.830630 0.476871
vt 0.876149 0.476871
vt 0.876149 0.605619
vt 0.830630 0.605619
vt 0.921668 0.476871
vt 0.921668 0.605619
vt 0.599057 0.478785
vt 0.644576 0.478785
vt 0.644576 0.607532
vt 0.599057 0.607532
vt 0.690095 0.478785
vt 0.690095 0.607532
vt 0.250745 0.485155
vt 0.296264 0.485155
vt 0.296264 0.613903
vt 0.250745 0.613903
vt 0.341783 0.485155
vt 0.341783 0.613903
vt 0.369401 0.534218
vt 0.388256 0.488699
vt 0.433775 0.534218
vt 0.388256 0.579737
vt 0.433775 0.598592
vt 0.479294 0.579737
vt 0.498149 0.534218
vt 0.479294 0.488699
vt 0.433775 0.469844
vt 0.489687 0.578077
vt 0.535206 0.559223
vt 0.535206 0.623596
vt 0.580726 0.578077
vt 0.599580 0.623596
vt 0.580726 0.669116
vt 0.535206 0.687970
vt 0.489687 0.669115
vt 0.470833 0.623596
vt 0.092988 0.716620
vt 0.047469 0.716620
vt 0.047469 0.587872
vt 0.092988 0.587872
vt 0.001950 0.716620
vt 0.001950 0.587872
vt 0.696661 0.599355
vt 0.742180 0.599355
vt 0.742180 0.728103
vt 0.696661 0.728103
vt 0.787699 0.599355
vt 0.787699 0.728103
vt 0.350263 0.601269
vt 0.395783 0.601269
vt 0.395783 0.730017
vt 0.350263 0.730017
vt 0.441302 0.601269
vt 0.441302 0.730017
vt 0.832543 0.613381
vt 0.878063 0.613381
vt 0.878063 0.742129
vt 0.832543 0.742129
vt 0.923582 0.613381
vt 0.923582 0.742129
vt 0.099554 0.672012
vt 0.118409 0.626493
vt 0.163928 0.672012
vt 0.118409 0.717531
vt 0.163928 0.736386
vt 0.209447 0.717531
vt 0.228302 0.672012
vt 0.209447 0.626493
vt 0.163928 0.607638
vt 0.577722 0.675682
vt 0.623241 0.656827
vt 0.623241 0.721201
vt 0.668760 0.675682
vt 0.687615 0.721201
vt 0.668760 0.766720
vt 0.623241 0.785575
vt 0.577722 0.766720
vt 0.558867 0.721201
vt 0.341783 0.749154
vt 0.296264 0.749154
vt 0.296264 0.620407
vt 0.341783 0.620407
vt 0.250745 0.749154
vt 0.250745 0.620407
vt 0.451695 0.689304
vt 0.497214 0.689304
vt 0.497214 0.818052
vt 0.451695 0.818052
vt 0.542733 0.689304
vt 0.542733 0.818052
vt 0.001950 0.723753
vt 0.047469 0.723753
vt 0.047469 0.852500
vt 0.001950 0.852500
vt 0.092988 0.723753
vt 0.092988 0.852500
vt 0.698575 0.735865
vt 0.744094 0.735865
vt 0.744094 0.864613
vt 0.698575 0.864613
vt 0.789613 0.735865
vt 0.789613 0.864613
vt 0.315815 0.805979
vt 0.334669 0.760460
vt 0.380189 0.805979
vt 0.334669 0.851498
vt 0.380189 0.870353
vt 0.425708 0.851498
vt 0.444563 0.805979
vt 0.425708 0.760460
vt 0.380189 0.741605
vt 0.118409 0.759890
vt 0.163928 0.741035
vt 0.163928 0.805409
vt 0.209447 0.759890
vt 0.228302 0.805409
vt 0.209447 0.850928
vt 0.163928 0.869783
vt 0.118409 0.850928
vt 0.099554 0.805409
vt 0.001950 0.310162
vt 0.053989 0.310162
vt 0.053989 0.326727
vt 0.001950 0.326727
vt 0.664126 0.037653
vt 0.664126 0.021089
vt 0.680691 0.021089
vt 0.680691 0.037653
vt 0.710094 0.093421
vt 0.710094 0.041382
vt 0.742794 0.041382
vt 0.742794 0.093421
vt 0.597143 0.067231
vt 0.597143 0.015191
vt 0.632371 0.015191
vt 0.632371 0.067231
vt 0.164719 0.002753
vt 0.296790 0.002753
vt 0.296790 0.013881
vt 0.174197 0.013881
vt 0.302418 0.001992
vt 0.434489 0.001992
vt 0.425011 0.013120
vt 0.302418 0.013120
vt 0.001950 0.024979
vt 0.053989 0.024979
vt 0.148592 0.018820
vt 0.158070 0.029949
vt 0.128170 0.221537
vt 0.118692 0.210409
vt 0.111403 0.289319
vt 0.059364 0.289319
vt 0.059364 0.004135
vt 0.111403 0.004135
vt 0.441138 0.029188
vt 0.450616 0.018059
vt 0.480516 0.209648
vt 0.471038 0.220776
vt 0.447580 0.009814
vt 0.438102 0.020942
vt 0.441801 0.004056
vt 0.432322 0.015184
vt 0.001950 0.012705
vt 0.053989 0.012705
vt 0.001950 0.004134
vt 0.053989 0.004134
vt 0.634321 0.067231
vt 0.634321 0.015191
vt 0.059364 0.301593
vt 0.111403 0.301593
vt 0.708144 0.093421
vt 0.708144 0.041382
vt 0.059364 0.310164
vt 0.111403 0.310164
vt 0.151628 0.010574
vt 0.161106 0.021703
vt 0.157407 0.004816
vt 0.166885 0.015945
vt 0.736852 0.147859
vt 0.746400 0.149319
vt 0.746400 0.228180
vt 0.736852 0.229640
vt 0.947374 0.177758
vt 0.956922 0.176298
vt 0.956922 0.258079
vt 0.947374 0.256619
vt 0.962684 0.180810
vt 0.972232 0.182270
vt 0.972232 0.261131
vt 0.962684 0.262591
vt 0.752162 0.243869
vt 0.761710 0.245329
vt 0.761710 0.324191
vt 0.752162 0.325650
vt 0.761710 0.352067
vt 0.752162 0.354558
vt 0.746400 0.121443
vt 0.736852 0.118951
vt 0.746400 0.256057
vt 0.736852 0.258548
vt 0.972232 0.154394
vt 0.962684 0.151902
vt 0.752162 0.214961
vt 0.761710 0.217453
vt 0.956922 0.147390
vt 0.947374 0.149882
vt 0.956922 0.286987
vt 0.947374 0.284495
vt 0.962684 0.291499
vt 0.972232 0.289008
vt 0.447867 0.365081
vt 0.485478 0.364430
vt 0.485478 0.446211
vt 0.447867 0.445560
vt 0.572264 0.298641
vt 0.611687 0.298641
vt 0.611687 0.338064
vt 0.583811 0.326517
vt 0.567259 0.364430
vt 0.567259 0.446211
vt 0.486129 0.326819
vt 0.459074 0.338025
vt 0.566608 0.326819
vt 0.604870 0.365081
vt 0.593664 0.338025
vt 0.604870 0.445560
vt 0.593664 0.472615
vt 0.566608 0.483822
vt 0.486129 0.483822
vt 0.459074 0.472615
vt 0.134002 0.293450
vt 0.134002 0.211670
vt 0.137273 0.212320
vt 0.137273 0.292800
vt 0.145977 0.182762
vt 0.148480 0.185265
vt 0.174885 0.170787
vt 0.175535 0.174058
vt 0.256665 0.170787
vt 0.256015 0.174058
vt 0.285573 0.182762
vt 0.283070 0.185265
vt 0.297547 0.211670
vt 0.294276 0.212320
vt 0.297547 0.293450
vt 0.294276 0.292800
vt 0.285573 0.322358
vt 0.256665 0.334332
vt 0.256015 0.331062
vt 0.283070 0.319855
vt 0.174885 0.334332
vt 0.175535 0.331062
vt 0.145977 0.322358
vt 0.148480 0.319855
vt 0.769387 0.439512
vt 0.769387 0.359033
vt 0.795762 0.359033
vt 0.795762 0.439512
vt 0.769387 0.331977
vt 0.795762 0.331977
vt 0.918666 0.466691
vt 0.918666 0.439636
vt 0.945041 0.439636
vt 0.945041 0.466691
vt 0.918666 0.359156
vt 0.945041 0.359156
vt 0.918666 0.332101
vt 0.945041 0.332101
vt 0.001950 0.467411
vt 0.001950 0.440356
vt 0.028324 0.440356
vt 0.028324 0.467411
vt 0.001950 0.359876
vt 0.028324 0.359876
vt 0.742174 0.332539
vt 0.742174 0.359594
vt 0.715799 0.359594
vt 0.715799 0.332539
vt 0.001950 0.332821
vt 0.028324 0.332821
vt 0.742174 0.440073
vt 0.715799 0.440073
vt 0.742174 0.467129
vt 0.715799 0.467129
vt 0.769387 0.466567
vt 0.795762 0.466567
vt 0.690548 0.338064
vt 0.690548 0.298641
vt 0.729971 0.298641
vt 0.718424 0.326517
vt 0.611687 0.180356
vt 0.611687 0.219779
vt 0.572264 0.219779
vt 0.583811 0.191903
vt 0.690548 0.180356
vt 0.690548 0.219779
vt 0.729971 0.219779
vt 0.718424 0.191903
vt 0.887219 0.875466
vt 0.841700 0.875466
vt 0.841700 0.746718
vt 0.887219 0.746718
vt 0.796180 0.875466
vt 0.796180 0.746718
vt 0.549298 0.786908
vt 0.594817 0.786908
vt 0.594817 0.915656
vt 0.549298 0.915656
vt 0.640337 0.786908
vt 0.640337 0.915656
vt 0.225865 0.823271
vt 0.271385 0.823271
vt 0.271385 0.952018
vt 0.225865 0.952018
vt 0.316904 0.823271
vt 0.316904 0.952018
vt 0.001950 0.860263
vt 0.047469 0.860263
vt 0.047469 0.989011
vt 0.001950 0.989011
vt 0.092988 0.860263
vt 0.092988 0.989011
vt 0.415332 0.897842
vt 0.434187 0.852323
vt 0.479706 0.897842
vt 0.434187 0.943361
vt 0.479706 0.962216
vt 0.525226 0.943361
vt 0.544080 0.897842
vt 0.525226 0.852323
vt 0.479706 0.833468
vt 0.661929 0.888115
vt 0.707448 0.869260
vt 0.707448 0.933634
vt 0.752967 0.888115
vt 0.771822 0.933634
vt 0.752967 0.979153
vt 0.707448 0.998008
vt 0.661929 0.979153
vt 0.643074 0.933634
vn -0.309016 0.000000 -0.951057
vn -0.309016 0.000000 -0.951057
vn -0.309016 0.000000 -0.951057
vn -0.309016 0.000000 -0.951057
vn -1.000000 0.000000 0.000000
vn -1.000000 0.000000 0.000000
vn -1.000000 0.000000 0.000000
vn -1.000000 0.000000 0.000000
vn -0.309020 0.000000 0.951056
vn -0.309020 0.000000 0.951056
vn -0.309020 0.000000 0.951056
vn -0.309020 0.000000 0.951056
vn 0.809016 0.000000 0.587786
vn 0.809016 0.000000 0.587786
vn 0.809016 0.000000 0.587786
vn 0.809016 0.000000 0.587786
vn 0.809017 0.000000 -0.587786
vn 0.809017 0.000000 -0.587786
vn 0.809017 0.000000 -0.587786
vn 0.809017 0.000000 -0.587786
vn -0.006963 -0.999746 -0.021431
vn -0.006963 -0.999746 -0.021431
vn -0.000000 -1.000000 -0.000001
vn -0.000000 -1.000000 -0.000001
vn -0.962428 -0.051993 0.266512
vn -0.962280 -0.052433 0.266961
vn -0.977085 0.000000 0.212849
vn -0.977085 0.000000 0.212849
vn -0.016689 0.998541 -0.051364
vn -0.016689 0.998541 -0.051364
vn -0.030748 0.995037 -0.094634
vn -0.030748 0.995037 -0.094634
vn 0.935438 -0.052067 -0.349634
vn 0.935293 -0.051627 -0.350088
vn 0.915589 0.000000 -0.402116
vn 0.915589 0.000000 -0.402116
vn -0.022534 -0.999746 0.000000
vn -0.022534 -0.999746 0.000000
vn -0.000001 -1.000000 0.000000
vn -0.000001 -1.000000 0.000000
vn -0.043938 -0.051993 0.997680
vn -0.043466 -0.052433 0.997678
vn -0.099505 0.000000 0.995037
vn -0.099505 0.000000 0.995037
vn -0.054003 0.998541 0.000000
vn -0.054003 0.998541 0.000000
vn -0.099504 0.995037 0.000000
vn -0.099504 0.995037 0.000000
vn -0.043466 -0.052433 -0.997678
vn -0.043938 -0.051993 -0.997680
vn -0.099505 0.000000 -0.995037
vn -0.099505 0.000000 -0.995037
vn -0.006963 -0.999746 0.021431
vn -0.006963 -0.999746 0.021431
vn 0.000000 -1.000000 0.000000
vn 0.000000 -1.000000 0.000000
vn 0.935273 -0.051993 0.350088
vn 0.935416 -0.052433 0.349639
vn 0.915589 0.000000 0.402116
vn 0.915589 0.000000 0.402116
vn -0.016688 0.998541 0.051360
vn -0.016688 0.998541 0.051360
vn -0.030748 0.995037 0.094633
vn -0.030748 0.995037 0.094633
vn -0.962280 -0.052433 -0.266961
vn -0.962428 -0.051993 -0.266512
vn -0.977085 0.000000 -0.212851
vn -0.977085 0.000000 -0.212851
vn 0.018230 -0.999746 0.013245
vn 0.018230 -0.999746 0.013245
vn -0.000000 -1.000000 -0.000000
vn -0.000000 -1.000000 -0.000000
vn 0.621969 -0.051993 -0.781314
vn 0.621585 -0.052433 -0.781590
vn 0.665366 0.000000 -0.746517
vn 0.665366 0.000000 -0.746517
vn 0.043689 0.998541 0.031742
vn 0.043689 0.998541 0.031742
vn 0.080499 0.995037 0.058486
vn 0.080499 0.995037 0.058486
vn -0.551255 -0.052433 0.832688
vn -0.550874 -0.051993 0.832967
vn -0.504369 0.000000 0.863488
vn -0.504369 0.000000 0.863489
vn 0.018230 -0.999746 -0.013245
vn 0.018230 -0.999746 -0.013245
vn 0.000000 -1.000000 -0.000000
vn 0.000000 -1.000000 -0.000000
vn -0.550892 -0.051627 -0.832978
vn -0.551276 -0.052067 -0.832697
vn -0.504368 0.000000 -0.863489
vn -0.504368 0.000000 -0.863489
vn 0.043693 0.998541 -0.031745
vn 0.043693 0.998541 -0.031745
vn 0.080500 0.995037 -0.058487
vn 0.080500 0.995037 -0.058487
vn 0.621586 -0.052433 0.781590
vn 0.621969 -0.051993 0.781314
vn 0.665369 0.000000 0.746515
vn 0.665369 0.000000 0.746515
vn 0.039682 0.998773 -0.029628
vn 0.039510 0.998778 -0.029693
vn 0.040326 0.998776 -0.028650
vn 0.040317 0.998779 -0.028567
vn -0.015826 0.998779 -0.046809
vn -0.015784 0.998776 -0.046881
vn -0.014511 0.998778 -0.047246
vn -0.014689 0.998773 -0.047294
vn -0.049409 0.998779 0.000586
vn -0.049464 0.998776 0.000524
vn -0.049464 0.998776 -0.000524
vn -0.049409 0.998779 -0.000586
vn -0.014711 0.998779 0.047172
vn -0.014787 0.998776 0.047206
vn -0.015784 0.998776 0.046882
vn -0.015826 0.998779 0.046809
vn 0.040317 0.998779 0.028567
vn 0.040326 0.998776 0.028650
vn 0.039709 0.998776 0.029499
vn 0.039628 0.998779 0.029516
vn -0.006660 -0.999743 -0.021685
vn 0.018134 -0.999743 -0.013629
vn 0.003996 -0.999988 -0.002903
vn -0.001611 -0.999986 -0.004960
vn 0.305180 -0.157098 -0.939247
vn 0.305180 -0.157098 -0.939247
vn 0.305180 -0.157098 -0.939247
vn 0.305180 -0.157098 -0.939247
vn 0.309015 0.003985 -0.951049
vn 0.309015 0.003985 -0.951049
vn 0.309015 0.003985 -0.951049
vn 0.309015 0.003985 -0.951049
vn -0.804046 -0.110682 -0.584174
vn -0.804046 -0.110682 -0.584174
vn -0.804046 -0.110682 -0.584174
vn -0.804046 -0.110682 -0.584174
vn -0.022682 -0.999743 -0.000367
vn -0.007358 -0.999743 -0.021458
vn -0.005871 -0.999983 -0.000000
vn -0.809017 0.000000 -0.587785
vn -0.809017 0.000000 -0.587785
vn -0.809017 0.000000 -0.587785
vn -0.809017 0.000000 -0.587785
vn -0.804046 -0.110682 0.584174
vn -0.804046 -0.110682 0.584174
vn -0.804046 -0.110682 0.584174
vn -0.804046 -0.110682 0.584174
vn -0.007358 -0.999743 0.021458
vn -0.022682 -0.999743 0.000367
vn -0.001611 -0.999986 0.004960
vn -0.809017 0.000000 0.587785
vn -0.809017 0.000000 0.587785
vn -0.809017 0.000000 0.587785
vn -0.809017 0.000000 0.587785
vn 0.307118 -0.110682 0.945213
vn 0.307118 -0.110682 0.945213
vn 0.307118 -0.110682 0.945213
vn 0.307118 -0.110682 0.945213
vn 0.018134 -0.999743 0.013629
vn -0.006660 -0.999743 0.021685
vn 0.003996 -0.999988 0.002903
vn 0.309017 0.000000 0.951057
vn 0.309017 0.000000 0.951057
vn 0.309017 0.000000 0.951057
vn 0.309017 0.000000 0.951057
vn 0.993856 -0.110681 0.000000
vn 0.993856 -0.110681 0.000000
vn 0.993856 -0.110681 0.000000
vn 0.993856 -0.110681 0.000000
vn 0.018566 -0.999743 -0.013035
vn 0.018566 -0.999743 0.013035
vn 1.000000 0.000000 0.000000
vn 1.000000 0.000000 0.000000
vn 1.000000 0.000000 0.000000
vn 1.000000 0.000000 0.000000
vn 0.000000 1.000000 0.000000
vn 0.000000 1.000000 0.000000
vn 0.000000 1.000000 -0.000000
vn 0.000000 1.000000 -0.000001
vn 0.000000 1.000000 0.000000
vn 0.000000 1.000000 0.000000
vn 0.000000 1.000000 0.000000
vn 0.000000 1.000000 0.000000
vn 0.000000 1.000000 0.000001
vn 0.000000 1.000000 0.000001
vn 0.000000 1.000000 -0.000000
vn 0.000000 1.000000 -0.000001
vn 0.000000 1.000000 -0.000001
vn 0.000000 1.000000 0.000003
vn 0.000000 1.000000 0.000004
vn -0.309017 0.000000 0.951056
vn -0.309017 0.000000 0.951056
vn -0.309017 0.000000 0.951056
vn -0.309017 0.000000 0.951056
vn -1.000000 0.000000 0.000000
vn -1.000000 0.000000 0.000000
vn -1.000000 0.000000 0.000000
vn -1.000000 0.000000 0.000000
vn -0.309017 0.000000 -0.951057
vn -0.309017 0.000000 -0.951057
vn -0.309017 0.000000 -0.951057
vn -0.309017 0.000000 -0.951057
vn 0.809017 -0.000000 -0.587785
vn 0.809017 -0.000000 -0.587785
vn 0.809017 -0.000000 -0.587785
vn 0.809017 -0.000000 -0.587785
vn 0.809017 0.000000 0.587785
vn 0.809017 0.000000 0.587785
vn 0.809017 0.000000 0.587785
vn 0.809017 0.000000 0.587785
vn -0.960267 -0.058291 0.272928
vn -0.960267 -0.058291 0.272928
vn 0.937338 -0.057935 -0.343571
vn 0.937338 -0.057935 -0.343571
vn -0.037169 -0.058291 0.997607
vn -0.037169 -0.058291 0.997608
vn -0.037169 -0.058291 -0.997608
vn -0.037169 -0.058291 -0.997607
vn 0.937295 -0.058291 0.343628
vn 0.937295 -0.058291 0.343628
vn -0.960267 -0.058291 -0.272928
vn -0.960267 -0.058291 -0.272928
vn 0.616450 -0.058291 -0.785234
vn 0.616450 -0.058291 -0.785234
vn -0.556308 -0.058291 0.828929
vn -0.556308 -0.058291 0.828929
vn -0.556376 -0.057935 -0.828908
vn -0.556376 -0.057935 -0.828908
vn 0.616449 -0.058291 0.785234
vn 0.616449 -0.058291 0.785234
vn 0.000000 1.000000 -0.000000
vn 0.000000 1.000000 -0.000000
vn 0.000000 1.000000 -0.000000
vn 0.000000 1.000000 -0.000000
vn 0.000000 1.000000 0.000000
vn 0.000000 1.000000 -0.000001
vn 0.000000 1.000000 -0.000001
vn 0.000000 1.000000 0.000000
vn 0.000000 1.000000 -0.000000
vn 0.000000 1.000000 0.000000
vn 0.000000 1.000000 0.000000
vn 0.000000 1.000000 -0.000000
vn 0.000000 1.000000 -0.000001
vn 0.000000 1.000000 -0.000001
vn 0.000000 1.000000 -0.000001
vn 0.000000 1.000000 -0.000001
vn 0.000000 1.000000 0.000001
vn 0.000000 1.000000 0.000000
vn 0.000000 1.000000 0.000000
vn 0.000000 1.000000 0.000001
vn 0.309004 0.000001 -0.951061
vn 0.309004 0.000001 -0.951061
vn 0.309004 0.000001 -0.951061
vn 0.309004 0.000001 -0.951061
vn 1.000000 0.000000 0.000000
vn 1.000000 0.000000 0.000000
vn 1.000000 0.000000 0.000000
vn 1.000000 0.000000 0.000000
vn -0.809021 0.000000 -0.587779
vn -0.809021 0.000000 -0.587779
vn -0.809021 0.000000 -0.587779
vn -0.809021 0.000000 -0.587779
vn -0.809012 0.000002 0.587792
vn -0.809012 0.000002 0.587792
vn -0.809012 0.000002 0.587792
vn -0.809012 0.000002 0.587792
vn 0.309017 -0.000001 0.951057
vn 0.309017 -0.000001 0.951057
vn 0.309017 -0.000001 0.951057
vn 0.309017 -0.000001 0.951057
vn -0.309008 0.000001 -0.951059
vn -0.309008 0.000001 -0.951059
vn -0.309008 0.000001 -0.951059
vn -0.309008 0.000001 -0.951060
vn -1.000000 0.000000 0.000000
vn -1.000000 0.000000 0.000000
vn -1.000000 0.000000 0.000000
vn -1.000000 0.000000 0.000000
vn -0.309033 0.000002 0.951051
vn -0.309033 0.000002 0.951051
vn -0.309033 0.000002 0.951051
vn -0.309033 0.000002 0.951051
vn 0.809020 0.000000 0.587781
vn 0.809020 0.000000 0.587781
vn 0.809020 0.000000 0.587781
vn 0.809020 0.000000 0.587781
vn 0.809023 0.000001 -0.587777
vn 0.809023 0.000001 -0.587777
vn 0.809023 0.000001 -0.587777
vn 0.809023 0.000001 -0.587777
vn -0.572062 0.707107 -0.415627
vn -0.809017 0.000000 -0.587785
vn -0.809017 0.000000 -0.587785
vn -0.572062 0.707107 -0.415627
vn -0.572062 -0.707107 -0.415627
vn -0.572061 -0.707107 -0.415627
vn -0.000000 -1.000000 -0.000000
vn 0.000000 -1.000000 -0.000000
vn 0.572061 -0.707107 0.415627
vn 0.572062 -0.707107 0.415627
vn 0.809017 0.000000 0.587785
vn 0.809017 0.000000 0.587785
vn 0.572061 0.707107 0.415627
vn 0.572061 0.707107 0.415627
vn -0.000000 1.000000 -0.000000
vn -0.000000 1.000000 -0.000000
vn 0.587786 0.000000 -0.809017
vn 0.587786 0.000000 -0.809017
vn 0.587785 -0.000000 -0.809017
vn 0.587785 -0.000000 -0.809017
vn 0.587785 0.000000 -0.809017
vn 0.587785 0.000000 -0.809017
vn 0.587785 -0.000000 -0.809017
vn 0.587785 -0.000000 -0.809017
vn 0.587785 0.000000 -0.809017
vn -0.587785 0.000000 0.809017
vn -0.587785 0.000000 0.809017
vn -0.587785 -0.000000 0.809017
vn -0.587785 0.000000 0.809017
vn -0.587785 0.000000 0.809017
vn -0.587786 0.000000 0.809017
vn -0.587785 -0.000000 0.809017
vn -0.587785 -0.000000 0.809017
vn -0.587785 0.000000 0.809017
vn -0.110029 -0.374831 0.920541
vn -0.090965 -0.372353 0.923623
vn 0.090965 -0.372353 0.923623
vn 0.110029 -0.374831 0.920541
vn -0.090965 -0.372352 -0.923623
vn -0.110029 -0.374831 -0.920541
vn 0.110029 -0.374831 -0.920541
vn 0.090965 -0.372353 -0.923623
vn 0.920541 -0.374831 0.110029
vn 0.923623 -0.372352 0.090965
vn 0.923623 -0.372352 -0.090965
vn 0.920541 -0.374831 -0.110029
vn -0.920541 -0.374831 -0.110029
vn -0.923623 -0.372353 -0.090965
vn -0.923623 -0.372353 0.090965
vn -0.920541 -0.374831 0.110029
vn -0.641470 -0.420752 0.641470
vn -0.641470 -0.420752 0.641470
vn 0.641470 -0.420752 0.641470
vn 0.641470 -0.420752 0.641470
vn -0.641470 -0.420752 -0.641470
vn -0.641470 -0.420752 -0.641470
vn 0.641470 -0.420752 -0.641470
vn 0.641470 -0.420752 -0.641470
vn -0.498159 0.865108 0.058538
vn -0.037849 0.998567 0.037849
vn -0.037849 0.998566 -0.037849
vn -0.498159 0.865107 -0.058538
vn 0.000000 -1.000000 0.000000
vn 0.000000 -1.000000 0.000000
vn 0.000000 -1.000000 0.000000
vn 0.000000 -1.000000 0.000000
vn 0.037849 0.998566 0.037849
vn 0.037849 0.998566 -0.037849
vn -0.058538 0.865107 0.498159
vn -0.439767 0.783077 0.439767
vn 0.058538 0.865107 0.498159
vn 0.498159 0.865108 0.058538
vn 0.439767 0.783077 0.439767
vn 0.498159 0.865108 -0.058538
vn 0.439767 0.783078 -0.439767
vn 0.058538 0.865108 -0.498159
vn -0.058538 0.865108 -0.498159
vn -0.439767 0.783077 -0.439767
vn 0.000000 1.000000 0.000000
vn 0.000000 1.000000 0.000000
vn 0.000000 1.000000 0.000000
vn 0.000000 1.000000 0.000000
vn 0.000000 1.000000 -0.000000
vn 0.000000 1.000000 -0.000000
vn 0.000000 1.000000 -0.000002
vn 0.000000 1.000000 -0.000002
vn 0.000000 1.000000 -0.000001
vn 0.000000 1.000000 -0.000001
vn 0.000000 1.000000 0.000000
vn 0.000000 1.000000 0.000000
vn 0.000000 1.000000 -0.000000
vn 0.000000 1.000000 -0.000000
vn 0.000000 1.000000 -0.000000
vn 0.000000 1.000000 -0.000000
vn 0.000000 1.000000 0.000000
vn 0.000000 1.000000 0.000002
vn 0.000000 1.000000 0.000002
vn 0.000000 1.000000 0.000000
vn 0.000000 1.000000 0.000001
vn 0.000000 1.000000 0.000001
vn 0.000000 1.000000 -0.000000
vn 0.000000 1.000000 -0.000000
vn -0.981044 0.165254 -0.101210
vn -0.981044 0.165253 0.101210
vn -0.692161 0.204518 0.692160
vn -0.101210 0.165253 0.981044
vn 0.101210 0.165253 0.981044
vn 0.692161 0.204518 0.692160
vn 0.981044 0.165253 0.101210
vn 0.981044 0.165253 -0.101210
vn 0.692161 0.204518 -0.692160
vn 0.101210 0.165253 -0.981044
vn -0.101210 0.165253 -0.981044
vn -0.692161 0.204518 -0.692160
vn 0.000000 -1.000000 -0.000000
vn 0.000000 -1.000000 -0.000000
vn 0.000000 -1.000000 -0.000000
vn 0.000000 -1.000000 -0.000000
vn 0.000000 -1.000000 0.000000
vn 0.000000 -1.000000 0.000000
vn 0.000000 -1.000000 0.000000
vn 0.000000 -1.000000 0.000000
vn 0.000000 -1.000000 0.000000
vn 0.000000 -1.000000 -0.000000
vn 0.000000 -1.000000 -0.000000
vn 0.000000 -1.000000 0.000000
vn -0.572062 0.707107 0.415627
vn -0.809017 -0.000000 0.587785
vn -0.809017 -0.000000 0.587785
vn -0.572062 0.707107 0.415627
vn -0.572061 -0.707107 0.415627
vn -0.572062 -0.707107 0.415627
vn 0.000000 -1.000000 0.000000
vn -0.000000 -1.000000 0.000000
vn 0.572062 -0.707107 -0.415627
vn 0.572061 -0.707107 -0.415627
vn 0.809017 0.000000 -0.587785
vn 0.809017 0.000000 -0.587785
vn 0.572061 0.707107 -0.415627
vn 0.572061 0.707107 -0.415627
vn -0.000000 1.000000 0.000000
vn -0.000000 1.000000 0.000000
vn -0.587785 0.000000 -0.809017
vn -0.587785 0.000000 -0.809017
vn -0.587785 0.000000 -0.809017
vn -0.587785 0.000000 -0.809017
vn -0.587785 0.000000 -0.809017
vn -0.587786 0.000000 -0.809017
vn -0.587785 0.000000 -0.809017
vn -0.587785 0.000000 -0.809017
vn -0.587785 0.000000 -0.809017
vn 0.587785 0.000000 0.809017
vn 0.587786 0.000000 0.809017
vn 0.587785 -0.000000 0.809017
vn 0.587785 -0.000000 0.809017
vn 0.587785 0.000000 0.809017
vn 0.587785 0.000000 0.809017
vn 0.587785 -0.000000 0.809017
vn 0.587785 -0.000000 0.809017
vn 0.587785 0.000000 0.809017
vn 0.218508 0.707107 -0.672499
vn 0.309017 0.000000 -0.951057
vn 0.309017 0.000000 -0.951057
vn 0.218508 0.707107 -0.672499
vn 0.218508 -0.707107 -0.672498
vn 0.218508 -0.707107 -0.672498
vn -0.000000 -1.000000 0.000000
vn -0.000000 -1.000000 -0.000000
vn -0.218508 -0.707107 0.672499
vn -0.218508 -0.707107 0.672498
vn -0.309017 -0.000000 0.951057
vn -0.309017 -0.000000 0.951057
vn -0.218508 0.707107 0.672499
vn -0.218508 0.707107 0.672499
vn 0.000000 1.000000 -0.000000
vn 0.000000 1.000000 -0.000000
vn 0.951057 -0.000000 0.309017
vn 0.951057 0.000000 0.309017
vn 0.951057 0.000000 0.309017
vn 0.951057 -0.000000 0.309017
vn 0.951057 0.000000 0.309017
vn 0.951057 0.000000 0.309017
vn 0.951056 0.000000 0.309017
vn 0.951056 0.000000 0.309017
vn 0.951057 0.000000 0.309017
vn -0.951057 -0.000000 -0.309017
vn -0.951057 -0.000000 -0.309017
vn -0.951057 -0.000000 -0.309017
vn -0.951057 0.000000 -0.309017
vn -0.951057 0.000000 -0.309017
vn -0.951057 -0.000000 -0.309017
vn -0.951057 0.000000 -0.309017
vn -0.951057 0.000000 -0.309017
vn -0.951057 0.000000 -0.309017
vn 0.218508 0.707107 0.672499
vn 0.309017 0.000000 0.951057
vn 0.309017 0.000000 0.951057
vn 0.218508 0.707107 0.672499
vn 0.218508 -0.707107 0.672498
vn 0.218508 -0.707107 0.672499
vn -0.000000 -1.000000 0.000000
vn -0.000000 -1.000000 -0.000000
vn -0.218508 -0.707107 -0.672498
vn -0.218508 -0.707107 -0.672499
vn -0.309017 -0.000000 -0.951057
vn -0.309017 -0.000000 -0.951057
vn -0.218508 0.707107 -0.672499
vn -0.218508 0.707107 -0.672499
vn 0.000000 1.000000 0.000000
vn 0.000000 1.000000 0.000000
vn -0.951057 0.000000 0.309017
vn -0.951057 0.000000 0.309017
vn -0.951057 0.000000 0.309017
vn -0.951057 0.000000 0.309017
vn -0.951056 0.000000 0.309017
vn -0.951057 0.000000 0.309017
vn -0.951057 0.000000 0.309017
vn -0.951057 0.000000 0.309017
vn -0.951057 0.000000 0.309017
vn 0.951057 0.000000 -0.309017
vn 0.951057 0.000000 -0.309017
vn 0.951057 0.000000 -0.309017
vn 0.951057 0.000000 -0.309017
vn 0.951057 0.000000 -0.309017
vn 0.951057 0.000000 -0.309017
vn 0.951056 0.000000 -0.309017
vn 0.951056 0.000000 -0.309017
vn 0.951057 0.000000 -0.309017
vn 0.000000 0.714836 0.699292
vn 0.000000 0.714836 0.699292
vn 0.000000 0.714836 0.699292
vn 0.000000 0.714836 0.699292
vn 0.000000 0.000000 -1.000000
vn 0.000000 0.000000 -1.000000
vn 0.000000 0.000000 -1.000000
vn 0.000000 0.000000 -1.000000
vn 0.000000 0.999912 -0.013234
vn 0.000000 0.999912 -0.013234
vn 0.000000 1.000000 0.000000
vn 0.000000 1.000000 0.000000
vn 0.000000 -1.000000 0.000000
vn 0.000000 -1.000000 0.000000
vn 0.000000 -0.999924 0.012334
vn 0.000000 -0.999924 0.012334
vn 1.000000 -0.000000 0.000000
vn 1.000000 -0.000000 0.000000
vn 1.000000 -0.000000 0.000000
vn 1.000000 -0.000000 0.000000
vn -1.000000 0.000000 0.000000
vn -1.000000 0.000000 0.000000
vn -1.000000 0.000000 0.000000
vn -1.000000 0.000000 0.000000
vn 0.000000 -0.194054 0.980991
vn 0.000000 -0.194054 0.980991
vn 0.000000 -0.184107 0.982906
vn 0.000000 -0.184107 0.982906
vn 1.000000 0.000000 0.000000
vn 1.000000 0.000000 0.000000
vn 1.000000 0.000000 0.000000
vn 1.000000 0.000000 0.000000
vn 0.000000 0.194054 -0.980991
vn 0.000000 0.194054 -0.980991
vn 0.000000 0.184107 -0.982906
vn 0.000000 0.184107 -0.982906
vn -1.000000 0.000000 0.000000
vn -1.000000 0.000000 0.000000
vn -1.000000 0.000000 0.000000
vn -1.000000 0.000000 0.000000
vn -1.000000 0.000000 0.000000
vn -1.000000 0.000000 0.000000
vn -1.000000 0.000000 0.000000
vn -1.000000 0.000000 0.000000
vn 0.000000 -0.602828 0.797871
vn 0.000000 -0.602828 0.797871
vn 0.000000 -0.895217 0.445630
vn 0.000000 -0.895217 0.445630
vn 0.000000 0.602828 -0.797871
vn 0.000000 0.602828 -0.797871
vn 0.000000 0.895217 -0.445630
vn 0.000000 0.895217 -0.445630
vn 1.000000 0.000000 0.000000
vn 1.000000 0.000000 0.000000
vn 1.000000 0.000000 0.000000
vn 1.000000 0.000000 0.000000
vn -0.110029 0.832506 0.542981
vn -0.090965 0.836003 0.541133
vn 0.090965 0.836003 0.541133
vn 0.110029 0.832506 0.542980
vn -0.090965 -0.977562 0.189996
vn -0.110029 -0.975007 0.193015
vn 0.110029 -0.975007 0.193016
vn 0.090965 -0.977562 0.189996
vn 0.920541 0.036773 0.388912
vn 0.923623 0.018528 0.382855
vn 0.923623 -0.160086 0.348272
vn 0.920541 -0.179274 0.347082
vn -0.920541 -0.179273 0.347082
vn -0.923623 -0.160086 0.348273
vn -0.923623 0.018528 0.382855
vn -0.920541 0.036773 0.388912
vn -0.641470 0.549795 0.535016
vn -0.641470 0.549795 0.535016
vn 0.641470 0.549795 0.535015
vn 0.641470 0.549796 0.535015
vn -0.641470 -0.709754 0.291146
vn -0.641470 -0.709754 0.291146
vn 0.641470 -0.709754 0.291146
vn 0.641470 -0.709753 0.291146
vn -0.498068 0.221971 -0.838247
vn -0.037546 0.226678 -0.973246
vn -0.037547 0.152954 -0.987520
vn -0.498092 0.106956 -0.860503
vn 0.000000 -0.190086 0.981767
vn 0.000000 -0.190086 0.981767
vn 0.000000 -0.190086 0.981767
vn 0.000000 -0.190087 0.981767
vn 0.037546 0.226678 -0.973246
vn 0.037547 0.152954 -0.987520
vn -0.058571 0.653454 -0.754697
vn -0.439963 0.580777 -0.684931
vn 0.058571 0.653454 -0.754697
vn 0.498068 0.221971 -0.838247
vn 0.439963 0.580777 -0.684931
vn 0.498092 0.106956 -0.860503
vn 0.439984 -0.283125 -0.852206
vn 0.058577 -0.324543 -0.944055
vn -0.058577 -0.324543 -0.944055
vn -0.439984 -0.283125 -0.852206
vn -0.000000 0.190086 -0.981767
vn -0.000001 0.190086 -0.981767
vn -0.000001 0.190086 -0.981767
vn -0.000000 0.190086 -0.981767
vn -0.000001 0.190086 -0.981767
vn -0.000001 0.190086 -0.981767
vn 0.000000 0.190086 -0.981768
vn 0.000000 0.190086 -0.981767
vn -0.000000 0.190086 -0.981768
vn -0.000000 0.190086 -0.981768
vn 0.000000 0.190086 -0.981768
vn 0.000000 0.190086 -0.981768
vn 0.000001 0.190086 -0.981767
vn 0.000001 0.190086 -0.981767
vn 0.000001 0.190086 -0.981767
vn 0.000001 0.190086 -0.981767
vn 0.000000 0.190086 -0.981767
vn 0.000000 0.190085 -0.981768
vn 0.000000 0.190085 -0.981768
vn 0.000000 0.190086 -0.981767
vn -0.000000 0.190085 -0.981768
vn -0.000000 0.190085 -0.981768
vn -0.000001 0.190086 -0.981767
vn -0.000001 0.190086 -0.981767
vn -0.982011 -0.068926 -0.175793
vn -0.982025 0.129504 -0.137315
vn -0.693244 0.718037 -0.061936
vn -0.101068 0.994416 0.030357
vn 0.101067 0.994416 0.030357
vn 0.693244 0.718037 -0.061934
vn 0.982025 0.129504 -0.137315
vn 0.982011 -0.068926 -0.175793
vn 0.693121 -0.642984 -0.325814
vn 0.101059 -0.933721 -0.343442
vn -0.101059 -0.933721 -0.343442
vn -0.693121 -0.642984 -0.325814
vn 0.000000 -0.190086 0.981767
vn 0.000000 -0.190086 0.981767
vn 0.000000 -0.190086 0.981767
vn 0.000000 -0.190086 0.981767
vn -0.000000 -0.190086 0.981767
vn -0.000000 -0.190086 0.981767
vn -0.000000 -0.190086 0.981767
vn -0.000000 -0.190087 0.981767
vn 0.000000 -0.190086 0.981767
vn 0.000000 -0.190086 0.981767
vn 0.000000 -0.190086 0.981767
vn 0.000000 -0.190086 0.981767
vn 0.707107 0.707107 0.000000
vn 1.000000 0.000000 0.000000
vn 1.000000 0.000000 0.000000
vn 0.707107 0.707107 0.000000
vn 0.707107 -0.707107 0.000000
vn 0.707107 -0.707107 0.000000
vn 0.000000 -1.000000 0.000000
vn 0.000000 -1.000000 0.000000
vn -0.707107 -0.707107 0.000000
vn -0.707107 -0.707107 0.000000
vn -1.000000 0.000000 0.000000
vn -1.000000 0.000000 0.000000
vn -0.707107 0.707107 0.000000
vn -0.707107 0.707107 0.000000
vn 0.000000 1.000000 0.000000
vn 0.000000 1.000000 0.000000
vn 0.000000 0.000000 1.000000
vn 0.000000 0.000000 1.000000
vn 0.000000 0.000000 1.000000
vn 0.000000 0.000000 1.000000
vn 0.000000 0.000000 1.000000
vn 0.000000 0.000000 1.000000
vn 0.000000 0.000000 1.000000
vn 0.000000 0.000000 1.000000
vn 0.000000 0.000000 1.000000
vn 0.000000 0.000000 -1.000000
vn 0.000000 0.000000 -1.000000
vn 0.000000 0.000000 -1.000000
vn 0.000000 0.000000 -1.000000
vn 0.000000 0.000000 -1.000000
vn 0.000000 0.000000 -1.000000
vn 0.000000 0.000000 -1.000000
vn 0.000000 0.000000 -1.000000
vn 0.000000 0.000000 -1.000000
s off
g pCylinder7
usemtl initialShadingGroup
f 21/191/1 22/192/2 23/193/3 24/194/4
f 25/1/5 26/2/6 27/3/7 28/4/8
f 29/195/9 30/196/10 31/197/11 32/198/12
f 33/47/13 34/44/14 35/43/15 36/48/16
f 37/41/17 38/45/18 39/46/19 40/42/20
s 1
f 1/81/21 2/82/22 22/83/23 21/84/24
s 2
f 2/5/25 3/6/26 23/7/27 22/8/28
s 3
f 3/116/29 4/117/30 24/118/31 23/119/32
s 4
f 4/13/33 1/14/34 21/15/35 24/16/36
s 1
f 5/103/37 6/102/38 26/106/39 25/107/40
s 6
f 6/199/41 7/200/42 27/201/43 26/202/44
s 3
f 7/131/45 8/130/46 28/138/47 27/139/48
s 8
f 8/205/49 5/206/50 25/207/51 28/208/52
s 1
f 9/111/53 10/110/54 30/114/55 29/115/56
s 10
f 10/19/57 11/20/58 31/21/59 30/22/60
s 3
f 11/147/61 12/146/62 32/152/63 31/153/64
s 12
f 12/25/65 9/26/66 29/27/67 32/28/68
s 1
f 13/109/69 14/108/70 34/112/71 33/113/72
s 14
f 14/40/73 15/39/74 35/43/75 34/44/76
s 3
f 15/151/77 16/150/78 36/154/79 35/155/80
s 16
f 16/230/81 13/229/82 33/231/83 36/232/84
s 1
f 17/97/85 18/96/86 38/104/87 37/105/88
s 18
f 18/216/89 19/215/90 39/217/91 38/218/92
s 3
f 19/135/93 20/134/94 40/142/95 39/143/96
s 20
f 20/38/97 17/37/98 37/41/99 40/42/100
s 3
f 43/126/101 46/127/102 68/132/103 67/133/104 20/134/94 19/135/93
f 52/120/105 51/121/106 45/122/107 44/123/108 4/117/30 3/116/29
f 58/128/109 57/129/110 50/125/111 49/124/112 8/130/46 7/131/45
f 64/144/113 63/145/114 56/137/115 55/136/116 12/146/62 11/147/61
f 70/141/117 69/140/118 62/148/119 61/149/120 16/150/78 15/151/77
s 1
f 41/85/121 42/88/122 75/89/123 74/87/124
s off
f 42/211/125 41/212/126 44/213/127 43/214/128
f 46/219/129 45/220/130 76/221/131 77/222/132
f 47/9/133 48/11/134 49/12/135 52/10/136
s 1
f 48/90/137 47/86/138 74/87/124 73/91/139
s off
f 51/61/140 50/58/141 78/57/142 79/62/143
f 53/31/144 54/30/145 55/29/146 58/32/147
s 1
f 54/101/148 53/95/149 73/91/139 72/94/150
s off
f 57/59/151 56/63/152 80/64/153 81/60/154
f 59/225/155 60/226/156 61/227/157 64/228/158
s 1
f 60/99/159 59/100/160 72/94/150 71/93/161
s off
f 63/233/162 62/234/163 82/235/164 83/236/165
f 65/33/166 66/34/167 67/35/168 70/36/169
s 1
f 66/92/170 65/98/171 71/93/161 75/89/123
s off
f 69/49/172 68/50/173 84/51/174 85/52/175
s 22
f 97/156/176 96/157/177 98/158/178 99/159/179
f 99/159/179 100/162/180 101/168/181 102/163/182
f 103/164/183 98/158/178 104/160/184 105/165/185
f 106/161/186 103/164/183 107/169/187 108/170/188
f 100/162/180 106/161/186 109/166/189 110/167/190
s 1
f 47/86/138 41/85/121 74/87/124
f 53/95/149 48/90/137 73/91/139
f 59/100/160 54/101/148 72/94/150
f 65/98/171 60/99/159 71/93/161
f 42/88/122 66/92/170 75/89/123
s 22
f 96/157/177 104/160/184 98/158/178
f 105/165/185 107/169/187 103/164/183
f 108/170/188 109/166/189 106/161/186
f 110/167/190 101/168/181 100/162/180
f 102/163/182 97/156/176 99/159/179
s off
f 80/237/191 56/238/192 63/233/193 83/236/194
f 78/57/195 50/58/196 57/59/197 81/60/198
f 76/221/199 45/220/200 51/223/201 79/224/202
f 84/51/203 68/50/204 46/53/205 77/54/206
f 82/55/207 62/56/208 69/49/209 85/52/210
s 1
f 41/85/121 47/86/138 2/82/22 1/81/21
s 2
f 47/9/211 52/10/212 3/6/26 2/5/25
s 4
f 44/17/213 41/18/214 1/14/34 4/13/33
s 1
f 48/90/137 53/95/149 6/102/38 5/103/37
s 6
f 53/203/215 58/204/216 7/200/42 6/199/41
s 8
f 49/209/217 48/210/218 5/206/50 8/205/49
s 1
f 54/101/148 59/100/160 10/110/54 9/111/53
s 10
f 59/23/219 64/24/220 11/20/58 10/19/57
s 12
f 55/29/221 54/30/222 9/26/66 12/25/65
s 1
f 60/99/159 65/98/171 14/108/70 13/109/69
s 14
f 65/33/223 70/36/224 15/39/74 14/40/73
s 16
f 61/227/225 60/226/226 13/229/82 16/230/81
s 1
f 66/92/170 42/88/122 18/96/86 17/97/85
s 18
f 42/211/227 43/214/228 19/215/90 18/216/89
s 20
f 67/35/229 66/34/230 17/37/98 20/38/97
s 3
f 43/126/101 44/123/108 45/122/107 46/127/102
f 49/124/112 50/125/111 51/121/106 52/120/105
f 55/136/116 56/137/115 57/129/110 58/128/109
f 61/149/120 62/148/119 63/145/114 64/144/113
f 67/133/104 68/132/103 69/140/118 70/141/117
s 1
f 74/87/124 72/94/150 73/91/139
s 22
f 106/161/186 98/158/178 103/164/183
s 1
f 71/93/161 72/94/150 74/87/124 75/89/123
s 22
f 99/159/179 98/158/178 106/161/186 100/162/180
s 24
f 77/171/231 76/172/232 86/173/233 87/174/234
f 85/181/235 84/177/236 89/178/237 88/182/238
f 79/175/239 78/179/240 91/180/241 90/176/242
f 81/183/243 80/187/244 93/188/245 92/184/246
f 83/189/247 82/185/248 95/186/249 94/190/250
f 76/172/232 79/175/239 90/176/242 86/173/233
f 78/179/240 81/183/243 92/184/246 91/180/241
f 80/187/244 83/189/247 94/190/250 93/188/245
f 82/185/248 85/181/235 88/182/238 95/186/249
f 84/177/236 77/171/231 87/174/234 89/178/237
s off
f 87/239/251 86/240/252 96/241/253 97/242/254
f 88/65/255 89/66/256 102/67/257 101/68/258
f 90/79/259 91/73/260 105/76/261 104/80/262
f 92/74/263 93/77/264 108/78/265 107/75/266
f 94/245/267 95/246/268 110/247/269 109/248/270
f 86/240/271 90/243/272 104/244/273 96/241/274
f 91/73/275 92/74/276 107/75/277 105/76/278
f 93/249/279 94/245/280 109/248/281 108/250/282
f 95/71/283 88/65/284 101/68/285 110/72/286
f 89/66/287 87/69/288 97/70/289 102/67/290
s 27
f 111/251/291 112/252/292 120/253/293 119/254/294
f 112/252/292 113/255/295 121/256/296 120/253/293
f 113/257/295 114/258/297 122/259/298 121/260/296
f 114/258/297 115/261/299 123/262/300 122/259/298
f 115/263/299 116/264/301 124/265/302 123/266/300
f 116/264/301 117/267/303 125/268/304 124/265/302
f 117/269/303 118/270/305 126/271/306 125/272/304
f 118/270/305 111/273/291 119/274/294 126/271/306
s 28
f 112/275/307 111/276/308 127/277/309
f 113/278/310 112/275/307 127/277/309
f 114/279/311 113/278/310 127/277/309
f 115/280/312 114/279/311 127/277/309
f 116/281/313 115/280/312 127/277/309
f 117/282/314 116/281/313 127/277/309
f 118/283/315 117/282/314 127/277/309
f 111/276/308 118/283/315 127/277/309
s 29
f 119/284/316 120/285/317 128/286/318
f 120/285/317 121/287/319 128/286/318
f 121/287/319 122/288/320 128/286/318
f 122/288/320 123/289/321 128/286/318
f 123/289/321 124/290/322 128/286/318
f 124/290/322 125/291/323 128/286/318
f 125/291/323 126/292/324 128/286/318
f 126/292/324 119/284/316 128/286/318
s 30
f 134/293/325 130/294/326 137/295/327 139/296/328
f 146/297/329 143/298/330 148/299/331 151/300/332
f 138/301/333 135/302/334 150/303/335 149/304/336
f 142/305/337 144/306/338 129/307/339 132/308/340
f 129/307/339 131/309/341 133/310/342 132/308/340
f 131/311/341 130/294/326 134/293/325 133/312/342
f 137/295/327 136/313/343 140/314/344 139/296/328
f 136/315/343 135/302/334 138/301/333 140/316/344
f 142/305/337 141/317/345 145/318/346 144/306/338
f 141/319/345 143/298/330 146/297/329 145/320/346
f 148/299/331 147/321/347 152/322/348 151/300/332
f 147/323/347 149/304/336 150/303/335 152/324/348
s 34
f 165/325/349 166/326/350 167/327/351 168/328/352
s 35
f 146/329/353 181/330/354 144/331/355 145/332/356
s 34
f 169/333/357 170/334/358 167/327/351 166/326/350
f 171/335/359 166/326/350 165/325/349 172/336/360
f 173/337/361 169/333/357 166/326/350 171/335/359
f 174/338/362 169/333/357 173/337/361 175/339/363
f 176/340/364 170/334/358 169/333/357 174/338/362
f 178/341/365 177/342/366 170/334/358 176/340/364
f 167/327/351 170/334/358 177/342/366 179/343/367
f 168/328/352 167/327/351 179/343/367 180/344/368
s 36
f 142/345/369 132/346/370 153/347/371 154/348/372
f 132/346/370 133/349/373 156/350/374 153/347/371
f 133/349/373 134/351/375 155/352/376 156/350/374
f 134/351/375 139/353/377 157/354/378 155/352/376
f 139/353/377 140/355/379 159/356/380 157/354/378
f 140/355/379 138/357/381 158/358/382 159/356/380
f 138/357/381 149/359/383 160/360/384 158/358/382
f 147/361/385 148/362/386 161/363/387 162/364/388
f 149/359/383 147/361/385 162/364/388 160/360/384
f 148/362/386 143/365/389 163/366/390 161/363/387
f 143/365/389 141/367/391 164/368/392 163/366/390
f 141/367/391 142/345/369 154/348/372 164/368/392
s 34
f 154/369/393 153/370/394 165/371/349 168/372/352
f 153/370/394 156/373/395 172/374/360 165/371/349
f 156/375/395 155/376/396 171/377/359 172/378/360
f 155/376/396 157/379/397 173/380/361 171/377/359
f 157/379/397 159/381/398 175/382/363 173/380/361
f 159/383/398 158/384/399 174/385/362 175/386/363
f 158/384/399 160/387/400 176/388/364 174/385/362
f 162/389/401 161/390/402 177/391/366 178/392/365
f 160/387/400 162/393/401 178/394/365 176/388/364
f 161/390/402 163/395/403 179/396/367 177/391/366
f 163/395/403 164/397/404 180/398/368 179/396/367
f 164/399/404 154/369/393 168/372/352 180/400/368
s 35
f 129/401/405 182/402/406 130/403/407 131/404/408
f 181/330/354 182/402/406 129/401/405 144/331/355
f 150/405/409 184/406/410 151/407/411 152/408/412
f 150/405/409 135/409/413 183/410/414 184/406/410
f 137/411/415 183/410/414 135/409/413 136/412/416
f 130/403/407 182/402/406 183/410/414 137/411/415
f 184/406/410 183/410/414 182/402/406 181/330/354
f 151/407/411 184/406/410 181/330/354 146/329/353
s 39
f 185/413/417 186/414/418 194/415/419 193/416/420
f 186/414/418 187/417/421 195/418/422 194/415/419
f 187/419/421 188/420/423 196/421/424 195/422/422
f 188/420/423 189/423/425 197/424/426 196/421/424
f 189/425/425 190/426/427 198/427/428 197/428/426
f 190/426/427 191/429/429 199/430/430 198/427/428
f 191/431/429 192/432/431 200/433/432 199/434/430
f 192/432/431 185/435/417 193/436/420 200/433/432
s 40
f 186/437/433 185/438/434 201/439/435
f 187/440/436 186/437/433 201/439/435
f 188/441/437 187/440/436 201/439/435
f 189/442/438 188/441/437 201/439/435
f 190/443/439 189/442/438 201/439/435
f 191/444/440 190/443/439 201/439/435
f 192/445/441 191/444/440 201/439/435
f 185/438/434 192/445/441 201/439/435
s 41
f 193/446/442 194/447/443 202/448/444
f 194/447/443 195/449/445 202/448/444
f 195/449/445 196/450/446 202/448/444
f 196/450/446 197/451/447 202/448/444
f 197/451/447 198/452/448 202/448/444
f 198/452/448 199/453/449 202/448/444
f 199/453/449 200/454/450 202/448/444
f 200/454/450 193/446/442 202/448/444
s 42
f 203/455/451 204/456/452 212/457/453 211/458/454
f 204/456/452 205/459/455 213/460/456 212/457/453
f 205/461/455 206/462/457 214/463/458 213/464/456
f 206/462/457 207/465/459 215/466/460 214/463/458
f 207/467/459 208/468/461 216/469/462 215/470/460
f 208/468/461 209/471/463 217/472/464 216/469/462
f 209/473/463 210/474/465 218/475/466 217/476/464
f 210/474/465 203/477/451 211/478/454 218/475/466
s 43
f 204/479/467 203/480/468 219/481/469
f 205/482/470 204/479/467 219/481/469
f 206/483/471 205/482/470 219/481/469
f 207/484/472 206/483/471 219/481/469
f 208/485/473 207/484/472 219/481/469
f 209/486/474 208/485/473 219/481/469
f 210/487/475 209/486/474 219/481/469
f 203/480/468 210/487/475 219/481/469
s 44
f 211/488/476 212/489/477 220/490/478
f 212/489/477 213/491/479 220/490/478
f 213/491/479 214/492/480 220/490/478
f 214/492/480 215/493/481 220/490/478
f 215/493/481 216/494/482 220/490/478
f 216/494/482 217/495/483 220/490/478
f 217/495/483 218/496/484 220/490/478
f 218/496/484 211/488/476 220/490/478
s 45
f 221/497/485 222/498/486 230/499/487 229/500/488
f 222/498/486 223/501/489 231/502/490 230/499/487
f 223/503/489 224/504/491 232/505/492 231/506/490
f 224/504/491 225/507/493 233/508/494 232/505/492
f 225/509/493 226/510/495 234/511/496 233/512/494
f 226/510/495 227/513/497 235/514/498 234/511/496
f 227/515/497 228/516/499 236/517/500 235/518/498
f 228/516/499 221/519/485 229/520/488 236/517/500
s 46
f 222/521/501 221/522/502 237/523/503
f 223/524/504 222/521/501 237/523/503
f 224/525/505 223/524/504 237/523/503
f 225/526/506 224/525/505 237/523/503
f 226/527/507 225/526/506 237/523/503
f 227/528/508 226/527/507 237/523/503
f 228/529/509 227/528/508 237/523/503
f 221/522/502 228/529/509 237/523/503
s 47
f 229/530/510 230/531/511 238/532/512
f 230/531/511 231/533/513 238/532/512
f 231/533/513 232/534/514 238/532/512
f 232/534/514 233/535/515 238/532/512
f 233/535/515 234/536/516 238/532/512
f 234/536/516 235/537/517 238/532/512
f 235/537/517 236/538/518 238/532/512
f 236/538/518 229/530/510 238/532/512
s off
f 243/539/519 244/540/520 245/541/521 246/542/522
f 239/543/523 240/544/524 242/545/525 241/546/526
s 48
f 255/547/527 259/548/528 240/549/529 239/550/530
s 49
f 241/551/531 242/552/532 251/553/533 247/554/534
s 50
f 251/555/535 242/556/536 240/557/537 259/558/538
s 51
f 241/559/539 247/560/540 255/561/541 239/562/542
s 49
f 250/563/543 254/564/544 244/540/545 243/539/546
s 50
f 254/565/547 262/566/548 245/567/549 244/568/550
s 48
f 262/569/551 258/570/552 246/571/553 245/572/554
s 51
f 258/573/555 250/574/556 243/575/557 246/576/558
f 249/577/559 250/574/556 258/573/555 257/578/560
f 247/560/540 248/579/561 256/580/562 255/561/541
f 248/579/561 249/577/559 257/578/560 256/580/562
s 49
f 250/563/543 249/581/563 253/582/564 254/564/544
f 249/581/563 248/583/565 252/584/566 253/582/564
f 248/585/565 247/554/534 251/553/533 252/586/566
s 48
f 257/587/567 258/570/552 262/569/551 261/588/568
f 255/547/527 256/589/569 260/590/570 259/548/528
f 256/591/569 257/587/567 261/588/568 260/592/570
s 50
f 254/565/547 253/593/571 261/594/572 262/566/548
f 253/593/571 252/595/573 260/596/574 261/594/572
f 252/595/573 251/555/535 259/558/538 260/596/574
s 56
f 268/597/575 264/598/576 271/599/577 273/600/578
f 280/601/579 277/602/580 282/603/581 285/604/582
f 272/605/583 269/606/584 284/607/585 283/608/586
f 276/609/587 278/610/588 263/611/589 266/612/590
f 263/611/589 265/613/591 267/614/592 266/612/590
f 265/615/591 264/598/576 268/597/575 267/616/592
f 271/599/577 270/617/593 274/618/594 273/600/578
f 270/619/593 269/606/584 272/605/583 274/620/594
f 276/609/587 275/621/595 279/622/596 278/610/588
f 275/623/595 277/602/580 280/601/579 279/624/596
f 282/603/581 281/625/597 286/626/598 285/604/582
f 281/627/597 283/608/586 284/607/585 286/628/598
s 60
f 299/629/599 300/630/600 301/631/601 302/632/602
s 61
f 280/633/603 315/634/604 278/635/605 279/636/606
s 60
f 303/637/607 304/638/608 301/631/601 300/630/600
f 305/639/609 300/630/600 299/629/599 306/640/610
f 307/641/611 303/637/607 300/630/600 305/639/609
f 308/642/612 303/637/607 307/641/611 309/643/613
f 310/644/614 304/638/608 303/637/607 308/642/612
f 312/645/615 311/646/616 304/638/608 310/644/614
f 301/631/601 304/638/608 311/646/616 313/647/617
f 302/632/602 301/631/601 313/647/617 314/648/618
s 62
f 276/649/619 266/650/620 287/651/621 288/652/622
f 266/650/620 267/653/623 290/654/624 287/651/621
f 267/653/623 268/655/625 289/656/626 290/654/624
f 268/655/625 273/657/627 291/658/628 289/656/626
f 273/657/627 274/659/629 293/660/630 291/658/628
f 274/659/629 272/661/631 292/662/632 293/660/630
f 272/661/631 283/663/633 294/664/634 292/662/632
f 281/665/635 282/666/636 295/667/637 296/668/638
f 283/663/633 281/665/635 296/668/638 294/664/634
f 282/666/636 277/669/639 297/670/640 295/667/637
f 277/669/639 275/671/641 298/672/642 297/670/640
f 275/671/641 276/649/619 288/652/622 298/672/642
s 60
f 288/673/643 287/674/644 299/675/599 302/676/602
f 287/674/644 290/677/645 306/678/610 299/675/599
f 290/679/645 289/680/646 305/681/609 306/682/610
f 289/680/646 291/683/647 307/684/611 305/681/609
f 291/683/647 293/685/648 309/686/613 307/684/611
f 293/687/648 292/688/649 308/689/612 309/690/613
f 292/688/649 294/691/650 310/692/614 308/689/612
f 296/693/651 295/694/652 311/695/616 312/696/615
f 294/691/650 296/697/651 312/698/615 310/692/614
f 295/694/652 297/699/653 313/700/617 311/695/616
f 297/699/653 298/701/654 314/702/618 313/700/617
f 298/703/654 288/673/643 302/676/602 314/704/618
s 61
f 263/705/655 316/706/656 264/707/657 265/708/658
f 315/634/604 316/706/656 263/705/655 278/635/605
f 284/709/659 318/710/660 285/711/661 286/712/662
f 284/709/659 269/713/663 317/714/664 318/710/660
f 271/715/665 317/714/664 269/713/663 270/716/666
f 264/707/657 316/706/656 317/714/664 271/715/665
f 318/710/660 317/714/664 316/706/656 315/634/604
f 285/711/661 318/710/660 315/634/604 280/633/603
s 65
f 319/717/667 320/718/668 328/719/669 327/720/670
f 320/718/668 321/721/671 329/722/672 328/719/669
f 321/723/671 322/724/673 330/725/674 329/726/672
f 322/724/673 323/727/675 331/728/676 330/725/674
f 323/729/675 324/730/677 332/731/678 331/732/676
f 324/730/677 325/733/679 333/734/680 332/731/678
f 325/735/679 326/736/681 334/737/682 333/738/680
f 326/736/681 319/739/667 327/740/670 334/737/682
s 66
f 320/741/683 319/742/684 335/743/685
f 321/744/686 320/741/683 335/743/685
f 322/745/687 321/744/686 335/743/685
f 323/746/688 322/745/687 335/743/685
f 324/747/689 323/746/688 335/743/685
f 325/748/690 324/747/689 335/743/685
f 326/749/691 325/748/690 335/743/685
f 319/742/684 326/749/691 335/743/685
s 67
f 327/750/692 328/751/693 336/752/694
f 328/751/693 329/753/695 336/752/694
f 329/753/695 330/754/696 336/752/694
f 330/754/696 331/755/697 336/752/694
f 331/755/697 332/756/698 336/752/694
f 332/756/698 333/757/699 336/752/694
f 333/757/699 334/758/700 336/752/694
f 334/758/700 327/750/692 336/752/694
