# This file uses centimeters as units for non-parametric coordinates.

g default
v 0.379609 -0.000000 0.041260
v 0.402660 -0.000000 0.065867
v 0.386361 -0.000000 0.058659
v 0.374578 0.010582 0.051322
v 0.381329 0.007472 0.068722
v 0.397629 0.006060 0.075929
v 0.445476 -0.000000 0.041260
v 0.438724 -0.000000 0.058659
v 0.422425 -0.000000 0.067330
v 0.450507 0.010582 0.051322
v 0.427456 0.006060 0.075929
v 0.443756 0.007472 0.068722
v 0.381329 0.007472 -0.068722
v 0.374578 0.010582 -0.051322
v 0.397629 0.006060 -0.075929
v 0.379609 -0.000000 -0.041260
v 0.386361 -0.000000 -0.058659
v 0.402660 -0.000000 -0.067330
v 0.443756 0.007472 -0.068722
v 0.427456 0.006060 -0.075929
v 0.450507 0.010582 -0.051322
v 0.445476 -0.000000 -0.041260
v 0.422425 -0.000000 -0.065867
v 0.438724 -0.000000 -0.058659
v 0.453221 0.012612 0.000000
v 0.447830 -0.000000 0.000000
v 0.377255 -0.000000 0.000000
v 0.371864 0.012612 0.000000
v 0.412543 -0.000000 -0.067330
v 0.412543 0.005472 -0.077616
v 0.412543 0.005472 0.077616
v 0.412543 -0.000000 0.067330
v 0.422425 -0.000000 0.000000
v 0.412543 -0.000000 0.000000
v 0.402660 -0.000000 0.000000
v 0.422425 -0.000000 0.041260
v 0.412543 -0.000000 0.041260
v 0.402660 -0.000000 0.041260
v 0.422425 -0.000000 -0.041260
v 0.412543 -0.000000 -0.041260
v 0.402660 -0.000000 -0.041260
v 0.445646 0.011608 0.050362
v 0.429318 0.016937 0.035547
v 0.426105 0.007423 0.071250
v 0.439843 0.008657 0.065187
v 0.398980 0.007423 0.071250
v 0.395768 0.016937 0.035547
v 0.379440 0.011608 0.050362
v 0.385242 0.008657 0.065187
v 0.412543 0.018153 0.036337
v 0.412543 0.006896 0.072786
v 0.426105 0.007423 -0.071250
v 0.439843 0.008657 -0.065187
v 0.429318 0.016937 -0.035547
v 0.445646 0.011608 -0.050362
v 0.412543 0.018153 -0.036337
v 0.412543 0.006896 -0.072786
v 0.395768 0.016937 -0.035547
v 0.379440 0.011608 -0.050362
v 0.398980 0.007423 -0.071250
v 0.385242 0.008657 -0.065187
v 0.430561 0.018153 -0.000000
v 0.448373 0.013852 -0.000000
v 0.412543 0.020285 -0.000000
v 0.376712 0.013852 0.000000
v 0.394524 0.018153 -0.000000
v -0.250000 0.000000 0.080002
v -0.230002 0.000000 0.100000
v -0.244143 0.000000 0.094143
v -0.250000 0.010000 0.080002
v -0.244143 0.010000 0.094143
v -0.230002 0.010000 0.100000
v 0.250000 0.000000 0.080002
v 0.244143 0.000000 0.094143
v 0.230002 0.000000 0.100000
v 0.250000 0.010000 0.080002
v 0.230002 0.010000 0.100000
v 0.244143 0.010000 0.094143
v -0.244143 0.010000 -0.094143
v -0.250000 0.010000 -0.080002
v -0.230002 0.010000 -0.100000
v -0.250000 0.000000 -0.080002
v -0.244143 0.000000 -0.094143
v -0.230002 0.000000 -0.100000
v 0.244143 0.010000 -0.094143
v 0.230002 0.010000 -0.100000
v 0.250000 0.010000 -0.080002
v 0.250000 0.000000 -0.080002
v 0.230002 0.000000 -0.100000
v 0.244143 0.000000 -0.094143
v -0.230002 0.010000 0.080002
v 0.230002 0.010000 0.080002
v 0.230002 0.010000 -0.080002
v -0.230002 0.010000 -0.080002
v 0.230002 0.000000 -0.080002
v -0.230002 0.000000 -0.080002
v -0.230002 0.000000 0.080002
v 0.230002 0.000000 0.080002
vt 0.794208 0.427941
vt 0.768023 0.427941
vt 0.768023 0.342279
vt 0.789992 0.321386
vt 0.789992 0.534496
vt 0.768023 0.513604
vt 0.783537 0.285261
vt 0.768023 0.306154
vt 0.768023 0.549729
vt 0.783537 0.570621
vt 0.950862 0.249235
vt 0.928892 0.228343
vt 0.928892 0.142680
vt 0.955077 0.142680
vt 0.944406 0.285360
vt 0.928892 0.264468
vt 0.928892 0.057017
vt 0.950862 0.036125
vt 0.928892 0.020892
vt 0.944406 0.000000
vt 0.818446 0.634833
vt 0.799159 0.634833
vt 0.799159 0.326234
vt 0.818446 0.326234
vt 0.799159 0.662106
vt 0.818446 0.662106
vt 0.818446 0.298961
vt 0.799159 0.298961
vt 0.958558 0.873167
vt 0.939271 0.873167
vt 0.939271 0.564569
vt 0.958558 0.564569
vt 0.958558 0.900440
vt 0.939271 0.900440
vt 0.939271 0.537296
vt 0.958558 0.537296
vt 0.887557 0.299831
vt 0.874210 0.648284
vt 0.905111 0.651780
vt 0.906500 0.302636
vt 0.868614 0.299831
vt 0.843310 0.651780
vt 0.938883 0.666713
vt 0.928458 0.687563
vt 0.906500 0.349804
vt 0.887557 0.349804
vt 0.809537 0.666713
vt 0.819962 0.687563
vt 0.868614 0.349804
vt 0.950686 0.349804
vt 0.906500 0.428893
vt 0.887557 0.428893
vt 0.824429 0.349804
vt 0.868614 0.428893
vt 0.955199 0.428893
vt 0.906500 0.507983
vt 0.887557 0.507983
vt 0.819916 0.428893
vt 0.868614 0.507983
vt 0.950686 0.507983
vt 0.887557 0.557956
vt 0.906500 0.557956
vt 0.824429 0.507983
vt 0.868614 0.555151
vt 0.937744 0.541336
vt 0.832695 0.711520
vt 0.863596 0.708024
vt 0.837370 0.541336
vt 0.801795 0.708024
vt 0.897368 0.693091
vt 0.768023 0.693091
vt 0.911545 0.053088
vt 0.879783 0.081907
vt 0.873534 0.012456
vt 0.900258 0.024249
vt 0.916851 0.151055
vt 0.882203 0.151055
vt 0.847152 0.080371
vt 0.847152 0.009468
vt 0.876163 0.003354
vt 0.907869 0.017374
vt 0.921002 0.051220
vt 0.911545 0.249021
vt 0.879783 0.220203
vt 0.847152 0.151055
vt 0.926282 0.151055
vt 0.814521 0.081907
vt 0.820770 0.012456
vt 0.847152 0.000072
vt 0.900258 0.277860
vt 0.873534 0.289653
vt 0.847152 0.221739
vt 0.921002 0.250889
vt 0.812101 0.151055
vt 0.782759 0.053088
vt 0.794046 0.024249
vt 0.818141 0.003354
vt 0.907869 0.284736
vt 0.876163 0.298756
vt 0.847152 0.292642
vt 0.814521 0.220203
vt 0.777454 0.151055
vt 0.773302 0.051220
vt 0.786435 0.017374
vt 0.847152 0.302038
vt 0.820770 0.289653
vt 0.782759 0.249021
vt 0.768023 0.151055
vt 0.818141 0.298756
vt 0.794046 0.277860
vt 0.773302 0.250889
vt 0.786435 0.284736
vt 0.038333 0.038409
vt 0.345039 0.038409
vt 0.345039 0.920175
vt 0.038333 0.920175
vt 0.345040 0.000076
vt 0.038333 0.000076
vt 0.383373 0.038409
vt 0.383373 0.920175
vt 0.038333 0.958508
vt 0.345040 0.958508
vt 0.000000 0.038409
vt 0.000000 0.920175
vt 0.372145 0.011303
vt 0.011228 0.011303
vt 0.372145 0.947280
vt 0.011228 0.947280
vt 0.422345 0.000076
vt 0.422345 0.038409
vt 0.384011 0.038409
vt 0.395239 0.011303
vt 0.729051 0.000076
vt 0.729051 0.038409
vt 0.422345 0.920175
vt 0.384011 0.920175
vt 0.756157 0.011303
vt 0.767384 0.038409
vt 0.729051 0.920175
vt 0.422345 0.958508
vt 0.395239 0.947281
vt 0.767384 0.920175
vt 0.729051 0.958508
vt 0.756157 0.947281
vt 0.979243 0.911113
vt 0.960028 0.911113
vt 0.960028 0.027246
vt 0.979243 0.027246
vt 0.960028 0.938283
vt 0.979243 0.938283
vt 0.960028 0.000076
vt 0.979243 0.000076
vt 1.000000 0.911115
vt 0.980786 0.911115
vt 0.980786 0.027246
vt 1.000000 0.027246
vt 0.980786 0.938285
vt 1.000000 0.938285
vt 0.980786 0.000076
vt 1.000000 0.000076
vt 0.832695 0.690207
vt 0.853171 0.690207
vt 0.874210 0.669598
vt 0.894686 0.672630
vt 0.937744 0.316451
vt 0.853734 0.669598
vt 0.837370 0.316451
vt 0.886943 0.672241
vt 0.778448 0.672241
vt 0.812220 0.687174
vn -0.015467 -0.869579 0.493552
vn -0.018169 -0.869906 0.492882
vn 0.172491 -0.854742 0.489553
vn 0.202973 -0.851705 0.483115
vn 0.018169 -0.869907 -0.492882
vn 0.015467 -0.869579 -0.493551
vn 0.188449 -0.865410 -0.464277
vn 0.171017 -0.867780 -0.466595
vn 0.905492 -0.424363 0.000000
vn 0.905492 -0.424363 0.000000
vn 0.883308 -0.463607 -0.069537
vn 0.834583 -0.536362 -0.125647
vn -0.834580 -0.536366 -0.125648
vn -0.883305 -0.463612 -0.069538
vn -0.905490 -0.424368 0.000000
vn -0.905490 -0.424368 0.000000
vn -0.883305 -0.463612 0.069538
vn -0.542223 -0.770426 0.335318
vn -0.466179 -0.802657 0.372045
vn -0.834580 -0.536367 0.125648
vn -0.171018 -0.867780 0.466595
vn -0.188449 -0.865410 0.464277
vn 0.558894 -0.758415 0.335328
vn 0.483010 -0.790615 0.376335
vn 0.883308 -0.463607 0.069537
vn 0.834584 -0.536361 0.125647
vn -0.483010 -0.790616 -0.376336
vn -0.558893 -0.758415 -0.335328
vn -0.202974 -0.851705 -0.483115
vn -0.172492 -0.854742 -0.489553
vn 0.466181 -0.802657 -0.372045
vn 0.542225 -0.770425 -0.335318
vn 0.162916 0.976366 0.142016
vn 0.151101 0.981605 0.116703
vn 0.043169 0.961686 0.270733
vn 0.065110 0.966102 0.249815
vn 0.000000 -1.000000 0.000000
vn 0.000000 -1.000000 0.000000
vn 0.000000 -1.000000 -0.000000
vn 0.000000 -1.000000 -0.000000
vn -0.043169 0.961686 0.270733
vn -0.151101 0.981605 0.116703
vn -0.162916 0.976366 0.142016
vn -0.065110 0.966102 0.249814
vn 0.000000 0.986914 0.161249
vn 0.000000 0.960329 0.278870
vn 0.065111 0.966102 -0.249815
vn 0.043169 0.961686 -0.270733
vn 0.151101 0.981605 -0.116703
vn 0.162917 0.976366 -0.142016
vn -0.000000 0.986914 -0.161250
vn -0.000000 0.960329 -0.278870
vn -0.162916 0.976366 -0.142016
vn -0.151101 0.981605 -0.116703
vn -0.043169 0.961686 -0.270733
vn -0.065111 0.966102 -0.249815
vn 0.183858 0.982953 -0.000000
vn 0.243697 0.969851 0.000000
vn 0.000000 1.000000 -0.000000
vn -0.243696 0.969852 0.000000
vn -0.183858 0.982953 -0.000000
vn 0.000000 -1.000000 -0.000000
vn -0.000000 -1.000000 0.000000
vn -0.000000 -1.000000 0.000000
vn 0.000000 -1.000000 0.000000
vn -0.000000 -1.000000 0.000000
vn -0.000000 -1.000000 0.000000
vn 0.000000 -1.000000 0.000000
vn 0.000000 -1.000000 0.000000
vn 0.000000 -1.000000 0.000000
vn 0.000000 -1.000000 0.000000
vn 0.000000 -1.000000 0.000000
vn 0.000000 -1.000000 -0.000000
vn 0.000000 -1.000000 0.000000
vn 0.000000 -1.000000 0.000000
vn 0.000000 -1.000000 0.000000
vn 0.000000 -1.000000 -0.000000
vn -0.000000 -1.000000 0.000000
vn 0.000000 -1.000000 0.000000
vn -0.000000 -1.000000 0.000000
vn 0.000000 -1.000000 0.000000
vn 0.000000 -1.000000 0.000000
vn 0.016966 0.960415 0.278057
vn 0.082449 0.964209 0.252001
vn 0.197856 0.975221 0.098976
vn -0.197855 0.975222 0.098976
vn -0.082448 0.964209 0.252000
vn -0.016966 0.960415 0.278056
vn 0.000000 0.959420 0.281981
vn 0.082449 0.964208 -0.252001
vn 0.016966 0.960415 -0.278057
vn 0.197857 0.975221 -0.098976
vn 0.000000 0.959420 -0.281981
vn -0.016966 0.960415 -0.278056
vn -0.082448 0.964209 -0.252000
vn -0.197855 0.975222 -0.098976
vn 0.222379 0.974960 -0.000000
vn -0.222377 0.974961 -0.000000
vn -0.012352 0.000000 0.999924
vn -0.012352 0.000000 0.999924
vn 0.012352 0.000000 0.999924
vn 0.012352 0.000000 0.999924
vn -0.012352 0.000000 -0.999924
vn -0.012352 0.000000 -0.999924
vn 0.012352 0.000000 -0.999924
vn 0.012352 0.000000 -0.999924
vn 0.999435 0.000000 0.033616
vn 0.999435 0.000000 0.033616
vn 0.999435 0.000000 -0.033616
vn 0.999435 0.000000 -0.033616
vn -0.999435 0.000000 -0.033616
vn -0.999435 0.000000 -0.033616
vn -0.999435 0.000000 0.033616
vn -0.999435 0.000000 0.033616
vn -0.707107 0.000000 0.707107
vn -0.707107 0.000000 0.707107
vn 0.707107 0.000000 0.707107
vn 0.707107 0.000000 0.707107
vn -0.707107 0.000000 -0.707107
vn -0.707107 0.000000 -0.707107
vn 0.707107 0.000000 -0.707107
vn 0.707107 0.000000 -0.707107
vn 0.000000 1.000000 0.000000
vn 0.000000 1.000000 0.000000
vn 0.000000 1.000000 0.000000
vn 0.000000 1.000000 0.000000
vn 0.000000 -1.000000 0.000000
vn 0.000000 -1.000000 0.000000
vn 0.000000 -1.000000 0.000000
vn 0.000000 -1.000000 0.000000
vn 0.000000 1.000000 0.000000
vn 0.000000 1.000000 0.000000
vn 0.000000 1.000000 0.000000
vn 0.000000 1.000000 0.000000
vn 0.000000 1.000000 0.000000
vn 0.000000 1.000000 0.000000
vn 0.000000 1.000000 0.000000
vn 0.000000 1.000000 0.000000
vn 0.000000 1.000000 0.000000
vn 0.000000 1.000000 0.000000
vn 0.000000 1.000000 0.000000
vn 0.000000 1.000000 0.000000
vn 0.000000 -1.000000 0.000000
vn 0.000000 -1.000000 0.000000
vn 0.000000 -1.000000 0.000000
vn 0.000000 -1.000000 0.000000
vn 0.000000 -1.000000 0.000000
vn 0.000000 -1.000000 0.000000
vn 0.000000 -1.000000 0.000000
vn 0.000000 -1.000000 0.000000
vn 0.000000 -1.000000 0.000000
vn 0.000000 -1.000000 0.000000
vn 0.000000 -1.000000 0.000000
vn 0.000000 -1.000000 0.000000
s 1
g pCube9
f 31/66/1 32/161/2 9/162/3 11/67/4
f 29/163/5 30/38/6 20/39/7 23/164/8
f 25/1/9 26/2/10 22/3/11 21/4/12
f 14/11/13 16/12/14 27/13/15 28/14/16
f 1/17/17 3/19/18 5/20/19 4/18/20
f 3/169/18 2/170/21 6/69/22 5/71/19
f 9/162/3 8/168/23 12/70/24 11/67/4
f 8/9/23 7/6/25 10/5/26 12/10/24
f 14/11/13 13/15/27 17/16/28 16/12/14
f 13/47/27 15/42/29 18/166/30 17/48/28
f 20/39/7 19/43/31 24/44/32 23/164/8
f 19/7/31 21/4/12 22/3/11 24/8/32
s 6
f 42/72/33 43/73/34 44/74/35 45/75/36
s 7
f 22/50/37 39/45/38 23/40/39 24/165/40
s 6
f 46/88/41 47/87/42 48/95/43 49/96/44
f 44/74/35 43/73/34 50/78/45 51/79/46
f 53/90/47 52/91/48 54/84/49 55/83/50
f 56/92/51 54/84/49 52/91/48 57/100/52
f 59/107/53 58/101/54 60/106/55 61/110/56
f 55/83/50 54/84/49 62/77/57 63/76/58
f 64/85/59 62/77/57 54/84/49 56/92/51
f 65/102/60 66/94/61 58/101/54 59/107/53
f 63/76/58 62/77/57 43/73/34 42/72/33
s 1
f 10/5/26 7/6/25 26/2/10 25/1/9
s 7
f 7/60/62 36/56/63 33/51/64 26/55/65
s 1
f 28/14/16 27/13/15 1/17/17 4/18/20
s 6
f 48/95/43 47/87/42 66/94/61 65/102/60
f 50/78/45 43/73/34 62/77/57 64/85/59
s 1
f 18/166/30 15/42/29 30/38/6 29/163/5
s 6
f 58/101/54 56/92/51 57/100/52 60/106/55
f 66/94/61 64/85/59 56/92/51 58/101/54
f 47/87/42 50/78/45 64/85/59 66/94/61
f 51/79/46 50/78/45 47/87/42 46/88/41
s 1
f 6/69/22 2/170/21 32/161/2 31/66/1
s 7
f 36/56/63 37/57/66 34/52/67 33/51/64
f 23/40/39 39/45/38 40/46/68 29/37/69
f 37/57/66 38/59/70 35/54/71 34/52/67
f 29/37/69 40/46/68 41/49/72 18/41/73
f 27/58/74 35/54/71 38/59/70 1/63/75
f 18/41/73 41/49/72 16/53/76 17/167/77
f 9/62/78 36/56/63 7/60/62 8/65/79
f 32/61/80 37/57/66 36/56/63 9/62/78
f 2/64/81 38/59/70 37/57/66 32/61/80
f 1/63/75 38/59/70 2/64/81 3/68/82
f 22/50/37 26/55/65 33/51/64 39/45/38
f 40/46/68 39/45/38 33/51/64 34/52/67
f 41/49/72 40/46/68 34/52/67 35/54/71
f 16/53/76 41/49/72 35/54/71 27/58/74
s 6
f 11/80/83 12/81/84 45/75/36 44/74/35
f 12/81/84 10/82/85 42/72/33 45/75/36
f 4/103/86 5/104/87 49/96/44 48/95/43
f 5/104/87 6/97/88 46/88/41 49/96/44
f 31/89/89 11/80/83 44/74/35 51/79/46
f 19/98/90 20/99/91 52/91/48 53/90/47
f 21/93/92 19/98/90 53/90/47 55/83/50
f 20/99/91 30/105/93 57/100/52 52/91/48
f 15/109/94 13/112/95 61/110/56 60/106/55
f 13/112/95 14/111/96 59/107/53 61/110/56
f 25/86/97 21/93/92 55/83/50 63/76/58
f 14/111/96 28/108/98 65/102/60 59/107/53
f 10/82/85 25/86/97 63/76/58 42/72/33
f 28/108/98 4/103/86 48/95/43 65/102/60
f 30/105/93 15/109/94 60/106/55 57/100/52
f 6/97/88 31/89/89 51/79/46 46/88/41
s 12
f 72/145/99 68/146/100 75/147/101 77/148/102
f 84/153/103 81/154/104 86/155/105 89/156/106
f 76/21/107 73/22/108 88/23/109 87/24/110
f 80/29/111 82/30/112 67/31/113 70/32/114
f 67/31/113 69/35/115 71/36/116 70/32/114
f 69/149/115 68/146/100 72/145/99 71/150/116
f 75/147/101 74/151/117 78/152/118 77/148/102
f 74/25/117 73/22/108 76/21/107 78/26/118
f 80/29/111 79/33/119 83/34/120 82/30/112
f 79/157/119 81/154/104 84/153/103 83/158/120
f 86/155/105 85/159/121 90/160/122 89/156/106
f 85/27/121 87/24/110 88/23/109 90/28/122
s 16
f 92/113/123 93/114/124 94/115/125 91/116/126
s 17
f 88/129/127 95/130/128 89/131/129 90/132/130
s 16
f 70/121/131 91/116/126 94/115/125 80/122/132
f 72/124/133 91/116/126 70/121/131 71/128/134
f 77/123/135 92/113/123 91/116/126 72/124/133
f 76/118/136 92/113/123 77/123/135 78/126/137
f 87/117/138 93/114/124 92/113/123 76/118/136
f 85/125/139 86/119/140 93/114/124 87/117/138
f 94/115/125 93/114/124 86/119/140 81/120/141
f 80/122/132 94/115/125 81/120/141 79/127/142
s 17
f 84/136/143 96/135/144 82/140/145 83/141/146
f 98/134/147 73/133/148 74/137/149 75/138/150
f 67/143/151 97/139/152 68/142/153 69/144/154
f 89/131/129 95/130/128 96/135/144 84/136/143
f 68/142/153 97/139/152 98/134/147 75/138/150
f 82/140/145 96/135/144 97/139/152 67/143/151
f 98/134/147 97/139/152 96/135/144 95/130/128
f 88/129/127 73/133/148 98/134/147 95/130/128
