# This file uses centimeters as units for non-parametric coordinates.

mtllib TubosDeEnsayo.mtl
g default
v 0.177763 0.891193 -0.020809
v 0.156954 0.891193 -0.029429
v 0.136145 0.891193 -0.020809
v 0.127525 0.891193 0.000000
v 0.136145 0.891193 0.020809
v 0.156954 0.891193 0.029429
v 0.177763 0.891193 0.020809
v 0.186383 0.891193 0.000000
v 0.177763 1.038338 -0.020809
v 0.156954 1.038338 -0.029429
v 0.136145 1.038338 -0.020809
v 0.127525 1.038338 0.000000
v 0.136145 1.038338 0.020809
v 0.156954 1.038338 0.029429
v 0.177763 1.038338 0.020809
v 0.186383 1.038338 0.000000
v 0.156954 1.038338 0.000000
v 0.172132 0.876479 -0.015178
v 0.156954 0.876479 -0.021465
v 0.141776 0.876479 -0.015178
v 0.135488 0.876479 0.000000
v 0.141776 0.876479 0.015178
v 0.156954 0.876479 0.021465
v 0.172132 0.876479 0.015178
v 0.178419 0.876479 0.000000
v 0.156954 0.869122 -0.000000
v 0.073042 0.891193 -0.020809
v 0.052232 0.891193 -0.029429
v 0.031423 0.891193 -0.020809
v 0.022804 0.891193 0.000000
v 0.031423 0.891193 0.020809
v 0.052232 0.891193 0.029429
v 0.073042 0.891193 0.020809
v 0.081661 0.891193 0.000000
v 0.073042 1.038338 -0.020809
v 0.052232 1.038338 -0.029429
v 0.031423 1.038338 -0.020809
v 0.022804 1.038338 0.000000
v 0.031423 1.038338 0.020809
v 0.052232 1.038338 0.029429
v 0.073042 1.038338 0.020809
v 0.081661 1.038338 0.000000
v 0.052232 1.038338 0.000000
v 0.067411 0.876479 -0.015178
v 0.052232 0.876479 -0.021465
v 0.037054 0.876479 -0.015178
v 0.030767 0.876479 0.000000
v 0.037054 0.876479 0.015178
v 0.052232 0.876479 0.021465
v 0.067411 0.876479 0.015178
v 0.073698 0.876479 0.000000
v 0.052232 0.869122 -0.000000
v -0.031509 0.891193 -0.020809
v -0.052318 0.891193 -0.029429
v -0.073127 0.891193 -0.020809
v -0.081747 0.891193 0.000000
v -0.073127 0.891193 0.020809
v -0.052318 0.891193 0.029429
v -0.031509 0.891193 0.020809
v -0.022889 0.891193 0.000000
v -0.031509 1.038338 -0.020809
v -0.052318 1.038338 -0.029429
v -0.073127 1.038338 -0.020809
v -0.081747 1.038338 0.000000
v -0.073127 1.038338 0.020809
v -0.052318 1.038338 0.029429
v -0.031509 1.038338 0.020809
v -0.022889 1.038338 0.000000
v -0.052318 1.038338 0.000000
v -0.037140 0.876479 -0.015178
v -0.052318 0.876479 -0.021465
v -0.067496 0.876479 -0.015178
v -0.073783 0.876479 0.000000
v -0.067496 0.876479 0.015178
v -0.052318 0.876479 0.021465
v -0.037140 0.876479 0.015178
v -0.030852 0.876479 0.000000
v -0.052318 0.869122 -0.000000
v -0.136145 0.891193 -0.020809
v -0.156954 0.891193 -0.029429
v -0.177763 0.891193 -0.020809
v -0.186383 0.891193 0.000000
v -0.177763 0.891193 0.020809
v -0.156954 0.891193 0.029429
v -0.136145 0.891193 0.020809
v -0.127525 0.891193 0.000000
v -0.136145 1.038338 -0.020809
v -0.156954 1.038338 -0.029429
v -0.177763 1.038338 -0.020809
v -0.186383 1.038338 0.000000
v -0.177763 1.038338 0.020809
v -0.156954 1.038338 0.029429
v -0.136145 1.038338 0.020809
v -0.127525 1.038338 0.000000
v -0.156954 1.038338 0.000000
v -0.141775 0.876479 -0.015178
v -0.156954 0.876479 -0.021465
v -0.172132 0.876479 -0.015178
v -0.178419 0.876479 0.000000
v -0.172132 0.876479 0.015178
v -0.156954 0.876479 0.021465
v -0.141775 0.876479 0.015178
v -0.135488 0.876479 0.000000
v -0.156954 0.869122 -0.000000
vt 0.275730 0.015512
vt 0.323532 0.015512
vt 0.323532 0.150717
vt 0.275730 0.150717
vt 0.288665 0.001992
vt 0.323532 0.001992
vt 0.371334 0.015512
vt 0.371334 0.150717
vt 0.358399 0.001992
vt 0.376687 0.015512
vt 0.424489 0.015512
vt 0.424489 0.150717
vt 0.376687 0.150717
vt 0.389622 0.001992
vt 0.424489 0.001992
vt 0.472292 0.015512
vt 0.472292 0.150717
vt 0.459356 0.001992
vt 0.674590 0.472856
vt 0.694390 0.520658
vt 0.626788 0.520658
vt 0.674590 0.568460
vt 0.626788 0.453056
vt 0.626788 0.588261
vt 0.578986 0.472856
vt 0.578986 0.568460
vt 0.559186 0.520658
vt 0.942428 0.461642
vt 0.977295 0.476084
vt 0.942428 0.510951
vt 0.942428 0.443349
vt 0.990230 0.463149
vt 0.991737 0.510951
vt 0.907561 0.476084
vt 0.894626 0.463149
vt 0.977295 0.545818
vt 0.893119 0.510951
vt 0.942428 0.560261
vt 0.907561 0.545818
vt 0.990230 0.558753
vt 0.942428 0.578554
vt 0.894626 0.558753
vt 0.250962 0.587622
vt 0.203160 0.587622
vt 0.203160 0.452417
vt 0.250962 0.452417
vt 0.155357 0.587622
vt 0.155357 0.452417
vt 0.456288 0.453126
vt 0.504090 0.453126
vt 0.504090 0.588331
vt 0.456288 0.588331
vt 0.551892 0.453126
vt 0.551892 0.588331
vt 0.351919 0.589564
vt 0.304117 0.589564
vt 0.304117 0.454359
vt 0.351919 0.454359
vt 0.256315 0.589564
vt 0.256315 0.454359
vt 0.479585 0.015512
vt 0.527387 0.015512
vt 0.527387 0.150717
vt 0.479585 0.150717
vt 0.575189 0.015512
vt 0.575189 0.150717
vt 0.766923 0.453126
vt 0.814725 0.453126
vt 0.814725 0.588331
vt 0.766923 0.588331
vt 0.862527 0.453126
vt 0.862527 0.588331
vt 0.582483 0.015512
vt 0.630285 0.015512
vt 0.630285 0.150717
vt 0.582483 0.150717
vt 0.678087 0.015512
vt 0.678087 0.150717
vt 0.756132 0.581580
vt 0.775932 0.629382
vt 0.708330 0.629382
vt 0.756132 0.677184
vt 0.708330 0.696984
vt 0.660528 0.677184
vt 0.640727 0.629382
vt 0.660528 0.581580
vt 0.708330 0.561779
vt 0.051289 0.563721
vt 0.099091 0.583521
vt 0.086156 0.596456
vt 0.051289 0.582014
vt 0.003487 0.583521
vt 0.016422 0.596456
vt 0.492520 0.001992
vt 0.527387 0.001992
vt 0.562254 0.001992
vt 0.051289 0.698925
vt 0.003487 0.679125
vt 0.016422 0.666190
vt 0.051289 0.680632
vt 0.099091 0.679125
vt 0.086156 0.666190
vt 0.595418 0.001992
vt 0.630285 0.001992
vt 0.665152 0.001992
vt 0.051289 0.631323
vt 0.001980 0.631323
vt 0.100598 0.631323
vt 0.965425 0.715761
vt 0.917623 0.715761
vt 0.917623 0.580556
vt 0.965425 0.580556
vt 0.869821 0.715761
vt 0.869821 0.580556
vt 0.685381 0.015512
vt 0.733183 0.015512
vt 0.733183 0.150717
vt 0.685381 0.150717
vt 0.780985 0.015512
vt 0.780985 0.150717
vt 0.104879 0.592913
vt 0.152681 0.592913
vt 0.152681 0.728118
vt 0.104879 0.728118
vt 0.200483 0.592913
vt 0.200483 0.728118
vt 0.788279 0.015512
vt 0.836081 0.015512
vt 0.836081 0.150717
vt 0.788279 0.150717
vt 0.883883 0.015512
vt 0.883883 0.150717
vt 0.451321 0.595170
vt 0.471121 0.642972
vt 0.403519 0.642972
vt 0.451321 0.690774
vt 0.403519 0.710575
vt 0.355717 0.690774
vt 0.335916 0.642972
vt 0.355717 0.595170
vt 0.403519 0.575370
vt 0.585197 0.581195
vt 0.632999 0.600995
vt 0.620064 0.613930
vt 0.585197 0.599488
vt 0.537395 0.600995
vt 0.550330 0.613930
vt 0.698316 0.001992
vt 0.733183 0.001992
vt 0.768050 0.001992
vt 0.585197 0.716399
vt 0.537395 0.696599
vt 0.550330 0.683664
vt 0.585197 0.698106
vt 0.632999 0.696599
vt 0.620064 0.683664
vt 0.801214 0.001992
vt 0.836081 0.001992
vt 0.870948 0.001992
vt 0.585197 0.648797
vt 0.535888 0.648797
vt 0.634507 0.648797
vt 0.301440 0.729351
vt 0.253638 0.729351
vt 0.253638 0.594146
vt 0.301440 0.594146
vt 0.205836 0.729351
vt 0.205836 0.594146
vt 0.891177 0.015512
vt 0.938979 0.015512
vt 0.938979 0.150717
vt 0.891177 0.150717
vt 0.986781 0.015512
vt 0.986781 0.150717
vt 0.766923 0.662807
vt 0.814725 0.662807
vt 0.814725 0.798012
vt 0.766923 0.798012
vt 0.862527 0.662807
vt 0.862527 0.798012
vt 0.275730 0.168890
vt 0.323532 0.168890
vt 0.323532 0.304095
vt 0.275730 0.304095
vt 0.371334 0.168890
vt 0.371334 0.304095
vt 0.534804 0.703894
vt 0.554604 0.751696
vt 0.487002 0.751696
vt 0.534804 0.799498
vt 0.487002 0.819298
vt 0.439200 0.799498
vt 0.419400 0.751696
vt 0.439200 0.703894
vt 0.487002 0.684093
vt 0.672563 0.687977
vt 0.720366 0.707777
vt 0.707430 0.720712
vt 0.672563 0.706270
vt 0.624761 0.707777
vt 0.637697 0.720712
vt 0.904112 0.001992
vt 0.938979 0.001992
vt 0.973846 0.001992
vt 0.672563 0.823181
vt 0.624761 0.803381
vt 0.637697 0.790446
vt 0.672563 0.804888
vt 0.720366 0.803381
vt 0.707430 0.790446
vt 0.288665 0.155370
vt 0.323532 0.155370
vt 0.358399 0.155370
vt 0.672563 0.755579
vt 0.623254 0.755579
vt 0.721873 0.755579
vn 0.706586 -0.038378 -0.706586
vn -0.000000 -0.038378 -0.999263
vn 0.000000 0.000000 -1.000000
vn 0.707107 0.000000 -0.707107
vn -0.706586 -0.038378 -0.706586
vn -0.707107 0.000000 -0.707107
vn -0.999263 -0.038378 0.000000
vn -1.000000 0.000000 0.000000
vn -0.706586 -0.038378 0.706586
vn -0.707107 0.000000 0.707107
vn -0.000000 -0.038378 0.999263
vn -0.000000 0.000000 1.000000
vn 0.706586 -0.038378 0.706586
vn 0.707107 0.000000 0.707107
vn 0.999263 -0.038378 -0.000000
vn 1.000000 0.000000 -0.000000
vn 0.000000 1.000000 0.000003
vn 0.000000 1.000000 0.000000
vn 0.000000 1.000000 0.000000
vn 0.000000 1.000000 0.000003
vn 0.000000 1.000000 0.000000
vn 0.000000 1.000000 -0.000003
vn 0.000000 1.000000 0.000000
vn 0.000000 1.000000 -0.000003
vn 0.000000 1.000000 -0.000000
vn 0.541191 -0.643602 -0.541192
vn -0.000000 -0.643601 -0.765361
vn -0.541191 -0.643601 -0.541193
vn -0.765361 -0.643602 -0.000001
vn -0.541191 -0.643602 0.541192
vn -0.000001 -0.643601 0.765361
vn 0.541191 -0.643601 0.541193
vn 0.765360 -0.643602 0.000001
vn 0.000000 -1.000000 0.000000
vn 0.706586 -0.038378 -0.706586
vn 0.000000 -0.038378 -0.999263
vn 0.000000 0.000000 -1.000000
vn 0.707107 0.000000 -0.707107
vn -0.706586 -0.038378 -0.706586
vn -0.707107 0.000000 -0.707107
vn -0.999263 -0.038378 -0.000000
vn -1.000000 0.000000 0.000000
vn -0.706586 -0.038378 0.706586
vn -0.707107 0.000000 0.707107
vn -0.000000 -0.038378 0.999263
vn -0.000000 0.000000 1.000000
vn 0.706586 -0.038378 0.706586
vn 0.707107 0.000000 0.707107
vn 0.999263 -0.038378 -0.000000
vn 1.000000 0.000000 -0.000000
vn 0.000000 1.000000 0.000003
vn 0.000000 1.000000 0.000000
vn 0.000000 1.000000 0.000001
vn 0.000000 1.000000 0.000003
vn 0.000000 1.000000 0.000003
vn 0.000000 1.000000 0.000000
vn 0.000000 1.000000 0.000000
vn 0.000000 1.000000 -0.000003
vn 0.000000 1.000000 -0.000000
vn 0.541192 -0.643602 -0.541190
vn -0.000000 -0.643603 -0.765360
vn -0.541192 -0.643602 -0.541191
vn -0.765361 -0.643602 0.000000
vn -0.541192 -0.643602 0.541191
vn -0.000001 -0.643602 0.765360
vn 0.541192 -0.643602 0.541192
vn 0.765361 -0.643602 0.000001
vn 0.000000 -1.000000 0.000002
vn 0.706586 -0.038378 -0.706586
vn 0.000000 -0.038378 -0.999263
vn 0.000000 0.000000 -1.000000
vn 0.707107 0.000000 -0.707107
vn -0.706586 -0.038378 -0.706586
vn -0.707107 0.000000 -0.707107
vn -0.999263 -0.038378 -0.000000
vn -1.000000 0.000000 0.000000
vn -0.706586 -0.038378 0.706586
vn -0.707107 0.000000 0.707107
vn -0.000000 -0.038378 0.999263
vn -0.000000 0.000000 1.000000
vn 0.706586 -0.038378 0.706586
vn 0.707107 0.000000 0.707107
vn 0.999263 -0.038378 0.000000
vn 1.000000 0.000000 0.000000
vn 0.000000 1.000000 0.000000
vn 0.000000 1.000000 0.000000
vn 0.000000 1.000000 -0.000001
vn 0.000000 1.000000 0.000003
vn 0.000000 1.000000 0.000000
vn 0.000000 1.000000 -0.000003
vn 0.000000 1.000000 0.000000
vn 0.000000 1.000000 -0.000003
vn 0.000000 1.000000 -0.000003
vn 0.541192 -0.643601 -0.541192
vn 0.000000 -0.643601 -0.765361
vn -0.541192 -0.643602 -0.541191
vn -0.765361 -0.643602 0.000001
vn -0.541192 -0.643602 0.541191
vn -0.000001 -0.643601 0.765361
vn 0.541191 -0.643602 0.541192
vn 0.765361 -0.643602 -0.000000
vn 0.000000 -1.000000 0.000001
vn 0.706586 -0.038378 -0.706586
vn -0.000000 -0.038378 -0.999263
vn 0.000000 0.000000 -1.000000
vn 0.707107 0.000000 -0.707107
vn -0.706586 -0.038378 -0.706586
vn -0.707107 0.000000 -0.707107
vn -0.999263 -0.038378 0.000000
vn -1.000000 0.000000 0.000000
vn -0.706586 -0.038378 0.706586
vn -0.707107 0.000000 0.707107
vn -0.000000 -0.038378 0.999263
vn -0.000000 0.000000 1.000000
vn 0.706586 -0.038378 0.706586
vn 0.707107 0.000000 0.707107
vn 0.999263 -0.038378 -0.000000
vn 1.000000 0.000000 -0.000000
vn 0.000000 1.000000 0.000003
vn 0.000000 1.000000 0.000000
vn 0.000000 1.000000 0.000000
vn 0.000000 1.000000 0.000003
vn 0.000000 1.000000 0.000000
vn 0.000000 1.000000 -0.000003
vn 0.000000 1.000000 0.000000
vn 0.000000 1.000000 -0.000003
vn 0.000000 1.000000 -0.000000
vn 0.541192 -0.643601 -0.541192
vn -0.000000 -0.643601 -0.765361
vn -0.541192 -0.643602 -0.541191
vn -0.765361 -0.643601 0.000001
vn -0.541192 -0.643602 0.541192
vn -0.000001 -0.643601 0.765361
vn 0.541191 -0.643601 0.541193
vn 0.765361 -0.643602 0.000001
vn 0.000000 -1.000000 0.000001
s 1
g pCylinder17
usemtl initialShadingGroup
f 1/43/1 2/44/2 10/45/3 9/46/4
f 2/44/2 3/47/5 11/48/6 10/45/3
f 3/1/5 4/2/7 12/3/8 11/4/6
f 4/2/7 5/7/9 13/8/10 12/3/8
f 5/49/9 6/50/11 14/51/12 13/52/10
f 6/50/11 7/53/13 15/54/14 14/51/12
f 7/10/13 8/11/15 16/12/16 15/13/14
f 8/11/15 1/16/1 9/17/4 16/12/16
s 2
f 9/19/17 10/20/18 17/21/19
f 10/20/18 11/22/20 17/21/19
f 11/22/20 12/24/21 17/21/19
f 12/24/21 13/26/22 17/21/19
f 13/26/22 14/27/23 17/21/19
f 14/27/23 15/25/24 17/21/19
f 15/25/24 16/23/25 17/21/19
f 16/23/25 9/19/17 17/21/19
s 1
f 2/31/2 1/32/1 18/29/26 19/28/27
f 3/35/5 2/31/2 19/28/27 20/34/28
f 4/2/7 3/1/5 20/5/28 21/6/29
f 5/7/9 4/2/7 21/6/29 22/9/30
f 6/41/11 5/42/9 22/39/30 23/38/31
f 7/40/13 6/41/11 23/38/31 24/36/32
f 8/11/15 7/10/13 24/14/32 25/15/33
f 1/16/1 8/11/15 25/15/33 18/18/26
f 19/28/27 18/29/26 26/30/34
f 20/34/28 19/28/27 26/30/34
f 21/37/29 20/34/28 26/30/34
f 22/39/30 21/37/29 26/30/34
f 23/38/31 22/39/30 26/30/34
f 24/36/32 23/38/31 26/30/34
f 25/33/33 24/36/32 26/30/34
f 18/29/26 25/33/33 26/30/34
s 3
f 27/55/35 28/56/36 36/57/37 35/58/38
f 28/56/36 29/59/39 37/60/40 36/57/37
f 29/61/39 30/62/41 38/63/42 37/64/40
f 30/62/41 31/65/43 39/66/44 38/63/42
f 31/67/43 32/68/45 40/69/46 39/70/44
f 32/68/45 33/71/47 41/72/48 40/69/46
f 33/73/47 34/74/49 42/75/50 41/76/48
f 34/74/49 27/77/35 35/78/38 42/75/50
s 4
f 35/79/51 36/80/52 43/81/53
f 36/80/52 37/82/54 43/81/53
f 37/82/54 38/83/55 43/81/53
f 38/83/55 39/84/56 43/81/53
f 39/84/56 40/85/57 43/81/53
f 40/85/57 41/86/58 43/81/53
f 41/86/58 42/87/59 43/81/53
f 42/87/59 35/79/51 43/81/53
s 3
f 28/88/36 27/89/35 44/90/60 45/91/61
f 29/92/39 28/88/36 45/91/61 46/93/62
f 30/62/41 29/61/39 46/94/62 47/95/63
f 31/65/43 30/62/41 47/95/63 48/96/64
f 32/97/45 31/98/43 48/99/64 49/100/65
f 33/101/47 32/97/45 49/100/65 50/102/66
f 34/74/49 33/73/47 50/103/66 51/104/67
f 27/77/35 34/74/49 51/104/67 44/105/60
f 45/91/61 44/90/60 52/106/68
f 46/93/62 45/91/61 52/106/68
f 47/107/63 46/93/62 52/106/68
f 48/99/64 47/107/63 52/106/68
f 49/100/65 48/99/64 52/106/68
f 50/102/66 49/100/65 52/106/68
f 51/108/67 50/102/66 52/106/68
f 44/90/60 51/108/67 52/106/68
s 5
f 53/109/69 54/110/70 62/111/71 61/112/72
f 54/110/70 55/113/73 63/114/74 62/111/71
f 55/115/73 56/116/75 64/117/76 63/118/74
f 56/116/75 57/119/77 65/120/78 64/117/76
f 57/121/77 58/122/79 66/123/80 65/124/78
f 58/122/79 59/125/81 67/126/82 66/123/80
f 59/127/81 60/128/83 68/129/84 67/130/82
f 60/128/83 53/131/69 61/132/72 68/129/84
s 6
f 61/133/85 62/134/86 69/135/87
f 62/134/86 63/136/88 69/135/87
f 63/136/88 64/137/89 69/135/87
f 64/137/89 65/138/90 69/135/87
f 65/138/90 66/139/91 69/135/87
f 66/139/91 67/140/92 69/135/87
f 67/140/92 68/141/93 69/135/87
f 68/141/93 61/133/85 69/135/87
s 5
f 54/142/70 53/143/69 70/144/94 71/145/95
f 55/146/73 54/142/70 71/145/95 72/147/96
f 56/116/75 55/115/73 72/148/96 73/149/97
f 57/119/77 56/116/75 73/149/97 74/150/98
f 58/151/79 57/152/77 74/153/98 75/154/99
f 59/155/81 58/151/79 75/154/99 76/156/100
f 60/128/83 59/127/81 76/157/100 77/158/101
f 53/131/69 60/128/83 77/158/101 70/159/94
f 71/145/95 70/144/94 78/160/102
f 72/147/96 71/145/95 78/160/102
f 73/161/97 72/147/96 78/160/102
f 74/153/98 73/161/97 78/160/102
f 75/154/99 74/153/98 78/160/102
f 76/156/100 75/154/99 78/160/102
f 77/162/101 76/156/100 78/160/102
f 70/144/94 77/162/101 78/160/102
s 7
f 79/163/103 80/164/104 88/165/105 87/166/106
f 80/164/104 81/167/107 89/168/108 88/165/105
f 81/169/107 82/170/109 90/171/110 89/172/108
f 82/170/109 83/173/111 91/174/112 90/171/110
f 83/175/111 84/176/113 92/177/114 91/178/112
f 84/176/113 85/179/115 93/180/116 92/177/114
f 85/181/115 86/182/117 94/183/118 93/184/116
f 86/182/117 79/185/103 87/186/106 94/183/118
s 8
f 87/187/119 88/188/120 95/189/121
f 88/188/120 89/190/122 95/189/121
f 89/190/122 90/191/123 95/189/121
f 90/191/123 91/192/124 95/189/121
f 91/192/124 92/193/125 95/189/121
f 92/193/125 93/194/126 95/189/121
f 93/194/126 94/195/127 95/189/121
f 94/195/127 87/187/119 95/189/121
s 7
f 80/196/104 79/197/103 96/198/128 97/199/129
f 81/200/107 80/196/104 97/199/129 98/201/130
f 82/170/109 81/169/107 98/202/130 99/203/131
f 83/173/111 82/170/109 99/203/131 100/204/132
f 84/205/113 83/206/111 100/207/132 101/208/133
f 85/209/115 84/205/113 101/208/133 102/210/134
f 86/182/117 85/181/115 102/211/134 103/212/135
f 79/185/103 86/182/117 103/212/135 96/213/128
f 97/199/129 96/198/128 104/214/136
f 98/201/130 97/199/129 104/214/136
f 99/215/131 98/201/130 104/214/136
f 100/207/132 99/215/131 104/214/136
f 101/208/133 100/207/132 104/214/136
f 102/210/134 101/208/133 104/214/136
f 103/216/135 102/210/134 104/214/136
f 96/198/128 103/216/135 104/214/136
g default
v -0.128670 0.890022 -0.028284
v -0.156954 0.890022 -0.040000
v -0.185238 0.890022 -0.028284
v -0.196954 0.890022 0.000000
v -0.185238 0.890022 0.028284
v -0.156954 0.890022 0.040000
v -0.128670 0.890022 0.028284
v -0.116954 0.890022 0.000000
v -0.128670 1.158734 -0.028284
v -0.156954 1.158734 -0.040000
v -0.185238 1.158734 -0.028284
v -0.196954 1.158734 0.000000
v -0.185238 1.158734 0.028284
v -0.156954 1.158734 0.040000
v -0.128670 1.158734 0.028284
v -0.116954 1.158734 0.000000
v -0.136323 0.870022 -0.020631
v -0.156954 0.870022 -0.029176
v -0.177584 0.870022 -0.020631
v -0.186130 0.870022 0.000000
v -0.177584 0.870022 0.020631
v -0.156954 0.870022 0.029176
v -0.136323 0.870022 0.020631
v -0.127778 0.870022 0.000000
v -0.156954 0.860022 -0.000000
v -0.136323 1.158734 -0.020631
v -0.156954 1.158734 -0.029176
v -0.177584 1.158734 -0.020631
v -0.186130 1.158734 0.000000
v -0.177584 1.158734 0.020631
v -0.156954 1.158734 0.029176
v -0.136323 1.158734 0.020631
v -0.127778 1.158734 0.000000
v -0.136323 0.905011 -0.020631
v -0.156954 0.905011 -0.029176
v -0.177584 0.905011 -0.020629
v -0.186130 0.905011 -0.000001
v -0.177584 0.905011 0.020629
v -0.156954 0.905011 0.029176
v -0.136323 0.905011 0.020631
v -0.127778 0.905011 0.000000
v -0.143977 0.885011 -0.012977
v -0.156954 0.885011 -0.018352
v -0.156954 0.870022 -0.000000
v -0.169931 0.885011 -0.012976
v -0.175306 0.885011 -0.000001
v -0.169931 0.885011 0.012976
v -0.156954 0.885011 0.018352
v -0.143977 0.885011 0.012977
v -0.138602 0.885011 -0.000000
v -0.024034 0.890022 -0.028284
v -0.052318 0.890022 -0.040000
v -0.080602 0.890022 -0.028284
v -0.092318 0.890022 0.000000
v -0.080602 0.890022 0.028284
v -0.052318 0.890022 0.040000
v -0.024034 0.890022 0.028284
v -0.012318 0.890022 0.000000
v -0.024034 1.158734 -0.028284
v -0.052318 1.158734 -0.040000
v -0.080602 1.158734 -0.028284
v -0.092318 1.158734 0.000000
v -0.080602 1.158734 0.028284
v -0.052318 1.158734 0.040000
v -0.024034 1.158734 0.028284
v -0.012318 1.158734 0.000000
v -0.031687 0.870022 -0.020631
v -0.052318 0.870022 -0.029176
v -0.072949 0.870022 -0.020631
v -0.081494 0.870022 0.000000
v -0.072949 0.870022 0.020631
v -0.052318 0.870022 0.029176
v -0.031687 0.870022 0.020631
v -0.023142 0.870022 0.000000
v -0.052318 0.860022 -0.000000
v -0.031687 1.158734 -0.020631
v -0.052318 1.158734 -0.029176
v -0.072949 1.158734 -0.020631
v -0.081494 1.158734 0.000000
v -0.072949 1.158734 0.020631
v -0.052318 1.158734 0.029176
v -0.031687 1.158734 0.020631
v -0.023142 1.158734 0.000000
v -0.031687 0.905011 -0.020631
v -0.052318 0.905011 -0.029176
v -0.072949 0.905011 -0.020629
v -0.081494 0.905011 -0.000001
v -0.072949 0.905011 0.020629
v -0.052318 0.905011 0.029176
v -0.031687 0.905011 0.020631
v -0.023142 0.905011 0.000000
v -0.039341 0.885011 -0.012977
v -0.052318 0.885011 -0.018352
v -0.052318 0.870022 -0.000000
v -0.065295 0.885011 -0.012976
v -0.070670 0.885011 -0.000001
v -0.065295 0.885011 0.012976
v -0.052318 0.885011 0.018352
v -0.039341 0.885011 0.012977
v -0.033966 0.885011 -0.000000
v 0.080517 0.890022 -0.028284
v 0.052232 0.890022 -0.040000
v 0.023948 0.890022 -0.028284
v 0.012232 0.890022 0.000000
v 0.023948 0.890022 0.028284
v 0.052232 0.890022 0.040000
v 0.080517 0.890022 0.028284
v 0.092232 0.890022 0.000000
v 0.080517 1.158734 -0.028284
v 0.052232 1.158734 -0.040000
v 0.023948 1.158734 -0.028284
v 0.012232 1.158734 0.000000
v 0.023948 1.158734 0.028284
v 0.052232 1.158734 0.040000
v 0.080517 1.158734 0.028284
v 0.092232 1.158734 0.000000
v 0.072863 0.870022 -0.020631
v 0.052232 0.870022 -0.029176
v 0.031602 0.870022 -0.020631
v 0.023056 0.870022 0.000000
v 0.031602 0.870022 0.020631
v 0.052232 0.870022 0.029176
v 0.072863 0.870022 0.020631
v 0.081409 0.870022 0.000000
v 0.052232 0.860022 -0.000000
v 0.072863 1.158734 -0.020631
v 0.052232 1.158734 -0.029176
v 0.031602 1.158734 -0.020631
v 0.023056 1.158734 0.000000
v 0.031602 1.158734 0.020631
v 0.052232 1.158734 0.029176
v 0.072863 1.158734 0.020631
v 0.081409 1.158734 0.000000
v 0.072863 0.905011 -0.020631
v 0.052232 0.905011 -0.029176
v 0.031602 0.905011 -0.020629
v 0.023056 0.905011 -0.000001
v 0.031602 0.905011 0.020629
v 0.052232 0.905011 0.029176
v 0.072863 0.905011 0.020631
v 0.081409 0.905011 0.000000
v 0.065209 0.885011 -0.012977
v 0.052233 0.885011 -0.018352
v 0.052232 0.870022 -0.000000
v 0.039255 0.885011 -0.012976
v 0.033880 0.885011 -0.000001
v 0.039256 0.885011 0.012976
v 0.052233 0.885011 0.018352
v 0.065209 0.885011 0.012977
v 0.070585 0.885011 -0.000000
v 0.185238 0.890022 -0.028284
v 0.156954 0.890022 -0.040000
v 0.128670 0.890022 -0.028284
v 0.116954 0.890022 0.000000
v 0.128670 0.890022 0.028284
v 0.156954 0.890022 0.040000
v 0.185238 0.890022 0.028284
v 0.196954 0.890022 0.000000
v 0.185238 1.158734 -0.028284
v 0.156954 1.158734 -0.040000
v 0.128670 1.158734 -0.028284
v 0.116954 1.158734 0.000000
v 0.128670 1.158734 0.028284
v 0.156954 1.158734 0.040000
v 0.185238 1.158734 0.028284
v 0.196954 1.158734 0.000000
v 0.177584 0.870022 -0.020631
v 0.156954 0.870022 -0.029176
v 0.136323 0.870022 -0.020631
v 0.127778 0.870022 0.000000
v 0.136323 0.870022 0.020631
v 0.156954 0.870022 0.029176
v 0.177584 0.870022 0.020631
v 0.186130 0.870022 0.000000
v 0.156954 0.860022 -0.000000
v 0.177584 1.158734 -0.020631
v 0.156954 1.158734 -0.029176
v 0.136323 1.158734 -0.020631
v 0.127778 1.158734 0.000000
v 0.136323 1.158734 0.020631
v 0.156954 1.158734 0.029176
v 0.177584 1.158734 0.020631
v 0.186130 1.158734 0.000000
v 0.177584 0.905011 -0.020631
v 0.156954 0.905011 -0.029176
v 0.136323 0.905011 -0.020629
v 0.127778 0.905011 -0.000001
v 0.136323 0.905011 0.020629
v 0.156954 0.905011 0.029176
v 0.177584 0.905011 0.020631
v 0.186130 0.905011 0.000000
v 0.169931 0.885011 -0.012977
v 0.156954 0.885011 -0.018352
v 0.156954 0.870022 -0.000000
v 0.143977 0.885011 -0.012976
v 0.138602 0.885011 -0.000001
v 0.143977 0.885011 0.012976
v 0.156954 0.885011 0.018352
v 0.169931 0.885011 0.012977
v 0.175306 0.885011 -0.000000
vt 0.376687 0.167567
vt 0.412480 0.167567
vt 0.412480 0.303583
vt 0.376687 0.303583
vt 0.386373 0.157443
vt 0.412480 0.157443
vt 0.448272 0.167567
vt 0.448272 0.303583
vt 0.438586 0.157443
vt 0.454346 0.167567
vt 0.490138 0.167567
vt 0.490138 0.303583
vt 0.454346 0.303583
vt 0.464031 0.157443
vt 0.490138 0.157443
vt 0.525931 0.167567
vt 0.525931 0.303583
vt 0.516245 0.157443
vt 0.054194 0.414427
vt 0.028087 0.414427
vt 0.028087 0.285997
vt 0.054192 0.285997
vt 0.001980 0.414427
vt 0.001981 0.285997
vt 0.028087 0.275874
vt 0.044507 0.275874
vt 0.011666 0.275874
vt 0.112438 0.414427
vt 0.086331 0.414427
vt 0.086331 0.285997
vt 0.112438 0.285997
vt 0.060224 0.414427
vt 0.060224 0.285997
vt 0.086331 0.275874
vt 0.102753 0.275874
vt 0.069910 0.275874
vt 0.151290 0.925066
vt 0.134869 0.931868
vt 0.134869 0.908645
vt 0.160976 0.934752
vt 0.134869 0.945565
vt 0.118447 0.925065
vt 0.158092 0.908645
vt 0.108762 0.934750
vt 0.111645 0.908645
vt 0.151290 0.892223
vt 0.118447 0.892224
vt 0.134869 0.885421
vt 0.134869 0.871724
vt 0.160976 0.882538
vt 0.108762 0.882539
vt 0.514565 0.829241
vt 0.540672 0.840055
vt 0.514565 0.866162
vt 0.514565 0.815544
vt 0.550357 0.830370
vt 0.551485 0.866162
vt 0.488458 0.840055
vt 0.478772 0.830370
vt 0.540672 0.892269
vt 0.477644 0.866162
vt 0.514565 0.903083
vt 0.488458 0.892269
vt 0.550357 0.901954
vt 0.514565 0.916780
vt 0.478772 0.901954
vt 0.373789 0.847529
vt 0.388615 0.883321
vt 0.374918 0.883321
vt 0.364104 0.857214
vt 0.373789 0.919113
vt 0.364104 0.909428
vt 0.337997 0.832703
vt 0.337997 0.846400
vt 0.337997 0.933939
vt 0.337997 0.920242
vt 0.302205 0.847529
vt 0.311890 0.857214
vt 0.302205 0.919113
vt 0.311890 0.909428
vt 0.287379 0.883321
vt 0.301076 0.883321
vt 0.527872 0.446837
vt 0.492080 0.446837
vt 0.492080 0.310821
vt 0.527872 0.310821
vt 0.456288 0.446837
vt 0.456288 0.310821
vt 0.533947 0.310341
vt 0.569739 0.310341
vt 0.569739 0.446357
vt 0.533947 0.446357
vt 0.605531 0.310341
vt 0.605531 0.446357
vt 0.359008 0.825721
vt 0.332901 0.825721
vt 0.332901 0.697292
vt 0.359008 0.697292
vt 0.306794 0.825721
vt 0.306794 0.697292
vt 0.013629 0.701174
vt 0.039736 0.701174
vt 0.039736 0.829603
vt 0.013629 0.829603
vt 0.065843 0.701174
vt 0.065843 0.829603
vt 0.683190 0.446837
vt 0.647398 0.446837
vt 0.647398 0.310821
vt 0.683190 0.310821
vt 0.611605 0.446837
vt 0.611605 0.310821
vt 0.532005 0.167567
vt 0.567797 0.167567
vt 0.567797 0.303583
vt 0.532005 0.303583
vt 0.603589 0.167567
vt 0.603589 0.303583
vt 0.689264 0.310341
vt 0.725056 0.310341
vt 0.725056 0.446357
vt 0.689264 0.446357
vt 0.760849 0.310341
vt 0.760849 0.446357
vt 0.609664 0.167567
vt 0.645456 0.167567
vt 0.645456 0.303583
vt 0.609664 0.303583
vt 0.681248 0.167567
vt 0.681248 0.303583
vt 0.566768 0.961955
vt 0.550346 0.968757
vt 0.550346 0.945534
vt 0.533924 0.961954
vt 0.527122 0.945534
vt 0.533925 0.929113
vt 0.550346 0.922310
vt 0.566768 0.929112
vt 0.573570 0.945534
vt 0.700946 0.819427
vt 0.736738 0.834253
vt 0.727053 0.843938
vt 0.700946 0.833124
vt 0.665154 0.834253
vt 0.674839 0.843938
vt 0.541690 0.157443
vt 0.567797 0.157443
vt 0.593904 0.157443
vt 0.700946 0.920663
vt 0.665154 0.905837
vt 0.674839 0.896152
vt 0.700946 0.906966
vt 0.736738 0.905837
vt 0.727053 0.896152
vt 0.619349 0.157443
vt 0.645456 0.157443
vt 0.671563 0.157443
vt 0.700946 0.870045
vt 0.664025 0.870045
vt 0.737867 0.870045
vt 0.965939 0.872768
vt 0.980764 0.908561
vt 0.967067 0.908561
vt 0.956253 0.882454
vt 0.965939 0.944353
vt 0.956253 0.934668
vt 0.930146 0.959179
vt 0.930146 0.945481
vt 0.894354 0.944353
vt 0.904039 0.934668
vt 0.879529 0.908561
vt 0.893226 0.908561
vt 0.894354 0.872768
vt 0.904039 0.882454
vt 0.930146 0.857943
vt 0.930146 0.871640
vt 0.611400 0.849019
vt 0.585293 0.849019
vt 0.585293 0.720590
vt 0.611400 0.720590
vt 0.559186 0.849019
vt 0.559186 0.720590
vt 0.168741 0.414427
vt 0.142635 0.414427
vt 0.142635 0.285997
vt 0.168740 0.285997
vt 0.116528 0.414427
vt 0.116529 0.285997
vt 0.869821 0.722531
vt 0.895928 0.722531
vt 0.895928 0.850961
vt 0.869821 0.850961
vt 0.922035 0.722531
vt 0.922035 0.850961
vt 0.225045 0.414427
vt 0.198938 0.414427
vt 0.198938 0.285997
vt 0.225045 0.285997
vt 0.172831 0.414427
vt 0.172831 0.285997
vt 0.576453 0.971640
vt 0.550346 0.982454
vt 0.524239 0.971639
vt 0.142635 0.275874
vt 0.159055 0.275874
vt 0.126214 0.275874
vt 0.524239 0.919428
vt 0.550346 0.908613
vt 0.576453 0.919426
vt 0.198938 0.275874
vt 0.215359 0.275874
vt 0.182516 0.275874
vt 0.838508 0.446837
vt 0.802715 0.446837
vt 0.802715 0.310821
vt 0.838508 0.310821
vt 0.766923 0.446837
vt 0.766923 0.310821
vt 0.687323 0.167567
vt 0.723115 0.167567
vt 0.723115 0.303583
vt 0.687323 0.303583
vt 0.758907 0.167567
vt 0.758907 0.303583
vt 0.844582 0.310341
vt 0.880374 0.310341
vt 0.880374 0.446357
vt 0.844582 0.446357
vt 0.916166 0.310341
vt 0.916166 0.446357
vt 0.764982 0.167567
vt 0.800774 0.167567
vt 0.800774 0.303583
vt 0.764982 0.303583
vt 0.836566 0.167567
vt 0.836566 0.303583
vt 0.753149 0.967779
vt 0.736728 0.974581
vt 0.736727 0.951358
vt 0.720306 0.967778
vt 0.713504 0.951358
vt 0.720306 0.934937
vt 0.736728 0.928134
vt 0.753149 0.934936
vt 0.759951 0.951358
vt 0.619404 0.854374
vt 0.655196 0.869200
vt 0.645511 0.878885
vt 0.619404 0.868071
vt 0.583612 0.869200
vt 0.593297 0.878885
vt 0.697008 0.157443
vt 0.723115 0.157443
vt 0.749222 0.157443
vt 0.619404 0.955610
vt 0.583612 0.940784
vt 0.593297 0.931099
vt 0.619404 0.941913
vt 0.655196 0.940784
vt 0.645511 0.931099
vt 0.774667 0.157443
vt 0.800774 0.157443
vt 0.826881 0.157443
vt 0.619404 0.904992
vt 0.582483 0.904992
vt 0.656325 0.904992
vt 0.088390 0.876651
vt 0.103216 0.912443
vt 0.089518 0.912443
vt 0.078705 0.886336
vt 0.088390 0.948235
vt 0.078705 0.938550
vt 0.052598 0.963061
vt 0.052598 0.949363
vt 0.016805 0.948235
vt 0.026491 0.938550
vt 0.001980 0.912443
vt 0.015677 0.912443
vt 0.016805 0.876651
vt 0.026491 0.886336
vt 0.052598 0.861825
vt 0.052598 0.875522
vt 0.980279 0.850961
vt 0.954172 0.850961
vt 0.954172 0.722531
vt 0.980279 0.722531
vt 0.928065 0.850961
vt 0.928065 0.722531
vt 0.281348 0.447432
vt 0.255241 0.447432
vt 0.255242 0.319003
vt 0.281346 0.319003
vt 0.229134 0.447432
vt 0.229136 0.319003
vt 0.071873 0.734180
vt 0.097980 0.734180
vt 0.097980 0.862609
vt 0.071873 0.862609
vt 0.124087 0.734180
vt 0.124087 0.862609
vt 0.337651 0.449373
vt 0.311544 0.449373
vt 0.311544 0.320944
vt 0.337651 0.320944
vt 0.285437 0.449373
vt 0.285437 0.320944
vt 0.762834 0.977464
vt 0.736727 0.988278
vt 0.710620 0.977463
vt 0.255242 0.308879
vt 0.271661 0.308879
vt 0.238821 0.308879
vt 0.710620 0.925252
vt 0.736727 0.914437
vt 0.762834 0.925251
vt 0.311544 0.310821
vt 0.327966 0.310821
vt 0.295123 0.310821
vt 0.073564 0.557502
vt 0.037772 0.557502
vt 0.037772 0.421485
vt 0.073564 0.421485
vt 0.001980 0.557502
vt 0.001980 0.421485
vt 0.842641 0.167567
vt 0.878433 0.167567
vt 0.878433 0.303583
vt 0.842641 0.303583
vt 0.914225 0.167567
vt 0.914225 0.303583
vt 0.079639 0.421005
vt 0.115432 0.421005
vt 0.115432 0.557022
vt 0.079639 0.557022
vt 0.151224 0.421005
vt 0.151224 0.557022
vt 0.920299 0.167567
vt 0.956092 0.167567
vt 0.956092 0.303583
vt 0.920299 0.303583
vt 0.991884 0.167567
vt 0.991884 0.303583
vt 0.865754 0.967779
vt 0.849333 0.974581
vt 0.849333 0.951358
vt 0.832911 0.967778
vt 0.826109 0.951358
vt 0.832911 0.934938
vt 0.849333 0.928134
vt 0.865754 0.934936
vt 0.872556 0.951358
vt 0.246640 0.867964
vt 0.282432 0.882790
vt 0.272747 0.892475
vt 0.246640 0.881661
vt 0.210848 0.882790
vt 0.220533 0.892475
vt 0.852326 0.157443
vt 0.878433 0.157443
vt 0.904540 0.157443
vt 0.246640 0.969200
vt 0.210848 0.954374
vt 0.220533 0.944689
vt 0.246640 0.955503
vt 0.282432 0.954374
vt 0.272747 0.944689
vt 0.929985 0.157443
vt 0.956092 0.157443
vt 0.982198 0.157443
vt 0.246640 0.918582
vt 0.209719 0.918582
vt 0.283561 0.918582
vt 0.478629 0.911598
vt 0.493455 0.947390
vt 0.479758 0.947390
vt 0.468944 0.921283
vt 0.478629 0.983182
vt 0.468944 0.973497
vt 0.442837 0.998008
vt 0.442837 0.984311
vt 0.407045 0.983182
vt 0.416730 0.973497
vt 0.392219 0.947390
vt 0.405916 0.947390
vt 0.407045 0.911598
vt 0.416730 0.921283
vt 0.442837 0.896772
vt 0.442837 0.910469
vt 0.180390 0.864550
vt 0.154284 0.864550
vt 0.154284 0.736121
vt 0.180390 0.736121
vt 0.128177 0.864550
vt 0.128177 0.736121
vt 0.393955 0.449373
vt 0.367848 0.449373
vt 0.367848 0.320944
vt 0.393953 0.320944
vt 0.341741 0.449373
vt 0.341742 0.320944
vt 0.184480 0.736121
vt 0.210587 0.736121
vt 0.210587 0.864550
vt 0.184480 0.864550
vt 0.236694 0.736121
vt 0.236694 0.864550
vt 0.450257 0.449373
vt 0.424150 0.449373
vt 0.424150 0.320944
vt 0.450257 0.320944
vt 0.398044 0.449373
vt 0.398044 0.320944
vt 0.875440 0.977465
vt 0.849333 0.988279
vt 0.823226 0.977463
vt 0.367848 0.310821
vt 0.384268 0.310821
vt 0.351427 0.310821
vt 0.823226 0.925253
vt 0.849333 0.914437
vt 0.875440 0.925251
vt 0.424150 0.310821
vt 0.440572 0.310821
vt 0.407729 0.310821
vn 0.706807 -0.029102 -0.706807
vn 0.000000 -0.029102 -0.999577
vn 0.000000 0.000000 -1.000000
vn 0.707107 0.000000 -0.707107
vn -0.706807 -0.029102 -0.706807
vn -0.707107 0.000000 -0.707107
vn -0.999577 -0.029102 -0.000000
vn -1.000000 0.000000 0.000000
vn -0.706807 -0.029102 0.706807
vn -0.707107 0.000000 0.707107
vn -0.000000 -0.029102 0.999577
vn -0.000000 0.000000 1.000000
vn 0.706807 -0.029102 0.706807
vn 0.707107 0.000000 0.707107
vn 0.999576 -0.029102 0.000000
vn 1.000000 0.000000 -0.000000
vn -0.590284 0.550571 0.590285
vn 0.000028 0.550573 0.834787
vn -0.000005 1.000000 0.000003
vn 0.590279 0.550566 0.590295
vn 0.834786 0.550574 -0.000002
vn 0.590291 0.550569 -0.590281
vn 0.000027 0.550576 -0.834785
vn -0.590284 0.550575 -0.590281
vn -0.834786 0.550574 0.000002
vn 0.541192 -0.643601 -0.541192
vn 0.000000 -0.643601 -0.765361
vn -0.541192 -0.643601 -0.541192
vn -0.765361 -0.643601 -0.000000
vn -0.541192 -0.643601 0.541192
vn -0.000001 -0.643601 0.765361
vn 0.541191 -0.643601 0.541193
vn 0.765361 -0.643601 0.000001
vn 0.000000 -1.000000 -0.000000
vn 0.000000 1.000000 0.000002
vn 0.000000 1.000000 0.000002
vn 0.000000 1.000000 0.000002
vn 0.000000 1.000000 0.000002
vn 0.000000 1.000000 -0.000002
vn 0.000000 1.000000 -0.000002
vn 0.000000 1.000000 -0.000000
vn 0.000000 1.000000 -0.000000
vn 0.000000 1.000000 -0.000000
vn 0.000000 1.000000 0.000000
vn 0.000000 1.000000 -0.000002
vn 0.000000 1.000000 -0.000002
vn 0.000000 1.000000 0.000000
vn 0.000000 1.000000 0.000000
vn 0.000000 1.000000 0.000000
vn 0.000000 1.000000 0.000000
vn -0.707107 -0.000000 0.707107
vn 0.000015 0.000001 1.000000
vn 0.000016 0.029037 0.999578
vn -0.706809 0.029035 0.706809
vn 0.707102 0.000001 0.707111
vn 0.706805 0.029037 0.706812
vn 1.000000 0.000001 -0.000001
vn 0.999578 0.029036 0.000000
vn 0.707110 0.000002 -0.707104
vn 0.706813 0.029038 -0.706804
vn 0.000015 0.000001 -1.000000
vn 0.000016 0.029037 -0.999578
vn -0.707107 0.000000 -0.707107
vn -0.706809 0.029036 -0.706809
vn -1.000000 -0.000000 0.000000
vn -0.999578 0.029036 -0.000000
vn 0.706807 -0.029102 -0.706807
vn 0.000000 -0.029102 -0.999577
vn 0.000000 0.000000 -1.000000
vn 0.707107 0.000000 -0.707107
vn -0.706807 -0.029102 -0.706807
vn -0.707107 0.000000 -0.707107
vn -0.999577 -0.029102 -0.000000
vn -1.000000 0.000000 0.000000
vn -0.706807 -0.029102 0.706807
vn -0.707107 0.000000 0.707107
vn -0.000000 -0.029102 0.999577
vn -0.000000 0.000000 1.000000
vn 0.706807 -0.029102 0.706807
vn 0.707107 0.000000 0.707107
vn 0.999576 -0.029102 0.000000
vn 1.000000 0.000000 0.000000
vn -0.590284 0.550571 0.590284
vn 0.000027 0.550573 0.834787
vn -0.000005 1.000000 0.000002
vn 0.590279 0.550566 0.590294
vn 0.834787 0.550574 -0.000002
vn 0.590291 0.550569 -0.590280
vn 0.000027 0.550576 -0.834785
vn -0.590285 0.550575 -0.590281
vn -0.834786 0.550574 0.000001
vn 0.541191 -0.643601 -0.541193
vn 0.000000 -0.643601 -0.765362
vn -0.541192 -0.643601 -0.541192
vn -0.765361 -0.643601 -0.000000
vn -0.541192 -0.643602 0.541191
vn -0.000001 -0.643601 0.765361
vn 0.541191 -0.643601 0.541193
vn 0.765361 -0.643601 0.000000
vn 0.000000 -1.000000 -0.000000
vn 0.000000 1.000000 -0.000004
vn 0.000000 1.000000 -0.000002
vn 0.000000 1.000000 -0.000002
vn 0.000000 1.000000 -0.000004
vn 0.000000 1.000000 -0.000002
vn 0.000000 1.000000 -0.000002
vn 0.000000 1.000000 0.000000
vn 0.000000 1.000000 0.000000
vn 0.000000 1.000000 -0.000000
vn 0.000000 1.000000 0.000000
vn 0.000000 1.000000 -0.000002
vn 0.000000 1.000000 -0.000002
vn 0.000000 1.000000 0.000000
vn 0.000000 1.000000 0.000000
vn 0.000000 1.000000 -0.000002
vn 0.000000 1.000000 -0.000002
vn -0.707107 -0.000000 0.707107
vn 0.000015 0.000001 1.000000
vn 0.000016 0.029037 0.999578
vn -0.706809 0.029035 0.706809
vn 0.707102 0.000001 0.707111
vn 0.706805 0.029037 0.706812
vn 1.000000 0.000001 -0.000001
vn 0.999578 0.029036 0.000000
vn 0.707110 0.000002 -0.707104
vn 0.706813 0.029038 -0.706804
vn 0.000015 0.000001 -1.000000
vn 0.000016 0.029037 -0.999578
vn -0.707107 0.000000 -0.707107
vn -0.706809 0.029036 -0.706809
vn -1.000000 -0.000000 -0.000000
vn -0.999578 0.029036 -0.000000
vn 0.706807 -0.029102 -0.706807
vn -0.000000 -0.029102 -0.999577
vn -0.000000 0.000000 -1.000000
vn 0.707107 0.000000 -0.707107
vn -0.706807 -0.029102 -0.706807
vn -0.707107 0.000000 -0.707107
vn -0.999577 -0.029102 0.000000
vn -1.000000 0.000000 0.000000
vn -0.706807 -0.029102 0.706807
vn -0.707107 0.000000 0.707107
vn -0.000000 -0.029102 0.999576
vn -0.000000 0.000000 1.000000
vn 0.706807 -0.029102 0.706807
vn 0.707107 0.000000 0.707107
vn 0.999576 -0.029102 0.000000
vn 1.000000 0.000000 0.000000
vn -0.590284 0.550572 0.590284
vn 0.000028 0.550573 0.834787
vn -0.000005 1.000000 0.000001
vn 0.590279 0.550566 0.590295
vn 0.834787 0.550574 -0.000002
vn 0.590290 0.550569 -0.590281
vn 0.000027 0.550576 -0.834785
vn -0.590284 0.550575 -0.590281
vn -0.834786 0.550574 0.000001
vn 0.541192 -0.643601 -0.541192
vn -0.000000 -0.643601 -0.765362
vn -0.541191 -0.643601 -0.541193
vn -0.765361 -0.643601 0.000000
vn -0.541192 -0.643601 0.541192
vn -0.000001 -0.643601 0.765361
vn 0.541192 -0.643601 0.541192
vn 0.765361 -0.643601 0.000000
vn 0.000000 -1.000000 -0.000000
vn 0.000000 1.000000 0.000000
vn 0.000000 1.000000 0.000002
vn 0.000000 1.000000 0.000002
vn 0.000000 1.000000 -0.000000
vn 0.000000 1.000000 0.000000
vn 0.000000 1.000000 0.000000
vn 0.000000 1.000000 0.000002
vn 0.000000 1.000000 0.000002
vn 0.000000 1.000000 0.000004
vn 0.000000 1.000000 0.000004
vn 0.000000 1.000000 0.000002
vn 0.000000 1.000000 0.000002
vn 0.000000 1.000000 0.000002
vn 0.000000 1.000000 0.000002
vn 0.000000 1.000000 -0.000000
vn 0.000000 1.000000 -0.000000
vn -0.707107 0.000000 0.707107
vn 0.000015 0.000001 1.000000
vn 0.000016 0.029037 0.999578
vn -0.706809 0.029035 0.706809
vn 0.707102 0.000001 0.707111
vn 0.706805 0.029037 0.706812
vn 1.000000 0.000001 -0.000001
vn 0.999578 0.029036 0.000000
vn 0.707110 0.000002 -0.707104
vn 0.706813 0.029038 -0.706804
vn 0.000015 0.000001 -1.000000
vn 0.000016 0.029037 -0.999578
vn -0.707107 0.000000 -0.707107
vn -0.706809 0.029036 -0.706809
vn -1.000000 0.000000 0.000000
vn -0.999578 0.029036 -0.000000
vn 0.706807 -0.029102 -0.706807
vn 0.000000 -0.029102 -0.999577
vn 0.000000 0.000000 -1.000000
vn 0.707107 0.000000 -0.707107
vn -0.706807 -0.029102 -0.706807
vn -0.707107 0.000000 -0.707107
vn -0.999577 -0.029102 -0.000000
vn -1.000000 0.000000 0.000000
vn -0.706807 -0.029102 0.706807
vn -0.707107 0.000000 0.707107
vn -0.000000 -0.029102 0.999577
vn -0.000000 0.000000 1.000000
vn 0.706807 -0.029102 0.706807
vn 0.707107 0.000000 0.707107
vn 0.999576 -0.029102 0.000000
vn 1.000000 0.000000 0.000000
vn -0.590284 0.550571 0.590285
vn 0.000027 0.550573 0.834787
vn -0.000005 1.000000 0.000003
vn 0.590279 0.550566 0.590295
vn 0.834787 0.550573 -0.000002
vn 0.590290 0.550569 -0.590280
vn 0.000027 0.550577 -0.834785
vn -0.590284 0.550575 -0.590281
vn -0.834787 0.550573 0.000002
vn 0.541192 -0.643601 -0.541192
vn -0.000000 -0.643601 -0.765362
vn -0.541192 -0.643601 -0.541192
vn -0.765361 -0.643601 -0.000000
vn -0.541192 -0.643602 0.541192
vn -0.000001 -0.643601 0.765361
vn 0.541192 -0.643601 0.541192
vn 0.765361 -0.643602 0.000000
vn 0.000000 -1.000000 -0.000000
vn 0.000000 1.000000 0.000000
vn 0.000000 1.000000 0.000002
vn 0.000000 1.000000 0.000002
vn 0.000000 1.000000 -0.000000
vn 0.000000 1.000000 -0.000002
vn 0.000000 1.000000 -0.000002
vn 0.000000 1.000000 0.000000
vn 0.000000 1.000000 0.000000
vn 0.000000 1.000000 -0.000000
vn 0.000000 1.000000 -0.000000
vn 0.000000 1.000000 -0.000002
vn 0.000000 1.000000 -0.000002
vn 0.000000 1.000000 0.000002
vn 0.000000 1.000000 0.000002
vn 0.000000 1.000000 -0.000000
vn 0.000000 1.000000 -0.000000
vn -0.707107 0.000000 0.707107
vn 0.000015 0.000001 1.000000
vn 0.000016 0.029037 0.999578
vn -0.706809 0.029035 0.706809
vn 0.707102 0.000001 0.707111
vn 0.706805 0.029037 0.706812
vn 1.000000 0.000001 -0.000001
vn 0.999578 0.029036 0.000000
vn 0.707110 0.000002 -0.707104
vn 0.706813 0.029038 -0.706804
vn 0.000015 0.000001 -1.000000
vn 0.000016 0.029037 -0.999578
vn -0.707107 0.000000 -0.707107
vn -0.706809 0.029036 -0.706809
vn -1.000000 0.000000 0.000000
vn -0.999578 0.029036 -0.000000
s 1
g pCylinder16
usemtl initialShadingGroup
f 105/299/137 106/300/138 114/301/139 113/302/140
f 106/300/138 107/303/141 115/304/142 114/301/139
f 107/217/141 108/218/143 116/219/144 115/220/142
f 108/218/143 109/223/145 117/224/146 116/219/144
f 109/305/145 110/306/147 118/307/148 117/308/146
f 110/306/147 111/309/149 119/310/150 118/307/148
f 111/226/149 112/227/151 120/228/152 119/229/150
f 112/227/151 105/232/137 113/233/140 120/228/152
s 2
f 146/253/153 147/254/154 148/255/155
f 147/254/154 149/258/156 148/255/155
f 149/258/156 150/261/157 148/255/155
f 150/261/157 151/263/158 148/255/155
f 151/263/158 152/264/159 148/255/155
f 152/264/159 153/262/160 148/255/155
f 153/262/160 154/259/161 148/255/155
f 154/259/161 146/253/153 148/255/155
s 1
f 106/271/138 105/272/137 121/269/162 122/268/163
f 107/275/141 106/271/138 122/268/163 123/274/164
f 108/218/143 107/217/141 123/221/164 124/222/165
f 109/223/145 108/218/143 124/222/165 125/225/166
f 110/281/147 109/282/145 125/279/166 126/278/167
f 111/280/149 110/281/147 126/278/167 127/276/168
f 112/227/151 111/226/149 127/230/168 128/231/169
f 105/232/137 112/227/151 128/231/169 121/234/162
f 122/268/163 121/269/162 129/270/170
f 123/274/164 122/268/163 129/270/170
f 124/277/165 123/274/164 129/270/170
f 125/279/166 124/277/165 129/270/170
f 126/278/167 125/279/166 129/270/170
f 127/276/168 126/278/167 129/270/170
f 128/273/169 127/276/168 129/270/170
f 121/269/162 128/273/169 129/270/170
s 3
f 113/283/171 114/284/172 131/285/173 130/286/174
f 114/284/172 115/287/175 132/288/176 131/285/173
f 115/287/175 116/291/177 133/292/178 132/288/176
f 116/291/177 117/295/179 134/296/180 133/292/178
f 117/295/179 118/297/181 135/298/182 134/296/180
f 118/297/181 119/293/183 136/294/184 135/298/182
f 119/293/183 120/289/185 137/290/186 136/294/184
f 120/289/185 113/283/171 130/286/174 137/290/186
s 2
f 130/311/187 131/312/188 139/313/189 138/314/190
f 131/312/188 132/315/191 140/316/192 139/313/189
f 132/235/191 133/236/193 141/237/194 140/238/192
f 133/236/193 134/239/195 142/240/196 141/237/194
f 134/317/195 135/318/197 143/319/198 142/320/196
f 135/318/197 136/321/199 144/322/200 143/319/198
f 136/244/199 137/245/201 145/246/202 144/247/200
f 137/245/201 130/248/187 138/249/190 145/246/202
f 138/256/190 139/257/189 147/254/154 146/253/153
f 139/257/189 140/260/192 149/258/156 147/254/154
f 140/238/192 141/237/194 150/241/157 149/242/156
f 141/237/194 142/240/196 151/243/158 150/241/157
f 142/267/196 143/265/198 152/264/159 151/263/158
f 143/265/198 144/266/200 153/262/160 152/264/159
f 144/247/200 145/246/202 154/250/161 153/251/160
f 145/246/202 138/249/190 146/252/153 154/250/161
s 5
f 155/323/203 156/324/204 164/325/205 163/326/206
f 156/324/204 157/327/207 165/328/208 164/325/205
f 157/329/207 158/330/209 166/331/210 165/332/208
f 158/330/209 159/333/211 167/334/212 166/331/210
f 159/335/211 160/336/213 168/337/214 167/338/212
f 160/336/213 161/339/215 169/340/216 168/337/214
f 161/341/215 162/342/217 170/343/218 169/344/216
f 162/342/217 155/345/203 163/346/206 170/343/218
s 6
f 196/347/219 197/348/220 198/349/221
f 197/348/220 199/350/222 198/349/221
f 199/350/222 200/351/223 198/349/221
f 200/351/223 201/352/224 198/349/221
f 201/352/224 202/353/225 198/349/221
f 202/353/225 203/354/226 198/349/221
f 203/354/226 204/355/227 198/349/221
f 204/355/227 196/347/219 198/349/221
s 5
f 156/356/204 155/357/203 171/358/228 172/359/229
f 157/360/207 156/356/204 172/359/229 173/361/230
f 158/330/209 157/329/207 173/362/230 174/363/231
f 159/333/211 158/330/209 174/363/231 175/364/232
f 160/365/213 159/366/211 175/367/232 176/368/233
f 161/369/215 160/365/213 176/368/233 177/370/234
f 162/342/217 161/341/215 177/371/234 178/372/235
f 155/345/203 162/342/217 178/372/235 171/373/228
f 172/359/229 171/358/228 179/374/236
f 173/361/230 172/359/229 179/374/236
f 174/375/231 173/361/230 179/374/236
f 175/367/232 174/375/231 179/374/236
f 176/368/233 175/367/232 179/374/236
f 177/370/234 176/368/233 179/374/236
f 178/376/235 177/370/234 179/374/236
f 171/358/228 178/376/235 179/374/236
s 7
f 163/377/237 164/378/238 181/379/239 180/380/240
f 164/378/238 165/381/241 182/382/242 181/379/239
f 165/381/241 166/383/243 183/384/244 182/382/242
f 166/383/243 167/385/245 184/386/246 183/384/244
f 167/385/245 168/387/247 185/388/248 184/386/246
f 168/387/247 169/389/249 186/390/250 185/388/248
f 169/389/249 170/391/251 187/392/252 186/390/250
f 170/391/251 163/377/237 180/380/240 187/392/252
s 6
f 180/393/253 181/394/254 189/395/255 188/396/256
f 181/394/254 182/397/257 190/398/258 189/395/255
f 182/399/257 183/400/259 191/401/260 190/402/258
f 183/400/259 184/403/261 192/404/262 191/401/260
f 184/405/261 185/406/263 193/407/264 192/408/262
f 185/406/263 186/409/265 194/410/266 193/407/264
f 186/411/265 187/412/267 195/413/268 194/414/266
f 187/412/267 180/415/253 188/416/256 195/413/268
f 188/417/256 189/418/255 197/348/220 196/347/219
f 189/418/255 190/419/258 199/350/222 197/348/220
f 190/402/258 191/401/260 200/420/223 199/421/222
f 191/401/260 192/404/262 201/422/224 200/420/223
f 192/423/262 193/424/264 202/353/225 201/352/224
f 193/424/264 194/425/266 203/354/226 202/353/225
f 194/414/266 195/413/268 204/426/227 203/427/226
f 195/413/268 188/416/256 196/428/219 204/426/227
s 9
f 205/429/269 206/430/270 214/431/271 213/432/272
f 206/430/270 207/433/273 215/434/274 214/431/271
f 207/435/273 208/436/275 216/437/276 215/438/274
f 208/436/275 209/439/277 217/440/278 216/437/276
f 209/441/277 210/442/279 218/443/280 217/444/278
f 210/442/279 211/445/281 219/446/282 218/443/280
f 211/447/281 212/448/283 220/449/284 219/450/282
f 212/448/283 205/451/269 213/452/272 220/449/284
s 10
f 246/453/285 247/454/286 248/455/287
f 247/454/286 249/456/288 248/455/287
f 249/456/288 250/457/289 248/455/287
f 250/457/289 251/458/290 248/455/287
f 251/458/290 252/459/291 248/455/287
f 252/459/291 253/460/292 248/455/287
f 253/460/292 254/461/293 248/455/287
f 254/461/293 246/453/285 248/455/287
s 9
f 206/462/270 205/463/269 221/464/294 222/465/295
f 207/466/273 206/462/270 222/465/295 223/467/296
f 208/436/275 207/435/273 223/468/296 224/469/297
f 209/439/277 208/436/275 224/469/297 225/470/298
f 210/471/279 209/472/277 225/473/298 226/474/299
f 211/475/281 210/471/279 226/474/299 227/476/300
f 212/448/283 211/447/281 227/477/300 228/478/301
f 205/451/269 212/448/283 228/478/301 221/479/294
f 222/465/295 221/464/294 229/480/302
f 223/467/296 222/465/295 229/480/302
f 224/481/297 223/467/296 229/480/302
f 225/473/298 224/481/297 229/480/302
f 226/474/299 225/473/298 229/480/302
f 227/476/300 226/474/299 229/480/302
f 228/482/301 227/476/300 229/480/302
f 221/464/294 228/482/301 229/480/302
s 11
f 213/483/303 214/484/304 231/485/305 230/486/306
f 214/484/304 215/487/307 232/488/308 231/485/305
f 215/487/307 216/489/309 233/490/310 232/488/308
f 216/489/309 217/491/311 234/492/312 233/490/310
f 217/491/311 218/493/313 235/494/314 234/492/312
f 218/493/313 219/495/315 236/496/316 235/494/314
f 219/495/315 220/497/317 237/498/318 236/496/316
f 220/497/317 213/483/303 230/486/306 237/498/318
s 10
f 230/499/319 231/500/320 239/501/321 238/502/322
f 231/500/320 232/503/323 240/504/324 239/501/321
f 232/505/323 233/506/325 241/507/326 240/508/324
f 233/506/325 234/509/327 242/510/328 241/507/326
f 234/511/327 235/512/329 243/513/330 242/514/328
f 235/512/329 236/515/331 244/516/332 243/513/330
f 236/517/331 237/518/333 245/519/334 244/520/332
f 237/518/333 230/521/319 238/522/322 245/519/334
f 238/523/322 239/524/321 247/454/286 246/453/285
f 239/524/321 240/525/324 249/456/288 247/454/286
f 240/508/324 241/507/326 250/526/289 249/527/288
f 241/507/326 242/510/328 251/528/290 250/526/289
f 242/529/328 243/530/330 252/459/291 251/458/290
f 243/530/330 244/531/332 253/460/292 252/459/291
f 244/520/332 245/519/334 254/532/293 253/533/292
f 245/519/334 238/522/322 246/534/285 254/532/293
s 13
f 255/535/335 256/536/336 264/537/337 263/538/338
f 256/536/336 257/539/339 265/540/340 264/537/337
f 257/541/339 258/542/341 266/543/342 265/544/340
f 258/542/341 259/545/343 267/546/344 266/543/342
f 259/547/343 260/548/345 268/549/346 267/550/344
f 260/548/345 261/551/347 269/552/348 268/549/346
f 261/553/347 262/554/349 270/555/350 269/556/348
f 262/554/349 255/557/335 263/558/338 270/555/350
s 14
f 296/559/351 297/560/352 298/561/353
f 297/560/352 299/562/354 298/561/353
f 299/562/354 300/563/355 298/561/353
f 300/563/355 301/564/356 298/561/353
f 301/564/356 302/565/357 298/561/353
f 302/565/357 303/566/358 298/561/353
f 303/566/358 304/567/359 298/561/353
f 304/567/359 296/559/351 298/561/353
s 13
f 256/568/336 255/569/335 271/570/360 272/571/361
f 257/572/339 256/568/336 272/571/361 273/573/362
f 258/542/341 257/541/339 273/574/362 274/575/363
f 259/545/343 258/542/341 274/575/363 275/576/364
f 260/577/345 259/578/343 275/579/364 276/580/365
f 261/581/347 260/577/345 276/580/365 277/582/366
f 262/554/349 261/553/347 277/583/366 278/584/367
f 255/557/335 262/554/349 278/584/367 271/585/360
f 272/571/361 271/570/360 279/586/368
f 273/573/362 272/571/361 279/586/368
f 274/587/363 273/573/362 279/586/368
f 275/579/364 274/587/363 279/586/368
f 276/580/365 275/579/364 279/586/368
f 277/582/366 276/580/365 279/586/368
f 278/588/367 277/582/366 279/586/368
f 271/570/360 278/588/367 279/586/368
s 15
f 263/589/369 264/590/370 281/591/371 280/592/372
f 264/590/370 265/593/373 282/594/374 281/591/371
f 265/593/373 266/595/375 283/596/376 282/594/374
f 266/595/375 267/597/377 284/598/378 283/596/376
f 267/597/377 268/599/379 285/600/380 284/598/378
f 268/599/379 269/601/381 286/602/382 285/600/380
f 269/601/381 270/603/383 287/604/384 286/602/382
f 270/603/383 263/589/369 280/592/372 287/604/384
s 14
f 280/605/385 281/606/386 289/607/387 288/608/388
f 281/606/386 282/609/389 290/610/390 289/607/387
f 282/611/389 283/612/391 291/613/392 290/614/390
f 283/612/391 284/615/393 292/616/394 291/613/392
f 284/617/393 285/618/395 293/619/396 292/620/394
f 285/618/395 286/621/397 294/622/398 293/619/396
f 286/623/397 287/624/399 295/625/400 294/626/398
f 287/624/399 280/627/385 288/628/388 295/625/400
f 288/629/388 289/630/387 297/560/352 296/559/351
f 289/630/387 290/631/390 299/562/354 297/560/352
f 290/614/390 291/613/392 300/632/355 299/633/354
f 291/613/392 292/616/394 301/634/356 300/632/355
f 292/635/394 293/636/396 302/565/357 301/564/356
f 293/636/396 294/637/398 303/566/358 302/565/357
f 294/626/398 295/625/400 304/638/359 303/639/358
f 295/625/400 288/628/388 296/640/351 304/638/359
g default
v -0.250000 0.850208 0.050000
v 0.250000 0.850208 0.050000
v -0.250000 0.860208 0.050000
v 0.250000 0.860208 0.050000
v -0.250000 0.860208 -0.050000
v 0.250000 0.860208 -0.050000
v -0.250000 0.850208 -0.050000
v 0.250000 0.850208 -0.050000
v 0.209272 0.850208 0.050000
v 0.209272 0.860208 0.050000
v 0.209272 0.860208 -0.050000
v 0.209272 0.850208 -0.050000
v 0.104636 0.850208 0.050000
v 0.104636 0.860208 0.050000
v 0.104636 0.860208 -0.050000
v 0.104636 0.850208 -0.050000
v -0.000000 0.850208 0.050000
v -0.000000 0.860208 0.050000
v -0.000000 0.860208 -0.050000
v -0.000000 0.850208 -0.050000
v -0.104636 0.850208 0.050000
v -0.104636 0.860208 0.050000
v -0.104636 0.860208 -0.050000
v -0.104636 0.850208 -0.050000
v -0.209272 0.850208 0.050000
v -0.209272 0.860208 0.050000
v -0.209272 0.860208 -0.050000
v -0.209272 0.850208 -0.050000
v -0.240000 0.860208 0.040000
v -0.219272 0.860208 0.040000
v -0.219272 0.860208 -0.040000
v -0.240000 0.860208 -0.040000
v 0.219272 0.860208 0.040000
v 0.219272 0.860208 -0.040000
v 0.240000 0.860208 0.040000
v 0.240000 0.860208 -0.040000
v -0.240000 1.059952 0.040000
v -0.219272 1.059952 0.040000
v -0.219272 1.059952 -0.040000
v -0.240000 1.059952 -0.040000
v 0.219272 1.059696 0.040000
v 0.219272 1.059696 -0.040000
v 0.240000 1.059696 0.040000
v 0.240000 1.059696 -0.040000
v 0.250000 1.069696 0.050000
v -0.250000 1.069696 0.050000
v 0.250000 1.059696 0.050000
v -0.250000 1.059696 0.050000
v 0.250000 1.059696 -0.050000
v -0.250000 1.059696 -0.050000
v 0.250000 1.069696 -0.050000
v -0.250000 1.069696 -0.050000
v -0.209272 1.069696 0.050000
v -0.209272 1.059696 0.050000
v -0.209272 1.059696 -0.050000
v -0.209272 1.069696 -0.050000
v -0.104636 1.069696 0.050000
v -0.104636 1.059696 0.050000
v -0.104636 1.059696 -0.050000
v -0.104636 1.069696 -0.050000
v 0.000000 1.069696 0.050000
v 0.000000 1.059696 0.050000
v 0.000000 1.059696 -0.050000
v 0.000000 1.069696 -0.050000
v 0.104636 1.069696 0.050000
v 0.104636 1.059696 0.050000
v 0.104636 1.059696 -0.050000
v 0.104636 1.069696 -0.050000
v 0.209272 1.069696 0.050000
v 0.209272 1.059696 0.050000
v 0.209272 1.059696 -0.050000
v 0.209272 1.069696 -0.050000
v -0.130287 1.059696 0.026546
v -0.130408 1.059696 -0.026667
v -0.183500 1.059696 0.026667
v -0.183621 1.059696 -0.026546
v -0.130287 1.069696 -0.026546
v -0.130408 1.069696 0.026667
v -0.183500 1.069696 -0.026667
v -0.183621 1.069696 0.026546
v -0.025651 1.059696 0.026546
v -0.025772 1.059696 -0.026667
v -0.078864 1.059696 0.026667
v -0.078985 1.059696 -0.026546
v -0.025651 1.069696 -0.026546
v -0.025772 1.069696 0.026667
v -0.078864 1.069696 -0.026667
v -0.078985 1.069696 0.026546
v 0.078985 1.059696 0.026546
v 0.078864 1.059696 -0.026667
v 0.025772 1.059696 0.026667
v 0.025651 1.059696 -0.026546
v 0.078985 1.069696 -0.026546
v 0.078864 1.069696 0.026667
v 0.025772 1.069696 -0.026667
v 0.025651 1.069696 0.026546
v 0.183621 1.059696 0.026546
v 0.183500 1.059696 -0.026667
v 0.130408 1.059696 0.026667
v 0.130287 1.059696 -0.026546
v 0.183621 1.069696 -0.026546
v 0.183500 1.069696 0.026667
v 0.130408 1.069696 -0.026667
v 0.130287 1.069696 0.026546
v 0.052232 1.069696 0.037627
v 0.052318 1.069696 0.050000
v 0.052318 1.059696 0.050000
v 0.052403 1.059696 0.037627
v 0.156868 1.069696 0.037627
v 0.156954 1.069696 0.050000
v 0.156954 1.059696 0.050000
v 0.157039 1.059696 0.037627
v 0.157039 1.069696 -0.037627
v 0.156868 1.059696 -0.037627
v 0.156954 1.059696 -0.050000
v 0.156954 1.069696 -0.050000
v 0.119327 1.069696 -0.000085
v 0.119327 1.059696 0.000085
v 0.104636 1.059696 0.000000
v 0.089945 1.059696 -0.000085
v 0.089945 1.069696 0.000085
v 0.104636 1.069696 0.000000
v 0.209272 1.069696 0.000000
v 0.250000 1.069696 0.000000
v 0.250000 1.059696 0.000000
v 0.240000 1.059696 0.000000
v 0.240000 0.860208 0.000000
v 0.250000 0.860208 0.000000
v 0.250000 0.850208 0.000000
v 0.209272 0.850208 0.000000
v 0.104636 0.850208 0.000000
v -0.000000 0.850208 0.000000
v -0.104636 0.850208 0.000000
v -0.209272 0.850208 0.000000
v -0.250000 0.850208 0.000000
v -0.250000 0.860208 0.000000
v -0.240000 0.860208 0.000000
v -0.240000 1.059952 0.000000
v -0.250000 1.059696 0.000000
v -0.250000 1.069696 0.000000
v -0.209272 1.069696 0.000000
v -0.194581 1.069696 -0.000085
v -0.194581 1.059696 0.000085
v -0.209272 1.059696 0.000000
v -0.219272 1.059952 0.000000
v -0.219272 0.860208 0.000000
v -0.209272 0.860208 0.000000
v -0.104636 0.860208 0.000000
v -0.000000 0.860208 0.000000
v 0.104636 0.860208 0.000000
v 0.209272 0.860208 0.000000
v 0.219272 0.860208 0.000000
v 0.219272 1.059696 0.000000
v 0.209272 1.059696 0.000000
v 0.194581 1.059696 -0.000085
v 0.194581 1.069696 0.000085
v 0.014691 1.069696 -0.000085
v 0.014691 1.059696 0.000085
v 0.000000 1.059696 0.000000
v -0.014691 1.059696 -0.000085
v -0.014691 1.069696 0.000085
v 0.000000 1.069696 0.000000
v -0.089945 1.069696 -0.000085
v -0.089945 1.059696 0.000085
v -0.104636 1.059696 0.000000
v -0.119327 1.059696 -0.000085
v -0.119327 1.069696 0.000085
v -0.104636 1.069696 0.000000
v -0.052232 1.069696 -0.037627
v -0.052403 1.059696 -0.037627
v -0.052318 1.059696 -0.050000
v -0.052318 1.069696 -0.050000
v 0.052403 1.069696 -0.037627
v 0.052232 1.059696 -0.037627
v 0.052318 1.059696 -0.050000
v 0.052318 1.069696 -0.050000
v -0.052403 1.069696 0.037627
v -0.052318 1.069696 0.050000
v -0.052318 1.059696 0.050000
v -0.052232 1.059696 0.037627
v -0.157039 1.069696 0.037627
v -0.156954 1.069696 0.050000
v -0.156954 1.059696 0.050000
v -0.156868 1.059696 0.037627
v -0.156868 1.069696 -0.037627
v -0.157039 1.059696 -0.037627
v -0.156954 1.059696 -0.050000
v -0.156954 1.069696 -0.050000
vt 0.165065 0.896995
vt 0.165065 0.870564
vt 0.170351 0.870564
vt 0.170351 0.896995
vt 0.165065 0.923427
vt 0.170351 0.923427
vt 0.184480 0.923519
vt 0.184480 0.897087
vt 0.189766 0.897087
vt 0.189766 0.923519
vt 0.184480 0.870656
vt 0.189766 0.870656
vt 0.390067 0.712992
vt 0.411212 0.712992
vt 0.411212 0.818583
vt 0.390067 0.818583
vt 0.368921 0.712992
vt 0.368921 0.818583
vt 0.240783 0.735943
vt 0.261928 0.735943
vt 0.261928 0.841533
vt 0.240783 0.841533
vt 0.283073 0.735943
vt 0.283073 0.841533
vt 0.745567 0.805147
vt 0.766712 0.805147
vt 0.766712 0.910602
vt 0.745567 0.910602
vt 0.787857 0.805147
vt 0.787857 0.910602
vt 0.815249 0.806082
vt 0.836394 0.806082
vt 0.836394 0.911537
vt 0.815249 0.911537
vt 0.794104 0.806082
vt 0.794104 0.911537
vt 0.180059 0.897777
vt 0.180059 0.924208
vt 0.174772 0.924208
vt 0.174772 0.897777
vt 0.180059 0.871346
vt 0.174772 0.871346
vt 0.199474 0.871437
vt 0.199474 0.897869
vt 0.194187 0.897869
vt 0.194187 0.871437
vt 0.199474 0.924300
vt 0.194187 0.924300
vt 0.986309 0.918219
vt 0.986309 0.904167
vt 0.991596 0.904077
vt 0.991596 0.918155
vt 0.986309 0.890089
vt 0.991596 0.890025
vt 0.382512 0.929625
vt 0.382512 0.915547
vt 0.387798 0.915483
vt 0.387798 0.929535
vt 0.382512 0.943677
vt 0.387798 0.943613
vt 0.768865 0.946319
vt 0.768865 0.932267
vt 0.774151 0.932177
vt 0.774151 0.946255
vt 0.768865 0.918189
vt 0.774151 0.918125
vt 0.792162 0.932267
vt 0.792162 0.918189
vt 0.797449 0.918125
vt 0.797449 0.932177
vt 0.792162 0.946319
vt 0.797449 0.946255
vt 0.671791 0.946319
vt 0.671791 0.932268
vt 0.677077 0.932177
vt 0.677077 0.946255
vt 0.671791 0.918189
vt 0.677077 0.918125
vt 0.512590 0.937345
vt 0.512590 0.923267
vt 0.517877 0.923203
vt 0.517877 0.937255
vt 0.512590 0.951397
vt 0.517877 0.951333
vt 0.299028 0.954039
vt 0.299028 0.939987
vt 0.304314 0.939897
vt 0.304314 0.953975
vt 0.299028 0.925909
vt 0.304314 0.925845
vt 0.695089 0.939988
vt 0.695089 0.925909
vt 0.700375 0.925846
vt 0.700375 0.939897
vt 0.695089 0.954039
vt 0.700375 0.953975
vt 0.021395 0.268663
vt 0.021395 0.247133
vt 0.047826 0.247133
vt 0.047826 0.268663
vt 0.021395 0.191819
vt 0.047826 0.191819
vt 0.074257 0.247133
vt 0.074257 0.268663
vt 0.021395 0.136506
vt 0.047826 0.136506
vt 0.074257 0.191819
vt 0.021395 0.081192
vt 0.047826 0.081192
vt 0.074257 0.136506
vt 0.021395 0.025879
vt 0.047826 0.025879
vt 0.074257 0.081192
vt 0.021395 0.004349
vt 0.047826 0.004349
vt 0.074257 0.025879
vt 0.074257 0.004349
vt 0.134444 0.081192
vt 0.108012 0.081192
vt 0.108012 0.025879
vt 0.134444 0.025879
vt 0.134444 0.136506
vt 0.108012 0.136506
vt 0.081581 0.081192
vt 0.081581 0.025879
vt 0.108012 0.020593
vt 0.129157 0.020593
vt 0.134444 0.191819
vt 0.108012 0.191819
vt 0.081581 0.136506
vt 0.086867 0.020593
vt 0.134444 0.004349
vt 0.129157 0.009635
vt 0.134444 0.247133
vt 0.108012 0.247133
vt 0.081581 0.191819
vt 0.081581 0.004349
vt 0.086867 0.009635
vt 0.108012 0.004349
vt 0.108012 0.009635
vt 0.129157 0.252419
vt 0.108012 0.252419
vt 0.081581 0.247133
vt 0.134444 0.268663
vt 0.129157 0.263377
vt 0.086867 0.252419
vt 0.108012 0.268663
vt 0.108012 0.263377
vt 0.081581 0.268663
vt 0.086867 0.263377
vt 0.212103 0.004349
vt 0.212103 0.025879
vt 0.185672 0.025879
vt 0.185672 0.004349
vt 0.185627 0.033645
vt 0.199705 0.039439
vt 0.159240 0.025879
vt 0.159240 0.004349
vt 0.171575 0.039503
vt 0.212103 0.053536
vt 0.205563 0.053490
vt 0.159240 0.053536
vt 0.165781 0.053581
vt 0.212103 0.081192
vt 0.199769 0.067569
vt 0.159240 0.081192
vt 0.171639 0.067633
vt 0.185672 0.081192
vt 0.185717 0.073427
vt 0.199705 0.094752
vt 0.185627 0.088958
vt 0.171575 0.094816
vt 0.212103 0.108849
vt 0.205563 0.108804
vt 0.159240 0.108849
vt 0.165781 0.108894
vt 0.212103 0.136506
vt 0.199769 0.122882
vt 0.159240 0.136506
vt 0.171639 0.122946
vt 0.185672 0.136506
vt 0.185717 0.128740
vt 0.199705 0.150066
vt 0.185627 0.144272
vt 0.171575 0.150130
vt 0.212103 0.164163
vt 0.205563 0.164117
vt 0.159240 0.164163
vt 0.165781 0.164208
vt 0.212103 0.191819
vt 0.199769 0.178196
vt 0.159240 0.191819
vt 0.171639 0.178260
vt 0.185672 0.191819
vt 0.185717 0.184053
vt 0.199705 0.205379
vt 0.185627 0.199585
vt 0.171575 0.205443
vt 0.212103 0.219476
vt 0.205563 0.219431
vt 0.159240 0.219476
vt 0.165781 0.219521
vt 0.212103 0.247133
vt 0.199769 0.233509
vt 0.159240 0.247133
vt 0.171639 0.233573
vt 0.185672 0.247133
vt 0.185717 0.239367
vt 0.212103 0.268663
vt 0.185672 0.268663
vt 0.159240 0.268663
vt 0.270348 0.004349
vt 0.270348 0.025879
vt 0.265062 0.020593
vt 0.265062 0.009635
vt 0.243917 0.025879
vt 0.243917 0.020593
vt 0.243917 0.009635
vt 0.243917 0.004349
vt 0.243871 0.033645
vt 0.257950 0.039439
vt 0.217485 0.025879
vt 0.222772 0.020593
vt 0.217485 0.004349
vt 0.222772 0.009635
vt 0.229820 0.039503
vt 0.270348 0.053536
vt 0.263808 0.053490
vt 0.217485 0.053536
vt 0.224026 0.053581
vt 0.270348 0.081192
vt 0.258014 0.067569
vt 0.217485 0.081192
vt 0.229884 0.067633
vt 0.243917 0.081192
vt 0.243962 0.073427
vt 0.243871 0.088958
vt 0.257950 0.094752
vt 0.229820 0.094816
vt 0.270348 0.108849
vt 0.263808 0.108804
vt 0.217485 0.108849
vt 0.224026 0.108894
vt 0.270348 0.136506
vt 0.258014 0.122882
vt 0.217485 0.136506
vt 0.229884 0.122946
vt 0.243917 0.136506
vt 0.243962 0.128740
vt 0.243871 0.144272
vt 0.257950 0.150066
vt 0.229820 0.150130
vt 0.270348 0.164163
vt 0.263808 0.164117
vt 0.217485 0.164163
vt 0.224026 0.164208
vt 0.270348 0.191819
vt 0.258014 0.178196
vt 0.217485 0.191819
vt 0.229884 0.178260
vt 0.243917 0.191819
vt 0.243962 0.184053
vt 0.243871 0.199585
vt 0.257950 0.205379
vt 0.229820 0.205443
vt 0.270348 0.219476
vt 0.263808 0.219431
vt 0.217485 0.219476
vt 0.224026 0.219521
vt 0.270348 0.247133
vt 0.258014 0.233509
vt 0.217485 0.247133
vt 0.229884 0.233573
vt 0.243917 0.247133
vt 0.243962 0.239367
vt 0.243917 0.252419
vt 0.265062 0.252419
vt 0.222772 0.252419
vt 0.270348 0.268663
vt 0.265062 0.263377
vt 0.217485 0.268663
vt 0.222772 0.263377
vt 0.243917 0.268663
vt 0.243917 0.263377
vt 0.001980 0.268663
vt 0.001980 0.247133
vt 0.007266 0.247133
vt 0.007266 0.268663
vt 0.001980 0.191819
vt 0.007266 0.191819
vt 0.001980 0.136506
vt 0.007266 0.136506
vt 0.001980 0.081192
vt 0.007266 0.081192
vt 0.001980 0.025879
vt 0.007266 0.025879
vt 0.001980 0.004349
vt 0.007266 0.004349
vt 0.011687 0.268663
vt 0.011687 0.247133
vt 0.016974 0.247133
vt 0.016974 0.268663
vt 0.011687 0.191819
vt 0.016974 0.191819
vt 0.011687 0.136506
vt 0.016974 0.136506
vt 0.011687 0.081192
vt 0.016974 0.081192
vt 0.011687 0.025879
vt 0.016974 0.025879
vt 0.011687 0.004349
vt 0.016974 0.004349
vt 0.747508 0.687753
vt 0.758466 0.687753
vt 0.758466 0.793343
vt 0.747508 0.793343
vt 0.739051 0.801109
vt 0.728094 0.801109
vt 0.728094 0.695519
vt 0.739051 0.695519
vt 0.287379 0.735946
vt 0.298336 0.735946
vt 0.298336 0.841401
vt 0.287379 0.841401
vt 0.428416 0.895200
vt 0.417458 0.895200
vt 0.417458 0.789746
vt 0.428416 0.789746
vt 0.145112 0.004349
vt 0.145112 0.025879
vt 0.139826 0.025879
vt 0.139826 0.004349
vt 0.145112 0.053536
vt 0.139826 0.053536
vt 0.145112 0.081192
vt 0.139826 0.081192
vt 0.145112 0.108849
vt 0.139826 0.108849
vt 0.145112 0.136506
vt 0.139826 0.136506
vt 0.145112 0.164163
vt 0.139826 0.164163
vt 0.145112 0.191819
vt 0.139826 0.191819
vt 0.145112 0.219476
vt 0.139826 0.219476
vt 0.145112 0.247133
vt 0.139826 0.247133
vt 0.145112 0.268663
vt 0.139826 0.268663
vt 0.154819 0.004349
vt 0.154819 0.025879
vt 0.149533 0.025879
vt 0.149533 0.004349
vt 0.154819 0.053536
vt 0.149533 0.053536
vt 0.154819 0.081192
vt 0.149533 0.081192
vt 0.154819 0.108849
vt 0.149533 0.108849
vt 0.154819 0.136506
vt 0.149533 0.136506
vt 0.154819 0.164163
vt 0.149533 0.164163
vt 0.154819 0.191819
vt 0.149533 0.191819
vt 0.154819 0.219476
vt 0.149533 0.219476
vt 0.154819 0.247133
vt 0.149533 0.247133
vt 0.154819 0.268663
vt 0.149533 0.268663
vt 0.665428 0.913588
vt 0.665428 0.927640
vt 0.660142 0.927730
vt 0.660142 0.913652
vt 0.665428 0.941718
vt 0.660142 0.941782
vt 0.289320 0.930326
vt 0.289320 0.916247
vt 0.294607 0.916183
vt 0.294607 0.930235
vt 0.289320 0.944377
vt 0.294607 0.944313
vt 0.785800 0.918125
vt 0.785800 0.932177
vt 0.780513 0.932267
vt 0.780513 0.918189
vt 0.785800 0.946255
vt 0.780513 0.946319
vt 0.803811 0.932267
vt 0.803811 0.918189
vt 0.809097 0.918125
vt 0.809097 0.932177
vt 0.803811 0.946319
vt 0.809098 0.946255
vt 0.506228 0.921445
vt 0.506228 0.935497
vt 0.500942 0.935587
vt 0.500942 0.921509
vt 0.506228 0.949575
vt 0.500942 0.949639
vt 0.683440 0.938046
vt 0.683440 0.923968
vt 0.688726 0.923904
vt 0.688726 0.937956
vt 0.683440 0.952098
vt 0.688726 0.952034
vt 0.374208 0.925845
vt 0.374208 0.939897
vt 0.368921 0.939987
vt 0.368921 0.925909
vt 0.374208 0.953975
vt 0.368921 0.954039
vt 0.980485 0.939988
vt 0.980485 0.925910
vt 0.985771 0.925846
vt 0.985771 0.939897
vt 0.980485 0.954039
vt 0.985771 0.953975
vn 0.000000 0.000000 1.000000
vn 0.000000 0.000000 1.000000
vn 0.000000 0.000000 1.000000
vn 0.000000 0.000000 1.000000
vn 0.000000 0.000000 -1.000000
vn 0.000000 0.000000 -1.000000
vn 0.000000 0.000000 -1.000000
vn 0.000000 0.000000 -1.000000
vn 0.000000 -1.000000 0.000000
vn 0.000000 -1.000000 0.000000
vn 0.000000 -1.000000 0.000000
vn 0.000000 -1.000000 0.000000
vn 1.000000 0.000000 0.000000
vn 1.000000 0.000000 0.000000
vn 1.000000 0.000000 0.000000
vn 1.000000 0.000000 0.000000
vn -1.000000 0.000000 0.000000
vn -1.000000 0.000000 0.000000
vn -1.000000 0.000000 0.000000
vn -1.000000 0.000000 0.000000
vn 0.000000 0.000000 1.000000
vn 0.000000 0.000000 1.000000
vn 0.000000 0.000000 1.000000
vn 0.000000 0.000000 1.000000
vn 0.000000 0.000000 -1.000000
vn 0.000000 0.000000 -1.000000
vn 0.000000 0.000000 -1.000000
vn 0.000000 0.000000 -1.000000
vn 0.000000 -1.000000 0.000000
vn 0.000000 -1.000000 0.000000
vn 0.000000 -1.000000 0.000000
vn 0.000000 -1.000000 0.000000
vn 0.000000 0.000000 1.000000
vn 0.000000 0.000000 1.000000
vn 0.000000 1.000000 0.000000
vn 0.000000 1.000000 0.000000
vn 0.000000 1.000000 0.000000
vn 0.000000 1.000000 0.000000
vn 0.000000 0.000000 -1.000000
vn 0.000000 0.000000 -1.000000
vn 0.000000 -1.000000 0.000000
vn 0.000000 -1.000000 0.000000
vn 0.000000 0.000000 1.000000
vn 0.000000 0.000000 1.000000
vn 0.000000 1.000000 0.000000
vn 0.000000 1.000000 0.000000
vn 0.000000 0.000000 -1.000000
vn 0.000000 0.000000 -1.000000
vn 0.000000 -1.000000 0.000000
vn 0.000000 -1.000000 0.000000
vn 0.000000 0.000000 1.000000
vn 0.000000 0.000000 1.000000
vn 0.000000 1.000000 0.000000
vn 0.000000 1.000000 0.000000
vn 0.000000 0.000000 -1.000000
vn 0.000000 0.000000 -1.000000
vn 0.000000 -1.000000 0.000000
vn 0.000000 -1.000000 0.000000
vn 0.000000 1.000000 0.000000
vn 0.000000 1.000000 0.000000
vn 0.000000 1.000000 -0.000001
vn 0.000000 1.000000 -0.000000
vn 0.000000 1.000000 -0.000001
vn 0.000000 1.000000 -0.000001
vn 0.000000 1.000000 0.000001
vn 0.000000 1.000000 0.000000
vn 0.000000 1.000000 0.000001
vn 0.000000 1.000000 0.000001
vn 0.000000 1.000000 0.000000
vn 0.000000 1.000000 0.000000
vn 0.000000 1.000000 0.000000
vn 0.000000 1.000000 0.000001
vn 0.000000 1.000000 -0.000000
vn 0.000000 1.000000 -0.000001
vn 0.000000 1.000000 -0.000001
vn 0.000000 1.000000 -0.000001
vn 0.000000 1.000000 0.000000
vn 0.000000 1.000000 0.000001
vn 0.000000 1.000000 0.000001
vn 0.000000 1.000000 0.000000
vn 0.000000 0.000000 1.000000
vn 0.000000 0.000000 1.000000
vn 0.000000 0.000000 1.000000
vn 0.000000 0.000000 1.000000
vn 1.000000 0.000000 0.000000
vn 1.000000 0.000000 0.000000
vn 1.000000 0.000000 0.000000
vn 1.000000 0.000000 0.000000
vn 0.000000 0.000000 -1.000000
vn 0.000000 0.000000 -1.000000
vn 0.000000 0.000000 -1.000000
vn 0.000000 0.000000 -1.000000
vn -1.000000 0.000000 0.000000
vn -1.000000 0.000000 0.000000
vn -1.000000 0.000000 0.000000
vn -1.000000 0.000000 0.000000
vn -1.000000 0.000000 0.000000
vn -1.000000 0.000000 0.000000
vn -1.000000 0.000000 0.000000
vn -1.000000 0.000000 0.000000
vn 0.000000 0.000000 1.000000
vn 0.000000 0.000000 1.000000
vn 0.000000 0.000000 1.000000
vn 0.000000 0.000000 1.000000
vn 1.000000 0.000000 0.000000
vn 1.000000 0.000000 0.000000
vn 1.000000 0.000000 0.000000
vn 1.000000 0.000000 0.000000
vn 0.000000 0.000000 -1.000000
vn 0.000000 0.000000 -1.000000
vn 0.000000 0.000000 -1.000000
vn 0.000000 0.000000 -1.000000
vn 0.000000 0.000000 1.000000
vn 0.000000 0.000000 1.000000
vn 0.000000 0.000000 1.000000
vn 0.000000 0.000000 1.000000
vn 0.000000 0.000000 -1.000000
vn 0.000000 0.000000 -1.000000
vn 0.000000 0.000000 -1.000000
vn 0.000000 0.000000 -1.000000
vn 0.000000 1.000000 0.000000
vn 0.000002 1.000000 -0.000001
vn 0.000002 1.000000 0.000000
vn 0.000000 1.000000 0.000000
vn -1.000000 0.000000 0.000000
vn -1.000000 0.000000 0.000000
vn -1.000000 0.000000 0.000000
vn -1.000000 0.000000 0.000000
vn 1.000000 0.000000 0.000000
vn 1.000000 0.000000 0.000000
vn 1.000000 0.000000 0.000000
vn 1.000000 0.000000 0.000000
vn 0.000000 0.000000 1.000000
vn 0.000000 0.000000 1.000000
vn 0.000000 0.000000 1.000000
vn 0.000000 0.000000 1.000000
vn 0.000000 0.000000 -1.000000
vn 0.000000 0.000000 -1.000000
vn 0.000000 0.000000 -1.000000
vn 0.000000 0.000000 -1.000000
vn -0.000003 1.000000 0.000001
vn -0.000002 1.000000 -0.000002
vn 0.000000 1.000000 0.000000
vn 0.000000 1.000000 0.000000
vn 0.000000 0.000000 1.000000
vn 0.000000 0.000000 1.000000
vn 0.000000 0.000000 1.000000
vn 0.000000 0.000000 1.000000
vn 0.000000 0.000000 -1.000000
vn 0.000000 0.000000 -1.000000
vn 0.000000 0.000000 -1.000000
vn 0.000000 0.000000 -1.000000
vn 0.000000 0.000000 1.000000
vn 0.000000 0.000000 1.000000
vn 0.000000 0.000000 1.000000
vn 0.000000 0.000000 1.000000
vn 0.000000 0.000000 -1.000000
vn 0.000000 0.000000 -1.000000
vn 0.000000 0.000000 -1.000000
vn 0.000000 0.000000 -1.000000
vn 0.000000 0.000000 1.000000
vn 0.000000 0.000000 1.000000
vn 0.000000 0.000000 1.000000
vn 0.000000 0.000000 1.000000
vn 0.000000 0.000000 -1.000000
vn 0.000000 0.000000 -1.000000
vn 0.000000 0.000000 -1.000000
vn 0.000000 0.000000 -1.000000
vn 0.000000 0.000000 1.000000
vn 0.000000 0.000000 1.000000
vn 0.000000 0.000000 -1.000000
vn 0.000000 0.000000 -1.000000
vn 0.000000 -1.000000 -0.000001
vn 0.000000 -1.000000 -0.000000
vn 0.000000 -1.000000 -0.000001
vn 0.000000 -1.000000 -0.000001
vn 0.000000 -1.000000 0.000000
vn 0.000000 -1.000000 -0.000000
vn 0.000000 -1.000000 0.000001
vn 0.000000 -1.000000 0.000000
vn 0.000000 -1.000000 0.000001
vn 0.000000 -1.000000 0.000001
vn 0.000000 -1.000000 0.000000
vn 0.000000 -1.000000 0.000000
vn -0.004851 -0.999983 0.003312
vn -0.008944 -0.999960 0.000000
vn -0.025598 -0.999672 0.000000
vn -0.015213 -0.999830 0.010388
vn -0.004850 -0.999983 -0.003312
vn 0.015213 -0.999830 -0.010388
vn 0.015213 -0.999830 -0.010388
vn -0.015213 -0.999830 -0.010388
vn 0.025598 -0.999672 0.000000
vn 0.015213 -0.999830 0.010388
vn 0.015213 -0.999830 0.010388
vn 0.025598 -0.999672 0.000000
vn 0.000000 -1.000000 0.000000
vn 0.000000 -1.000000 -0.000000
vn 0.000000 -1.000000 -0.000001
vn 0.000000 -1.000000 0.000000
vn 0.000000 -1.000000 -0.000000
vn 0.000000 -1.000000 0.000000
vn 0.000000 -1.000000 0.000000
vn 0.000000 -1.000000 -0.000001
vn 0.000000 -1.000000 -0.000001
vn 0.000000 -1.000000 0.000000
vn 0.000000 -1.000000 -0.000001
vn 0.000000 -1.000000 -0.000001
vn -0.000003 1.000000 -0.000001
vn -0.000001 1.000000 -0.000006
vn 0.000004 1.000000 -0.000003
vn 0.000005 1.000000 -0.000001
vn 0.000000 1.000000 -0.000010
vn 0.000000 1.000000 -0.000010
vn -0.000009 1.000000 0.000002
vn -0.000006 1.000000 -0.000008
vn -0.000000 1.000000 0.000003
vn -0.000002 1.000000 0.000003
vn 0.000003 1.000000 0.000001
vn -0.000000 1.000000 0.000003
vn 0.000000 -1.000000 0.000001
vn 0.000000 -1.000000 0.000001
vn 0.000000 -1.000000 0.000000
vn 0.000000 -1.000000 0.000000
vn 0.000000 -1.000000 0.000000
vn 0.000000 -1.000000 0.000001
vn 0.000000 -1.000000 0.000001
vn 0.000000 -1.000000 0.000000
vn 0.000000 -1.000000 0.000001
vn 0.000000 -1.000000 0.000001
vn 0.000000 -1.000000 -0.000001
vn 0.000000 -1.000000 -0.000001
vn -0.000000 1.000000 0.000000
vn -0.000001 1.000000 -0.000002
vn 0.000001 1.000000 0.000001
vn 0.000002 1.000000 0.000000
vn 0.000001 1.000000 -0.000006
vn 0.000001 1.000000 -0.000006
vn -0.000011 1.000000 -0.000000
vn -0.000005 1.000000 -0.000008
vn 0.000000 1.000000 0.000007
vn 0.000002 1.000000 0.000001
vn 0.000003 1.000000 0.000003
vn 0.000000 1.000000 0.000007
vn 0.000000 -1.000000 0.000000
vn 0.000000 -1.000000 -0.000000
vn 0.000000 -1.000000 -0.000001
vn 0.000000 -1.000000 0.000000
vn 0.000000 -1.000000 -0.000000
vn 0.000000 -1.000000 -0.000001
vn 0.000000 -1.000000 -0.000001
vn 0.000000 -1.000000 -0.000001
vn 0.000000 -1.000000 0.000001
vn 0.000000 -1.000000 0.000001
vn 0.000000 -1.000000 0.000002
vn 0.000000 -1.000000 0.000002
vn 0.000000 1.000000 0.000000
vn -0.000000 1.000000 -0.000005
vn 0.000005 1.000000 -0.000005
vn 0.000005 1.000000 0.000000
vn -0.000000 1.000000 -0.000012
vn -0.000000 1.000000 -0.000012
vn -0.000002 1.000000 0.000001
vn -0.000003 1.000000 -0.000006
vn 0.000000 1.000000 0.000002
vn 0.000000 1.000000 -0.000000
vn 0.000001 1.000000 0.000000
vn 0.000000 1.000000 0.000002
vn 0.000000 -1.000000 0.000000
vn 0.000000 -1.000000 -0.000001
vn 0.000000 -1.000000 0.000000
vn 0.000000 -1.000000 0.000000
vn 0.000000 -1.000000 0.000000
vn 0.000000 -1.000000 0.000000
vn 0.000000 -1.000000 0.000000
vn 0.000000 -1.000000 -0.000001
vn 0.000000 -1.000000 -0.000001
vn 0.000005 1.000000 0.000001
vn 0.000005 1.000000 -0.000004
vn 0.000000 1.000000 -0.000012
vn 0.000000 1.000000 -0.000012
vn -0.000005 1.000000 0.000001
vn -0.000005 1.000000 -0.000007
vn 0.000000 1.000000 -0.000002
vn 0.000000 1.000000 -0.000000
vn 0.000001 1.000000 -0.000001
vn 0.000000 1.000000 -0.000002
vn -0.704152 0.000001 0.710050
vn -0.999991 -0.000000 0.004166
vn -0.999991 -0.000000 -0.004165
vn -0.710042 0.000001 0.704159
vn -0.710047 -0.000001 -0.704154
vn -0.004166 -0.000000 -0.999991
vn 0.004166 -0.000000 -0.999991
vn -0.704156 -0.000001 -0.710045
vn 0.999991 -0.000000 -0.004166
vn 0.710046 -0.000000 0.704155
vn 0.704155 -0.000000 0.710046
vn 0.999991 -0.000000 0.004166
vn 0.004166 0.000000 0.999991
vn -0.004164 0.000000 0.999991
vn -0.704154 -0.000000 0.710047
vn -0.999991 -0.000000 0.004166
vn -0.999991 -0.000000 -0.004165
vn -0.710044 -0.000000 0.704158
vn -0.710043 0.000000 -0.704158
vn -0.004164 0.000000 -0.999991
vn 0.004167 0.000000 -0.999991
vn -0.704152 0.000000 -0.710049
vn 0.999991 0.000000 -0.004166
vn 0.710046 -0.000000 0.704156
vn 0.704156 -0.000000 0.710045
vn 0.999991 0.000000 0.004164
vn 0.004166 -0.000000 0.999991
vn -0.004162 -0.000000 0.999991
vn -0.704153 0.000000 0.710048
vn -0.999991 0.000000 0.004171
vn -0.999991 0.000000 -0.004157
vn -0.710043 0.000000 0.704159
vn -0.710049 -0.000000 -0.704152
vn -0.004165 -0.000000 -0.999991
vn 0.004165 -0.000000 -0.999991
vn -0.704159 -0.000000 -0.710042
vn 0.999991 -0.000000 -0.004166
vn 0.710044 0.000000 0.704158
vn 0.704153 0.000000 0.710049
vn 0.999991 -0.000000 0.004164
vn 0.004163 0.000000 0.999991
vn -0.004168 0.000000 0.999991
vn -0.704153 -0.000002 0.710048
vn -0.999991 0.000000 0.004170
vn -0.999991 0.000000 -0.004158
vn -0.710042 -0.000002 0.704159
vn -0.710047 0.000002 -0.704155
vn -0.004165 0.000000 -0.999991
vn 0.004165 0.000000 -0.999991
vn -0.704158 0.000002 -0.710044
vn 0.999991 0.000000 -0.004160
vn 0.710043 0.000000 0.704159
vn 0.704152 0.000000 0.710049
vn 0.999991 0.000000 0.004171
vn 0.004165 -0.000000 0.999991
vn -0.004165 -0.000000 0.999991
vn 0.000000 1.000000 0.000001
vn 0.000000 -1.000000 -0.000000
vn 0.704154 -0.000000 -0.710048
vn 0.710044 -0.000000 -0.704157
vn -0.000001 1.000000 -0.000001
vn 0.000000 -1.000000 0.000000
vn 0.704156 0.000000 -0.710046
vn 0.710047 0.000000 -0.704155
vn 0.000000 1.000000 0.000000
vn 1.000000 0.000000 0.000000
vn 1.000000 0.000000 0.000000
vn 1.000000 0.000000 0.000000
vn 1.000000 0.000000 0.000000
vn 1.000000 0.000000 0.000000
vn 1.000000 0.000000 0.000000
vn 0.000000 -1.000000 0.000000
vn 0.000000 -1.000000 0.000000
vn 0.000000 -1.000000 0.000000
vn 0.000000 -1.000000 0.000000
vn 0.000000 -1.000000 0.000000
vn 0.000000 -1.000000 0.000000
vn 0.000000 -1.000000 0.000000
vn -1.000000 0.000000 0.000000
vn -1.000000 0.000000 0.000000
vn -1.000000 0.000000 0.000000
vn -1.000000 0.000000 0.000000
vn -1.000000 0.000000 0.000000
vn -1.000000 0.000000 0.000000
vn -0.000001 1.000000 0.000001
vn 0.000000 1.000000 0.000000
vn -0.000004 1.000000 0.000005
vn 0.704154 0.000000 -0.710047
vn 0.710045 0.000000 -0.704156
vn 0.000000 -1.000000 0.000000
vn 1.000000 0.000000 0.000000
vn 1.000000 0.000000 0.000000
vn 0.000000 1.000000 0.000000
vn 0.000000 1.000000 0.000000
vn 0.000000 1.000000 0.000000
vn -1.000000 0.000000 0.000000
vn -1.000000 0.000000 0.000000
vn 0.704154 0.000000 -0.710047
vn 0.710045 0.000000 -0.704157
vn 0.000000 -1.000000 0.000000
vn -0.000006 1.000000 0.000006
s 1
g pCube5
usemtl initialShadingGroup
f 305/925/401 329/926/402 330/927/403 307/928/404
s 2
f 309/939/405 331/940/406 332/941/407 311/942/408
s 3
f 311/737/409 332/738/410 438/739/411 439/740/412
s 4
f 433/641/413 312/642/414 310/643/415 432/644/416
s 5
f 311/647/417 439/648/418 440/649/419 309/650/420
s 1
f 313/935/421 306/937/422 308/938/423 314/936/424
s 2
f 316/950/425 315/949/426 310/951/427 312/952/428
s 3
f 434/752/429 316/751/430 312/754/431 433/755/432
s 1
f 317/933/433 313/935/421 314/936/424 318/934/434
s 9
f 319/758/435 454/759/436 455/760/437 315/761/438
s 2
f 320/948/439 319/947/440 315/949/426 316/950/425
s 3
f 435/749/441 320/748/442 316/751/430 434/752/429
s 1
f 321/931/443 317/933/433 318/934/434 322/932/444
s 9
f 323/762/445 453/763/446 454/759/436 319/758/435
s 2
f 324/946/447 323/945/448 319/947/440 320/948/439
s 3
f 436/746/449 324/745/450 320/748/442 435/749/441
s 1
f 325/929/451 321/931/443 322/932/444 326/930/452
s 9
f 327/768/453 452/769/454 453/763/446 323/762/445
s 2
f 328/944/455 327/943/456 323/945/448 324/946/447
s 3
f 437/742/457 328/741/458 324/745/450 436/746/449
s 1
f 329/926/402 325/929/451 326/930/452 330/927/403
s 9
f 331/774/459 451/775/460 452/769/454 327/768/453
s 2
f 332/941/407 331/940/406 327/943/456 328/944/455
s 3
f 438/739/411 332/738/410 328/741/458 437/742/457
s 9
f 307/789/461 330/783/462 334/786/463 333/790/464
f 451/775/460 331/774/459 335/781/465 450/782/466
f 331/774/459 309/784/467 336/785/468 335/781/465
f 309/784/467 440/787/469 441/788/470 336/785/468
f 315/761/438 455/760/437 456/766/471 338/767/472
f 314/765/473 308/777/474 339/778/475 337/771/476
f 432/779/477 310/772/478 340/773/479 431/780/480
f 310/772/478 315/761/438 338/767/472 340/773/479
s off
f 333/953/481 334/954/482 342/955/483 341/956/484
s 12
f 450/653/485 335/654/486 343/655/487 449/656/488
s off
f 335/957/489 336/958/490 344/959/491 343/960/492
s 13
f 336/659/493 441/660/494 442/661/495 344/662/496
s 14
f 338/665/497 456/666/498 457/667/499 346/668/500
s off
f 337/961/501 339/962/502 347/963/503 345/964/504
s 15
f 431/671/505 340/672/506 348/673/507 430/674/508
s off
f 340/965/509 338/966/510 346/967/511 348/968/512
s 16
f 349/969/513 373/970/514 374/971/515 351/972/516
s 17
f 353/991/517 375/992/518 376/993/519 355/994/520
s 18
f 355/791/521 376/792/522 427/793/523 428/794/524
s 19
f 444/677/525 356/678/526 354/679/527 443/680/528
s 20
f 355/683/529 428/684/530 429/685/531 353/686/532
s 16
f 357/987/533 350/989/534 352/990/535 358/988/536
s 17
f 360/1010/537 359/1009/538 354/1011/539 356/1012/540
s 18
f 445/847/541 360/843/542 356/849/543 444/850/544
s 16
f 361/983/545 486/985/546 487/986/547 362/984/548
s 17
f 364/1006/549 363/1005/550 491/1007/551 492/1008/552
s 16
f 365/979/553 482/981/554 483/982/555 366/980/556
s 17
f 368/1002/557 367/1001/558 475/1003/559 476/1004/560
s 16
f 369/975/561 410/977/562 411/978/563 370/976/564
s 17
f 372/998/565 371/997/566 479/999/567 480/1000/568
s 16
f 373/970/514 414/973/569 415/974/570 374/971/515
s 17
f 376/993/519 375/992/518 419/995/571 420/996/572
s 27
f 351/852/573 374/853/574 345/854/575 347/855/576
f 458/856/577 375/862/578 346/863/579 457/857/580
f 375/862/578 353/864/581 348/865/582 346/863/579
f 353/864/581 429/859/583 430/858/584 348/865/582
f 359/912/585 448/914/586 449/916/587 343/918/588
f 358/910/589 352/919/590 341/920/591 342/917/592
f 443/923/593 354/921/594 344/922/595 442/924/596
f 354/921/594 359/912/585 343/918/588 344/922/595
f 363/899/597 469/901/598 470/903/599 378/905/600
f 362/897/601 487/906/602 488/907/603 377/904/604
f 448/914/586 359/912/585 380/913/605 447/915/606
f 491/908/607 363/899/597 378/905/600 490/909/608
s 18
f 472/834/609 364/830/610 381/836/611 471/837/612
f 364/830/610 492/839/613 489/840/614 381/836/611
f 360/843/542 445/847/541 446/848/615 383/844/616
f 486/841/617 361/832/618 382/838/619 485/842/620
s 27
f 367/886/621 463/888/622 464/890/623 386/892/624
f 366/884/625 483/893/626 484/894/627 385/891/628
f 469/901/598 363/899/597 388/900/629 468/902/630
f 475/895/631 367/886/621 386/892/624 474/896/632
s 18
f 466/821/633 368/817/634 389/823/635 465/824/636
f 368/817/634 476/826/637 473/827/638 389/823/635
f 364/830/610 472/834/609 467/835/639 391/831/640
f 482/828/641 365/819/642 390/825/643 481/829/644
s 27
f 371/873/645 423/875/646 424/877/647 394/879/648
f 370/871/649 411/880/650 412/881/651 393/878/652
f 463/888/622 367/886/621 396/887/653 462/889/654
f 479/882/655 371/873/645 394/879/648 478/883/656
s 18
f 426/808/657 372/804/658 397/810/659 425/811/660
f 372/804/658 480/813/661 477/814/662 397/810/659
f 368/817/634 466/821/633 461/822/663 399/818/664
f 410/815/665 369/806/666 398/812/667 409/816/668
s 27
f 375/862/578 458/856/577 459/860/669 402/866/670
f 374/853/574 415/867/671 416/868/672 401/861/673
f 423/875/646 371/873/645 404/874/674 422/876/675
f 419/869/676 375/862/578 402/866/670 418/870/677
s 18
f 460/795/678 427/793/523 376/792/522 405/796/679
f 376/792/522 420/800/680 417/801/681 405/796/679
f 372/804/658 426/808/657 421/809/682 407/805/683
f 414/802/684 373/797/685 406/799/686 413/803/687
s 41
f 378/689/688 470/690/689 471/691/690 381/692/691
f 377/1013/692 488/1014/693 485/1015/694 382/1016/695
f 447/695/696 380/696/697 383/697/698 446/698/699
f 490/1019/700 378/1020/688 381/1021/691 489/1022/701
s 44
f 386/701/702 464/702/703 465/703/704 389/704/705
f 385/1025/706 484/1026/707 481/1027/708 390/1028/709
f 468/707/710 388/708/711 391/709/712 467/710/713
f 474/1031/714 386/1032/702 389/1033/705 473/1034/715
s 47
f 394/713/716 424/714/717 425/715/718 397/716/719
f 393/1037/720 412/1038/721 409/1039/722 398/1040/723
f 462/719/724 396/720/725 399/721/726 461/722/727
f 478/1043/728 394/1044/716 397/1045/719 477/1046/729
s 50
f 402/725/730 459/726/731 460/727/732 405/728/733
f 401/1049/734 416/1050/735 413/1051/736 406/1052/737
f 422/731/738 404/732/739 407/733/740 421/734/741
f 418/1055/742 402/1056/730 405/1057/733 417/1058/743
s 18
f 365/819/642 410/815/665 409/816/668 400/820/744
s 16
f 411/978/563 410/977/562 365/979/553 366/980/556
s 27
f 412/881/651 411/880/650 366/884/625 395/885/745
s 47
f 409/1039/722 412/1038/721 395/1041/746 400/1042/747
s 18
f 369/806/666 414/802/684 413/803/687 408/807/748
s 16
f 415/974/570 414/973/569 369/975/561 370/976/564
s 27
f 416/868/672 415/867/671 370/871/649 403/872/749
s 50
f 413/1051/736 416/1050/735 403/1053/750 408/1054/751
f 404/1059/739 418/1055/742 417/1058/743 407/1060/740
s 27
f 371/873/645 419/869/676 418/870/677 404/874/674
s 17
f 420/996/572 419/995/571 371/997/566 372/998/565
s 18
f 417/801/681 420/800/680 372/804/658 407/805/683
s 50
f 403/735/750 422/731/738 421/734/741 408/736/751
s 27
f 370/871/649 423/875/646 422/876/675 403/872/749
f 424/877/647 423/875/646 370/871/649 393/878/652
s 47
f 425/715/718 424/714/717 393/717/720 398/718/723
s 18
f 369/806/666 426/808/657 425/811/660 398/812/667
f 421/809/682 426/808/657 369/806/666 408/807/748
f 428/794/524 427/793/523 373/797/685 349/798/752
s 20
f 429/685/531 428/684/530 349/687/753 351/688/754
s 27
f 430/858/584 429/859/583 351/852/573 347/855/576
s 15
f 339/675/755 431/671/505 430/674/508 347/676/756
s 9
f 308/777/474 432/779/477 431/780/480 339/778/475
s 4
f 306/645/757 433/641/413 432/644/416 308/646/758
s 3
f 313/756/759 434/752/429 433/755/432 306/757/760
f 317/753/761 435/749/441 434/752/429 313/756/759
f 321/750/762 436/746/449 435/749/441 317/753/761
f 325/747/763 437/742/457 436/746/449 321/750/762
f 329/743/764 438/739/411 437/742/457 325/747/763
f 439/740/412 438/739/411 329/743/764 305/744/765
s 5
f 440/649/419 439/648/418 305/651/766 307/652/767
s 9
f 441/788/470 440/787/469 307/789/461 333/790/464
s 13
f 442/661/495 441/660/494 333/663/768 341/664/769
s 27
f 352/919/590 443/923/593 442/924/596 341/920/591
s 19
f 350/681/770 444/677/525 443/680/528 352/682/771
s 18
f 357/845/772 445/847/541 444/850/544 350/851/773
f 446/848/615 445/847/541 357/845/772 384/846/774
s 41
f 379/699/775 447/695/696 446/698/699 384/700/776
s 27
f 358/910/589 448/914/586 447/915/606 379/911/777
f 449/916/587 448/914/586 358/910/589 342/917/592
s 12
f 334/657/778 450/653/485 449/656/488 342/658/779
s 9
f 330/783/462 451/775/460 450/782/466 334/786/463
f 452/769/454 451/775/460 330/783/462 326/776/780
f 453/763/446 452/769/454 326/776/780 322/770/781
f 454/759/436 453/763/446 322/770/781 318/764/782
f 455/760/437 454/759/436 318/764/782 314/765/473
f 456/766/471 455/760/437 314/765/473 337/771/476
s 14
f 457/667/499 456/666/498 337/669/783 345/670/784
s 27
f 374/853/574 458/856/577 457/857/580 345/854/575
f 459/860/669 458/856/577 374/853/574 401/861/673
s 50
f 460/727/732 459/726/731 401/729/734 406/730/737
s 18
f 373/797/685 427/793/523 460/795/678 406/799/686
s 47
f 395/723/746 462/719/724 461/722/727 400/724/747
s 27
f 366/884/625 463/888/622 462/889/654 395/885/745
f 464/890/623 463/888/622 366/884/625 385/891/628
s 44
f 465/703/704 464/702/703 385/705/706 390/706/709
s 18
f 365/819/642 466/821/633 465/824/636 390/825/643
f 461/822/663 466/821/633 365/819/642 400/820/744
s 44
f 387/711/785 468/707/710 467/710/713 392/712/786
s 27
f 362/897/601 469/901/598 468/902/630 387/898/787
f 470/903/599 469/901/598 362/897/601 377/904/604
s 41
f 471/691/690 470/690/689 377/693/692 382/694/695
s 18
f 361/832/618 472/834/609 471/837/612 382/838/619
f 467/835/639 472/834/609 361/832/618 392/833/788
s 44
f 388/1035/711 474/1031/714 473/1034/715 391/1036/712
s 27
f 363/899/597 475/895/631 474/896/632 388/900/629
s 17
f 476/1004/560 475/1003/559 363/1005/550 364/1006/549
s 18
f 473/827/638 476/826/637 364/830/610 391/831/640
s 47
f 396/1047/725 478/1043/728 477/1046/729 399/1048/726
s 27
f 367/886/621 479/882/655 478/883/656 396/887/653
s 17
f 480/1000/568 479/999/567 367/1001/558 368/1002/557
s 18
f 477/814/662 480/813/661 368/817/634 399/818/664
f 361/832/618 482/828/641 481/829/644 392/833/788
s 16
f 483/982/555 482/981/554 361/983/545 362/984/548
s 27
f 484/894/627 483/893/626 362/897/601 387/898/787
s 44
f 481/1027/708 484/1026/707 387/1029/785 392/1030/786
s 18
f 357/845/772 486/841/617 485/842/620 384/846/774
s 16
f 487/986/547 486/985/546 357/987/533 358/988/536
s 27
f 488/907/603 487/906/602 358/910/589 379/911/777
s 41
f 485/1015/694 488/1014/693 379/1017/775 384/1018/776
f 380/1023/697 490/1019/700 489/1022/701 383/1024/698
s 27
f 359/912/585 491/908/607 490/909/608 380/913/605
s 17
f 492/1008/552 491/1007/551 359/1009/538 360/1010/537
s 18
f 489/840/614 492/839/613 360/843/542 383/844/616
